<svg height="30" viewBox="0 0 83 30" width="83" xmlns="http://www.w3.org/2000/svg"><path d="m81.5309651 13.4415011h-76.4821077l10.8695163-10.92176119c.5738442-.57612021.5738442-1.51116789 0-2.08728811-.5738442-.5766024-1.503469-.5766024-2.0773034 0l-13.21737686 13.2808969c-.37634714.2672816-.62369344.7058592-.62369344 1.2042482 0 .0075675.00209582.0145937.00221335.0221612-.00017629.0161583.00436793.0314113.00477926.0475696.00681632.1443327.03478674.2820524.07991549.4126279.0264818.0828877.06455919.1576667.10598597.2357423.03711762.0663062.07825059.1290698.12469168.1885958.04136802.0553143.06263965.1202428.1127925.1705777l13.50775605 13.5726817c.2869221.2883012.6627893.4324469 1.0386566.4324469s.7517345-.1441457 1.0386566-.4324469c.5738442-.5766024.5738442-1.5106955 0-2.0872881l-11.0335389-11.0865722h76.5490565c.8110248 0 1.4690349-.6606907 1.4690349-1.4760959 0-.8154051-.6580101-1.4760958-1.4690349-1.4760958z" fill="#fff" transform="matrix(-1 0 0 1 83 0)"/></svg>