<?xml version="1.0" encoding="utf-8"?>
<!-- Generator: Adobe Illustrator 16.0.0, SVG Export Plug-In . SVG Version: 6.00 Build 0)  -->
<!DOCTYPE svg PUBLIC "-//W3C//DTD SVG 1.1//EN" "http://www.w3.org/Graphics/SVG/1.1/DTD/svg11.dtd">
<svg version="1.1" id="Layer_1" xmlns="http://www.w3.org/2000/svg" xmlns:xlink="http://www.w3.org/1999/xlink" x="0px" y="0px"
	 width="256px" height="256px" viewBox="0 0 256 256" enable-background="new 0 0 256 256" xml:space="preserve">
<g>
	<path fill="#3FD5AE" d="M105.315,121.315c5.31-2.671,9.329-5.64,12.065-8.875c4.9-5.794,7.323-13.468,7.323-22.985
		c0-9.254-2.422-17.184-7.254-23.824C109.39,54.821,95.748,49.287,76.448,49H0v156.068h71.289c8.032,0,15.464-0.687,22.343-2.096
		c6.886-1.426,12.823-4.025,17.867-7.841c4.49-3.327,8.216-7.422,11.199-12.28c4.716-7.336,7.063-15.631,7.063-24.886
		c0-8.971-2.062-16.604-6.157-22.872C119.462,128.818,113.382,124.229,105.315,121.315 M31.529,76.1h34.443
		c7.568,0,13.806,0.819,18.706,2.44c5.664,2.341,8.49,7.142,8.49,14.43c0,6.535-2.15,11.11-6.429,13.69
		c-4.3,2.586-9.882,3.88-16.734,3.88H31.529V76.1z M85.975,175.236c-3.808,1.824-9.172,2.746-16.03,2.746H31.529v-41.623h38.954
		c6.776,0.062,12.059,0.953,15.819,2.642c6.729,3.048,10.073,8.616,10.073,16.751C96.375,165.348,92.908,171.82,85.975,175.236"/>
	<rect x="163.576" y="56.278" fill="#3FD5AE" width="67.794" height="19.419"/>
	<path fill="#3FD5AE" d="M245.6,109.083c-5.295-7.78-12.024-13.482-20.201-17.082c-8.162-3.603-17.326-5.415-27.516-5.415
		c-17.145,0-31.064,5.36-41.834,16.01c-10.729,10.67-16.1,26.011-16.1,46.009c0,21.33,5.931,36.74,17.859,46.199
		c11.889,9.479,25.621,14.195,41.2,14.195c18.862,0,33.535-5.613,44.011-16.822c6.717-7.07,10.51-14.031,11.336-20.865h-31.229
		c-1.809,3.389-3.91,6.028-6.312,7.946c-4.34,3.521-10.019,5.289-16.959,5.289c-6.584,0-12.209-1.46-16.869-4.354
		c-7.704-4.646-11.744-12.769-12.258-24.338h85.246c0.129-9.961-0.199-17.625-1.031-22.906
		C253.529,123.905,250.432,115.945,245.6,109.083 M171.484,135.943c1.105-7.51,3.836-13.464,8.148-17.859
		c4.327-4.398,10.441-6.6,18.264-6.6c7.227,0,13.267,2.068,18.166,6.207c4.846,4.18,7.59,10.237,8.147,18.252H171.484
		L171.484,135.943z"/>
</g>
</svg>
