<svg height="160" viewBox="0 0 256 160" width="256" xmlns="http://www.w3.org/2000/svg"><path d="m105.315 72.315c5.31-2.671 9.329-5.64 12.065-8.875 4.9-5.794 7.323-13.468 7.323-22.985 0-9.254-2.422-17.184-7.254-23.824-8.059-10.81-21.701-16.344-41.001-16.631h-76.448v156.068h71.289c8.032 0 15.464-.687 22.343-2.096 6.886-1.426 12.823-4.025 17.867-7.841 4.49-3.327 8.216-7.422 11.199-12.28 4.716-7.336 7.063-15.631 7.063-24.886 0-8.971-2.062-16.604-6.157-22.872-4.142-6.275-10.222-10.864-18.289-13.778m-73.786-45.215h34.443c7.568 0 13.806.819 18.706 2.44 5.664 2.341 8.49 7.142 8.49 14.43 0 6.535-2.15 11.11-6.429 13.69-4.3 2.586-9.882 3.88-16.734 3.88h-38.476zm166.354 10.486c10.19 0 19.354 1.812 27.516 5.415 8.177 3.6 14.906 9.302 20.201 17.082 4.832 6.862 7.929 14.822 9.343 23.866.832 5.281 1.16 12.945 1.031 22.906h-85.246c.514 11.569 4.554 19.692 12.258 24.338 4.66 2.894 10.285 4.354 16.869 4.354 6.94 0 12.619-1.768 16.959-5.289 2.402-1.918 4.503-4.557 6.312-7.946h31.229c-.826 6.834-4.619 13.795-11.336 20.865-10.476 11.209-25.149 16.822-44.011 16.822-15.579 0-29.311-4.716-41.2-14.195-11.928-9.459-17.859-24.869-17.859-46.199 0-19.998 5.371-35.339 16.1-46.009 10.77-10.65 24.689-16.01 41.834-16.01zm-127.4 49.773c6.776.062 12.059.953 15.819 2.642 6.729 3.048 10.073 8.616 10.073 16.751 0 9.596-3.467 16.068-10.4 19.484-3.808 1.824-9.172 2.746-16.03 2.746h-38.416v-41.623zm127.413-24.875c-7.823 0-13.937 2.202-18.264 6.6-4.312 4.395-7.043 10.349-8.148 17.859h52.725c-.557-8.015-3.301-14.072-8.147-18.252-4.899-4.139-10.939-6.207-18.166-6.207zm33.474-55.206v19.419h-67.794v-19.419z" fill="#3fd5ae"/></svg>