<?xml version="1.0" encoding="UTF-8"?>
<svg width="210px" height="210px" viewBox="0 0 210 210" version="1.1" xmlns="http://www.w3.org/2000/svg" xmlns:xlink="http://www.w3.org/1999/xlink">
    <!-- Generator: Sketch 52.4 (67378) - http://www.bohemiancoding.com/sketch -->
    <title>i-dribbble</title>
    <desc>Created with Sketch.</desc>
    <g id="Page-1" stroke="none" stroke-width="1" fill="none" fill-rule="evenodd">
        <g id="i-dribbble" transform="translate(-7.000000, 0.000000)" fill="#3FD5AE">
            <path d="M112,0 C54.0337,0 7,47.0337 7,105 C7,162.9663 54.0337,210 112,210 C169.85248,210 217,162.9663 217,105 C217,47.0337 169.85248,0 112,0 Z M181.3546,48.40017 C193.88173,63.66045 201.39805,83.13459 201.6259,104.20284 C198.6649,103.63332 169.05532,97.59771 139.2181,101.35566 C138.53476,99.87537 137.96524,98.28084 137.28211,96.68652 C135.45994,92.35905 133.40992,87.91755 131.36011,83.7039 C164.38618,70.26579 179.41861,50.90568 181.3546,48.40017 Z M112,15.488067 C134.7766,15.488067 155.61721,24.02925 171.4468,38.03688 C169.85248,40.31454 156.30034,58.422 124.41331,70.37961 C109.72234,43.38936 93.43705,21.2961 90.93175,17.87961 C97.6507,16.285248 104.71153,15.488067 112,15.488067 Z M73.8493,23.91543 C76.24078,27.10407 92.1844,49.31136 107.10301,75.73209 C65.19415,86.89254 28.18228,86.6649 24.196312,86.6652497 C30.00424,58.87749 48.79504,35.75922 73.8493,23.91543 Z M22.260301,105.11382 C22.260301,104.20284 22.260301,103.29186 22.260301,102.38067 C26.132323,102.49449 69.63565,103.06401 114.39148,89.6259 C117.01081,94.63671 119.40229,99.76134 121.67995,104.88618 C120.54112,105.22785 119.28847,105.56952 118.14964,105.91098 C71.91331,120.8298 47.31454,161.59983 45.26473,165.01632 C31.02925,149.18652 22.260301,128.11827 22.260301,105.11382 Z M112,194.73972 C91.27342,194.73972 72.14095,187.67889 56.99449,175.8351 C58.58902,172.53264 76.8103,137.45655 127.3741,119.80479 C127.60195,119.69097 127.71577,119.69097 127.94362,119.57694 C140.58457,152.26134 145.70941,179.70708 147.07588,187.56507 C136.2571,192.23421 124.41331,194.73972 112,194.73972 Z M161.9947,179.36562 C161.08351,173.89911 156.30055,147.70602 144.57058,115.47732 C172.69966,111.03582 197.29822,118.32429 200.37304,119.3493 C196.50106,144.28953 182.15176,165.81348 161.9947,179.36562 Z" id="Shape"></path>
        </g>
    </g>
</svg>