<svg height="210" viewBox="0 0 210 210" width="210" xmlns="http://www.w3.org/2000/svg"><path d="m112 0c-57.9663 0-105 47.0337-105 105s47.0337 105 105 105c57.85248 0 105-47.0337 105-105s-47.14752-105-105-105zm69.3546 48.40017c12.52713 15.26028 20.04345 34.73442 20.2713 55.80267-2.961-.56952-32.57058-6.60513-62.4078-2.84718-.68334-1.48029-1.25286-3.07482-1.93599-4.66914-1.82217-4.32747-3.87219-8.76897-5.922-12.98262 33.02607-13.43811 48.0585-32.79822 49.99449-35.30373zm-69.3546-32.912103c22.7766 0 43.61721 8.541183 59.4468 22.548813-1.59432 2.27766-15.14646 20.38512-47.03349 32.34273-14.69097-26.99025-30.97626-49.08351-33.48156-52.5 6.71895-1.594362 13.77978-2.391543 21.06825-2.391543zm-38.1507 8.427363c2.39148 3.18864 18.3351 25.39593 33.25371 51.81666-41.90886 11.16045-78.92073 10.93281-82.906698 10.9331597 5.807928-27.7877597 24.598728-50.9060297 49.652988-62.7498197zm-51.588999 81.19839c0-.91098 0-1.82196 0-2.73315 3.872022.11382 47.375349.68334 92.131179-12.75477 2.61933 5.01081 5.01081 10.13544 7.28847 15.26028-1.13883.34167-2.39148.68334-3.53031 1.0248-46.23633 14.91882-70.8351 55.68885-72.88491 59.10534-14.23548-15.8298-23.004429-36.89805-23.004429-59.9025zm89.739699 89.6259c-20.72658 0-39.85905-7.06083-55.00551-18.90462 1.59453-3.30246 19.81581-38.37855 70.37961-56.03031.22785-.11382.34167-.11382.56952-.22785 12.64095 32.6844 17.76579 60.13014 19.13226 67.98813-10.81878 4.66914-22.66257 7.17465-35.07588 7.17465zm49.9947-15.3741c-.91119-5.46651-5.69415-31.6596-17.42412-63.8883 28.12908-4.4415 52.72764 2.84697 55.80246 3.87198-3.87198 24.94023-18.22128 46.46418-38.37834 60.01632z" fill="#3fd5ae" fill-rule="evenodd" transform="translate(-7)"/></svg>