<?xml version="1.0" encoding="utf-8"?>
<!-- Generator: Adobe Illustrator 16.0.0, SVG Export Plug-In . SVG Version: 6.00 Build 0)  -->
<!DOCTYPE svg PUBLIC "-//W3C//DTD SVG 1.1//EN" "http://www.w3.org/Graphics/SVG/1.1/DTD/svg11.dtd">
<svg version="1.1" id="Layer_1" xmlns="http://www.w3.org/2000/svg" xmlns:xlink="http://www.w3.org/1999/xlink" x="0px" y="0px"
	 width="100px" height="100px" viewBox="-27.78 0 100 100" style="enable-background:new -27.78 0 100 100;" xml:space="preserve">
<style type="text/css">
<![CDATA[
	.st0{fill:none;stroke:#D9EEE8;}
	.st1{fill:#CCE8E0;}
	.st2{fill:none;stroke:#D9EEE8;stroke-width:2;}
]]>
</style>
<g>
	<circle class="st0" cx="17.22" cy="17.22" r="16.72"/>
	<line class="st2" x1="29.26" y1="29.26" x2="43.72" y2="43.72"/>
	<g>
		<path class="st1" d="M4.32,59.78h9.38v1.6H6.22v4.54h6.56v1.6H6.22v6.54h-1.9V59.78z"/>
		<path class="st1" d="M17.32,61.86h-1.7v-2.08h1.7V61.86z M15.62,63.72h1.7v10.34h-1.7V63.72z"/>
		<path class="st1" d="M19.96,63.72h1.6v1.64h0.04c0.72-1.28,1.88-1.88,3.36-1.88c2.72,0,3.56,1.56,3.56,3.78v6.8h-1.7v-7
			c0-1.26-0.8-2.08-2.1-2.08c-2.06,0-3.06,1.38-3.06,3.24v5.84h-1.7V63.72z"/>
		<path class="st1" d="M40.32,74.06h-1.7v-1.4h-0.04c-0.56,1.14-1.88,1.64-3.3,1.64c-3.18,0-4.76-2.52-4.76-5.44
			c0-2.92,1.56-5.38,4.72-5.38c1.06,0,2.58,0.4,3.34,1.62h0.04v-5.32h1.7V74.06z M35.52,72.8c2.28,0,3.16-1.96,3.16-3.9
			c0-2.04-0.92-3.92-3.26-3.92c-2.32,0-3.1,1.98-3.1,4C32.32,70.92,33.32,72.8,35.52,72.8z"/>
	</g>
</g>
</svg>
