<?xml version="1.0" encoding="utf-8"?>
<!-- Generator: Adobe Illustrator 16.0.0, SVG Export Plug-In . SVG Version: 6.00 Build 0)  -->
<!DOCTYPE svg PUBLIC "-//W3C//DTD SVG 1.1//EN" "http://www.w3.org/Graphics/SVG/1.1/DTD/svg11.dtd">
<svg version="1.1" id="Layer_1" xmlns="http://www.w3.org/2000/svg" xmlns:xlink="http://www.w3.org/1999/xlink" x="0px" y="0px"
	 width="100px" height="100px" viewBox="-23.14 0 100 100" style="enable-background:new -23.14 0 100 100;" xml:space="preserve">
<style type="text/css">
<![CDATA[
	.st0{fill:#B8E0D6;}
	.st1{fill:#CCE8E0;}
]]>
</style>
<g>
	<path class="st0" d="M43.07,42.88H31.94V25.75H21.73v17.14H10.6V18.46L26.83,4.41l16.24,14.02V42.88z M22.61,26.62h8.45v16.27
		h-8.45V26.62z M49.06,19.18l-8.91-7.7V5.12h-3.38v3.44L26.85,0l-0.02,0.02L26.82,0L4.64,19.18l2.39,2.36l2.69-2.32v24.54h12.01
		h10.21h12.01V19.19l2.72,2.35L49.06,19.18z"/>
	<g>
		<path class="st1" d="M1.56,60.16h1.9v6.14h7.52v-6.14h1.9v14.28h-1.9V67.9H3.46v6.54h-1.9V60.16z"/>
		<path class="st1" d="M20.18,63.86c3.28,0,5.02,2.38,5.02,5.42c0,3.02-1.74,5.4-5.02,5.4c-3.28,0-5.02-2.38-5.02-5.4
			C15.16,66.24,16.9,63.86,20.18,63.86z M20.18,73.18c1.78,0,3.22-1.4,3.22-3.9c0-2.52-1.44-3.92-3.22-3.92
			c-1.78,0-3.22,1.4-3.22,3.92C16.96,71.78,18.4,73.18,20.18,73.18z"/>
		<path class="st1" d="M27.2,64.1h1.6v1.52h0.04c0.76-1.16,1.92-1.76,3.34-1.76c1.26,0,2.42,0.5,2.84,1.76
			c0.7-1.1,1.92-1.76,3.24-1.76c2.06,0,3.44,0.86,3.44,3v7.58H40v-6.78c0-1.28-0.34-2.3-2-2.3c-1.64,0-2.7,1.04-2.7,2.64v6.44h-1.7
			v-6.78c0-1.34-0.42-2.3-1.94-2.3c-2.02,0-2.76,1.86-2.76,2.64v6.44h-1.7V64.1z"/>
		<path class="st1" d="M53.08,71.16c-0.46,2.28-2.1,3.52-4.42,3.52c-3.3,0-4.86-2.28-4.96-5.44c0-3.1,2.04-5.38,4.86-5.38
			c3.66,0,4.78,3.42,4.68,5.92H45.5c-0.06,1.8,0.96,3.4,3.22,3.4c1.4,0,2.38-0.68,2.68-2.02H53.08z M51.44,68.28
			c-0.08-1.62-1.3-2.92-2.98-2.92c-1.78,0-2.84,1.34-2.96,2.92H51.44z"/>
	</g>
</g>
</svg>
