<?xml version="1.0" encoding="utf-8"?>
<!-- Generator: Adobe Illustrator 16.0.0, SVG Export Plug-In . SVG Version: 6.00 Build 0)  -->
<!DOCTYPE svg PUBLIC "-//W3C//DTD SVG 1.1//EN" "http://www.w3.org/Graphics/SVG/1.1/DTD/svg11.dtd">
<svg version="1.1" id="Layer_1" xmlns="http://www.w3.org/2000/svg" xmlns:xlink="http://www.w3.org/1999/xlink" x="0px" y="0px"
	 width="100px" height="100px" viewBox="0 0 100 100" enable-background="new 0 0 100 100" xml:space="preserve">
<text transform="matrix(1 0 0 1 -1959.6313 945.6582)"><tspan x="0" y="0" fill="#8E99A8" font-family="'MyriadPro-Regular'" font-size="27">CHRIS</tspan><tspan x="67.553" y="0" fill="#8E99A8" font-family="'MyriadPro-Regular'" font-size="27">T</tspan><tspan x="80.243" y="0" fill="#8E99A8" font-family="'MyriadPro-Regular'" font-size="27">OPHE KEREBEL</tspan></text>
<text transform="matrix(1 0 0 1 -1232.1973 946.4141)"><tspan x="0" y="0" fill="#8E99A8" font-family="'MyriadPro-Regular'" font-size="27">M</tspan><tspan x="21.896" y="0" fill="#8E99A8" font-family="'MyriadPro-Regular'" font-size="27">y</tspan><tspan x="34.613" y="0" fill="#8E99A8" font-family="'MyriadPro-Regular'" font-size="27" letter-spacing="-1"> </tspan><tspan x="39.257" y="0" fill="#8E99A8" font-family="'MyriadPro-Regular'" font-size="27" letter-spacing="-1">T</tspan><tspan x="51.623" y="0" fill="#8E99A8" font-family="'MyriadPro-Regular'" font-size="27">wit</tspan><tspan x="86.749" y="0" fill="#8E99A8" font-family="'MyriadPro-Regular'" font-size="27">t</tspan><tspan x="95.552" y="0" fill="#8E99A8" font-family="'MyriadPro-Regular'" font-size="27">er </tspan></text>
<text transform="matrix(1 0 0 1 -1108.6455 946.4141)"><tspan x="0" y="0" fill="#24A9E6" font-family="'MyriadPro-Regular'" font-size="27">: @ch</tspan><tspan x="58.292" y="0" fill="#24A9E6" font-family="'MyriadPro-Regular'" font-size="27">r</tspan><tspan x="67.202" y="0" fill="#24A9E6" font-family="'MyriadPro-Regular'" font-size="27">iske</tspan><tspan x="110.401" y="0" fill="#24A9E6" font-family="'MyriadPro-Regular'" font-size="27">r</tspan><tspan x="118.96" y="0" fill="#24A9E6" font-family="'MyriadPro-Regular'" font-size="27">e</tspan></text>
<rect x="-2157.063" y="525.554" fill="#8E99A8" width="1372.889" height="332.04"/>
<path fill="#FFFFFF" d="M-1006.646,705.562c-5.095-0.164-8.543,2.655-10.354,8.457c0.929-0.385,1.834-0.568,2.711-0.568
	c1.862,0,2.684,1.024,2.464,3.085c-0.112,1.25-0.93,3.064-2.464,5.451c-1.534,2.383-2.686,3.573-3.45,3.573
	c-0.987,0-1.889-1.84-2.711-5.525c-0.274-1.084-0.771-3.849-1.475-8.297c-0.662-4.119-2.416-6.046-5.261-5.773
	c-1.207,0.113-3.015,1.195-5.421,3.256c-1.756,1.57-3.536,3.145-5.342,4.713l1.724,2.199c1.646-1.142,2.602-1.711,2.875-1.711
	c1.258,0,2.436,1.952,3.534,5.858c0.987,3.571,1.97,7.153,2.96,10.734c1.476,3.904,3.284,5.851,5.418,5.851
	c3.45,0,7.672-3.198,12.655-9.598c4.814-6.121,7.311-10.944,7.47-14.474C-1001.091,708.081-1002.873,705.666-1006.646,705.562"/>
<path fill="#FFFFFF" d="M-1134.722,702.637h-27.947c-2.407,0-4.357,1.946-4.357,4.349v27.967c0,2.401,1.95,4.348,4.357,4.348h27.947
	c2.407,0,4.358-1.946,4.358-4.348v-27.967C-1130.363,704.583-1132.314,702.637-1134.722,702.637 M-1140.675,708.365
	c0-0.632,0.513-1.146,1.146-1.146h3.438c0.632,0,1.145,0.514,1.145,1.146v3.438c0,0.633-0.513,1.146-1.145,1.146h-3.438
	c-0.633,0-1.146-0.513-1.146-1.146V708.365z M-1148.652,713.978c3.894,0,7.051,3.149,7.051,7.033c0,3.886-3.157,7.034-7.051,7.034
	s-7.051-3.148-7.051-7.034C-1155.703,717.127-1152.546,713.978-1148.652,713.978 M-1133.801,734.717
	c0,0.632-0.513,1.146-1.146,1.146h-27.496c-0.633,0-1.146-0.515-1.146-1.146v-17.186h4.583c-0.597,0.858-0.798,2.462-0.798,3.479
	c0,6.136,5.003,11.127,11.152,11.127s11.153-4.991,11.153-11.127c0-1.018-0.145-2.596-0.885-3.479h4.583V734.717z"/>
<path fill="#FFFFFF" d="M-1259.417,705.827c-1.486,0.902-3.129,1.558-4.884,1.909c-1.397-1.53-3.396-2.486-5.607-2.486
	c-4.24,0-7.682,3.528-7.682,7.879c0,0.618,0.066,1.217,0.198,1.794c-6.386-0.329-12.047-3.462-15.839-8.234
	c-0.662,1.168-1.04,2.522-1.04,3.966c0,2.731,1.356,5.144,3.418,6.557c-1.257-0.038-2.444-0.396-3.481-0.981v0.096
	c0,3.819,2.648,7.005,6.167,7.726c-0.645,0.186-1.324,0.277-2.025,0.277c-0.495,0-0.979-0.047-1.447-0.139
	c0.979,3.129,3.815,5.408,7.179,5.469c-2.63,2.114-5.944,3.374-9.544,3.374c-0.619,0-1.232-0.036-1.833-0.108
	c3.4,2.232,7.441,3.537,11.778,3.537c14.136,0,21.863-12.004,21.863-22.417c0-0.343-0.006-0.685-0.021-1.021
	c1.502-1.112,2.807-2.498,3.832-4.078c-1.376,0.626-2.857,1.05-4.412,1.24C-1261.209,709.211-1259.991,707.667-1259.417,705.827"/>
<rect x="-1422.5" y="715.328" fill="#FFFFFF" width="7.189" height="22.782"/>
<path fill="#FFFFFF" d="M-1395.665,715.109c-4.119,0-6.7,2.231-7.177,3.794v-3.575h-8.078c0.104,1.898,0,22.782,0,22.782h8.078
	v-12.328c0-0.685-0.033-1.37,0.175-1.861c0.556-1.37,1.749-2.792,3.894-2.792c2.805,0,4.08,2.106,4.08,5.192v11.789h8.153v-12.668
	C-1386.54,718.387-1390.555,715.109-1395.665,715.109"/>
<path fill="#FFFFFF" d="M-1419.038,704.574c-2.655,0-4.393,1.705-4.393,3.956c0,2.207,1.688,3.949,4.29,3.949h0.053
	c2.703,0,4.386-1.748,4.386-3.956C-1414.754,706.275-1416.385,704.574-1419.038,704.574"/>
<path fill="#FFFFFF" d="M-1537.352,720.042c0.76-0.383,1.335-0.808,1.727-1.271c0.7-0.828,1.047-1.927,1.047-3.288
	c0-1.324-0.347-2.459-1.038-3.409c-1.153-1.547-3.106-2.339-5.867-2.38h-10.94v22.333h10.201c1.15,0,2.214-0.099,3.198-0.301
	c0.985-0.204,1.835-0.575,2.557-1.122c0.642-0.476,1.176-1.062,1.602-1.757c0.675-1.05,1.011-2.236,1.011-3.561
	c0-1.284-0.295-2.376-0.881-3.273C-1535.327,721.115-1536.197,720.458-1537.352,720.042 M-1547.91,713.571h4.929
	c1.083,0,1.975,0.116,2.677,0.349c0.81,0.335,1.215,1.022,1.215,2.065c0,0.935-0.308,1.59-0.92,1.959
	c-0.616,0.37-1.415,0.555-2.395,0.555h-5.506V713.571z M-1540.119,727.757c-0.545,0.261-1.312,0.394-2.294,0.394h-5.497v-5.956
	h5.575c0.969,0.009,1.725,0.136,2.263,0.378c0.963,0.436,1.441,1.232,1.441,2.396
	C-1538.631,726.342-1539.126,727.268-1540.119,727.757"/>
<rect x="-1529.015" y="710.734" fill="#FFFFFF" width="9.701" height="2.778"/>
<path fill="#FFFFFF" d="M-1517.277,718.291c-0.758-1.113-1.721-1.93-2.891-2.444c-1.167-0.516-2.479-0.775-3.937-0.775
	c-2.453,0-4.446,0.768-5.986,2.291c-1.535,1.527-2.304,3.723-2.304,6.584c0,3.053,0.848,5.257,2.556,6.611
	c1.7,1.356,3.666,2.031,5.895,2.031c2.699,0,4.799-0.804,6.298-2.407c0.961-1.012,1.504-2.008,1.622-2.986h-4.469
	c-0.259,0.485-0.56,0.863-0.903,1.138c-0.622,0.504-1.434,0.757-2.427,0.757c-0.943,0-1.747-0.209-2.414-0.623
	c-1.103-0.665-1.68-1.827-1.754-3.483h12.198c0.019-1.425-0.028-2.521-0.147-3.277
	C-1516.142,720.411-1516.586,719.272-1517.277,718.291 M-1527.883,722.135c0.159-1.075,0.549-1.927,1.167-2.557
	c0.619-0.629,1.493-0.943,2.613-0.943c1.034,0,1.898,0.296,2.6,0.888c0.693,0.599,1.085,1.465,1.165,2.612H-1527.883z"/>
<path fill="#FFFFFF" d="M-1645.756,713.829c-0.457-1.087-1.029-2.135-1.691-3.114c-0.653-0.97-1.408-1.885-2.236-2.713
	c-0.83-0.83-1.742-1.582-2.715-2.238c-0.979-0.664-2.027-1.23-3.114-1.691c-1.108-0.466-2.268-0.828-3.446-1.068
	c-1.207-0.248-2.449-0.375-3.691-0.375c-1.245,0-2.487,0.127-3.694,0.375c-1.178,0.24-2.338,0.603-3.446,1.068
	c-1.087,0.461-2.135,1.027-3.117,1.691c-0.97,0.656-1.882,1.408-2.712,2.238c-0.828,0.828-1.581,1.743-2.237,2.713
	c-0.662,0.979-1.233,2.027-1.69,3.114c-0.47,1.108-0.83,2.27-1.072,3.447c-0.246,1.205-0.371,2.446-0.371,3.688
	c0,1.247,0.125,2.489,0.371,3.696c0.242,1.177,0.602,2.337,1.072,3.444c0.457,1.086,1.028,2.139,1.69,3.116
	c0.656,0.972,1.409,1.882,2.237,2.714c0.83,0.827,1.742,1.577,2.712,2.235c0.982,0.662,2.03,1.231,3.117,1.69
	c1.108,0.47,2.268,0.828,3.446,1.067c1.207,0.25,2.449,0.375,3.694,0.375c1.242,0,2.484-0.125,3.691-0.375
	c1.178-0.239,2.338-0.598,3.446-1.067c1.087-0.459,2.135-1.028,3.114-1.69c0.973-0.658,1.885-1.408,2.715-2.235
	c0.828-0.832,1.583-1.742,2.236-2.714c0.662-0.978,1.234-2.03,1.691-3.116c0.468-1.107,0.83-2.268,1.072-3.444
	c0.246-1.207,0.371-2.449,0.371-3.696c0-1.242-0.125-2.483-0.371-3.688C-1644.926,716.099-1645.288,714.938-1645.756,713.829
	 M-1662.649,705.307c3.963,0,7.584,1.479,10.342,3.909c-0.039,0.06-2.269,3.455-8.182,5.669c-2.676-4.918-5.617-8.824-5.852-9.136
	C-1665.157,705.462-1663.922,705.307-1662.649,705.307 M-1666.402,705.762c0,0.002-0.002,0.005-0.002,0.005
	s-0.019,0.005-0.047,0.009C-1666.434,705.771-1666.419,705.77-1666.402,705.762 M-1669.332,706.806
	c0.209,0.278,3.105,4.204,5.816,9.021c-7.52,1.999-14.047,1.919-14.459,1.913C-1676.96,712.888-1673.701,708.867-1669.332,706.806
	 M-1674.299,731.431c-2.495-2.773-4.013-6.441-4.013-10.466c0-0.166,0.009-0.329,0.013-0.493c0.278,0.007,8.016,0.182,16.079-2.231
	c0.448,0.878,0.877,1.771,1.27,2.663c-0.207,0.056-0.412,0.118-0.617,0.187c-8.451,2.73-12.738,10.333-12.738,10.333
	S-1674.299,731.429-1674.299,731.431 M-1662.649,736.628c-3.699,0-7.096-1.285-9.777-3.431c-0.056-0.043-0.122-0.095-0.201-0.159
	c0.079,0.064,0.145,0.116,0.201,0.159c0.091,0.07,0.15,0.115,0.15,0.115s3.002-6.547,12.29-9.783
	c0.034-0.014,0.071-0.021,0.105-0.032c2.204,5.724,3.112,10.52,3.345,11.889C-1658.414,736.184-1660.482,736.628-1662.649,736.628
	 M-1653.899,733.954c-0.159-0.944-0.994-5.541-3.049-11.184c5.057-0.809,9.437,0.577,9.76,0.684
	C-1647.884,727.818-1650.384,731.58-1653.899,733.954 M-1657.901,720.297c-0.112-0.267-0.222-0.537-0.339-0.806
	c-0.325-0.769-0.677-1.527-1.041-2.273c6.185-2.524,8.695-6.153,8.725-6.196c2.195,2.667,3.526,6.073,3.562,9.789
	C-1647.22,720.761-1652.521,719.62-1657.901,720.297"/>
<path fill="#FFFFFF" d="M-1773.032,737.805c0,1.119-0.907,2.025-2.026,2.025h-9.355v-14.216h4.772l0.714-5.541h-5.486v-3.537
	c0-1.604,0.445-2.696,2.746-2.696l2.934-0.001v-4.956c-0.508-0.067-2.249-0.219-4.276-0.219c-4.23,0-7.126,2.582-7.126,7.323v4.086
	h-4.784v5.541h4.784v14.216h-17.582c-1.119,0-2.026-0.906-2.026-2.025v-32.659c0-1.119,0.907-2.026,2.026-2.026h32.659
	c1.119,0,2.026,0.907,2.026,2.026V737.805z"/>
<path fill="#FFFFFF" d="M-1928.33,718.518v5.085c0,0,4.924-0.007,6.929-0.007c-1.086,3.297-2.774,5.092-6.929,5.092
	c-4.205,0-7.487-3.415-7.487-7.628c0-4.212,3.282-7.627,7.487-7.627c2.223,0,3.659,0.783,4.976,1.874
	c1.054-1.056,0.966-1.207,3.649-3.744c-2.277-2.076-5.304-3.342-8.625-3.342c-7.078,0-12.817,5.748-12.817,12.839
	c0,7.092,5.739,12.84,12.817,12.84c10.58,0,13.166-9.229,12.309-15.382H-1928.33z"/>
<polygon fill="#FFFFFF" points="-1905.234,718.771 -1905.234,714.323 -1908.406,714.323 -1908.406,718.771 -1912.976,718.771 
	-1912.976,721.95 -1908.406,721.95 -1908.406,726.527 -1905.234,726.527 -1905.234,721.95 -1900.793,721.95 -1900.793,718.771 "/>
<path fill="#FFFFFF" d="M-1019.647,554.289c-20.97,0-37.97,17-37.97,37.97c0,20.96,17,37.96,37.97,37.96
	c20.96,0,37.96-17,37.96-37.96C-981.688,571.289-998.688,554.289-1019.647,554.289 M-1008.777,598.448
	c-4.99,6.4-9.21,9.601-12.66,9.601c-2.13,0-3.94-1.94-5.42-5.851c-0.99-3.579-1.97-7.159-2.96-10.729
	c-1.101-3.91-2.271-5.86-3.53-5.86c-0.28,0-1.229,0.57-2.88,1.71l-1.72-2.199c1.8-1.57,3.58-3.141,5.34-4.711
	c2.41-2.06,4.21-3.14,5.42-3.26c2.85-0.27,4.6,1.66,5.26,5.771c0.71,4.45,1.2,7.22,1.48,8.3c0.819,3.689,1.72,5.53,2.71,5.53
	c0.76,0,1.91-1.19,3.45-3.58c1.529-2.38,2.35-4.2,2.46-5.45c0.22-2.061-0.601-3.08-2.46-3.08c-0.881,0-1.78,0.18-2.711,0.57
	c1.811-5.811,5.261-8.63,10.351-8.46c3.77,0.1,5.56,2.52,5.34,7.229C-1001.468,587.509-1003.968,592.329-1008.777,598.448"/>
<path fill="#FFFFFF" d="M-1155.697,592.198c0-3.89,3.149-7.04,7.04-7.04c3.899,0,7.06,3.15,7.06,7.04c0,3.881-3.16,7.03-7.06,7.03
	C-1152.548,599.229-1155.697,596.079-1155.697,592.198"/>
<path fill="#FFFFFF" d="M-1135.178,583.009c0,0.635-0.515,1.149-1.149,1.149h-3.7c-0.635,0-1.15-0.515-1.15-1.149v-3.7
	c0-0.635,0.516-1.15,1.15-1.15h3.7c0.635,0,1.149,0.516,1.149,1.15V583.009z"/>
<path fill="#FFFFFF" d="M-1138.388,589.158h4.21v16.74c0,0.641-0.14,1.26-0.77,1.26h-27.5c-0.63,0-0.73-0.619-0.73-1.26v-16.74h4.17
	c-0.6,0-0.8,2.24-0.8,3.261c0,6.13,5.01,11.02,11.15,11.02c6.16,0,11.16-4.835,11.16-10.965
	C-1137.497,591.454-1137.647,589.158-1138.388,589.158"/>
<path fill="#FFFFFF" d="M-1149.647,554.289c-20.97,0-37.97,17-37.97,37.97c0,20.96,17,37.96,37.97,37.96
	c20.96,0,37.96-17,37.96-37.96C-1111.688,571.289-1128.688,554.289-1149.647,554.289 M-1130.178,606.139c0,2.4-2.14,4.02-4.54,4.02
	h-27.95c-2.409,0-4.51-1.619-4.51-4.02v-27.97c0-2.4,2.101-4.011,4.51-4.011h27.95c2.4,0,4.54,1.61,4.54,4.011V606.139z"/>
<path fill="#FFFFFF" d="M-1276.647,554.289c-20.97,0-37.97,17-37.97,37.97c0,20.96,17,37.96,37.97,37.96
	c20.96,0,37.96-17,37.96-37.96C-1238.688,571.289-1255.688,554.289-1276.647,554.289 M-1262.218,584.209
	c0.011,0.34,0.021,0.68,0.021,1.02c0,10.41-7.73,22.42-21.86,22.42c-4.34,0-8.38-1.31-11.78-3.54c0.601,0.07,1.211,0.11,1.83,0.11
	c3.601,0,6.92-1.26,9.551-3.37c-3.37-0.07-6.2-2.34-7.181-5.47c0.471,0.09,0.95,0.14,1.44,0.14c0.71,0,1.47-0.1,2.109-0.28
	c-3.52-0.72-6.09-3.909-6.09-7.729v-0.09c1,0.58,2.15,0.939,3.41,0.979c-2.07-1.41-3.46-3.83-3.46-6.56c0-1.44,0.36-2.8,1.021-3.96
	c3.79,4.77,9.439,7.899,15.83,8.229c-0.141-0.58-0.205-1.18-0.205-1.79c0-4.35,3.437-7.88,7.677-7.88c2.21,0,4.209,0.95,5.608,2.48
	c1.75-0.351,3.391-1,4.881-1.91c-0.57,1.84-1.791,3.39-3.382,4.36c1.561-0.19,3.04-0.61,4.41-1.24
	C-1259.407,581.709-1260.718,583.099-1262.218,584.209"/>
<path fill="#FFFFFF" d="M-1405.647,554.289c-20.97,0-37.97,17-37.97,37.97c0,20.96,17,37.96,37.97,37.96
	c20.96,0,37.96-17,37.96-37.96C-1367.688,571.289-1384.688,554.289-1405.647,554.289 M-1415.178,609.158h-7v-23h7V609.158z
	 M-1419.088,584.158h-0.05c-2.609,0-4.29-1.989-4.29-4.199c0-2.25,1.73-4.08,4.391-4.08c2.649,0,4.279,1.89,4.34,4.14
	C-1414.697,582.229-1416.388,584.158-1419.088,584.158 M-1386.178,609.158h-9v-11.649c0-3.09-1.029-5.19-3.84-5.19
	c-2.14,0-3.38,1.42-3.939,2.79c-0.211,0.49-0.221,1.17-0.221,1.86v12.189h-7.74c0,0,0.101-21,0-23h7.74v3.931
	c1-1.561,3.4-3.79,7.521-3.79c5.109,0,9.479,3.27,9.479,10.33V609.158z"/>
<path fill="#FFFFFF" d="M-1542.407,590.158h-5.77v-5h5.2c1.08,0,1.97-0.079,2.67,0.15c0.81,0.33,1.22,0.92,1.22,1.96
	c0,0.94-0.31,1.775-0.92,2.146C-1540.627,589.783-1541.427,590.158-1542.407,590.158"/>
<path fill="#FFFFFF" d="M-1538.627,596.158c0,1.37-0.5,2.211-1.49,2.69c-0.55,0.271-1.31,0.31-2.3,0.31h-5.76v-6h5.84
	c0.97,0,1.73,0.25,2.27,0.49C-1539.107,594.089-1538.627,594.988-1538.627,596.158"/>
<path fill="#FFFFFF" d="M-1534.647,554.289c-20.97,0-37.97,17-37.97,37.97c0,20.96,17,37.96,37.97,37.96
	c20.96,0,37.96-17,37.96-37.96C-1496.688,571.289-1513.688,554.289-1534.647,554.289 M-1529.177,582.158h10v3h-10V582.158z
	 M-1534.867,600.028c-0.42,0.7-0.96,1.29-1.6,1.761c-0.72,0.55-1.57,0.89-2.56,1.1c-0.98,0.2-2.04,0.27-3.19,0.27h-9.96v-22h10.69
	c2.77,0,4.72,0.69,5.87,2.24c0.69,0.95,1.04,2.021,1.04,3.34c0,1.36-0.35,2.42-1.05,3.25c-0.39,0.471-0.96,0.881-1.72,1.261
	c1.15,0.42,2.02,1.06,2.61,1.96c0.59,0.899,0.88,1.979,0.88,3.26C-1533.857,597.799-1534.188,598.988-1534.867,600.028
	 M-1515.797,596.158h-12.19c0.07,2,0.65,2.801,1.75,3.461c0.67,0.42,1.47,0.609,2.41,0.609c1,0,1.81-0.32,2.43-0.82
	c0.34-0.27,0.65-0.25,0.9-1.25h4.47c-0.12,1-0.66,2.091-1.62,3.101c-1.5,1.6-3.6,2.52-6.3,2.52c-2.23,0-4.19-0.68-5.89-2.029
	c-1.71-1.36-2.56-3.561-2.56-6.62c0-2.86,0.77-5.05,2.31-6.58c1.54-1.521,3.53-2.29,5.98-2.29c1.46,0,2.77,0.26,3.94,0.77
	c1.17,0.521,2.13,1.33,2.89,2.45c0.69,0.98,1.13,2.11,1.34,3.4C-1515.817,593.639-1515.777,595.158-1515.797,596.158
	 M-1524.107,589.778c-1.12,0-1.99,0.28-2.61,0.91c-0.62,0.62-1.01,1.47-1.17,2.47h7.55c-0.08-1-0.47-1.949-1.17-2.55
	C-1522.208,590.019-1523.067,589.778-1524.107,589.778"/>
<path fill="#FFFFFF" d="M-1677.978,588.929c1.02-4.85,4.28-8.88,8.65-10.94c0.2,0.28,3.1,4.21,5.81,9.03
	C-1671.038,589.009-1677.567,588.929-1677.978,588.929"/>
<path fill="#FFFFFF" d="M-1674.308,602.608c-2.49-2.779-4-6.43-4-10.46c0-0.16,0-0.33,0.01-0.49c0.28,0.011,8.01,0.181,16.08-2.229
	c0.45,0.88,0.87,1.77,1.27,2.66c-0.21,0.06-0.41,0.12-0.62,0.189C-1670.018,595.009-1674.308,602.608-1674.308,602.608"/>
<path fill="#FFFFFF" d="M-1659.877,594.679c2.2,5.729,3.11,10.52,3.34,11.89c-1.88,0.801-3.94,1.25-6.11,1.25
	c-3.63,0-6.97-1.239-9.63-3.319c0,0,3-6.551,12.29-9.78C-1659.947,594.698-1659.917,594.698-1659.877,594.679"/>
<path fill="#FFFFFF" d="M-1660.487,586.068c-2.68-4.92-5.62-8.819-5.85-9.13c1.18-0.29,2.42-0.45,3.69-0.45
	c3.96,0,7.58,1.48,10.34,3.91C-1652.348,580.459-1654.578,583.858-1660.487,586.068"/>
<path fill="#FFFFFF" d="M-1647.188,594.639c-0.7,4.37-3.2,8.13-6.71,10.5c-0.16-0.94-1-5.54-3.05-11.18
	C-1651.888,593.148-1647.507,594.539-1647.188,594.639"/>
<path fill="#FFFFFF" d="M-1650.558,582.209c2.2,2.67,3.53,6.069,3.56,9.79c-0.22-0.051-5.52-1.19-10.9-0.521
	c-0.12-0.26-0.23-0.53-0.34-0.8c-0.33-0.771-0.68-1.53-1.04-2.271C-1653.098,585.879-1650.587,582.249-1650.558,582.209"/>
<path fill="#FFFFFF" d="M-1662.647,554.289c-20.97,0-37.97,17-37.97,37.97c0,20.96,17,37.96,37.97,37.96
	c20.96,0,37.96-17,37.96-37.96C-1624.688,571.289-1641.688,554.289-1662.647,554.289 M-1644.688,595.849
	c-0.24,1.18-0.6,2.34-1.07,3.44c-0.46,1.09-1.03,2.14-1.69,3.119c-0.65,0.971-1.41,1.881-2.24,2.711
	c-0.83,0.829-1.74,1.579-2.71,2.239c-0.98,0.66-2.03,1.23-3.11,1.69c-1.11,0.47-2.27,0.83-3.45,1.07
	c-1.21,0.25-2.45,0.369-3.69,0.369c-1.25,0-2.49-0.119-3.7-0.369c-1.17-0.24-2.33-0.601-3.44-1.07c-1.09-0.46-2.14-1.03-3.12-1.69
	c-0.97-0.66-1.88-1.41-2.71-2.239c-0.83-0.83-1.58-1.74-2.24-2.711c-0.66-0.979-1.23-2.029-1.69-3.119
	c-0.47-1.101-0.83-2.261-1.07-3.44c-0.25-1.21-0.37-2.45-0.37-3.7c0-1.24,0.12-2.479,0.37-3.689c0.24-1.17,0.6-2.34,1.07-3.44
	c0.46-1.09,1.03-2.14,1.69-3.12c0.66-0.97,1.41-1.88,2.24-2.71c0.83-0.83,1.74-1.58,2.71-2.24c0.98-0.659,2.03-1.229,3.12-1.689
	c1.11-0.47,2.27-0.83,3.44-1.07c1.21-0.25,2.45-0.37,3.7-0.37c1.24,0,2.48,0.12,3.69,0.37c1.18,0.24,2.34,0.601,3.45,1.07
	c1.08,0.46,2.13,1.03,3.11,1.689c0.97,0.66,1.88,1.41,2.71,2.24s1.59,1.74,2.24,2.71c0.66,0.98,1.23,2.03,1.69,3.12
	c0.47,1.101,0.83,2.271,1.07,3.44c0.25,1.21,0.37,2.449,0.37,3.689C-1644.317,593.398-1644.438,594.639-1644.688,595.849"/>
<path fill="#FFFFFF" d="M-1791.647,552.827c-20.97,0-37.97,17-37.97,37.971c0,20.96,17,37.96,37.97,37.96
	c20.96,0,37.96-17,37.96-37.96C-1753.688,569.827-1770.688,552.827-1791.647,552.827 M-1773.177,606.848
	c0,1.12-0.55,2.311-1.66,2.311h-9.34v-14h4.75l0.72-6h-5.47v-3.581c0-1.6,0.43-2.419,2.73-2.419h3.27v-5.23
	c-1-0.07-2.55-0.221-4.58-0.221c-4.22,0-7.42,2.58-7.42,7.32v4.131h-5v6h5v14h-17.32c-1.12,0-1.68-1.19-1.68-2.311v-32.66
	c0-1.12,0.56-2.029,1.68-2.029h32.66c1.11,0,1.66,0.909,1.66,2.029V606.848z"/>
<path fill="#FFFFFF" d="M-1920.958,552.928c-20.97,0-37.97,17-37.97,37.97c0,20.96,17,37.96,37.97,37.96
	c20.96,0,37.96-17,37.96-37.96C-1882.998,569.928-1899.998,552.928-1920.958,552.928 M-1928.328,604.218
	c-7.08,0-12.82-5.9-12.82-12.99s5.74-12.925,12.82-12.925c3.32,0,6.35,1.237,8.62,3.307c-2.68,2.54-2.59,2.669-3.65,3.729
	c-1.31-1.101-2.75-1.896-4.97-1.896c-4.21,0-7.49,3.417-7.49,7.627s3.28,7.909,7.49,7.909c4.15,0,5.84-1.821,6.93-4.821h-6.78v-5
	h12.16C-1915.167,595.158-1917.748,604.218-1928.328,604.218 M-1901.177,592.158h-4v5h-3v-5h-5v-3h5v-4h3v4h4V592.158z"/>
<path fill="#1CB1E6" d="M-981.685,460.254c0,20.968-16.998,37.966-37.967,37.966c-20.968,0-37.966-16.998-37.966-37.966
	c0-20.968,16.998-37.966,37.966-37.966C-998.683,422.288-981.685,439.286-981.685,460.254"/>
<path fill="#FFFFFF" d="M-1006.646,444.748c-5.095-0.164-8.543,2.656-10.354,8.457c0.929-0.384,1.834-0.568,2.711-0.568
	c1.862,0,2.684,1.024,2.464,3.085c-0.112,1.25-0.93,3.064-2.464,5.451c-1.534,2.383-2.686,3.573-3.45,3.573
	c-0.987,0-1.889-1.839-2.711-5.525c-0.274-1.084-0.771-3.849-1.475-8.297c-0.662-4.119-2.416-6.046-5.261-5.773
	c-1.207,0.113-3.015,1.195-5.421,3.256c-1.756,1.57-3.536,3.144-5.342,4.712l1.724,2.2c1.646-1.142,2.602-1.711,2.875-1.711
	c1.258,0,2.436,1.952,3.534,5.858c0.987,3.571,1.97,7.153,2.96,10.734c1.476,3.904,3.284,5.851,5.418,5.851
	c3.45,0,7.672-3.198,12.655-9.598c4.814-6.121,7.311-10.944,7.47-14.473C-1001.091,447.268-1002.873,444.853-1006.646,444.748"/>
<path fill="#2A5B83" d="M-1111.685,460.254c0,20.968-16.998,37.966-37.967,37.966c-20.968,0-37.966-16.998-37.966-37.966
	c0-20.968,16.998-37.966,37.966-37.966C-1128.683,422.288-1111.685,439.286-1111.685,460.254"/>
<path fill="#FFFFFF" d="M-1134.722,441.823h-27.947c-2.407,0-4.357,1.946-4.357,4.348v27.967c0,2.4,1.95,4.348,4.357,4.348h27.947
	c2.407,0,4.358-1.947,4.358-4.348v-27.967C-1130.363,443.77-1132.314,441.823-1134.722,441.823 M-1140.675,447.551
	c0-0.632,0.513-1.145,1.146-1.145h3.438c0.632,0,1.145,0.513,1.145,1.145v3.438c0,0.632-0.513,1.145-1.145,1.145h-3.438
	c-0.633,0-1.146-0.513-1.146-1.145V447.551z M-1148.652,453.164c3.894,0,7.051,3.15,7.051,7.034c0,3.885-3.157,7.034-7.051,7.034
	s-7.051-3.149-7.051-7.034C-1155.703,456.313-1152.546,453.164-1148.652,453.164 M-1133.801,473.903
	c0,0.632-0.513,1.146-1.146,1.146h-27.496c-0.633,0-1.146-0.515-1.146-1.146v-17.186h4.583c-0.597,0.859-0.798,2.462-0.798,3.48
	c0,6.135,5.003,11.127,11.152,11.127s11.153-4.992,11.153-11.127c0-1.018-0.145-2.596-0.885-3.48h4.583V473.903z"/>
<path fill="#24A9E6" d="M-1238.685,460.254c0,20.968-16.998,37.966-37.967,37.966c-20.968,0-37.966-16.998-37.966-37.966
	c0-20.968,16.998-37.966,37.966-37.966C-1255.683,422.288-1238.685,439.286-1238.685,460.254"/>
<path fill="#FFFFFF" d="M-1259.417,445.014c-1.486,0.902-3.129,1.558-4.884,1.909c-1.397-1.53-3.396-2.486-5.607-2.486
	c-4.24,0-7.682,3.528-7.682,7.879c0,0.618,0.066,1.217,0.198,1.794c-6.386-0.329-12.047-3.462-15.839-8.235
	c-0.662,1.168-1.04,2.523-1.04,3.966c0,2.732,1.356,5.144,3.418,6.557c-1.257-0.038-2.444-0.396-3.481-0.982v0.096
	c0,3.819,2.648,7.005,6.167,7.726c-0.645,0.185-1.324,0.277-2.025,0.277c-0.495,0-0.979-0.047-1.447-0.139
	c0.979,3.129,3.815,5.408,7.179,5.469c-2.63,2.114-5.944,3.374-9.544,3.374c-0.619,0-1.232-0.036-1.833-0.108
	c3.4,2.232,7.441,3.537,11.778,3.537c14.136,0,21.863-12.004,21.863-22.417c0-0.343-0.006-0.685-0.021-1.021
	c1.502-1.112,2.807-2.498,3.832-4.078c-1.376,0.627-2.857,1.05-4.412,1.24C-1261.209,448.397-1259.991,446.854-1259.417,445.014"/>
<path fill="#187FB8" d="M-1367.685,460.254c0,20.968-16.998,37.966-37.967,37.966c-20.968,0-37.966-16.998-37.966-37.966
	c0-20.968,16.998-37.966,37.966-37.966C-1384.683,422.288-1367.685,439.286-1367.685,460.254"/>
<rect x="-1422.5" y="454.515" fill="#FFFFFF" width="7.189" height="22.782"/>
<path fill="#FFFFFF" d="M-1395.665,454.296c-4.119,0-6.7,2.231-7.177,3.794v-3.575h-8.078c0.104,1.898,0,22.782,0,22.782h8.078
	v-12.328c0-0.685-0.033-1.37,0.175-1.862c0.556-1.37,1.749-2.792,3.894-2.792c2.805,0,4.08,2.107,4.08,5.193v11.789h8.153v-12.668
	C-1386.54,457.573-1390.555,454.296-1395.665,454.296"/>
<path fill="#FFFFFF" d="M-1419.038,443.761c-2.655,0-4.393,1.705-4.393,3.956c0,2.207,1.688,3.949,4.29,3.949h0.053
	c2.703,0,4.386-1.748,4.386-3.956C-1414.754,445.461-1416.385,443.761-1419.038,443.761"/>
<path fill="#1A70F9" d="M-1496.685,460.254c0,20.968-16.998,37.966-37.966,37.966c-20.968,0-37.966-16.998-37.966-37.966
	c0-20.968,16.998-37.966,37.966-37.966C-1513.683,422.288-1496.685,439.286-1496.685,460.254"/>
<path fill="#FFFFFF" d="M-1537.352,459.229c0.76-0.383,1.335-0.808,1.727-1.271c0.7-0.829,1.047-1.927,1.047-3.289
	c0-1.324-0.347-2.459-1.038-3.409c-1.153-1.547-3.106-2.339-5.867-2.38h-10.94v22.333h10.201c1.15,0,2.214-0.099,3.198-0.301
	c0.985-0.204,1.835-0.576,2.557-1.122c0.642-0.476,1.176-1.062,1.602-1.757c0.675-1.05,1.011-2.237,1.011-3.561
	c0-1.284-0.295-2.376-0.881-3.273C-1535.327,460.301-1536.197,459.645-1537.352,459.229 M-1547.91,452.757h4.929
	c1.083,0,1.975,0.117,2.677,0.349c0.81,0.335,1.215,1.022,1.215,2.065c0,0.935-0.308,1.59-0.92,1.959
	c-0.616,0.37-1.415,0.555-2.395,0.555h-5.506V452.757z M-1540.119,466.943c-0.545,0.261-1.312,0.393-2.294,0.393h-5.497v-5.956
	h5.575c0.969,0.009,1.725,0.136,2.263,0.378c0.963,0.436,1.441,1.233,1.441,2.397
	C-1538.631,465.528-1539.126,466.455-1540.119,466.943"/>
<rect x="-1529.015" y="449.921" fill="#FFFFFF" width="9.701" height="2.779"/>
<path fill="#FFFFFF" d="M-1517.277,457.477c-0.758-1.113-1.721-1.929-2.891-2.444c-1.167-0.516-2.479-0.775-3.937-0.775
	c-2.453,0-4.446,0.767-5.986,2.291c-1.535,1.527-2.304,3.722-2.304,6.584c0,3.052,0.848,5.257,2.556,6.611
	c1.7,1.355,3.666,2.031,5.895,2.031c2.699,0,4.799-0.804,6.298-2.407c0.961-1.012,1.504-2.008,1.622-2.985h-4.469
	c-0.259,0.484-0.56,0.862-0.903,1.136c-0.622,0.504-1.434,0.757-2.427,0.757c-0.943,0-1.747-0.208-2.414-0.624
	c-1.103-0.665-1.68-1.827-1.754-3.483h12.198c0.019-1.425-0.028-2.522-0.147-3.278
	C-1516.142,459.598-1516.586,458.459-1517.277,457.477 M-1527.883,461.321c0.159-1.075,0.549-1.927,1.167-2.556
	c0.619-0.629,1.493-0.944,2.613-0.944c1.034,0,1.898,0.296,2.6,0.888c0.693,0.598,1.085,1.465,1.165,2.612H-1527.883z"/>
<path fill="#E64C87" d="M-1624.685,460.254c0,20.968-16.998,37.966-37.966,37.966c-20.968,0-37.966-16.998-37.966-37.966
	c0-20.968,16.998-37.966,37.966-37.966C-1641.683,422.288-1624.685,439.286-1624.685,460.254"/>
<path fill="#FFFFFF" d="M-1645.756,453.016c-0.457-1.087-1.029-2.135-1.691-3.114c-0.653-0.97-1.408-1.885-2.236-2.713
	c-0.83-0.83-1.742-1.582-2.715-2.238c-0.979-0.664-2.027-1.231-3.114-1.692c-1.108-0.466-2.268-0.828-3.446-1.068
	c-1.207-0.248-2.449-0.375-3.691-0.375c-1.245,0-2.487,0.127-3.694,0.375c-1.178,0.24-2.338,0.602-3.446,1.068
	c-1.087,0.461-2.135,1.028-3.117,1.692c-0.97,0.656-1.882,1.408-2.712,2.238c-0.828,0.828-1.581,1.743-2.237,2.713
	c-0.662,0.979-1.233,2.027-1.69,3.114c-0.47,1.108-0.83,2.27-1.072,3.447c-0.246,1.206-0.371,2.447-0.371,3.689
	c0,1.247,0.125,2.489,0.371,3.696c0.242,1.177,0.602,2.337,1.072,3.444c0.457,1.086,1.028,2.139,1.69,3.117
	c0.656,0.972,1.409,1.881,2.237,2.713c0.83,0.828,1.742,1.578,2.712,2.236c0.982,0.662,2.03,1.231,3.117,1.69
	c1.108,0.47,2.268,0.827,3.446,1.067c1.207,0.25,2.449,0.375,3.694,0.375c1.242,0,2.484-0.125,3.691-0.375
	c1.178-0.24,2.338-0.598,3.446-1.067c1.087-0.459,2.135-1.028,3.114-1.69c0.973-0.658,1.885-1.408,2.715-2.236
	c0.828-0.832,1.583-1.741,2.236-2.713c0.662-0.978,1.234-2.03,1.691-3.117c0.468-1.107,0.83-2.267,1.072-3.444
	c0.246-1.207,0.371-2.449,0.371-3.696c0-1.242-0.125-2.483-0.371-3.689C-1644.926,455.286-1645.288,454.124-1645.756,453.016
	 M-1662.649,444.494c3.963,0,7.584,1.479,10.342,3.909c-0.039,0.059-2.269,3.455-8.182,5.669c-2.676-4.918-5.617-8.825-5.852-9.136
	C-1665.157,444.648-1663.922,444.494-1662.649,444.494 M-1666.402,444.948c0,0.002-0.002,0.005-0.002,0.005
	s-0.019,0.004-0.047,0.008C-1666.434,444.958-1666.419,444.956-1666.402,444.948 M-1669.332,445.993
	c0.209,0.278,3.105,4.204,5.816,9.021c-7.52,1.999-14.047,1.919-14.459,1.913C-1676.96,452.074-1673.701,448.054-1669.332,445.993
	 M-1674.299,470.618c-2.495-2.774-4.013-6.443-4.013-10.467c0-0.166,0.009-0.329,0.013-0.493c0.278,0.006,8.016,0.181,16.079-2.232
	c0.448,0.878,0.877,1.771,1.27,2.663c-0.207,0.056-0.412,0.118-0.617,0.188c-8.451,2.729-12.738,10.332-12.738,10.332
	S-1674.299,470.615-1674.299,470.618 M-1662.649,475.814c-3.699,0-7.096-1.285-9.777-3.431c-0.056-0.043-0.122-0.096-0.201-0.159
	c0.079,0.063,0.145,0.116,0.201,0.159c0.091,0.07,0.15,0.114,0.15,0.114s3.002-6.545,12.29-9.783
	c0.034-0.013,0.071-0.021,0.105-0.032c2.204,5.724,3.112,10.52,3.345,11.889C-1658.414,475.37-1660.482,475.814-1662.649,475.814
	 M-1653.899,473.141c-0.159-0.944-0.994-5.541-3.049-11.184c5.057-0.808,9.437,0.578,9.76,0.684
	C-1647.884,467.004-1650.384,470.767-1653.899,473.141 M-1657.901,459.483c-0.112-0.267-0.222-0.537-0.339-0.806
	c-0.325-0.768-0.677-1.527-1.041-2.273c6.185-2.525,8.695-6.154,8.725-6.197c2.195,2.667,3.526,6.074,3.562,9.789
	C-1647.22,459.947-1652.521,458.807-1657.901,459.483"/>
<path fill="#43619C" d="M-1791.647,422.289c-20.97,0-37.97,17-37.97,37.97c0,20.96,17,37.96,37.97,37.96
	c20.96,0,37.96-17,37.96-37.96C-1753.688,439.289-1770.688,422.289-1791.647,422.289 M-1773.177,476.309c0,1.12-0.55,1.85-1.66,1.85
	h-9.34v-14h4.75l0.72-6h-5.47v-3.12c0-1.6,0.43-2.88,2.73-2.88h3.27v-4.77c-1-0.07-2.55-0.22-4.58-0.22c-4.22,0-7.42,2.58-7.42,7.32
	v3.67h-5v6h5v14h-17.32c-1.12,0-1.68-0.729-1.68-1.85v-32.66c0-1.12,0.56-2.49,1.68-2.49h32.66c1.11,0,1.66,1.37,1.66,2.49V476.309z
	"/>
<path fill="#F24033" d="M-1920.958,422.289c-20.97,0-37.97,17-37.97,37.97c0,20.96,17,37.96,37.97,37.96
	c20.96,0,37.96-17,37.96-37.96C-1882.998,439.289-1899.998,422.289-1920.958,422.289 M-1928.328,473.398
	c-7.08,0-12.82-5.81-12.82-12.9c0-7.09,5.74-12.88,12.82-12.88c3.32,0,6.35,1.26,8.62,3.33c-2.68,2.54-2.59,2.68-3.65,3.74
	c-1.31-1.1-2.75-1.89-4.97-1.89c-4.21,0-7.49,3.42-7.49,7.63s3.28,7.729,7.49,7.729c4.15,0,5.84-2,6.93-5h-6.78v-5h12.16
	C-1915.167,464.159-1917.748,473.398-1928.328,473.398 M-1901.177,461.159h-4v5h-3v-5h-5v-3h5v-4h3v4h4V461.159z"/>
<path fill="#1CB1E6" d="M-1006.646,316.511c-5.095-0.164-8.543,2.656-10.354,8.457c0.929-0.384,1.834-0.568,2.711-0.568
	c1.862,0,2.684,1.024,2.464,3.085c-0.112,1.25-0.93,3.064-2.464,5.451c-1.534,2.383-2.686,3.573-3.45,3.573
	c-0.987,0-1.889-1.839-2.711-5.525c-0.274-1.084-0.771-3.849-1.475-8.297c-0.662-4.119-2.416-6.046-5.261-5.773
	c-1.207,0.113-3.015,1.195-5.421,3.256c-1.756,1.57-3.536,3.144-5.342,4.712l1.724,2.2c1.646-1.142,2.602-1.711,2.875-1.711
	c1.258,0,2.436,1.952,3.534,5.858c0.987,3.571,1.97,7.153,2.96,10.735c1.476,3.904,3.284,5.85,5.418,5.85
	c3.45,0,7.672-3.198,12.655-9.598c4.814-6.121,7.311-10.944,7.47-14.473C-1001.091,319.031-1002.873,316.616-1006.646,316.511"/>
<path fill="#2A5B83" d="M-1134.722,313.587h-27.947c-2.407,0-4.357,1.946-4.357,4.348v27.967c0,2.401,1.95,4.348,4.357,4.348h27.947
	c2.407,0,4.358-1.947,4.358-4.348v-27.967C-1130.363,315.533-1132.314,313.587-1134.722,313.587 M-1140.675,319.314
	c0-0.632,0.513-1.145,1.146-1.145h3.438c0.632,0,1.145,0.513,1.145,1.145v3.438c0,0.632-0.513,1.145-1.145,1.145h-3.438
	c-0.633,0-1.146-0.513-1.146-1.145V319.314z M-1148.652,324.927c3.894,0,7.051,3.15,7.051,7.034c0,3.885-3.157,7.034-7.051,7.034
	s-7.051-3.149-7.051-7.034C-1155.703,328.077-1152.546,324.927-1148.652,324.927 M-1133.801,345.667
	c0,0.632-0.513,1.146-1.146,1.146h-27.496c-0.633,0-1.146-0.514-1.146-1.146V328.48h4.583c-0.597,0.859-0.798,2.462-0.798,3.48
	c0,6.135,5.003,11.127,11.152,11.127s11.153-4.992,11.153-11.127c0-1.018-0.145-2.596-0.885-3.48h4.583V345.667z"/>
<path fill="#24A9E6" d="M-1259.417,316.777c-1.486,0.902-3.129,1.558-4.884,1.909c-1.397-1.53-3.396-2.486-5.607-2.486
	c-4.24,0-7.682,3.528-7.682,7.879c0,0.618,0.066,1.217,0.198,1.794c-6.386-0.329-12.047-3.462-15.839-8.235
	c-0.662,1.168-1.04,2.523-1.04,3.966c0,2.732,1.356,5.144,3.418,6.557c-1.257-0.038-2.444-0.396-3.481-0.982v0.096
	c0,3.819,2.648,7.005,6.167,7.726c-0.645,0.185-1.324,0.277-2.025,0.277c-0.495,0-0.979-0.047-1.447-0.139
	c0.979,3.129,3.815,5.408,7.179,5.469c-2.63,2.114-5.944,3.374-9.544,3.374c-0.619,0-1.232-0.036-1.833-0.108
	c3.4,2.232,7.441,3.537,11.778,3.537c14.136,0,21.863-12.004,21.863-22.417c0-0.343-0.006-0.685-0.021-1.021
	c1.502-1.112,2.807-2.498,3.832-4.078c-1.376,0.626-2.857,1.05-4.412,1.24C-1261.209,320.161-1259.991,318.617-1259.417,316.777"/>
<rect x="-1422.5" y="326.278" fill="#187FB8" width="7.189" height="22.782"/>
<path fill="#187FB8" d="M-1395.665,326.059c-4.119,0-6.7,2.231-7.177,3.794v-3.575h-8.078c0.104,1.898,0,22.782,0,22.782h8.078
	v-12.328c0-0.685-0.033-1.37,0.175-1.862c0.556-1.37,1.749-2.792,3.894-2.792c2.805,0,4.08,2.107,4.08,5.193v11.789h8.153v-12.668
	C-1386.54,329.336-1390.555,326.059-1395.665,326.059"/>
<path fill="#187FB8" d="M-1419.038,315.523c-2.655,0-4.393,1.705-4.393,3.956c0,2.207,1.688,3.949,4.29,3.949h0.053
	c2.703,0,4.386-1.748,4.386-3.956C-1414.754,317.225-1416.385,315.523-1419.038,315.523"/>
<path fill="#1A70F9" d="M-1537.352,330.991c0.76-0.382,1.335-0.807,1.727-1.27c0.7-0.829,1.047-1.927,1.047-3.289
	c0-1.324-0.347-2.459-1.038-3.409c-1.153-1.547-3.106-2.339-5.867-2.38h-10.94v22.333h10.201c1.15,0,2.214-0.098,3.198-0.3
	c0.985-0.204,1.835-0.576,2.557-1.122c0.642-0.476,1.176-1.062,1.602-1.757c0.675-1.05,1.011-2.237,1.011-3.561
	c0-1.284-0.295-2.376-0.881-3.273C-1535.327,332.064-1536.197,331.408-1537.352,330.991 M-1547.91,324.521h4.929
	c1.083,0,1.975,0.117,2.677,0.349c0.81,0.335,1.215,1.022,1.215,2.065c0,0.935-0.308,1.59-0.92,1.959
	c-0.616,0.37-1.415,0.555-2.395,0.555h-5.506V324.521z M-1540.119,338.707c-0.545,0.261-1.312,0.393-2.294,0.393h-5.497v-5.956
	h5.575c0.969,0.009,1.725,0.136,2.263,0.378c0.963,0.436,1.441,1.233,1.441,2.397
	C-1538.631,337.292-1539.126,338.218-1540.119,338.707"/>
<rect x="-1529.015" y="321.684" fill="#1A70F9" width="9.701" height="2.779"/>
<path fill="#1A70F9" d="M-1517.277,329.24c-0.758-1.113-1.721-1.929-2.891-2.444c-1.167-0.516-2.479-0.775-3.937-0.775
	c-2.453,0-4.446,0.767-5.986,2.291c-1.535,1.527-2.304,3.722-2.304,6.584c0,3.052,0.848,5.257,2.556,6.611
	c1.7,1.356,3.666,2.031,5.895,2.031c2.699,0,4.799-0.803,6.298-2.407c0.961-1.012,1.504-2.008,1.622-2.986h-4.469
	c-0.259,0.485-0.56,0.863-0.903,1.137c-0.622,0.504-1.434,0.757-2.427,0.757c-0.943,0-1.747-0.209-2.414-0.623
	c-1.103-0.665-1.68-1.827-1.754-3.483h12.198c0.019-1.425-0.028-2.522-0.147-3.278
	C-1516.142,331.361-1516.586,330.222-1517.277,329.24 M-1527.883,333.084c0.159-1.075,0.549-1.927,1.167-2.556
	c0.619-0.629,1.493-0.944,2.613-0.944c1.034,0,1.898,0.296,2.6,0.888c0.693,0.598,1.085,1.465,1.165,2.612H-1527.883z"/>
<path fill="#E64C87" d="M-1645.756,324.777c-0.457-1.086-1.029-2.134-1.691-3.113c-0.653-0.97-1.408-1.885-2.236-2.713
	c-0.83-0.83-1.742-1.582-2.715-2.238c-0.979-0.664-2.027-1.231-3.114-1.692c-1.108-0.466-2.268-0.828-3.446-1.068
	c-1.207-0.248-2.449-0.375-3.691-0.375c-1.245,0-2.487,0.127-3.694,0.375c-1.178,0.24-2.338,0.602-3.446,1.068
	c-1.087,0.461-2.135,1.028-3.117,1.692c-0.97,0.656-1.882,1.408-2.712,2.238c-0.828,0.828-1.581,1.743-2.237,2.713
	c-0.662,0.979-1.233,2.027-1.69,3.113c-0.47,1.109-0.83,2.271-1.072,3.448c-0.246,1.205-0.371,2.447-0.371,3.689
	c0,1.247,0.125,2.489,0.371,3.696c0.242,1.177,0.602,2.337,1.072,3.444c0.457,1.086,1.028,2.139,1.69,3.117
	c0.656,0.971,1.409,1.881,2.237,2.713c0.83,0.828,1.742,1.578,2.712,2.236c0.982,0.662,2.03,1.231,3.117,1.69
	c1.108,0.47,2.268,0.828,3.446,1.068c1.207,0.25,2.449,0.375,3.694,0.375c1.242,0,2.484-0.125,3.691-0.375
	c1.178-0.24,2.338-0.598,3.446-1.068c1.087-0.459,2.135-1.028,3.114-1.69c0.973-0.658,1.885-1.408,2.715-2.236
	c0.828-0.832,1.583-1.742,2.236-2.713c0.662-0.979,1.234-2.031,1.691-3.117c0.468-1.107,0.83-2.267,1.072-3.444
	c0.246-1.207,0.371-2.449,0.371-3.696c0-1.242-0.125-2.484-0.371-3.689C-1644.926,327.049-1645.288,325.887-1645.756,324.777
	 M-1662.649,316.257c3.963,0,7.584,1.479,10.342,3.909c-0.039,0.059-2.269,3.455-8.182,5.669c-2.676-4.918-5.617-8.825-5.852-9.136
	C-1665.157,316.412-1663.922,316.257-1662.649,316.257 M-1666.402,316.711c0,0.002-0.002,0.005-0.002,0.005
	s-0.019,0.004-0.047,0.008C-1666.434,316.721-1666.419,316.719-1666.402,316.711 M-1669.332,317.756
	c0.209,0.278,3.105,4.204,5.816,9.021c-7.52,1.999-14.047,1.919-14.459,1.913C-1676.96,323.837-1673.701,319.816-1669.332,317.756
	 M-1674.299,342.382c-2.495-2.775-4.013-6.443-4.013-10.467c0-0.166,0.009-0.329,0.013-0.493c0.278,0.006,8.016,0.181,16.079-2.232
	c0.448,0.878,0.877,1.772,1.27,2.663c-0.207,0.056-0.412,0.118-0.617,0.187c-8.451,2.73-12.738,10.333-12.738,10.333
	S-1674.299,342.378-1674.299,342.382 M-1662.649,347.578c-3.699,0-7.096-1.285-9.777-3.431c-0.056-0.043-0.122-0.095-0.201-0.159
	c0.079,0.064,0.145,0.116,0.201,0.159c0.091,0.071,0.15,0.115,0.15,0.115s3.002-6.546,12.29-9.783
	c0.034-0.013,0.071-0.021,0.105-0.032c2.204,5.724,3.112,10.52,3.345,11.889C-1658.414,347.134-1660.482,347.578-1662.649,347.578
	 M-1653.899,344.904c-0.159-0.944-0.994-5.541-3.049-11.184c5.057-0.808,9.437,0.578,9.76,0.684
	C-1647.884,338.768-1650.384,342.53-1653.899,344.904 M-1657.901,331.247c-0.112-0.267-0.222-0.537-0.339-0.806
	c-0.325-0.768-0.677-1.527-1.041-2.273c6.185-2.525,8.695-6.154,8.725-6.197c2.195,2.667,3.526,6.074,3.562,9.789
	C-1647.22,331.71-1652.521,330.57-1657.901,331.247"/>
<path fill="#43619C" d="M-1773.032,348.082c0,1.119-0.907,2.026-2.026,2.026h-9.355v-14.216h4.772l0.714-5.541h-5.486v-3.537
	c0-1.604,0.445-2.697,2.746-2.697l2.934-0.001v-4.956c-0.508-0.068-2.249-0.218-4.276-0.218c-4.23,0-7.126,2.582-7.126,7.323v4.086
	h-4.784v5.541h4.784v14.216h-17.582c-1.119,0-2.026-0.907-2.026-2.026v-32.659c0-1.119,0.907-2.026,2.026-2.026h32.659
	c1.119,0,2.026,0.907,2.026,2.026V348.082z"/>
<path fill="#F24033" d="M-1928.33,329.675v5.085c0,0,4.924-0.007,6.929-0.007c-1.086,3.297-2.774,5.092-6.929,5.092
	c-4.205,0-7.487-3.415-7.487-7.627c0-4.213,3.282-7.628,7.487-7.628c2.223,0,3.659,0.783,4.976,1.874
	c1.054-1.056,0.966-1.207,3.649-3.744c-2.277-2.076-5.304-3.342-8.625-3.342c-7.078,0-12.817,5.748-12.817,12.84
	c0,7.091,5.739,12.839,12.817,12.839c10.58,0,13.166-9.229,12.309-15.382H-1928.33z"/>
<polygon fill="#F24033" points="-1905.234,329.93 -1905.234,325.48 -1908.406,325.48 -1908.406,329.93 -1912.976,329.93 
	-1912.976,333.108 -1908.406,333.108 -1908.406,337.685 -1905.234,337.685 -1905.234,333.108 -1900.793,333.108 -1900.793,329.93 
	"/>
<path fill="#1CB1E6" d="M-1006.646,186.748c-5.095-0.164-8.543,2.656-10.354,8.457c0.929-0.384,1.834-0.568,2.711-0.568
	c1.862,0,2.684,1.024,2.464,3.085c-0.112,1.25-0.93,3.064-2.464,5.451c-1.534,2.383-2.686,3.573-3.45,3.573
	c-0.987,0-1.889-1.839-2.711-5.525c-0.274-1.084-0.771-3.849-1.475-8.297c-0.662-4.119-2.416-6.046-5.261-5.773
	c-1.207,0.113-3.015,1.195-5.421,3.256c-1.756,1.57-3.536,3.144-5.342,4.712l1.724,2.2c1.646-1.142,2.602-1.711,2.875-1.711
	c1.258,0,2.436,1.952,3.534,5.858c0.987,3.571,1.97,7.153,2.96,10.735c1.476,3.904,3.284,5.85,5.418,5.85
	c3.45,0,7.672-3.198,12.655-9.598c4.814-6.121,7.311-10.944,7.47-14.473C-1001.091,189.268-1002.873,186.853-1006.646,186.748"/>
<path fill="#1CB1E6" d="M-1019.651,241.72c-21.762,0-39.466-17.704-39.466-39.466c0-21.762,17.704-39.466,39.466-39.466
	c21.763,0,39.466,17.704,39.466,39.466C-980.186,224.016-997.889,241.72-1019.651,241.72 M-1019.651,165.788
	c-20.106,0-36.466,16.358-36.466,36.466c0,20.107,16.359,36.466,36.466,36.466c20.107,0,36.466-16.359,36.466-36.466
	C-983.186,182.146-999.544,165.788-1019.651,165.788"/>
<path fill="#2A5B83" d="M-1134.722,183.823h-27.947c-2.407,0-4.357,1.946-4.357,4.348v27.967c0,2.401,1.95,4.348,4.357,4.348h27.947
	c2.407,0,4.358-1.947,4.358-4.348v-27.967C-1130.363,185.77-1132.314,183.823-1134.722,183.823 M-1140.675,189.551
	c0-0.632,0.513-1.145,1.146-1.145h3.438c0.632,0,1.145,0.513,1.145,1.145v3.438c0,0.632-0.513,1.145-1.145,1.145h-3.438
	c-0.633,0-1.146-0.513-1.146-1.145V189.551z M-1148.652,195.164c3.894,0,7.051,3.15,7.051,7.034c0,3.885-3.157,7.034-7.051,7.034
	s-7.051-3.149-7.051-7.034C-1155.703,198.313-1152.546,195.164-1148.652,195.164 M-1133.801,215.903
	c0,0.632-0.513,1.146-1.146,1.146h-27.496c-0.633,0-1.146-0.514-1.146-1.146v-17.186h4.583c-0.597,0.859-0.798,2.462-0.798,3.48
	c0,6.135,5.003,11.127,11.152,11.127s11.153-4.992,11.153-11.127c0-1.018-0.145-2.596-0.885-3.48h4.583V215.903z"/>
<path fill="#2A5B83" d="M-1149.651,241.72c-21.762,0-39.466-17.704-39.466-39.466c0-21.762,17.704-39.466,39.466-39.466
	c21.763,0,39.466,17.704,39.466,39.466C-1110.186,224.016-1127.889,241.72-1149.651,241.72 M-1149.651,165.788
	c-20.106,0-36.466,16.358-36.466,36.466c0,20.107,16.359,36.466,36.466,36.466c20.107,0,36.466-16.359,36.466-36.466
	C-1113.186,182.146-1129.544,165.788-1149.651,165.788"/>
<path fill="#24A9E6" d="M-1259.417,187.014c-1.486,0.902-3.129,1.558-4.884,1.909c-1.397-1.53-3.396-2.486-5.607-2.486
	c-4.24,0-7.682,3.528-7.682,7.879c0,0.618,0.066,1.217,0.198,1.794c-6.386-0.329-12.047-3.462-15.839-8.235
	c-0.662,1.168-1.04,2.523-1.04,3.966c0,2.732,1.356,5.144,3.418,6.557c-1.257-0.038-2.444-0.396-3.481-0.982v0.096
	c0,3.819,2.648,7.005,6.167,7.726c-0.645,0.185-1.324,0.277-2.025,0.277c-0.495,0-0.979-0.047-1.447-0.139
	c0.979,3.129,3.815,5.408,7.179,5.469c-2.63,2.114-5.944,3.374-9.544,3.374c-0.619,0-1.232-0.036-1.833-0.108
	c3.4,2.232,7.441,3.537,11.778,3.537c14.136,0,21.863-12.004,21.863-22.417c0-0.343-0.006-0.685-0.021-1.021
	c1.502-1.112,2.807-2.498,3.832-4.078c-1.376,0.627-2.857,1.05-4.412,1.24C-1261.209,190.397-1259.991,188.854-1259.417,187.014"/>
<path fill="#24A9E6" d="M-1276.651,241.72c-21.762,0-39.466-17.704-39.466-39.466c0-21.762,17.704-39.466,39.466-39.466
	c21.763,0,39.466,17.704,39.466,39.466C-1237.186,224.016-1254.889,241.72-1276.651,241.72 M-1276.651,165.788
	c-20.106,0-36.466,16.358-36.466,36.466c0,20.107,16.359,36.466,36.466,36.466c20.107,0,36.466-16.359,36.466-36.466
	C-1240.186,182.146-1256.544,165.788-1276.651,165.788"/>
<rect x="-1422.5" y="196.515" fill="#187FB8" width="7.189" height="22.782"/>
<path fill="#187FB8" d="M-1395.665,196.296c-4.119,0-6.7,2.231-7.177,3.794v-3.575h-8.078c0.104,1.898,0,22.782,0,22.782h8.078
	v-12.328c0-0.685-0.033-1.37,0.175-1.862c0.556-1.37,1.749-2.792,3.894-2.792c2.805,0,4.08,2.107,4.08,5.193v11.789h8.153v-12.668
	C-1386.54,199.573-1390.555,196.296-1395.665,196.296"/>
<path fill="#187FB8" d="M-1419.038,185.761c-2.655,0-4.393,1.705-4.393,3.956c0,2.207,1.688,3.949,4.29,3.949h0.053
	c2.703,0,4.386-1.748,4.386-3.956C-1414.754,187.461-1416.385,185.761-1419.038,185.761"/>
<path fill="#187FB8" d="M-1405.651,241.72c-21.762,0-39.466-17.704-39.466-39.466c0-21.762,17.704-39.466,39.466-39.466
	c21.763,0,39.466,17.704,39.466,39.466C-1366.186,224.016-1383.889,241.72-1405.651,241.72 M-1405.651,165.788
	c-20.106,0-36.466,16.358-36.466,36.466c0,20.107,16.359,36.466,36.466,36.466c20.107,0,36.466-16.359,36.466-36.466
	C-1369.186,182.146-1385.544,165.788-1405.651,165.788"/>
<path fill="#1A70F9" d="M-1537.352,201.229c0.76-0.383,1.335-0.808,1.727-1.271c0.7-0.829,1.047-1.927,1.047-3.289
	c0-1.324-0.347-2.459-1.038-3.409c-1.153-1.547-3.106-2.339-5.867-2.38h-10.94v22.333h10.201c1.15,0,2.214-0.098,3.198-0.3
	c0.985-0.204,1.835-0.576,2.557-1.122c0.642-0.476,1.176-1.062,1.602-1.757c0.675-1.05,1.011-2.237,1.011-3.561
	c0-1.284-0.295-2.376-0.881-3.273C-1535.327,202.301-1536.197,201.645-1537.352,201.229 M-1547.91,194.757h4.929
	c1.083,0,1.975,0.117,2.677,0.349c0.81,0.335,1.215,1.022,1.215,2.065c0,0.935-0.308,1.59-0.92,1.959
	c-0.616,0.37-1.415,0.555-2.395,0.555h-5.506V194.757z M-1540.119,208.943c-0.545,0.261-1.312,0.393-2.294,0.393h-5.497v-5.956
	h5.575c0.969,0.009,1.725,0.136,2.263,0.378c0.963,0.436,1.441,1.233,1.441,2.397
	C-1538.631,207.528-1539.126,208.455-1540.119,208.943"/>
<rect x="-1529.015" y="191.921" fill="#1A70F9" width="9.701" height="2.779"/>
<path fill="#1A70F9" d="M-1517.277,199.477c-0.758-1.113-1.721-1.929-2.891-2.444c-1.167-0.516-2.479-0.775-3.937-0.775
	c-2.453,0-4.446,0.767-5.986,2.291c-1.535,1.527-2.304,3.722-2.304,6.584c0,3.052,0.848,5.257,2.556,6.611
	c1.7,1.356,3.666,2.031,5.895,2.031c2.699,0,4.799-0.803,6.298-2.407c0.961-1.012,1.504-2.008,1.622-2.985h-4.469
	c-0.259,0.484-0.56,0.862-0.903,1.136c-0.622,0.504-1.434,0.757-2.427,0.757c-0.943,0-1.747-0.208-2.414-0.623
	c-1.103-0.665-1.68-1.827-1.754-3.483h12.198c0.019-1.425-0.028-2.522-0.147-3.278
	C-1516.142,201.598-1516.586,200.459-1517.277,199.477 M-1527.883,203.321c0.159-1.075,0.549-1.927,1.167-2.556
	c0.619-0.629,1.493-0.944,2.613-0.944c1.034,0,1.898,0.296,2.6,0.888c0.693,0.598,1.085,1.465,1.165,2.612H-1527.883z"/>
<path fill="#1A70F9" d="M-1534.65,241.72c-21.762,0-39.466-17.704-39.466-39.466c0-21.762,17.704-39.466,39.466-39.466
	c21.762,0,39.466,17.704,39.466,39.466C-1495.185,224.016-1512.889,241.72-1534.65,241.72 M-1534.65,165.788
	c-20.107,0-36.466,16.358-36.466,36.466c0,20.107,16.359,36.466,36.466,36.466c20.107,0,36.466-16.359,36.466-36.466
	C-1498.185,182.146-1514.543,165.788-1534.65,165.788"/>
<path fill="#E64C87" d="M-1645.756,195.016c-0.457-1.087-1.029-2.135-1.691-3.114c-0.653-0.97-1.408-1.885-2.236-2.713
	c-0.83-0.83-1.742-1.582-2.715-2.238c-0.979-0.664-2.027-1.231-3.114-1.692c-1.108-0.466-2.268-0.828-3.446-1.068
	c-1.207-0.248-2.449-0.375-3.691-0.375c-1.245,0-2.487,0.127-3.694,0.375c-1.178,0.24-2.338,0.602-3.446,1.068
	c-1.087,0.461-2.135,1.028-3.117,1.692c-0.97,0.656-1.882,1.408-2.712,2.238c-0.828,0.828-1.581,1.743-2.237,2.713
	c-0.662,0.979-1.233,2.027-1.69,3.114c-0.47,1.108-0.83,2.27-1.072,3.447c-0.246,1.206-0.371,2.447-0.371,3.689
	c0,1.247,0.125,2.489,0.371,3.696c0.242,1.177,0.602,2.337,1.072,3.444c0.457,1.086,1.028,2.139,1.69,3.117
	c0.656,0.971,1.409,1.881,2.237,2.713c0.83,0.828,1.742,1.578,2.712,2.236c0.982,0.662,2.03,1.231,3.117,1.69
	c1.108,0.47,2.268,0.828,3.446,1.068c1.207,0.25,2.449,0.375,3.694,0.375c1.242,0,2.484-0.125,3.691-0.375
	c1.178-0.24,2.338-0.598,3.446-1.068c1.087-0.459,2.135-1.028,3.114-1.69c0.973-0.658,1.885-1.408,2.715-2.236
	c0.828-0.832,1.583-1.742,2.236-2.713c0.662-0.978,1.234-2.031,1.691-3.117c0.468-1.107,0.83-2.267,1.072-3.444
	c0.246-1.207,0.371-2.449,0.371-3.696c0-1.242-0.125-2.483-0.371-3.689C-1644.926,197.286-1645.288,196.124-1645.756,195.016
	 M-1662.649,186.494c3.963,0,7.584,1.479,10.342,3.909c-0.039,0.059-2.269,3.455-8.182,5.669c-2.676-4.918-5.617-8.825-5.852-9.136
	C-1665.157,186.648-1663.922,186.494-1662.649,186.494 M-1666.402,186.948c0,0.002-0.002,0.005-0.002,0.005
	s-0.019,0.004-0.047,0.008C-1666.434,186.958-1666.419,186.956-1666.402,186.948 M-1669.332,187.993
	c0.209,0.278,3.105,4.204,5.816,9.021c-7.52,1.999-14.047,1.919-14.459,1.913C-1676.96,194.074-1673.701,190.054-1669.332,187.993
	 M-1674.299,212.619c-2.495-2.775-4.013-6.443-4.013-10.467c0-0.166,0.009-0.329,0.013-0.493c0.278,0.006,8.016,0.181,16.079-2.232
	c0.448,0.878,0.877,1.771,1.27,2.663c-0.207,0.056-0.412,0.118-0.617,0.188c-8.451,2.729-12.738,10.332-12.738,10.332
	S-1674.299,212.615-1674.299,212.619 M-1662.649,217.814c-3.699,0-7.096-1.285-9.777-3.431c-0.056-0.043-0.122-0.095-0.201-0.159
	c0.079,0.064,0.145,0.116,0.201,0.159c0.091,0.071,0.15,0.115,0.15,0.115s3.002-6.546,12.29-9.783
	c0.034-0.013,0.071-0.021,0.105-0.032c2.204,5.724,3.112,10.52,3.345,11.889C-1658.414,217.371-1660.482,217.814-1662.649,217.814
	 M-1653.899,215.141c-0.159-0.944-0.994-5.541-3.049-11.184c5.057-0.808,9.437,0.578,9.76,0.684
	C-1647.884,209.004-1650.384,212.767-1653.899,215.141 M-1657.901,201.483c-0.112-0.267-0.222-0.537-0.339-0.806
	c-0.325-0.768-0.677-1.527-1.041-2.273c6.185-2.525,8.695-6.154,8.725-6.197c2.195,2.667,3.526,6.074,3.562,9.789
	C-1647.22,201.947-1652.521,200.807-1657.901,201.483"/>
<path fill="#E64C87" d="M-1662.65,241.72c-21.762,0-39.466-17.704-39.466-39.466c0-21.762,17.704-39.466,39.466-39.466
	c21.762,0,39.466,17.704,39.466,39.466C-1623.185,224.016-1640.889,241.72-1662.65,241.72 M-1662.65,165.788
	c-20.107,0-36.466,16.358-36.466,36.466c0,20.107,16.359,36.466,36.466,36.466c20.107,0,36.466-16.359,36.466-36.466
	C-1626.185,182.146-1642.543,165.788-1662.65,165.788"/>
<path fill="#43619C" d="M-1790.65,240.72c-21.762,0-39.466-17.704-39.466-39.466c0-21.762,17.704-39.466,39.466-39.466
	c21.762,0,39.466,17.704,39.466,39.466C-1751.185,223.016-1768.889,240.72-1790.65,240.72 M-1790.65,164.788
	c-20.107,0-36.466,16.358-36.466,36.466c0,20.107,16.359,36.466,36.466,36.466c20.107,0,36.466-16.359,36.466-36.466
	C-1754.185,181.146-1770.543,164.788-1790.65,164.788"/>
<path fill="#43619C" d="M-1772.587,216.878c0,1.119-0.907,2.026-2.026,2.026h-9.355v-14.216h4.772l0.714-5.541h-5.486v-3.537
	c0-1.604,0.445-2.697,2.746-2.697l2.934-0.001v-4.956c-0.508-0.067-2.249-0.218-4.276-0.218c-4.23,0-7.126,2.582-7.126,7.323v4.086
	h-4.784v5.541h4.784v14.216h-17.582c-1.119,0-2.026-0.907-2.026-2.026V184.22c0-1.119,0.907-2.026,2.026-2.026h32.659
	c1.119,0,2.026,0.907,2.026,2.026V216.878z"/>
<path fill="#F24033" d="M-1920.65,240.72c-21.762,0-39.466-17.704-39.466-39.466c0-21.762,17.704-39.466,39.466-39.466
	c21.762,0,39.466,17.704,39.466,39.466C-1881.185,223.016-1898.889,240.72-1920.65,240.72 M-1920.65,164.788
	c-20.107,0-36.466,16.358-36.466,36.466c0,20.107,16.359,36.466,36.466,36.466c20.107,0,36.466-16.359,36.466-36.466
	C-1884.185,181.146-1900.543,164.788-1920.65,164.788"/>
<path fill="#F24033" d="M-1928.33,198.386v5.085c0,0,4.924-0.007,6.929-0.007c-1.086,3.297-2.774,5.092-6.929,5.092
	c-4.205,0-7.487-3.415-7.487-7.628c0-4.212,3.282-7.627,7.487-7.627c2.223,0,3.659,0.783,4.976,1.874
	c1.054-1.056,0.966-1.207,3.649-3.744c-2.277-2.076-5.304-3.342-8.625-3.342c-7.078,0-12.817,5.748-12.817,12.839
	c0,7.092,5.739,12.84,12.817,12.84c10.58,0,13.166-9.229,12.309-15.382H-1928.33z"/>
<polygon fill="#F24033" points="-1905.234,198.64 -1905.234,194.191 -1908.406,194.191 -1908.406,198.64 -1912.976,198.64 
	-1912.976,201.818 -1908.406,201.818 -1908.406,206.395 -1905.234,206.395 -1905.234,201.818 -1900.793,201.818 -1900.793,198.64 
	"/>
<path fill="#3FD5AE" d="M-1006.646,57.511c-5.095-0.164-8.543,2.656-10.354,8.457c0.929-0.384,1.834-0.568,2.711-0.568
	c1.862,0,2.684,1.024,2.464,3.085c-0.112,1.25-0.93,3.064-2.464,5.451c-1.534,2.383-2.686,3.573-3.45,3.573
	c-0.987,0-1.889-1.839-2.711-5.525c-0.274-1.084-0.771-3.849-1.475-8.297c-0.662-4.119-2.416-6.046-5.261-5.773
	c-1.207,0.113-3.015,1.195-5.421,3.256c-1.756,1.57-3.536,3.144-5.342,4.712l1.724,2.2c1.646-1.142,2.602-1.711,2.875-1.711
	c1.258,0,2.436,1.952,3.534,5.858c0.987,3.571,1.97,7.153,2.96,10.735c1.476,3.904,3.284,5.85,5.418,5.85
	c3.45,0,7.672-3.198,12.655-9.598c4.814-6.121,7.311-10.944,7.47-14.473C-1001.091,60.031-1002.873,57.616-1006.646,57.511"/>
<path fill="#3FD5AE" d="M-1134.722,54.587h-27.947c-2.407,0-4.357,1.946-4.357,4.348v27.967c0,2.401,1.95,4.348,4.357,4.348h27.947
	c2.407,0,4.358-1.947,4.358-4.348V58.935C-1130.363,56.533-1132.314,54.587-1134.722,54.587 M-1140.675,60.314
	c0-0.632,0.513-1.145,1.146-1.145h3.438c0.632,0,1.145,0.513,1.145,1.145v3.438c0,0.632-0.513,1.145-1.145,1.145h-3.438
	c-0.633,0-1.146-0.513-1.146-1.145V60.314z M-1148.652,65.927c3.894,0,7.051,3.15,7.051,7.034c0,3.885-3.157,7.034-7.051,7.034
	s-7.051-3.149-7.051-7.034C-1155.703,69.077-1152.546,65.927-1148.652,65.927 M-1133.801,86.667c0,0.632-0.513,1.146-1.146,1.146
	h-27.496c-0.633,0-1.146-0.514-1.146-1.146V69.48h4.583c-0.597,0.859-0.798,2.462-0.798,3.48c0,6.135,5.003,11.127,11.152,11.127
	s11.153-4.992,11.153-11.127c0-1.018-0.145-2.596-0.885-3.48h4.583V86.667z"/>
<path fill="#3FD5AE" d="M-1259.417,57.777c-1.486,0.902-3.129,1.558-4.884,1.909c-1.397-1.53-3.396-2.486-5.607-2.486
	c-4.24,0-7.682,3.528-7.682,7.879c0,0.618,0.066,1.217,0.198,1.794c-6.386-0.329-12.047-3.462-15.839-8.235
	c-0.662,1.168-1.04,2.523-1.04,3.966c0,2.732,1.356,5.144,3.418,6.557c-1.257-0.038-2.444-0.396-3.481-0.982v0.096
	c0,3.819,2.648,7.005,6.167,7.726c-0.645,0.185-1.324,0.277-2.025,0.277c-0.495,0-0.979-0.047-1.447-0.139
	c0.979,3.129,3.815,5.408,7.179,5.469c-2.63,2.114-5.944,3.374-9.544,3.374c-0.619,0-1.232-0.036-1.833-0.108
	c3.4,2.232,7.441,3.537,11.778,3.537c14.136,0,21.863-12.004,21.863-22.417c0-0.343-0.006-0.685-0.021-1.021
	c1.502-1.112,2.807-2.498,3.832-4.078c-1.376,0.626-2.857,1.05-4.412,1.24C-1261.209,61.161-1259.991,59.617-1259.417,57.777"/>
<rect x="-1422.5" y="67.278" fill="#3FD5AE" width="7.189" height="22.782"/>
<path fill="#3FD5AE" d="M-1395.665,67.059c-4.119,0-6.7,2.231-7.177,3.794v-3.575h-8.078c0.104,1.898,0,22.782,0,22.782h8.078
	V77.732c0-0.685-0.033-1.37,0.175-1.862c0.556-1.37,1.749-2.792,3.894-2.792c2.805,0,4.08,2.107,4.08,5.193V90.06h8.153V77.392
	C-1386.54,70.336-1390.555,67.059-1395.665,67.059"/>
<path fill="#3FD5AE" d="M-1419.038,56.523c-2.655,0-4.393,1.705-4.393,3.956c0,2.207,1.688,3.949,4.29,3.949h0.053
	c2.703,0,4.386-1.748,4.386-3.956C-1414.754,58.225-1416.385,56.523-1419.038,56.523"/>
<g>
	<path fill="#3FD5AE" d="M-1537.352,71.991c0.76-0.382,1.335-0.807,1.727-1.27c0.7-0.829,1.047-1.927,1.047-3.289
		c0-1.324-0.347-2.459-1.038-3.409c-1.153-1.547-3.106-2.339-5.867-2.38h-10.94v22.333h10.201c1.15,0,2.214-0.098,3.198-0.3
		c0.985-0.204,1.835-0.576,2.557-1.122c0.642-0.476,1.176-1.062,1.602-1.757c0.675-1.05,1.011-2.237,1.011-3.561
		c0-1.284-0.295-2.376-0.881-3.273C-1535.327,73.064-1536.197,72.408-1537.352,71.991 M-1547.91,65.521h4.929
		c1.083,0,1.975,0.117,2.677,0.349c0.81,0.335,1.215,1.022,1.215,2.065c0,0.935-0.308,1.59-0.92,1.959
		c-0.616,0.37-1.415,0.555-2.395,0.555h-5.506V65.521z M-1540.119,79.707c-0.545,0.261-1.312,0.393-2.294,0.393h-5.497v-5.956h5.575
		c0.969,0.009,1.725,0.136,2.263,0.378c0.963,0.436,1.441,1.233,1.441,2.397C-1538.631,78.292-1539.126,79.218-1540.119,79.707"/>
	<rect x="-1529.015" y="62.684" fill="#3FD5AE" width="9.701" height="2.779"/>
	<path fill="#3FD5AE" d="M-1517.277,70.24c-0.758-1.113-1.721-1.929-2.891-2.444c-1.167-0.516-2.479-0.775-3.937-0.775
		c-2.453,0-4.446,0.767-5.986,2.291c-1.535,1.527-2.304,3.722-2.304,6.584c0,3.052,0.848,5.257,2.556,6.611
		c1.7,1.356,3.666,2.031,5.895,2.031c2.699,0,4.799-0.803,6.298-2.407c0.961-1.012,1.504-2.008,1.622-2.986h-4.469
		c-0.259,0.485-0.56,0.863-0.903,1.137c-0.622,0.504-1.434,0.757-2.427,0.757c-0.943,0-1.747-0.209-2.414-0.623
		c-1.103-0.665-1.68-1.827-1.754-3.483h12.198c0.019-1.425-0.028-2.522-0.147-3.278
		C-1516.142,72.361-1516.586,71.222-1517.277,70.24 M-1527.883,74.084c0.159-1.075,0.549-1.927,1.167-2.556
		c0.619-0.629,1.493-0.944,2.613-0.944c1.034,0,1.898,0.296,2.6,0.888c0.693,0.598,1.085,1.465,1.165,2.612H-1527.883z"/>
</g>
<path fill="#3FD5AE" d="M-1645.756,65.777c-0.457-1.086-1.029-2.134-1.691-3.113c-0.653-0.97-1.408-1.885-2.236-2.713
	c-0.83-0.83-1.742-1.582-2.715-2.238c-0.979-0.664-2.027-1.231-3.114-1.692c-1.108-0.466-2.268-0.828-3.446-1.068
	c-1.207-0.248-2.449-0.375-3.691-0.375c-1.245,0-2.487,0.127-3.694,0.375c-1.178,0.24-2.338,0.602-3.446,1.068
	c-1.087,0.461-2.135,1.028-3.117,1.692c-0.97,0.656-1.882,1.408-2.712,2.238c-0.828,0.828-1.581,1.743-2.237,2.713
	c-0.662,0.979-1.233,2.027-1.69,3.113c-0.47,1.109-0.83,2.271-1.072,3.448c-0.246,1.205-0.371,2.447-0.371,3.689
	c0,1.247,0.125,2.489,0.371,3.696c0.242,1.177,0.602,2.337,1.072,3.444c0.457,1.086,1.028,2.139,1.69,3.117
	c0.656,0.971,1.409,1.881,2.237,2.713c0.83,0.828,1.742,1.578,2.712,2.236c0.982,0.662,2.03,1.231,3.117,1.69
	c1.108,0.47,2.268,0.828,3.446,1.068c1.207,0.25,2.449,0.375,3.694,0.375c1.242,0,2.484-0.125,3.691-0.375
	c1.178-0.24,2.338-0.598,3.446-1.068c1.087-0.459,2.135-1.028,3.114-1.69c0.973-0.658,1.885-1.408,2.715-2.236
	c0.828-0.832,1.583-1.742,2.236-2.713c0.662-0.979,1.234-2.031,1.691-3.117c0.468-1.107,0.83-2.267,1.072-3.444
	c0.246-1.207,0.371-2.449,0.371-3.696c0-1.242-0.125-2.484-0.371-3.689C-1644.926,68.049-1645.288,66.887-1645.756,65.777
	 M-1662.649,57.257c3.963,0,7.584,1.479,10.342,3.909c-0.039,0.059-2.269,3.455-8.182,5.669c-2.676-4.918-5.617-8.825-5.852-9.136
	C-1665.157,57.412-1663.922,57.257-1662.649,57.257 M-1666.402,57.711c0,0.002-0.002,0.005-0.002,0.005s-0.019,0.004-0.047,0.008
	C-1666.434,57.721-1666.419,57.719-1666.402,57.711 M-1669.332,58.756c0.209,0.278,3.105,4.204,5.816,9.021
	c-7.52,1.999-14.047,1.919-14.459,1.913C-1676.96,64.837-1673.701,60.816-1669.332,58.756 M-1674.299,83.382
	c-2.495-2.775-4.013-6.443-4.013-10.467c0-0.166,0.009-0.329,0.013-0.493c0.278,0.006,8.016,0.181,16.079-2.232
	c0.448,0.878,0.877,1.772,1.27,2.663c-0.207,0.056-0.412,0.118-0.617,0.187c-8.451,2.73-12.738,10.333-12.738,10.333
	S-1674.299,83.378-1674.299,83.382 M-1662.649,88.578c-3.699,0-7.096-1.285-9.777-3.431c-0.056-0.043-0.122-0.095-0.201-0.159
	c0.079,0.064,0.145,0.116,0.201,0.159c0.091,0.071,0.15,0.115,0.15,0.115s3.002-6.546,12.29-9.783
	c0.034-0.013,0.071-0.021,0.105-0.032c2.204,5.724,3.112,10.52,3.345,11.889C-1658.414,88.134-1660.482,88.578-1662.649,88.578
	 M-1653.899,85.904c-0.159-0.944-0.994-5.541-3.049-11.184c5.057-0.808,9.437,0.578,9.76,0.684
	C-1647.884,79.768-1650.384,83.53-1653.899,85.904 M-1657.901,72.247c-0.112-0.267-0.222-0.537-0.339-0.806
	c-0.325-0.768-0.677-1.527-1.041-2.273c6.185-2.525,8.695-6.154,8.725-6.197c2.195,2.667,3.526,6.074,3.562,9.789
	C-1647.22,72.71-1652.521,71.57-1657.901,72.247"/>
<path fill="#3FD5AE" d="M-1773.032,89.082c0,1.119-0.907,2.026-2.026,2.026h-9.355V76.892h4.772l0.714-5.541h-5.486v-3.537
	c0-1.604,0.445-2.697,2.746-2.697l2.934-0.001V60.16c-0.508-0.068-2.249-0.218-4.276-0.218c-4.23,0-7.126,2.582-7.126,7.323v4.086
	h-4.784v5.541h4.784v14.216h-17.582c-1.119,0-2.026-0.907-2.026-2.026V56.423c0-1.119,0.907-2.026,2.026-2.026h32.659
	c1.119,0,2.026,0.907,2.026,2.026V89.082z"/>
<path fill="#3FD5AE" d="M-1928.33,70.675v5.085c0,0,4.924-0.007,6.929-0.007c-1.086,3.297-2.774,5.092-6.929,5.092
	c-4.205,0-7.487-3.415-7.487-7.627c0-4.213,3.282-7.628,7.487-7.628c2.223,0,3.659,0.783,4.976,1.874
	c1.054-1.056,0.966-1.207,3.649-3.744c-2.277-2.076-5.304-3.342-8.625-3.342c-7.078,0-12.817,5.748-12.817,12.84
	c0,7.091,5.739,12.839,12.817,12.839c10.58,0,13.166-9.229,12.309-15.382H-1928.33z"/>
<polygon fill="#3FD5AE" points="-1905.234,70.93 -1905.234,66.48 -1908.406,66.48 -1908.406,70.93 -1912.976,70.93 
	-1912.976,74.108 -1908.406,74.108 -1908.406,78.685 -1905.234,78.685 -1905.234,74.108 -1900.793,74.108 -1900.793,70.93 "/>
<g>
	<path fill="#3FD5AE" d="M-372.979,47.801c1.52-0.765,2.67-1.614,3.453-2.54c1.402-1.658,2.096-3.854,2.096-6.578
		c0-2.648-0.693-4.918-2.076-6.818c-2.307-3.094-6.211-4.678-11.734-4.76h-21.879v44.666h20.402c2.299,0,4.426-0.196,6.395-0.6
		c1.971-0.408,3.67-1.152,5.113-2.244c1.285-0.952,2.352-2.124,3.205-3.515c1.35-2.1,2.021-4.474,2.021-7.122
		c0-2.567-0.59-4.752-1.762-6.546C-368.93,49.948-370.67,48.635-372.979,47.801 M-394.096,34.86h9.857
		c2.166,0,3.951,0.234,5.354,0.698c1.621,0.67,2.43,2.044,2.43,4.13c0,1.87-0.615,3.18-1.84,3.918c-1.23,0.74-2.828,1.11-4.789,1.11
		h-11.012V34.86z M-378.514,63.232c-1.09,0.522-2.625,0.786-4.588,0.786h-10.994V52.106h11.148c1.939,0.018,3.451,0.272,4.527,0.756
		c1.926,0.872,2.883,2.466,2.883,4.794C-375.537,60.402-376.529,62.255-378.514,63.232"/>
	<rect x="-356.305" y="29.188" fill="#3FD5AE" width="19.402" height="5.558"/>
	<path fill="#3FD5AE" d="M-332.83,44.3c-1.516-2.227-3.441-3.858-5.781-4.889c-2.336-1.031-4.959-1.55-7.875-1.55
		c-4.906,0-8.891,1.534-11.973,4.582c-3.07,3.054-4.607,7.444-4.607,13.168c0,6.104,1.697,10.515,5.111,13.222
		c3.402,2.713,7.332,4.062,11.791,4.062c5.398,0,9.598-1.606,12.596-4.814c1.922-2.023,3.008-4.016,3.244-5.972h-8.938
		c-0.518,0.97-1.119,1.726-1.807,2.274c-1.242,1.008-2.867,1.514-4.854,1.514c-1.885,0-3.494-0.418-4.828-1.246
		c-2.205-1.33-3.361-3.654-3.508-6.966h24.396c0.037-2.851-0.057-5.044-0.295-6.556C-330.561,48.542-331.447,46.264-332.83,44.3
		 M-354.041,51.987c0.316-2.149,1.098-3.854,2.332-5.111c1.238-1.259,2.988-1.889,5.227-1.889c2.068,0,3.797,0.592,5.199,1.776
		c1.387,1.196,2.172,2.93,2.332,5.224H-354.041z"/>
</g>
<g>
	<rect x="-254.32" y="39.587" fill="#3FD5AE" width="12.448" height="39.448"/>
	<path fill="#3FD5AE" d="M-207.854,39.208c-7.133,0-11.602,3.863-12.427,6.569v-6.191h-13.988c0.182,3.287,0,39.449,0,39.449h13.988
		V57.688c0-1.186-0.058-2.373,0.303-3.224c0.962-2.372,3.028-4.834,6.741-4.834c4.856,0,7.065,3.648,7.065,8.992v20.414h14.117V57.1
		C-192.055,44.882-199.006,39.208-207.854,39.208"/>
	<path fill="#3FD5AE" d="M-248.326,20.965c-4.598,0-7.605,2.953-7.605,6.85c0,3.822,2.922,6.838,7.428,6.838h0.092
		c4.681,0,7.594-3.027,7.594-6.85C-240.908,23.911-243.731,20.965-248.326,20.965"/>
</g>
<path fill="#3FD5AE" d="M-49.842,24.385c-2.533,1.537-5.332,2.656-8.324,3.254c-2.381-2.608-5.787-4.238-9.557-4.238
	c-7.228,0-13.093,6.014-13.093,13.429c0,1.054,0.113,2.075,0.338,3.059c-10.884-0.561-20.533-5.901-26.996-14.037
	c-1.129,1.991-1.772,4.3-1.772,6.76c0,4.656,2.312,8.768,5.825,11.175c-2.142-0.064-4.166-0.675-5.934-1.673v0.164
	c0,6.509,4.514,11.939,10.511,13.168c-1.098,0.315-2.257,0.472-3.452,0.472c-0.844,0-1.667-0.08-2.466-0.237
	c1.669,5.333,6.502,9.218,12.234,9.322c-4.482,3.603-10.131,5.751-16.267,5.751c-1.056,0-2.101-0.062-3.124-0.184
	c5.796,3.804,12.684,6.028,20.075,6.028c24.093,0,37.265-20.459,37.265-38.208c0-0.584-0.01-1.167-0.035-1.74
	c2.56-1.895,4.783-4.258,6.531-6.95c-2.346,1.067-4.87,1.789-7.52,2.113C-52.896,30.153-50.82,27.521-49.842,24.385"/>
<path fill="#3FD5AE" d="M71.171,22.226H28.827c-3.646,0-6.602,2.948-6.602,6.587v42.374c0,3.637,2.955,6.587,6.602,6.587h42.344
	c3.647,0,6.604-2.95,6.604-6.587V28.813C77.774,25.174,74.818,22.226,71.171,22.226 M62.151,30.904c0-0.957,0.776-1.734,1.735-1.734
	h5.208c0.957,0,1.734,0.777,1.734,1.734v5.21c0,0.957-0.777,1.734-1.734,1.734h-5.208c-0.959,0-1.735-0.777-1.735-1.734V30.904z
	 M50.064,39.407c5.899,0,10.683,4.772,10.683,10.658c0,5.886-4.783,10.657-10.683,10.657s-10.683-4.771-10.683-10.657
	C39.382,44.18,44.165,39.407,50.064,39.407 M72.566,70.83c0,0.958-0.777,1.736-1.737,1.736h-41.66c-0.958,0-1.736-0.778-1.736-1.736
	V44.792h6.943c-0.904,1.302-1.209,3.731-1.209,5.273c0,9.295,7.58,16.858,16.897,16.858s16.898-7.563,16.898-16.858
	c0-1.542-0.219-3.934-1.341-5.273h6.944V70.83z"/>
</svg>
