<?xml version="1.0" encoding="utf-8"?>
<!-- Generator: Adobe Illustrator 16.0.0, SVG Export Plug-In . SVG Version: 6.00 Build 0)  -->
<!DOCTYPE svg PUBLIC "-//W3C//DTD SVG 1.1//EN" "http://www.w3.org/Graphics/SVG/1.1/DTD/svg11.dtd">
<svg version="1.1" id="Layer_1" xmlns="http://www.w3.org/2000/svg" xmlns:xlink="http://www.w3.org/1999/xlink" x="0px" y="0px"
	 width="256px" height="256px" viewBox="0 0 256 256" enable-background="new 0 0 256 256" xml:space="preserve">
<path fill="#3FD5AE" d="M215.111,16.032H42.881c-14.832,0-26.851,11.992-26.851,26.793v172.354
	c0,14.791,12.019,26.788,26.851,26.788h172.23c14.836,0,26.858-11.997,26.858-26.788V42.825
	C241.97,28.023,229.947,16.032,215.111,16.032 M178.425,51.328c0-3.892,3.157-7.053,7.058-7.053h21.186
	c3.891,0,7.053,3.16,7.053,7.053v21.191c0,3.892-3.162,7.053-7.053,7.053h-21.186c-3.9,0-7.058-3.16-7.058-7.053V51.328z
	 M129.262,85.914c23.996,0,43.45,19.412,43.45,43.348c0,23.943-19.454,43.348-43.45,43.348c-23.995,0-43.45-19.404-43.45-43.348
	C85.812,105.326,105.267,85.914,129.262,85.914 M220.787,213.725c0,3.896-3.162,7.062-7.066,7.062H44.271
	c-3.897,0-7.062-3.166-7.062-7.062v-105.91H65.45c-3.678,5.295-4.917,15.176-4.917,21.447c0,37.807,30.832,68.574,68.729,68.574
	c37.898,0,68.733-30.768,68.733-68.574c0-6.271-0.89-15.997-5.453-21.447h28.245V213.725z"/>
</svg>
