<svg enable-background="new 0 0 256 256" height="256" viewBox="0 0 256 256" width="256" xmlns="http://www.w3.org/2000/svg"><path d="m215.111 16.032h-172.23c-14.832 0-26.851 11.992-26.851 26.793v172.354c0 14.791 12.019 26.788 26.851 26.788h172.23c14.836 0 26.858-11.997 26.858-26.788v-172.354c.001-14.802-12.022-26.793-26.858-26.793m-36.686 35.296c0-3.892 3.157-7.053 7.058-7.053h21.186c3.891 0 7.053 3.16 7.053 7.053v21.191c0 3.892-3.162 7.053-7.053 7.053h-21.186c-3.9 0-7.058-3.16-7.058-7.053zm-49.163 34.586c23.996 0 43.45 19.412 43.45 43.348 0 23.943-19.454 43.348-43.45 43.348-23.995 0-43.45-19.404-43.45-43.348 0-23.936 19.455-43.348 43.45-43.348m91.525 127.811c0 3.896-3.162 7.062-7.066 7.062h-169.45c-3.897 0-7.062-3.166-7.062-7.062v-105.91h28.241c-3.678 5.295-4.917 15.176-4.917 21.447 0 37.807 30.832 68.574 68.729 68.574 37.898 0 68.733-30.768 68.733-68.574 0-6.271-.89-15.997-5.453-21.447h28.245z" fill="#3fd5ae"/></svg>