<?xml version="1.0" encoding="UTF-8"?>
<svg width="227px" height="208px" viewBox="0 0 227 208" version="1.1" xmlns="http://www.w3.org/2000/svg" xmlns:xlink="http://www.w3.org/1999/xlink">
    <!-- Generator: Sketch 61.2 (89653) - https://sketch.com -->
    <title>Rectangle 2</title>
    <desc>Created with Sketch.</desc>
    <g id="Page-1" stroke="none" stroke-width="1" fill="none" fill-rule="evenodd">
        <g id="i-linkedin" fill="#3FD5AE" fill-rule="nonzero">
            <path d="M170.765,65.702 C202.167,65.702 226.834,85.837 226.834,129.194 L226.834,129.194 L226.834,207.039 L176.736,207.039 L176.736,134.594 C176.736,115.635 168.896,102.687 151.663,102.687 C138.488,102.687 131.154,111.424 127.74,119.845 C126.462,122.867 126.666,127.073 126.666,131.285 L126.666,131.285 L126.666,207.039 L77.025,207.039 C77.025,207.039 77.67,78.709 77.025,67.045 L77.025,67.045 L126.666,67.045 L126.666,89.015 C129.595,79.41 145.453,65.702 170.765,65.702 Z M50.047,67.048 L50.047,207.037 L5.871,207.037 L5.871,67.048 L50.047,67.048 Z M27.143,0.962 C43.447,0.962 53.466,11.416 53.787,25.229 C53.787,38.797 43.448,49.538 26.838,49.538 L26.838,49.538 L26.512,49.538 C10.522,49.538 0.153,38.833 0.153,25.271 C0.153,11.44 10.827,0.962 27.143,0.962 Z" id="Rectangle-2"></path>
        </g>
    </g>
</svg>