<?xml version="1.0" encoding="utf-8"?>
<!-- Generator: Adobe Illustrator 16.0.0, SVG Export Plug-In . SVG Version: 6.00 Build 0)  -->
<!DOCTYPE svg PUBLIC "-//W3C//DTD SVG 1.1//EN" "http://www.w3.org/Graphics/SVG/1.1/DTD/svg11.dtd">
<svg version="1.1" id="Layer_1" xmlns="http://www.w3.org/2000/svg" xmlns:xlink="http://www.w3.org/1999/xlink" x="0px" y="0px"
	 width="256px" height="256px" viewBox="0 0 256 256" style="enable-background:new 0 0 256 256;" xml:space="preserve">
<style type="text/css">
<![CDATA[
	.st0{fill:#00A789;}
]]>
</style>
<g>
	<path class="st0" d="M38.61,0.25c15.7,0,27.83,11.06,27.83,25.69c0,14.63-12.13,25.69-27.83,25.69S11.49,39.5,11.49,25.94
		C11.49,12.38,22.91,0.25,38.61,0.25z M17.56,84.11h42.82v171.28H17.56V84.11z"/>
	<path class="st0" d="M88.21,84.11h40.68v27.48h0.71c7.85-17.13,23.91-31.76,52.46-31.76c46.03,0,62.45,32.47,62.45,67.44v108.12
		h-42.83v-86.71c0-18.91-1.42-50.31-31.4-50.31c-28.19,0-39.25,20.69-39.25,43.54v93.49H88.21V84.11z"/>
</g>
</svg>
