<svg height="208" viewBox="0 0 227 208" width="227" xmlns="http://www.w3.org/2000/svg"><path d="m170.765 65.702c31.402 0 56.069 20.135 56.069 63.492v77.845h-50.098v-72.445c0-18.959-7.84-31.907-25.073-31.907-13.175 0-20.509 8.737-23.923 17.158-1.278 3.022-1.074 7.228-1.074 11.44v75.754h-49.641s.645-128.33 0-139.994h49.641v21.97c2.929-9.605 18.787-23.313 44.099-23.313zm-120.718 1.346v139.989h-44.176v-139.989zm-22.904-66.086c16.304 0 26.323 10.454 26.644 24.267 0 13.568-10.339 24.309-26.949 24.309h-.326c-15.99 0-26.359-10.705-26.359-24.267 0-13.831 10.674-24.309 26.99-24.309z" fill="#3fd5ae"/></svg>