<?xml version="1.0" encoding="utf-8"?>
<!-- Generator: Adobe Illustrator 16.0.0, SVG Export Plug-In . SVG Version: 6.00 Build 0)  -->
<!DOCTYPE svg PUBLIC "-//W3C//DTD SVG 1.1//EN" "http://www.w3.org/Graphics/SVG/1.1/DTD/svg11.dtd">
<svg version="1.1" id="Layer_1" xmlns="http://www.w3.org/2000/svg" xmlns:xlink="http://www.w3.org/1999/xlink" x="0px" y="0px"
	 width="256px" height="256px" viewBox="0 0 256 256" enable-background="new 0 0 256 256" xml:space="preserve">
<g>
	<rect x="20.871" y="92.048" fill="#3FD5AE" width="44.176" height="139.989"/>
	<path fill="#3FD5AE" d="M185.765,90.702c-25.312,0-41.17,13.708-44.099,23.313v-21.97H92.025c0.645,11.664,0,139.994,0,139.994
		h49.641v-75.754c0-4.212-0.204-8.418,1.074-11.44c3.414-8.421,10.748-17.158,23.923-17.158c17.233,0,25.073,12.948,25.073,31.907
		v72.445h50.098v-77.845C241.834,110.837,217.167,90.702,185.765,90.702"/>
	<path fill="#3FD5AE" d="M42.143,25.962c-16.316,0-26.99,10.478-26.99,24.309c0,13.562,10.369,24.267,26.359,24.267h0.326
		c16.61,0,26.949-10.741,26.949-24.309C68.466,36.416,58.447,25.962,42.143,25.962"/>
</g>
</svg>
