<?xml version="1.0" encoding="utf-8"?>
<!-- Generator: Adobe Illustrator 16.0.0, SVG Export Plug-In . SVG Version: 6.00 Build 0)  -->
<!DOCTYPE svg PUBLIC "-//W3C//DTD SVG 1.1//EN" "http://www.w3.org/Graphics/SVG/1.1/DTD/svg11.dtd">
<svg version="1.1" id="Layer_1" xmlns="http://www.w3.org/2000/svg" xmlns:xlink="http://www.w3.org/1999/xlink" x="0px" y="0px"
	 width="1500.16px" height="1330.57px" viewBox="3.235 5.77 1500.16 1330.57" enable-background="new 3.235 5.77 1500.16 1330.57"
	 xml:space="preserve">
<g>
	
		<image overflow="visible" opacity="0.3" width="1550" height="1382" xlink:href="A52EDA0B9B18E0DE.png"  transform="matrix(1 0 0 1 -11.5 -10)">
	</image>
	<g>
		<path fill="#FFFFFF" d="M1418.245,994.285c-46.221-26.871-125.261-47.17-363.75-83.191c-1.4-0.189-40.681-5.549-80.67-16.328
			c-61.87-16.691-90.681-36.781-90.681-63.25c0-46.391,68.761-46.391,101.811-46.391c18.59,0,38.569,0.73,59.71,1.51
			c21.939,0.811,44.62,1.641,66.46,1.641c0.34,0,0.7,0.01,1.05,0.039c0.03,0,4.689,0.291,12.83,0.291
			c35.91,0,128.53-5.391,212.89-55.371c106.21-62.93,159.311-205.73,160.061-326.54c0.68-111.08-56.36-247.4-167.511-313.95
			c-108.38-64.9-226.08-66.77-239.149-66.77h-0.54c-44,0-117.67,0-189.46,45.35c-87.57,55.3-150.3,164.1-186.459,323.35
			c-1.12,5.76-14.54,72.14-53.9,139.85c-54.51,93.76-132.62,144.17-225.9,145.77c-2.82,0.049-5.65,0.07-8.4,0.07
			c-0.01,0-0.04,0-0.05,0c-92.16,0.01-162.08-26.531-207.85-78.85c-68.6-78.44-57.56-186.13-56.2-197.32
			c0.38-8.7,4.38-83.02,31.42-158.98c38.62-108.49,105.76-166.76,194.13-168.52c0.01,0,0.02,0,0.04,0c5.32,0,48.16,0.78,79.69,25.97
			c14.98,11.97,10.1,33.48,2.7,66.06c-8.87,39.04-21,92.5,5.91,122.87c21.31,24.06,52.68,38.42,83.92,38.42
			c27.44,0,50.33-11.18,64.64-31.55c3.72-9.7,23.36-63.43,18.94-103.65c-12.54-114.07-93.89-172.34-256.03-183.37
			c-4.09-0.29-10.83-0.62-19.72-0.62c-43.65,0-128.3,7.69-204.91,59.21c-96.13,64.63-148.03,176.79-154.27,333.36
			c-4.36,109.18,27.75,200.229,95.4,270.64c93.28,97.08,230.52,131.68,327.85,131.68c0,0,0.01,0,0.02,0
			c94.53,0,180.34-31.4,248.14-90.811c77.689-68.08,130.019-169.57,155.529-301.669c0.891-5.811,10.311-63.22,44.11-121.39
			c47.18-81.15,119.08-124.21,207.939-124.49h1.67c90.66,0,160.46,23.91,207.48,71.05c55.39,55.57,63.479,126.82,63.36,164.35v0.88
			c0,0.819,0.08,2.119,0.159,3.84c3.631,72.89-15.54,131.92-56.97,175.46c-48.09,50.54-123.65,76.17-224.58,76.17
			c-0.54,0-1.08-0.03-1.62-0.09c-0.21-0.021-21.489-2.15-53.18-2.15c-52.47,0-128.29,5.62-191.47,32.37
			c-73.19,30.99-110.299,83.141-110.299,155c0,81.82,95.339,127.83,175.319,152.02c90.76,27.441,183.08,33.67,184.01,33.74
			c0.16,0.01,0.32,0.031,0.48,0.041c0.76,0.07,76.89,7.379,152.08,20.65c85.14,15.02,135.62,37.479,136.07,76.078
			c0.699,61.83-64.48,92.262-274.9,105.922c-37.12,2.408-66.6,3.529-92.8,3.529c-78.271,0-125.3-10.58-148.01-33.32
			c-10.38-10.4-15.641-23.051-15.62-37.629c0-2.102,0.42-4.182,1.229-6.121c9.96-23.959,31.87-97.9,2.83-122.41
			c-0.97-0.83-1.85-1.77-2.609-2.811c-1.11-1.459-30-38.51-103.879-38.51c-4.4,0-8.94,0.141-13.49,0.41
			c-6.13,0.75-54.4,9.291-51.09,90.02c0.03,0.66,3.43,66.98,65.54,130.16c74.139,75.42,202.019,115.281,369.829,115.281
			c174.84,0,264.63-31.721,334.26-87.211c56.851-45.311,56.24-99.75,56.24-136.18
			C1498.035,1080.475,1466.955,1022.594,1418.245,994.285z"/>
	</g>
</g>
</svg>
