<?xml version="1.0" encoding="utf-8"?>
<!-- Generator: Adobe Illustrator 16.0.0, SVG Export Plug-In . SVG Version: 6.00 Build 0)  -->
<!DOCTYPE svg PUBLIC "-//W3C//DTD SVG 1.1//EN" "http://www.w3.org/Graphics/SVG/1.1/DTD/svg11.dtd">
<svg version="1.1" id="Layer_1" xmlns="http://www.w3.org/2000/svg" xmlns:xlink="http://www.w3.org/1999/xlink" x="0px" y="0px"
	 width="1500px" height="1335px" viewBox="-585 0 1500 1335" style="enable-background:new -585 0 1500 1335;" xml:space="preserve"
	>
<style type="text/css">
<![CDATA[
	.st0{fill:#00A88A;}
]]>
</style>
<path class="st0" d="M829.65,987.46c-46.22-26.87-125.26-47.17-363.75-83.19c-1.4-0.19-40.68-5.55-80.67-16.33
	c-61.87-16.69-90.68-36.78-90.68-63.25c0-46.39,68.76-46.39,101.81-46.39c18.59,0,38.57,0.73,59.71,1.51
	c21.94,0.81,44.62,1.64,66.46,1.64c0.34,0,0.7,0.01,1.05,0.04c0.03,0,4.69,0.29,12.83,0.29c35.91,0,128.53-5.39,212.89-55.37
	c106.21-62.93,159.31-205.73,160.06-326.54c0.68-111.08-56.36-247.4-167.51-313.95c-108.38-64.9-226.08-66.77-239.15-66.77h-0.54
	c-44,0-117.67,0-189.46,45.35C225.13,119.8,162.4,228.6,126.24,387.85c-1.12,5.76-14.54,72.14-53.9,139.85
	c-54.51,93.76-132.62,144.17-225.9,145.77c-2.82,0.05-5.65,0.07-8.4,0.07c-0.01,0-0.04,0-0.05,0
	c-92.16,0.01-162.08-26.53-207.85-78.85c-68.6-78.44-57.56-186.13-56.2-197.32c0.38-8.7,4.38-83.02,31.42-158.98
	c38.62-108.49,105.76-166.76,194.13-168.52c0.01,0,0.02,0,0.04,0c5.32,0,48.16,0.78,79.69,25.97c14.98,11.97,10.1,33.48,2.7,66.06
	c-8.87,39.04-21,92.5,5.91,122.87c21.31,24.06,52.68,38.42,83.92,38.42c27.44,0,50.33-11.18,64.64-31.55
	c3.72-9.7,23.36-63.43,18.94-103.65C42.79,73.92-38.56,15.65-200.7,4.62C-204.79,4.33-211.53,4-220.42,4
	c-43.65,0-128.3,7.69-204.91,59.21C-521.46,127.84-573.36,240-579.6,396.57c-4.36,109.18,27.75,200.23,95.4,270.64
	c93.28,97.08,230.52,131.68,327.85,131.68c0,0,0.01,0,0.02,0c94.53,0,180.34-31.4,248.14-90.81
	C169.5,640,221.83,538.51,247.34,406.41c0.89-5.81,10.31-63.22,44.11-121.39c47.18-81.15,119.08-124.21,207.94-124.49h1.67
	c90.66,0,160.46,23.91,207.48,71.05c55.39,55.57,63.48,126.82,63.36,164.35v0.88c0,0.82,0.08,2.12,0.16,3.84
	c3.63,72.89-15.54,131.92-56.97,175.46c-48.09,50.54-123.65,76.17-224.58,76.17c-0.54,0-1.08-0.03-1.62-0.09
	c-0.21-0.02-21.49-2.15-53.18-2.15c-52.47,0-128.29,5.62-191.47,32.37c-73.19,30.99-110.3,83.14-110.3,155
	c0,81.82,95.34,127.83,175.32,152.02c90.76,27.44,183.08,33.67,184.01,33.74c0.16,0.01,0.32,0.03,0.48,0.04
	c0.76,0.07,76.89,7.38,152.08,20.65c85.14,15.02,135.62,37.48,136.07,76.08c0.7,61.83-64.48,92.26-274.9,105.92
	c-37.12,2.41-66.6,3.53-92.8,3.53c-78.27,0-125.3-10.58-148.01-33.32c-10.38-10.4-15.64-23.05-15.62-37.63
	c0-2.1,0.42-4.18,1.23-6.12c9.96-23.96,31.87-97.9,2.83-122.41c-0.97-0.83-1.85-1.77-2.61-2.81c-1.11-1.46-30-38.51-103.88-38.51
	c-4.4,0-8.94,0.14-13.49,0.41c-6.13,0.75-54.4,9.29-51.09,90.02c0.03,0.66,3.43,66.98,65.54,130.16
	c74.14,75.42,202.02,115.28,369.83,115.28c174.84,0,264.63-31.72,334.26-87.21c56.85-45.31,56.24-99.75,56.24-136.18
	C909.44,1073.65,878.36,1015.77,829.65,987.46z"/>
</svg>
