<?xml version="1.0" encoding="utf-8"?>
<!-- Generator: Adobe Illustrator 16.0.0, SVG Export Plug-In . SVG Version: 6.00 Build 0)  -->
<!DOCTYPE svg PUBLIC "-//W3C//DTD SVG 1.1//EN" "http://www.w3.org/Graphics/SVG/1.1/DTD/svg11.dtd">
<svg version="1.1" id="Layer_1" xmlns="http://www.w3.org/2000/svg" xmlns:xlink="http://www.w3.org/1999/xlink" x="0px" y="0px"
	 width="144px" height="124.67px" viewBox="0 0 144 124.67" style="enable-background:new 0 0 144 124.67;" xml:space="preserve">
<style type="text/css">
<![CDATA[
	.st0{fill:#00AE8D;}
]]>
</style>
<path class="st0" d="M143,13.89c0,5.77-4.67,10.44-10.44,10.44H12.44C6.67,24.33,2,19.66,2,13.89v-0.12C2,8.01,6.67,3.33,12.44,3.33
	h120.12c5.77,0,10.44,4.67,10.44,10.44V13.89z"/>
<path class="st0" d="M143,62.89c0,5.77-4.67,10.44-10.44,10.44H12.44C6.67,73.33,2,68.66,2,62.89v-0.12
	c0-5.77,4.67-10.44,10.44-10.44h120.12c5.77,0,10.44,4.67,10.44,10.44V62.89z"/>
<path class="st0" d="M143,110.89c0,5.77-4.67,10.44-10.44,10.44H12.44C6.67,121.33,2,116.66,2,110.89v-0.12
	c0-5.77,4.67-10.44,10.44-10.44h120.12c5.77,0,10.44,4.67,10.44,10.44V110.89z"/>
<g>
</g>
<g>
</g>
<g>
</g>
<g>
</g>
<g>
</g>
<g>
</g>
</svg>
