<?xml version="1.0" encoding="utf-8"?>
<!-- Generator: Adobe Illustrator 16.0.0, SVG Export Plug-In . SVG Version: 6.00 Build 0)  -->
<!DOCTYPE svg PUBLIC "-//W3C//DTD SVG 1.1//EN" "http://www.w3.org/Graphics/SVG/1.1/DTD/svg11.dtd">
<svg version="1.1" id="Layer_1" xmlns="http://www.w3.org/2000/svg" xmlns:xlink="http://www.w3.org/1999/xlink" x="0px" y="0px"
	 width="128px" height="108px" viewBox="0 0 128 108" style="enable-background:new 0 0 128 108;" xml:space="preserve">
<style type="text/css">
<![CDATA[
	.st0{fill:none;stroke:#262626;stroke-width:0.25;stroke-miterlimit:10;}
	.st1{opacity:0.6;fill:#FFC43B;}
	.st2{fill:none;stroke:#741472;stroke-width:0.9552;stroke-miterlimit:10;}
	.st3{display:none;opacity:0.6;fill:#E6E6E6;}
	.st4{opacity:0.6;fill:#6AD9C4;}
	.st5{fill:none;stroke:#FFFFFF;stroke-miterlimit:10;}
	.st6{opacity:0.6;fill:#741472;}
	.st7{fill:none;stroke:#741472;stroke-width:1.1228;stroke-miterlimit:10;}
	.st8{fill:#262626;}
	.st9{fill:none;stroke:#262626;stroke-width:2;stroke-linecap:round;stroke-miterlimit:10;stroke-dasharray:0,10;}
	.st10{fill:none;stroke:#741472;stroke-width:0.9578;stroke-miterlimit:10;}
	.st11{fill:none;stroke:#262626;stroke-linejoin:round;stroke-miterlimit:10;stroke-dasharray:3,4;}
	.st12{fill:none;stroke:#FFFFFF;stroke-width:0.4049;stroke-miterlimit:10;}
	.st13{fill:none;stroke:#741472;stroke-miterlimit:10;}
	.st14{fill:#2E2E2E;}
	.st15{fill:#FFC43B;}
	.st16{fill:#FFFFFF;}
	.st17{opacity:0.6;fill:#E6E6E6;}
	.st18{fill:none;}
	.st19{fill:none;stroke:#FFFFFF;stroke-width:0.8746;stroke-miterlimit:10;}
	.st20{fill:none;stroke:#741472;stroke-width:0.9389;stroke-miterlimit:10;}
	.st21{fill:#00AE8D;}
	.st22{fill:#741472;}
	.st23{fill:none;stroke:#741472;stroke-width:0.9324;stroke-miterlimit:10;}
	.st24{fill:none;stroke:#262626;stroke-width:1.2836;stroke-miterlimit:10;}
]]>
</style>
<path class="st14" d="M128,9.5c0,5.25-4.25,9.5-9.5,9.5H9.5C4.25,19,0,14.75,0,9.5l0,0C0,4.25,4.25,0,9.5,0h109
	C123.75,0,128,4.25,128,9.5L128,9.5z"/>
<path class="st14" d="M128,54.5c0,5.25-4.25,9.5-9.5,9.5H9.5C4.25,64,0,59.75,0,54.5l0,0C0,49.25,4.25,45,9.5,45h109
	C123.75,45,128,49.25,128,54.5L128,54.5z"/>
<path class="st14" d="M128,98.5c0,5.25-4.25,9.5-9.5,9.5H9.5c-5.25,0-9.5-4.25-9.5-9.5l0,0C0,93.25,4.25,89,9.5,89h109
	C123.75,89,128,93.25,128,98.5L128,98.5z"/>
</svg>
