<?xml version="1.0" encoding="utf-8"?>
<!-- Generator: Adobe Illustrator 16.0.0, SVG Export Plug-In . SVG Version: 6.00 Build 0)  -->
<!DOCTYPE svg PUBLIC "-//W3C//DTD SVG 1.1//EN" "http://www.w3.org/Graphics/SVG/1.1/DTD/svg11.dtd">
<svg version="1.1" id="Layer_1" xmlns="http://www.w3.org/2000/svg" xmlns:xlink="http://www.w3.org/1999/xlink" x="0px" y="0px"
	 width="147px" height="124px" viewBox="0 0 147 124" enable-background="new 0 0 147 124" xml:space="preserve">
<g>
	
		<image overflow="visible" opacity="0.2" enable-background="new    " width="148" height="28" xlink:href="C2936608CE98C7BA.png"  transform="matrix(0.9923 0 0 0.9923 0.4131 1.2832)">
	</image>
	<g>
		<path fill="#FFFFFF" d="M143,13.89c0,5.77-4.67,10.44-10.439,10.44H12.44C6.67,24.33,2,19.66,2,13.89v-0.12
			C2,8.01,6.67,3.33,12.44,3.33h120.121C138.33,3.33,143,8,143,13.77V13.89z"/>
	</g>
</g>
<g>
	
		<image overflow="visible" opacity="0.2" enable-background="new    " width="148" height="28" xlink:href="C2936608CE98C7BE.png"  transform="matrix(0.9923 0 0 0.9923 0.4131 50.2832)">
	</image>
	<g>
		<path fill="#FFFFFF" d="M143,62.891c0,5.771-4.67,10.439-10.439,10.439H12.44C6.67,73.33,2,68.66,2,62.891V62.77
			C2,57,6.67,52.33,12.44,52.33h120.121C138.33,52.33,143,57,143,62.77V62.891z"/>
	</g>
</g>
<g>
	
		<image overflow="visible" opacity="0.2" enable-background="new    " width="148" height="28" xlink:href="C2936608CE98C7B9.png"  transform="matrix(0.9923 0 0 0.9923 0.4131 98.2832)">
	</image>
	<g>
		<path fill="#FFFFFF" d="M143,110.891c0,5.771-4.67,10.439-10.439,10.439H12.44C6.67,121.33,2,116.66,2,110.891v-0.119
			c0-5.771,4.67-10.44,10.44-10.44h120.121c5.771,0,10.439,4.67,10.439,10.44V110.891z"/>
	</g>
</g>
</svg>
