<?xml version="1.0" encoding="utf-8"?>
<!-- Generator: Adobe Illustrator 16.0.0, SVG Export Plug-In . SVG Version: 6.00 Build 0)  -->
<!DOCTYPE svg PUBLIC "-//W3C//DTD SVG 1.1//EN" "http://www.w3.org/Graphics/SVG/1.1/DTD/svg11.dtd">
<svg version="1.1" id="Layer_1" xmlns="http://www.w3.org/2000/svg" xmlns:xlink="http://www.w3.org/1999/xlink" x="0px" y="0px"
	 width="100px" height="100px" viewBox="-27.02 0 100 100" style="enable-background:new -27.02 0 100 100;" xml:space="preserve">
<style type="text/css">
<![CDATA[
	.st0{fill:#B8E0D6;}
	.st1{fill:#CCE8E0;}
]]>
</style>
<g>
	<path class="st0" d="M4.7,1.34c-1.45,0-2.63,1.2-2.63,2.68v2.1C2.07,7.6,3.25,8.8,4.7,8.8h36.55c1.45,0,2.63-1.2,2.63-2.68v-2.1
		c0-1.48-1.18-2.68-2.63-2.68H4.7z M41.24,10.14H4.7c-2.17,0-3.94-1.8-3.94-4.02v-2.1C0.76,1.8,2.52,0,4.7,0h36.55
		c2.17,0,3.94,1.8,3.94,4.02v2.1C45.18,8.34,43.42,10.14,41.24,10.14"/>
	<path class="st0" d="M4.7,36.55c-1.45,0-2.63,1.2-2.63,2.68v2.1c0,1.48,1.18,2.68,2.63,2.68h36.55c1.45,0,2.63-1.2,2.63-2.68v-2.1
		c0-1.48-1.18-2.68-2.63-2.68H4.7z M41.24,45.35H4.7c-2.17,0-3.94-1.8-3.94-4.02v-2.1c0-2.22,1.77-4.02,3.94-4.02h36.55
		c2.17,0,3.94,1.8,3.94,4.02v2.1C45.18,43.54,43.42,45.35,41.24,45.35"/>
	<path class="st0" d="M4.7,18.94c-1.45,0-2.63,1.2-2.63,2.68v2.1c0,1.48,1.18,2.68,2.63,2.68h36.55c1.45,0,2.63-1.2,2.63-2.68v-2.1
		c0-1.48-1.18-2.68-2.63-2.68H4.7z M41.24,27.75H4.7c-2.17,0-3.94-1.8-3.94-4.02v-2.1c0-2.22,1.77-4.02,3.94-4.02h36.55
		c2.17,0,3.94,1.8,3.94,4.02v2.1C45.18,25.94,43.42,27.75,41.24,27.75"/>
	<g>
		<path class="st1" d="M1.6,60.7h2.6l4.5,12l4.52-12h2.6v14.28h-1.8V63.1h-0.04L9.52,74.99H7.9L3.44,63.1H3.4v11.88H1.6V60.7z"/>
		<path class="st1" d="M23.16,64.4c3.28,0,5.02,2.38,5.02,5.42c0,3.02-1.74,5.4-5.02,5.4c-3.28,0-5.02-2.38-5.02-5.4
			C18.14,66.78,19.88,64.4,23.16,64.4z M23.16,73.72c1.78,0,3.22-1.4,3.22-3.9c0-2.52-1.44-3.92-3.22-3.92
			c-1.78,0-3.22,1.4-3.22,3.92C19.94,72.33,21.38,73.72,23.16,73.72z"/>
		<path class="st1" d="M30.12,64.64h1.6v2.18h0.04c0.82-1.66,1.96-2.48,3.8-2.42v1.8c-2.74,0-3.74,1.56-3.74,4.18v4.6h-1.7V64.64z"
			/>
		<path class="st1" d="M45.32,71.71c-0.46,2.28-2.1,3.52-4.42,3.52c-3.3,0-4.86-2.28-4.96-5.44c0-3.1,2.04-5.38,4.86-5.38
			c3.66,0,4.78,3.42,4.68,5.92h-7.74c-0.06,1.8,0.96,3.4,3.22,3.4c1.4,0,2.38-0.68,2.68-2.02H45.32z M43.68,68.82
			c-0.08-1.62-1.3-2.92-2.98-2.92c-1.78,0-2.84,1.34-2.96,2.92H43.68z"/>
	</g>
</g>
</svg>
