<?xml version="1.0" encoding="utf-8"?>
<!-- Generator: Adobe Illustrator 16.0.0, SVG Export Plug-In . SVG Version: 6.00 Build 0)  -->
<!DOCTYPE svg PUBLIC "-//W3C//DTD SVG 1.1//EN" "http://www.w3.org/Graphics/SVG/1.1/DTD/svg11.dtd">
<svg version="1.1" id="Layer_1" xmlns="http://www.w3.org/2000/svg" xmlns:xlink="http://www.w3.org/1999/xlink" x="0px" y="0px"
	 width="100px" height="100px" viewBox="-23.14 0 100 100" style="enable-background:new -23.14 0 100 100;" xml:space="preserve">
<style type="text/css">
<![CDATA[
	.st0{fill:#B8E0D6;}
	.st1{fill:#CCE8E0;}
]]>
</style>
<g>
	<path class="st0" d="M18.11,36.93c-0.62,0-1.26,0.06-1.91,0.18c-3,0.57-5.29,2.33-5.01,3.84c0.21,1.13,1.91,1.93,4.13,1.93
		c0.62,0,1.27-0.06,1.91-0.19c3-0.57,5.29-2.33,5.01-3.84c-0.04-0.2,0-0.44,0.02-0.58v-23.6l16.92-4.01v20.36l-0.71-0.17
		c-1.1-0.27-2.45-0.29-3.79-0.03c-3,0.57-5.29,2.33-5.01,3.84c0.21,1.13,1.91,1.93,4.13,1.93l0,0c0.62,0,1.27-0.06,1.91-0.19
		c3-0.57,5.29-2.33,5.01-3.84l-0.04-0.21V1.46L20.77,6.18v31.17l-0.71-0.18C19.47,37.01,18.81,36.93,18.11,36.93 M15.33,44.05
		c-2.87,0-4.93-1.13-5.26-2.87c-0.41-2.2,2.19-4.49,5.92-5.2c1.25-0.24,2.52-0.27,3.63-0.09V5.26L41.85,0v32.27
		c0.01,0.03,0.01,0.05,0.02,0.08c0.41,2.21-2.19,4.49-5.92,5.2c-0.71,0.14-1.43,0.21-2.12,0.21l0,0c-2.87,0-4.93-1.13-5.26-2.87
		c-0.41-2.2,2.19-4.49,5.92-5.2c1.23-0.23,2.47-0.27,3.57-0.1V12.12l-14.63,3.47l-0.01,22.87c-0.01,0.07-0.03,0.17-0.02,0.21
		c0.41,2.18-2.19,4.47-5.92,5.18C16.75,43.98,16.03,44.05,15.33,44.05"/>
	<g>
		<path class="st1" d="M1.6,60.3h2.6l4.5,12l4.52-12h2.6v14.28h-1.8V62.7h-0.04L9.52,74.58H7.9L3.44,62.7H3.4v11.88H1.6V60.3z"/>
		<path class="st1" d="M27.26,74.58h-1.6v-1.64h-0.04c-0.72,1.28-1.88,1.88-3.36,1.88c-2.72,0-3.56-1.56-3.56-3.78v-6.8h1.7v7
			c0,1.26,0.8,2.08,2.1,2.08c2.06,0,3.06-1.38,3.06-3.24v-5.84h1.7V74.58z"/>
		<path class="st1" d="M30.86,71.32c0.06,1.52,1.38,2,2.78,2c1.06,0,2.5-0.24,2.5-1.54c0-1.32-1.68-1.54-3.38-1.92
			c-1.68-0.38-3.38-0.94-3.38-2.92c0-2.08,2.06-2.94,3.86-2.94c2.28,0,4.1,0.72,4.24,3.24h-1.7c-0.12-1.32-1.28-1.74-2.4-1.74
			c-1.02,0-2.2,0.28-2.2,1.32c0,1.22,1.8,1.42,3.38,1.8c1.7,0.38,3.38,0.94,3.38,2.94c0,2.46-2.3,3.26-4.4,3.26
			c-2.32,0-4.28-0.94-4.38-3.5H30.86z"/>
		<path class="st1" d="M41.62,62.38h-1.7V60.3h1.7V62.38z M39.92,64.24h1.7v10.34h-1.7V64.24z"/>
		<path class="st1" d="M51.28,67.56c-0.26-1.3-1.16-2.06-2.56-2.06c-2.46,0-3.22,1.94-3.22,4.04c0,1.9,0.86,3.78,3.02,3.78
			c1.64,0,2.62-0.96,2.84-2.52h1.74c-0.38,2.52-1.96,4.02-4.56,4.02c-3.16,0-4.84-2.2-4.84-5.28c0-3.1,1.6-5.54,4.88-5.54
			c2.34,0,4.22,1.1,4.46,3.56H51.28z"/>
	</g>
</g>
</svg>
