<?xml version="1.0" encoding="utf-8"?>
<!-- Generator: Adobe Illustrator 16.0.0, SVG Export Plug-In . SVG Version: 6.00 Build 0)  -->
<!DOCTYPE svg PUBLIC "-//W3C//DTD SVG 1.1//EN" "http://www.w3.org/Graphics/SVG/1.1/DTD/svg11.dtd">
<svg version="1.1" id="Layer_1" xmlns="http://www.w3.org/2000/svg" xmlns:xlink="http://www.w3.org/1999/xlink" x="0px" y="0px"
	 width="215.82px" height="249.21px" viewBox="0 0 215.82 249.21" style="enable-background:new 0 0 215.82 249.21;"
	 xml:space="preserve">
<style type="text/css">
<![CDATA[
	.st0{fill:#7C3A7B;}
	.st1{fill:#E6E6E6;}
	.st2{fill:#4D4D4F;}
	.st3{fill:#FFC53B;}
	.st4{fill:#FFCF68;}
	.st5{fill:#FFF0D4;}
	.st6{fill:#636466;}
	.st7{fill:#00AE8D;}
	.st8{fill:#00C0A3;}
	.st9{fill:#D8F4EC;}
	.st10{fill:#732672;}
	.st11{fill:#DED1DE;}
]]>
</style>
<g>
	<polygon class="st11" points="0,62.3 107.91,0 169.93,35.8 215.82,62.3 215.82,186.9 107.91,249.21 0,186.9 	"/>
	<g>
		<g>
			<path class="st10" d="M12.68,86.1c-1.71,0-3.39-0.69-4.6-1.9c-1.21-1.21-1.9-2.89-1.9-4.6s0.69-3.39,1.9-4.6s2.89-1.9,4.6-1.9
				s3.39,0.69,4.6,1.9c1.21,1.22,1.9,2.89,1.9,4.6s-0.69,3.39-1.9,4.6C16.07,85.41,14.39,86.1,12.68,86.1z"/>
		</g>
		<g>
			<path class="st10" d="M70.18,150.57c-1.25-3.37,0.46-7.11,3.83-8.36l0,0c3.36-1.25,7.1,0.46,8.36,3.82l0,0
				c1.25,3.37-0.46,7.11-3.83,8.36l0,0c-0.75,0.28-1.51,0.41-2.27,0.41l0,0C73.64,154.8,71.16,153.19,70.18,150.57z M57.06,120.6
				h-0.01c-1.69-3-0.51-6.98,2.65-8.67l0,0c3.17-1.71,7.11-0.45,8.81,2.71l0,0c1.69,3.16,0.51,7.14-2.65,8.84l0,0
				c-0.98,0.52-2.04,0.65-3.07,0.65l0,0C60.47,124.14,58.23,122.6,57.06,120.6z M38.68,95.85L38.68,95.85
				c-3-2.4-2.85-6.51-0.44-9.18l0,0c2.41-2.66,6.53-2.87,9.19-0.46l0,0c2.67,2.41,2.88,6.52,0.48,9.18l0,0
				c-1.29,1.42-3.07,2.14-4.85,2.14l0,0C41.5,97.53,39.68,96.98,38.68,95.85z"/>
		</g>
		<g>
			<path class="st10" d="M86.68,186.55c-1.71,0-3.38-0.7-4.6-1.91c-1.21-1.2-1.9-2.88-1.9-4.59s0.69-3.39,1.9-4.6
				c1.22-1.21,2.89-1.9,4.6-1.9s3.38,0.69,4.6,1.9c1.21,1.21,1.9,2.89,1.9,4.6s-0.69,3.38-1.9,4.59
				C90.06,185.85,88.39,186.55,86.68,186.55z"/>
		</g>
		<g>
			<path class="st10" d="M95.41,161.42c-3.09-1.83-4.11-5.82-2.27-8.9l0,0l0,0l0,0c1.83-3.09,5.82-4.11,8.9-2.28l0,0
				c3.09,1.84,4.11,5.82,2.28,8.91l0,0c-1.22,2.05-3.38,3.18-5.6,3.18l0,0C97.59,162.33,96.45,162.04,95.41,161.42z M110.18,138.73
				c-2.7-2.37-2.96-6.47-0.59-9.17l0,0c2.37-2.7,6.48-2.96,9.17-0.59l0,0c2.7,2.37,2.96,6.48,0.59,9.17l0,0
				c-1.28,1.47-3.08,2.21-4.88,2.21l0,0C112.95,140.35,111.42,139.82,110.18,138.73z M129.38,119.64c-1.82-3.09-0.79-7.08,2.31-8.89
				l0,0c3.09-1.82,7.07-0.79,8.89,2.31l0,0c1.82,3.09,0.79,7.08-2.31,8.89l0,0c-1.03,0.61-2.17,0.9-3.29,0.9l0,0
				C132.76,122.85,130.59,121.7,129.38,119.64z"/>
		</g>
		<g>
			<path class="st10" d="M160.68,115.43c-1.71,0-3.39-0.69-4.6-1.9s-1.9-2.89-1.9-4.6c0-1.71,0.69-3.38,1.9-4.59
				c1.22-1.21,2.89-1.91,4.6-1.91s3.39,0.7,4.6,1.91c1.21,1.21,1.9,2.88,1.9,4.59c0,1.71-0.69,3.39-1.9,4.6
				C164.07,114.74,162.39,115.43,160.68,115.43z"/>
		</g>
	</g>
	<g>
		<circle class="st10" cx="176.35" cy="105.04" r="27.66"/>
		<path class="st0" d="M156.79,124.6c-10.8-10.8-10.8-28.32,0-39.12c10.8-10.8,28.32-10.8,39.12,0"/>
	</g>
</g>
</svg>
