<?xml version="1.0" encoding="utf-8"?>
<!-- Generator: Adobe Illustrator 16.0.0, SVG Export Plug-In . SVG Version: 6.00 Build 0)  -->
<!DOCTYPE svg PUBLIC "-//W3C//DTD SVG 1.1//EN" "http://www.w3.org/Graphics/SVG/1.1/DTD/svg11.dtd">
<svg version="1.1" id="Layer_1" xmlns="http://www.w3.org/2000/svg" xmlns:xlink="http://www.w3.org/1999/xlink" x="0px" y="0px"
	 width="217.26px" height="250.87px" viewBox="0 0 217.26 250.87" style="enable-background:new 0 0 217.26 250.87;"
	 xml:space="preserve">
<style type="text/css">
<![CDATA[
	.st0{fill:#7C3A7B;}
	.st1{fill:#E6E6E6;}
	.st2{fill:#4D4D4F;}
	.st3{fill:none;stroke:#732672;stroke-width:13;stroke-linecap:round;stroke-miterlimit:10;}
	.st4{fill:none;stroke:#732672;stroke-width:13;stroke-linecap:round;stroke-miterlimit:10;stroke-dasharray:0,27.0693;}
	.st5{fill:#FFC53B;}
	.st6{fill:#FFCF68;}
	.st7{fill:#FFF0D4;}
	.st8{fill:#636466;}
	.st9{fill:#00AE8D;}
	.st10{fill:#00C0A3;}
	.st11{fill:#D8F4EC;}
	.st12{fill:#732672;}
	.st13{fill:none;stroke:#732672;stroke-width:13;stroke-linecap:round;stroke-miterlimit:10;stroke-dasharray:0,33.3937;}
	.st14{fill:#DED1DE;}
]]>
</style>
<g>
	<polygon class="st1" points="0,62.72 108.63,0 171.06,36.04 217.26,62.72 217.26,188.15 108.63,250.87 0,188.15 	"/>
	<g>
		<path class="st2" d="M117.89,125.44l48.2-48.2c2.56-2.56,2.56-6.7,0-9.25c-2.55-2.56-6.7-2.56-9.25,0l-48.2,48.2l-48.2-48.2
			c-2.56-2.56-6.7-2.56-9.25,0c-2.56,2.56-2.56,6.7,0,9.25l48.2,48.2l-48.2,48.2c-2.56,2.56-2.56,6.7,0,9.26
			c1.28,1.28,2.95,1.92,4.63,1.92c1.67,0,3.35-0.64,4.63-1.92l48.2-48.2l48.2,48.2c1.28,1.28,2.95,1.92,4.63,1.92
			c1.67,0,3.35-0.64,4.63-1.92c2.56-2.56,2.56-6.7,0-9.26L117.89,125.44z"/>
		<path class="st8" d="M108.63,116.18l-48.2-48.2c-2.56-2.56-6.7-2.56-9.25,0c-2.56,2.56-2.56,6.7,0,9.25l48.2,48.2l-48.2,48.2
			c-2.56,2.56-2.56,6.7,0,9.25c1.28,1.28,2.95,1.92,4.63,1.92c1.67,0,3.35-0.64,4.63-1.92l48.2-48.2"/>
	</g>
</g>
</svg>
