<?xml version="1.0" encoding="utf-8"?>
<!-- Generator: Adobe Illustrator 16.0.0, SVG Export Plug-In . SVG Version: 6.00 Build 0)  -->
<!DOCTYPE svg PUBLIC "-//W3C//DTD SVG 1.1//EN" "http://www.w3.org/Graphics/SVG/1.1/DTD/svg11.dtd">
<svg version="1.1" id="Layer_1" xmlns="http://www.w3.org/2000/svg" xmlns:xlink="http://www.w3.org/1999/xlink" x="0px" y="0px"
	 width="215.82px" height="249.21px" viewBox="0 0 215.82 249.21" style="enable-background:new 0 0 215.82 249.21;"
	 xml:space="preserve">
<style type="text/css">
<![CDATA[
	.st0{fill:#7C3A7B;}
	.st1{fill:#E6E6E6;}
	.st2{fill:#4D4D4F;}
	.st3{fill:none;stroke:#732672;stroke-width:13;stroke-linecap:round;stroke-miterlimit:10;}
	.st4{fill:none;stroke:#732672;stroke-width:13;stroke-linecap:round;stroke-miterlimit:10;stroke-dasharray:0,27.0693;}
	.st5{fill:#FFC53B;}
	.st6{fill:#FFCF68;}
	.st7{fill:#FFF0D4;}
	.st8{fill:#636466;}
	.st9{fill:#00AE8D;}
	.st10{fill:#00C0A3;}
	.st11{fill:#D8F4EC;}
	.st12{fill:#732672;}
	.st13{fill:none;stroke:#732672;stroke-width:13;stroke-linecap:round;stroke-miterlimit:10;stroke-dasharray:0,33.3937;}
	.st14{fill:#DED1DE;}
]]>
</style>
<g>
	<polygon class="st7" points="0,62.3 107.91,0 169.93,35.8 215.82,62.3 215.82,186.9 107.91,249.21 0,186.9 	"/>
	<g>
		<g>
			<path class="st5" d="M119.68,191.4c34.71,0,62.95-28.24,62.95-62.95c0-40.58-33.02-73.6-73.6-73.6
				c-47.57,0-86.27,38.7-86.27,86.27c0,3.9,3.16,7.06,7.06,7.06s7.06-3.16,7.06-7.06c0-39.78,32.37-72.15,72.15-72.15
				c32.79,0,59.48,26.68,59.48,59.48c0,26.92-21.91,48.83-48.83,48.83c-21.99,0-39.89-17.89-39.89-39.89
				c0-17.85,14.52-32.38,32.38-32.38c14.37,0,26.07,11.69,26.07,26.07c0,11.45-9.32,20.77-20.77,20.77c-9,0-16.31-7.32-16.31-16.31
				c0-3.9-3.16-7.06-7.06-7.06c-3.9,0-7.06,3.16-7.06,7.06c0,16.78,13.65,30.43,30.43,30.43c19.24,0,34.89-15.65,34.89-34.89
				c0-22.16-18.03-40.19-40.19-40.19c-25.64,0-46.5,20.86-46.5,46.5C65.67,167.17,89.9,191.4,119.68,191.4z"/>
		</g>
		<g>
			<path class="st6" d="M101.15,135.54c0-3.9-3.16-7.06-7.06-7.06c-3.9,0-7.06,3.16-7.06,7.06c0,16.78,13.65,30.43,30.43,30.43
				c0.59,0,1.17-0.02,1.75-0.04v-14.16c-0.58,0.05-1.16,0.09-1.75,0.09C108.47,151.85,101.15,144.53,101.15,135.54z"/>
			<path class="st6" d="M119.22,177.27c-21.78-0.25-39.43-18.04-39.43-39.88c0-17.85,14.52-32.38,32.38-32.38
				c2.44,0,4.8,0.34,7.05,0.98V91.53c-2.29-0.41-4.64-0.63-7.05-0.63c-25.64,0-46.5,20.86-46.5,46.5c0,29.62,23.98,53.75,53.55,54
				V177.27z"/>
			<path class="st6" d="M119.22,69.86V55.58c-3.33-0.46-6.73-0.72-10.18-0.72c-47.57,0-86.27,38.7-86.27,86.27
				c0,3.9,3.16,7.06,7.06,7.06s7.06-3.16,7.06-7.06c0-39.78,32.37-72.15,72.15-72.15C112.51,68.97,115.91,69.29,119.22,69.86z"/>
		</g>
	</g>
</g>
</svg>
