<?xml version="1.0" encoding="utf-8"?>
<!-- Generator: Adobe Illustrator 16.0.0, SVG Export Plug-In . SVG Version: 6.00 Build 0)  -->
<!DOCTYPE svg PUBLIC "-//W3C//DTD SVG 1.1//EN" "http://www.w3.org/Graphics/SVG/1.1/DTD/svg11.dtd">
<svg version="1.1" id="Layer_1" xmlns="http://www.w3.org/2000/svg" xmlns:xlink="http://www.w3.org/1999/xlink" x="0px" y="0px"
	 width="215.82px" height="249.21px" viewBox="0 0 215.82 249.21" style="enable-background:new 0 0 215.82 249.21;"
	 xml:space="preserve">
<style type="text/css">
<![CDATA[
	.st0{fill:#7C3A7B;}
	.st1{fill:#E6E6E6;}
	.st2{fill:#4D4D4F;}
	.st3{fill:none;stroke:#732672;stroke-width:13;stroke-linecap:round;stroke-miterlimit:10;}
	.st4{fill:none;stroke:#732672;stroke-width:13;stroke-linecap:round;stroke-miterlimit:10;stroke-dasharray:0,27.0693;}
	.st5{fill:#FFC53B;}
	.st6{fill:#FFCF68;}
	.st7{fill:#FFF0D4;}
	.st8{fill:#636466;}
	.st9{fill:#00AE8D;}
	.st10{fill:#00C0A3;}
	.st11{fill:#D8F4EC;}
	.st12{fill:#732672;}
	.st13{fill:none;stroke:#732672;stroke-width:13;stroke-linecap:round;stroke-miterlimit:10;stroke-dasharray:0,33.3937;}
	.st14{fill:#DED1DE;}
]]>
</style>
<g>
	<polygon class="st11" points="0,62.3 107.91,0 169.93,35.8 215.82,62.3 215.82,186.9 107.91,249.21 0,186.9 	"/>
	<g>
		<polygon class="st9" points="112.63,87.09 135.45,101.45 107.83,47.72 80.37,101.45 102.96,87.22 102.96,153.75 86.82,172.8 
			86.82,181.98 107.91,158.21 129,181.98 129,172.39 112.63,153.39 		"/>
		<polygon class="st9" points="86.82,192.3 86.82,201.49 107.91,177.72 129,201.49 129,191.9 107.91,167.42 		"/>
	</g>
	<g>
		<polyline class="st10" points="107.83,47.72 80.37,101.45 102.96,87.22 102.96,153.75 86.82,172.8 86.82,181.98 107.91,158.21 		
			"/>
		<polyline class="st10" points="107.91,167.42 86.82,192.3 86.82,201.49 107.91,177.72 		"/>
	</g>
</g>
</svg>
