<?xml version="1.0" encoding="utf-8"?>
<!-- Generator: Adobe Illustrator 16.0.0, SVG Export Plug-In . SVG Version: 6.00 Build 0)  -->
<!DOCTYPE svg PUBLIC "-//W3C//DTD SVG 1.1//EN" "http://www.w3.org/Graphics/SVG/1.1/DTD/svg11.dtd">
<svg version="1.1" id="Layer_1" xmlns="http://www.w3.org/2000/svg" xmlns:xlink="http://www.w3.org/1999/xlink" x="0px" y="0px"
	 width="100px" height="100px" viewBox="-8.14 0 100 100" style="enable-background:new -8.14 0 100 100;" xml:space="preserve">
<style type="text/css">
<![CDATA[
	.st0{fill:#B8E0D6;}
	.st1{fill:#CCE8E0;}
]]>
</style>
<g>
	<rect x="35.74" y="14.16" class="st0" width="20.93" height="1.08"/>
	<rect x="35.74" y="21.52" class="st0" width="20.93" height="1.08"/>
	<rect x="35.74" y="28.88" class="st0" width="20.93" height="1.08"/>
	<rect x="35.74" y="36.23" class="st0" width="20.93" height="1.08"/>
	<rect x="26.87" y="12.67" class="st0" width="4.86" height="4.06"/>
	<rect x="26.87" y="20.03" class="st0" width="4.86" height="4.06"/>
	<rect x="26.87" y="27.38" class="st0" width="4.86" height="4.06"/>
	<rect x="26.87" y="34.74" class="st0" width="4.86" height="4.06"/>
	<path class="st0" d="M61.49,43.14H22.21V7.88h39.27L61.49,43.14L61.49,43.14z M29.12,1.51c0-0.14,0.04-0.27,0.1-0.39
		c0.2-0.36,0.67-0.61,1.21-0.61l0,0c0.11,0,0.22,0.01,0.32,0.03c0.57,0.11,0.99,0.5,0.99,0.96v3.67c0,0.28-0.15,0.52-0.39,0.7
		c-0.24,0.18-0.57,0.29-0.93,0.29c-0.63,0-1.16-0.34-1.29-0.79c-0.02-0.07-0.03-0.13-0.03-0.2V1.51H29.12z M51.95,1.51
		c0-0.55,0.59-1,1.31-1c0.72,0,1.31,0.45,1.31,1v3.67c0,0.07-0.01,0.14-0.03,0.2c-0.12,0.45-0.65,0.79-1.29,0.79
		c-0.64,0-1.16-0.34-1.29-0.79c-0.02-0.07-0.03-0.13-0.03-0.2V1.51H51.95z M55.08,1.51c0-0.83-0.82-1.51-1.82-1.51
		s-1.81,0.68-1.81,1.51v0.46h-19.2V1.51c0-0.83-0.81-1.51-1.82-1.51c-1,0-1.82,0.68-1.82,1.51v0.46h-7.29v42.07h41.05V1.98h-7.29
		V1.51z"/>
	<rect x="26.87" y="12.67" class="st0" width="4.86" height="4.06"/>
	<rect x="26.87" y="20.03" class="st0" width="4.86" height="4.06"/>
	<rect x="26.87" y="27.38" class="st0" width="4.86" height="4.06"/>
	<rect x="26.87" y="34.74" class="st0" width="4.86" height="4.06"/>
	<rect x="35.74" y="14.16" class="st0" width="20.93" height="1.08"/>
	<rect x="35.74" y="21.52" class="st0" width="20.93" height="1.08"/>
	<rect x="35.74" y="28.88" class="st0" width="20.93" height="1.08"/>
	<rect x="35.74" y="36.23" class="st0" width="20.93" height="1.08"/>
	<g>
		<path class="st1" d="M9.82,64.48c-0.22-2.04-1.58-2.92-3.54-2.92c-1.6,0-3.2,0.58-3.2,2.44c0,1.76,2.28,2.02,4.58,2.54
			c2.28,0.52,4.56,1.32,4.56,4.12c0,3.04-2.98,4.26-5.58,4.26c-3.2,0-5.9-1.56-5.9-5.04h1.8c0,2.4,2,3.44,4.16,3.44
			c1.72,0,3.62-0.54,3.62-2.6c0-1.96-2.28-2.3-4.56-2.8c-2.28-0.5-4.58-1.16-4.58-3.78c0-2.9,2.58-4.18,5.18-4.18
			c2.92,0,5.14,1.38,5.26,4.52H9.82z"/>
		<path class="st1" d="M21.26,67.56C21,66.26,20.1,65.5,18.7,65.5c-2.46,0-3.22,1.94-3.22,4.04c0,1.9,0.86,3.78,3.02,3.78
			c1.64,0,2.62-0.96,2.84-2.52h1.74c-0.38,2.52-1.96,4.02-4.56,4.02c-3.16,0-4.84-2.2-4.84-5.28c0-3.1,1.6-5.54,4.88-5.54
			c2.34,0,4.22,1.1,4.46,3.56H21.26z"/>
		<path class="st1" d="M24.98,60.3h1.7v5.46h0.04c0.56-1.24,2.02-1.76,3.26-1.76c2.72,0,3.56,1.56,3.56,3.78v6.8h-1.7v-7
			c0-1.26-0.8-2.08-2.1-2.08c-2.06,0-3.06,1.38-3.06,3.24v5.84h-1.7V60.3z"/>
		<path class="st1" d="M44.92,71.3c-0.46,2.28-2.1,3.52-4.42,3.52c-3.3,0-4.86-2.28-4.96-5.44c0-3.1,2.04-5.38,4.86-5.38
			c3.66,0,4.78,3.42,4.68,5.92h-7.74c-0.06,1.8,0.96,3.4,3.22,3.4c1.4,0,2.38-0.68,2.68-2.02H44.92z M43.28,68.42
			c-0.08-1.62-1.3-2.92-2.98-2.92c-1.78,0-2.84,1.34-2.96,2.92H43.28z"/>
		<path class="st1" d="M56.08,74.58h-1.7v-1.4h-0.04c-0.56,1.14-1.88,1.64-3.3,1.64c-3.18,0-4.76-2.52-4.76-5.44S47.84,64,51,64
			c1.06,0,2.58,0.4,3.34,1.62h0.04V60.3h1.7V74.58z M51.28,73.32c2.28,0,3.16-1.96,3.16-3.9c0-2.04-0.92-3.92-3.26-3.92
			c-2.32,0-3.1,1.98-3.1,4C48.08,71.44,49.08,73.32,51.28,73.32z"/>
		<path class="st1" d="M67.26,74.58h-1.6v-1.64h-0.04c-0.72,1.28-1.88,1.88-3.36,1.88c-2.72,0-3.56-1.56-3.56-3.78v-6.8h1.7v7
			c0,1.26,0.8,2.08,2.1,2.08c2.06,0,3.06-1.38,3.06-3.24v-5.84h1.7V74.58L67.26,74.58z"/>
		<path class="st1" d="M69.92,60.3h1.7v14.28h-1.7V60.3z"/>
		<path class="st1" d="M83.08,71.3c-0.46,2.28-2.1,3.52-4.42,3.52c-3.3,0-4.86-2.28-4.96-5.44c0-3.1,2.04-5.38,4.86-5.38
			c3.66,0,4.78,3.42,4.68,5.92H75.5c-0.06,1.8,0.96,3.4,3.22,3.4c1.4,0,2.38-0.68,2.68-2.02H83.08z M81.44,68.42
			c-0.08-1.62-1.3-2.92-2.98-2.92c-1.78,0-2.84,1.34-2.96,2.92H81.44z"/>
	</g>
</g>
</svg>
