<?xml version="1.0" encoding="utf-8"?>
<!-- Generator: Adobe Illustrator 16.0.0, SVG Export Plug-In . SVG Version: 6.00 Build 0)  -->
<!DOCTYPE svg PUBLIC "-//W3C//DTD SVG 1.1//EN" "http://www.w3.org/Graphics/SVG/1.1/DTD/svg11.dtd">
<svg version="1.1" id="Layer_1" xmlns="http://www.w3.org/2000/svg" xmlns:xlink="http://www.w3.org/1999/xlink" x="0px" y="0px"
	 width="256px" height="256px" viewBox="0 0 256 256" enable-background="new 0 0 256 256" xml:space="preserve">
<path fill="#3FD5AE" d="M243.4,55.366c-8.689,3.781-17.649,6.163-27.031,7.281c10.087-6.442,17.087-15.266,20.869-26.471
	c-9.384,5.603-19.471,9.527-30.396,11.765c-9.383-10.502-20.869-15.825-34.321-15.825c-13.163,0-24.369,4.764-33.473,14.426
	c-9.248,9.528-13.867,20.869-13.867,34.042c0,3.78,0.424,7.561,1.118,11.206c-19.47-1.119-37.677-6.162-54.63-14.986
	C54.725,67.979,40.434,56.07,28.804,41.084c-4.484,7.561-6.721,15.545-6.721,24.234c0,17.232,7.146,30.676,21.428,39.924
	c-7.84,0-15.266-1.823-21.987-5.603v0.56c0,11.629,3.645,21.852,10.926,30.676c7.281,8.824,16.385,14.426,27.311,16.673
	c-4.204,1.118-8.264,1.678-12.324,1.678c-2.941,0-6.027-0.425-8.968-1.119c2.941,9.808,8.544,17.793,16.664,23.955
	s17.368,9.528,27.879,9.807c-17.232,13.443-36.982,20.311-59.114,20.311c-3.78,0-7.561-0.145-11.206-0.561
	c22.132,14.707,46.366,21.997,72.702,21.997c21.013,0,40.204-4.06,57.708-12.324c17.512-8.265,31.659-19.056,42.584-32.354
	c10.926-13.308,19.326-28.014,25.353-44.263c6.027-16.105,8.97-32.219,8.97-48.469v-6.162
	C229.109,73.429,237.094,65.173,243.4,55.366L243.4,55.366z"/>
</svg>
