<svg enable-background="new 0 0 256 256" height="256" viewBox="0 0 256 256" width="256" xmlns="http://www.w3.org/2000/svg"><path d="m243.4 55.366c-8.689 3.781-17.649 6.163-27.031 7.281 10.087-6.442 17.087-15.266 20.869-26.471-9.384 5.603-19.471 9.527-30.396 11.765-9.383-10.502-20.869-15.825-34.321-15.825-13.163 0-24.369 4.764-33.473 14.426-9.248 9.528-13.867 20.869-13.867 34.042 0 3.78.424 7.561 1.118 11.206-19.47-1.119-37.677-6.162-54.63-14.986-16.944-8.825-31.235-20.734-42.865-35.72-4.484 7.561-6.721 15.545-6.721 24.234 0 17.232 7.146 30.676 21.428 39.924-7.84 0-15.266-1.823-21.987-5.603v.56c0 11.629 3.645 21.852 10.926 30.676s16.385 14.426 27.311 16.673c-4.204 1.118-8.264 1.678-12.324 1.678-2.941 0-6.027-.425-8.968-1.119 2.941 9.808 8.544 17.793 16.664 23.955s17.368 9.528 27.879 9.807c-17.232 13.443-36.982 20.311-59.114 20.311-3.78 0-7.561-.145-11.206-.561 22.132 14.707 46.366 21.997 72.702 21.997 21.013 0 40.204-4.06 57.708-12.324 17.512-8.265 31.659-19.056 42.584-32.354 10.926-13.308 19.326-28.014 25.353-44.263 6.027-16.105 8.97-32.219 8.97-48.469v-6.162c9.1-6.615 17.085-14.871 23.391-24.678z" fill="#3fd5ae"/></svg>