<?xml version="1.0" encoding="utf-8"?>
<!-- Generator: Adobe Illustrator 16.0.0, SVG Export Plug-In . SVG Version: 6.00 Build 0)  -->
<!DOCTYPE svg PUBLIC "-//W3C//DTD SVG 1.1//EN" "http://www.w3.org/Graphics/SVG/1.1/DTD/svg11.dtd">
<svg version="1.1" id="Layer_1" xmlns="http://www.w3.org/2000/svg" xmlns:xlink="http://www.w3.org/1999/xlink" x="0px" y="0px"
	 width="256px" height="256px" viewBox="0 0 256 256" style="enable-background:new 0 0 256 256;" xml:space="preserve">
<style type="text/css">
<![CDATA[
	.st0{fill:#00A78A;}
]]>
</style>
<path class="st0" d="M255.9,47.51c-9.63,4.19-19.56,6.83-29.96,8.07c11.18-7.14,18.94-16.92,23.13-29.34
	c-10.4,6.21-21.58,10.56-33.69,13.04c-10.4-11.64-23.13-17.54-38.04-17.54c-14.59,0-27.01,5.28-37.1,15.99
	c-10.25,10.56-15.37,23.13-15.37,37.73c0,4.19,0.47,8.38,1.24,12.42c-21.58-1.24-41.76-6.83-60.55-16.61
	c-18.78-9.78-34.62-22.98-47.51-39.59c-4.97,8.38-7.45,17.23-7.45,26.86c0,19.1,7.92,34,23.75,44.25c-8.69,0-16.92-2.02-24.37-6.21
	v0.62c0,12.89,4.04,24.22,12.11,34c8.07,9.78,18.16,15.99,30.27,18.48c-4.66,1.24-9.16,1.86-13.66,1.86c-3.26,0-6.68-0.47-9.94-1.24
	c3.26,10.87,9.47,19.72,18.47,26.55s19.25,10.56,30.9,10.87c-19.1,14.9-40.99,22.51-65.52,22.51c-4.19,0-8.38-0.16-12.42-0.62
	c24.53,16.3,51.39,24.38,80.58,24.38c23.29,0,44.56-4.5,63.96-13.66c19.41-9.16,35.09-21.12,47.2-35.86
	c12.11-14.75,21.42-31.05,28.1-49.06c6.68-17.85,9.94-35.71,9.94-53.72v-6.83C240.06,67.53,248.91,58.38,255.9,47.51L255.9,47.51z"
	/>
</svg>
