<?xml version="1.0" encoding="utf-8"?>
<!-- Generator: Adobe Illustrator 22.0.1, SVG Export Plug-In . SVG Version: 6.00 Build 0)  -->
<svg version="1.1" id="Layer_1" xmlns="http://www.w3.org/2000/svg" xmlns:xlink="http://www.w3.org/1999/xlink" x="0px" y="0px"
	 viewBox="0 0 330 293" style="enable-background:new 0 0 330 293;" xml:space="preserve">
<style type="text/css">
	.st0{display:none;}
	.st1{display:inline;fill:#222221;}
	.st2{display:inline;fill:#DBD50E;}
	.st3{fill:#3FD5AE;}
</style>
<g class="st0">
	<path class="st1" d="M243.3,31c31.2,0,56.6,25.4,56.6,56.6s-25.4,56.6-56.6,56.6s-56.6-25.4-56.6-56.6S212.1,31,243.3,31 M243.3,3
		c-46.7,0-84.6,37.9-84.6,84.6s37.9,84.6,84.6,84.6s84.6-37.9,84.6-84.6S290,3,243.3,3L243.3,3z"/>
</g>
<g class="st0">
	<path class="st2" d="M243.3,17c38.9,0,70.6,31.7,70.6,70.6s-31.7,70.6-70.6,70.6s-70.6-31.7-70.6-70.6S204.3,17,243.3,17 M243.3,3
		c-46.7,0-84.6,37.9-84.6,84.6s37.9,84.6,84.6,84.6s84.6-37.9,84.6-84.6S290,3,243.3,3L243.3,3z"/>
</g>
<path class="st3" d="M310.3,216.4c-10.4-5.2-23.4-10.3-75.5-18.2c-0.3,0-8.9-1.2-17.6-3.6c-13.5-3.6-19.8-8-19.8-13.8
	c0-10.1,15-10.2,22.2-10.1c20.7,0.3,31.5,2.5,53.2-4.8c34.1-11.4,54.9-46.7,54.9-77.9c0-40.8-31.3-85-87.3-85
	c-40.2,0-81.7,21-81.7,87c0,44.6-21.3,57.8-65,57.8c-18.3,0-35.4-5.8-45.4-17.2c-15-17.1-12.6-40.7-12.3-43.1
	c0.1-1.9,1-18.1,6.9-34.7C51.2,29,65.9,16.3,85.2,15.9c0,0,0,0,0,0c1.2,0,10.5,0.2,17.4,5.7c3.3,2.6,2.2,7.3,0.6,14.4
	c-1.9,8.5-4.6,20.2,1.3,26.8c4.7,5.3,11.5,8.4,18.3,8.4c6,0,10.6-1.7,14.1-6.9s5.1-13.9,4.1-22.6c-2.7-24.9-20.4-40.1-55.9-40.1
	c-9.7,0-32.3,1.5-49.1,12.8C15.1,28.6,3.7,53.1,2.4,87.3c-1,23.9,6.1,43.7,20.8,59.1c20.4,21.2,47.1,27.3,71.6,26.8
	c49.5-1,93.5-29.4,93.5-86.7c0-40.5,23-56,54.9-56c32.7,0,52.8,28,52.8,54.5s-11.8,62.1-46.2,62.8c-11.5,0.2-49.7-3.9-63.5,1.9
	c-16,6.8-24.1,18.2-24.1,33.9c0,17.9,20.7,28.4,38.3,33.2c30,8.2,50.2,8.9,69.5,11.9c21.5,3.3,29.6,8.2,29.7,16.6
	c0.2,13.5-14.1,20.2-60.1,23.1c-8.1,0.5-14.6,0.8-20.3,0.8c-17.1,0-23.4-2.3-28.3-7.3c-2.3-2.3-3.5-5-3.4-8.2
	c0.2-6.7,5.4-21.9,1.5-28.7c-2.5-4.3-7.7-8.4-23.8-8.4c-4.2,0-14.8,2.1-14.1,19.8c0,0.1,0.8,14.6,14.3,28.4
	c16.2,16.5,40.1,25.2,76.8,25.2c38.2,0,58-6.8,73-19.1c10.6-8.6,12.4-15.1,12.4-22.6C327.8,238.7,325.5,224,310.3,216.4z"/>
</svg>
