<?xml version="1.0" encoding="utf-8"?>
<!-- Generator: Adobe Illustrator 16.0.0, SVG Export Plug-In . SVG Version: 6.00 Build 0)  -->
<!DOCTYPE svg PUBLIC "-//W3C//DTD SVG 1.1//EN" "http://www.w3.org/Graphics/SVG/1.1/DTD/svg11.dtd">
<svg version="1.1" id="Layer_1" xmlns="http://www.w3.org/2000/svg" xmlns:xlink="http://www.w3.org/1999/xlink" x="0px" y="0px"
	 width="330px" height="293px" viewBox="0 0 330 293" enable-background="new 0 0 330 293" xml:space="preserve">
<path fill="#00A88A" d="M310.281,216.385c-10.099-5.872-27.367-10.307-79.476-18.177c-0.307-0.041-8.889-1.212-17.625-3.568
	c-13.518-3.646-19.814-8.036-19.814-13.819c0-10.137,15.025-10.137,22.245-10.137c4.062,0,8.427,0.16,13.047,0.33
	c4.793,0.177,9.749,0.358,14.521,0.358c0.076,0,0.153,0.003,0.229,0.008c0.007,0,1.026,0.064,2.804,0.064
	c7.846,0,28.083-1.179,46.514-12.099c23.206-13.749,34.809-44.949,34.972-71.345c0.15-24.271-12.313-54.054-36.598-68.596
	c-23.681-14.181-49.397-14.59-52.252-14.59h-0.119c-9.615,0-25.709,0-41.395,9.908c-19.135,12.087-32.842,35.858-40.742,70.654
	c-0.244,1.258-3.178,15.761-11.778,30.556c-11.91,20.486-28.977,31.5-49.357,31.85c-0.615,0.011-1.234,0.016-1.836,0.016
	c-0.002,0-0.008,0-0.01,0c-20.137,0.001-35.414-5.796-45.413-17.228c-14.989-17.139-12.577-40.669-12.279-43.112
	c0.083-1.902,0.956-18.139,6.865-34.735c8.439-23.703,23.107-36.436,42.416-36.82c0.002,0,0.005,0,0.008,0
	c1.163,0,10.522,0.171,17.412,5.674c3.274,2.615,2.207,7.316,0.591,14.433c-1.937,8.529-4.588,20.21,1.291,26.847
	c4.656,5.257,11.511,8.395,18.336,8.395c5.995,0,10.996-2.444,14.124-6.893c0.812-2.12,5.103-13.858,4.137-22.646
	c-2.739-24.929-20.515-37.661-55.94-40.071c-0.894-0.062-2.367-0.134-4.31-0.134c-9.536,0-28.032,1.681-44.772,12.938
	C15.075,28.566,3.736,53.071,2.371,87.28c-0.952,23.854,6.062,43.748,20.844,59.133c20.381,21.211,50.367,28.77,71.633,28.771
	c0.001,0,0.003,0,0.005,0c20.654,0,39.402-6.861,54.217-19.842c16.975-14.874,28.408-37.048,33.983-65.912
	c0.194-1.27,2.251-13.813,9.639-26.523c10.307-17.731,26.017-27.138,45.432-27.2h0.364c19.809,0,35.061,5.224,45.332,15.525
	c12.104,12.141,13.869,27.709,13.844,35.909v0.191c0,0.18,0.017,0.463,0.035,0.84c0.792,15.926-3.396,28.824-12.448,38.337
	c-10.507,11.043-27.017,16.643-49.07,16.643c-0.117,0-0.236-0.006-0.354-0.019c-0.046-0.004-4.696-0.469-11.62-0.469
	c-11.465,0-28.03,1.227-41.834,7.073c-15.991,6.771-24.099,18.166-24.099,33.866c0,17.877,20.831,27.93,38.306,33.215
	c19.83,5.997,40.002,7.358,40.204,7.372c0.035,0.002,0.07,0.005,0.105,0.008c0.166,0.016,16.798,1.613,33.229,4.512
	c18.602,3.281,29.633,8.188,29.729,16.623c0.153,13.509-14.087,20.157-60.063,23.143c-8.109,0.527-14.552,0.772-20.275,0.772
	c-17.102,0-27.377-2.313-32.338-7.279c-2.269-2.272-3.417-5.038-3.414-8.223c0.001-0.46,0.092-0.914,0.269-1.338
	c2.176-5.235,6.963-21.391,0.619-26.746c-0.214-0.181-0.405-0.387-0.57-0.613c-0.242-0.318-6.553-8.415-22.696-8.415
	c-0.962,0-1.953,0.03-2.947,0.088c-1.338,0.164-11.886,2.031-11.163,19.669c0.006,0.145,0.75,14.634,14.32,28.438
	c16.198,16.478,44.139,25.188,80.803,25.188c38.202,0,57.82-6.931,73.034-19.055c12.422-9.899,12.288-21.795,12.288-29.755
	C327.715,235.218,320.924,222.57,310.281,216.385z"/>
</svg>
