<svg enable-background="new 0 0 330 293" viewBox="0 0 330 293" xmlns="http://www.w3.org/2000/svg"><path d="m310.3 216.4c-10.4-5.2-23.4-10.3-75.5-18.2-.3 0-8.9-1.2-17.6-3.6-13.5-3.6-19.8-8-19.8-13.8 0-10.1 15-10.2 22.2-10.1 20.7.3 31.5 2.5 53.2-4.8 34.1-11.4 54.9-46.7 54.9-77.9 0-40.8-31.3-85-87.3-85-40.2 0-81.7 21-81.7 87 0 44.6-21.3 57.8-65 57.8-18.3 0-35.4-5.8-45.4-17.2-15-17.1-12.6-40.7-12.3-43.1.1-1.9 1-18.1 6.9-34.7 8.3-23.8 23-36.5 42.3-36.9 1.2 0 10.5.2 17.4 5.7 3.3 2.6 2.2 7.3.6 14.4-1.9 8.5-4.6 20.2 1.3 26.8 4.7 5.3 11.5 8.4 18.3 8.4 6 0 10.6-1.7 14.1-6.9s5.1-13.9 4.1-22.6c-2.7-24.9-20.4-40.1-55.9-40.1-9.7 0-32.3 1.5-49.1 12.8-20.9 14.2-32.3 38.7-33.6 72.9-1 23.9 6.1 43.7 20.8 59.1 20.4 21.2 47.1 27.3 71.6 26.8 49.5-1 93.5-29.4 93.5-86.7 0-40.5 23-56 54.9-56 32.7 0 52.8 28 52.8 54.5s-11.8 62.1-46.2 62.8c-11.5.2-49.7-3.9-63.5 1.9-16 6.8-24.1 18.2-24.1 33.9 0 17.9 20.7 28.4 38.3 33.2 30 8.2 50.2 8.9 69.5 11.9 21.5 3.3 29.6 8.2 29.7 16.6.2 13.5-14.1 20.2-60.1 23.1-8.1.5-14.6.8-20.3.8-17.1 0-23.4-2.3-28.3-7.3-2.3-2.3-3.5-5-3.4-8.2.2-6.7 5.4-21.9 1.5-28.7-2.5-4.3-7.7-8.4-23.8-8.4-4.2 0-14.8 2.1-14.1 19.8 0 .1.8 14.6 14.3 28.4 16.2 16.5 40.1 25.2 76.8 25.2 38.2 0 58-6.8 73-19.1 10.6-8.6 12.4-15.1 12.4-22.6.1-9.6-2.2-24.3-17.4-31.9z" fill="#3fd5ae"/></svg>