<?xml version="1.0" encoding="utf-8"?>
<!-- Generator: Adobe Illustrator 16.0.0, SVG Export Plug-In . SVG Version: 6.00 Build 0)  -->
<!DOCTYPE svg PUBLIC "-//W3C//DTD SVG 1.1//EN" "http://www.w3.org/Graphics/SVG/1.1/DTD/svg11.dtd">
<svg version="1.1" id="Layer_1" xmlns="http://www.w3.org/2000/svg" xmlns:xlink="http://www.w3.org/1999/xlink" x="0px" y="0px"
	 width="432px" height="306.52px" viewBox="0 0 432 306.52" style="enable-background:new 0 0 432 306.52;" xml:space="preserve">
<style type="text/css">
<![CDATA[
	.st0{fill:none;stroke:#262626;stroke-width:0.25;stroke-miterlimit:10;}
	.st1{opacity:0.6;fill:#FFC43B;}
	.st2{fill:none;stroke:#741472;stroke-width:0.9552;stroke-miterlimit:10;}
	.st3{display:none;opacity:0.6;fill:#E6E6E6;}
	.st4{opacity:0.6;fill:#6AD9C4;}
	.st5{fill:none;stroke:#FFFFFF;stroke-miterlimit:10;}
	.st6{opacity:0.6;fill:#741472;}
	.st7{fill:none;stroke:#741472;stroke-width:1.1228;stroke-miterlimit:10;}
	.st8{fill:#262626;}
	.st9{fill:none;stroke:#262626;stroke-width:2;stroke-linecap:round;stroke-miterlimit:10;stroke-dasharray:0,10;}
	.st10{fill:none;stroke:#741472;stroke-width:0.9578;stroke-miterlimit:10;}
	.st11{fill:none;stroke:#262626;stroke-linejoin:round;stroke-miterlimit:10;stroke-dasharray:3,4;}
	.st12{fill:none;stroke:#FFFFFF;stroke-width:0.4049;stroke-miterlimit:10;}
	.st13{fill:none;stroke:#741472;stroke-miterlimit:10;}
	.st14{fill:#FFC43B;}
	.st15{fill:#FFFFFF;}
	.st16{opacity:0.6;fill:#E6E6E6;}
	.st17{fill:none;}
	.st18{fill:none;stroke:#FFFFFF;stroke-width:0.8746;stroke-miterlimit:10;}
	.st19{fill:none;stroke:#741472;stroke-width:0.9389;stroke-miterlimit:10;}
	.st20{fill:#00AE8D;}
	.st21{fill:#741472;}
	.st22{fill:none;stroke:#741472;stroke-width:0.9324;stroke-miterlimit:10;}
	.st23{fill:none;stroke:#262626;stroke-width:1.2836;stroke-miterlimit:10;}
]]>
</style>
<g>
	<g>
		<rect x="261.99" y="120.39" class="st17" width="137.61" height="53.89"/>
		<path d="M264.73,129.47h-0.53v-7.8h-2.14v-0.5h4.82v0.5h-2.14V129.47z"/>
		<path d="M268.28,120.39v4.79h0.02c0.3-0.56,0.85-0.9,1.51-0.9c1.31,0,1.67,0.81,1.67,2.12v3.07h-0.49v-3.07
			c0-0.91-0.11-1.66-1.22-1.66c-1.28,0-1.48,1.19-1.48,2.22v2.51h-0.5v-9.08H268.28z"/>
		<path d="M273.17,126.97c-0.03,1.29,0.86,2.14,2.04,2.14c0.79,0,1.43-0.47,1.79-1.15l0.42,0.24c-0.46,0.88-1.28,1.38-2.28,1.38
			c-1.51,0-2.46-1.22-2.46-2.66c0-1.42,0.98-2.64,2.46-2.64c1.54,0,2.45,1.23,2.44,2.7H273.17z M277.09,126.51
			c-0.12-0.93-0.89-1.77-1.94-1.77c-1.04,0-1.89,0.81-1.98,1.77H277.09z"/>
		<path d="M282.74,129.47h-0.49v-4.62h-0.56v-0.46h0.56v-1.81h0.49v1.81h0.89v0.46h-0.89V129.47z"/>
		<path d="M284.99,125.05h0.02c0.2-0.46,0.56-0.77,1.1-0.77c0.2,0,0.36,0.04,0.54,0.12l-0.27,0.44c-0.12-0.07-0.22-0.1-0.35-0.1
			c-1.11,0-1.04,1.39-1.04,2.13v2.6h-0.5v-5.08h0.5V125.05z"/>
		<path d="M288.44,122.69c0,0.25-0.2,0.45-0.45,0.45c-0.25,0-0.45-0.2-0.45-0.45c0-0.24,0.2-0.45,0.45-0.45
			C288.24,122.24,288.44,122.45,288.44,122.69z M288.23,129.47h-0.49v-5.08h0.49V129.47z"/>
		<path d="M294.02,125.56c-0.48-0.53-1.07-0.83-1.79-0.83c-1.2,0-2.1,1.02-2.1,2.18c0,1.15,0.89,2.2,2.09,2.2
			c0.73,0,1.41-0.35,1.87-0.91v0.67c-0.52,0.45-1.17,0.71-1.85,0.71c-1.51,0-2.61-1.18-2.61-2.66c0-1.47,1.12-2.64,2.62-2.64
			c0.66,0,1.27,0.2,1.77,0.63V125.56z"/>
		<path d="M295.87,126.54l2.09-2.16h0.64l-2.13,2.2l2.85,2.88h-0.65l-2.52-2.54l-0.28,0.29v2.25h-0.5v-9.08h0.5V126.54z"/>
		<path d="M304.37,122.69c0,0.25-0.2,0.45-0.45,0.45c-0.25,0-0.45-0.2-0.45-0.45c0-0.24,0.2-0.45,0.45-0.45
			C304.17,122.24,304.37,122.45,304.37,122.69z M304.16,129.47h-0.5v-5.08h0.5V129.47z"/>
		<path d="M308.19,125.31c-0.16-0.35-0.49-0.57-0.89-0.57c-0.43,0-0.87,0.35-0.87,0.79c0,1.22,2.47,0.63,2.47,2.46
			c0,0.93-0.72,1.58-1.64,1.58c-0.85,0-1.54-0.52-1.75-1.34l0.48-0.15c0.19,0.6,0.59,1.03,1.27,1.03c0.64,0,1.14-0.51,1.14-1.14
			c0-0.63-0.48-0.83-0.99-1c-0.69-0.25-1.48-0.55-1.48-1.41c0-0.77,0.65-1.29,1.38-1.29c0.52,0,1.08,0.34,1.3,0.81L308.19,125.31z"
			/>
		<path d="M314.14,129.47h-0.49v-4.62h-0.56v-0.46h0.56v-1.81h0.49v1.81h0.89v0.46h-0.89V129.47z"/>
		<path d="M320.71,126.93c0,1.51-1.18,2.65-2.67,2.65c-1.46,0-2.64-1.2-2.64-2.64c0-1.46,1.17-2.66,2.64-2.66
			C319.53,124.28,320.71,125.42,320.71,126.93z M315.89,126.94c0,1.16,0.91,2.18,2.11,2.18c1.24,0,2.21-0.95,2.21-2.18
			c0-1.25-0.96-2.2-2.21-2.2C316.79,124.74,315.89,125.76,315.89,126.94z"/>
		<path d="M325.81,126.54l2.09-2.16h0.64l-2.13,2.2l2.85,2.88h-0.65l-2.52-2.54l-0.28,0.29v2.25h-0.49v-9.08h0.49V126.54z"/>
		<path d="M330.51,125.18h0.02c0.3-0.56,0.85-0.9,1.51-0.9c1.31,0,1.67,0.81,1.67,2.12v3.07h-0.5v-3.07c0-0.91-0.11-1.66-1.22-1.66
			c-1.28,0-1.49,1.19-1.49,2.22v2.51h-0.49v-5.08h0.49V125.18z"/>
		<path d="M340.22,126.93c0,1.51-1.18,2.65-2.67,2.65c-1.46,0-2.64-1.2-2.64-2.64c0-1.46,1.17-2.66,2.64-2.66
			C339.04,124.28,340.22,125.42,340.22,126.93z M335.4,126.94c0,1.16,0.91,2.18,2.11,2.18c1.24,0,2.21-0.95,2.21-2.18
			c0-1.25-0.96-2.2-2.21-2.2C336.3,124.74,335.4,125.76,335.4,126.94z"/>
		<path d="M342.93,128.56l1.79-4.45l1.8,4.45l1.76-4.17h0.51l-2.3,5.36l-1.79-4.39l-1.78,4.39l-2.29-5.36h0.51L342.93,128.56z"/>
		<path d="M354.61,128.56l1.79-4.45l1.8,4.45l1.76-4.17h0.51l-2.3,5.36l-1.79-4.39l-1.78,4.39l-2.29-5.36h0.51L354.61,128.56z"/>
		<path d="M361.87,120.39v4.79h0.02c0.3-0.56,0.85-0.9,1.51-0.9c1.31,0,1.67,0.81,1.67,2.12v3.07h-0.5v-3.07
			c0-0.91-0.11-1.66-1.22-1.66c-1.28,0-1.49,1.19-1.49,2.22v2.51h-0.49v-9.08H361.87z"/>
		<path d="M366.76,126.97c-0.03,1.29,0.86,2.14,2.04,2.14c0.79,0,1.43-0.47,1.79-1.15l0.42,0.24c-0.46,0.88-1.28,1.38-2.28,1.38
			c-1.51,0-2.46-1.22-2.46-2.66c0-1.42,0.98-2.64,2.46-2.64c1.54,0,2.45,1.23,2.44,2.7H366.76z M370.68,126.51
			c-0.12-0.93-0.89-1.77-1.94-1.77c-1.03,0-1.89,0.81-1.98,1.77H370.68z"/>
		<path d="M372.87,125.18h0.02c0.3-0.56,0.85-0.9,1.51-0.9c1.31,0,1.67,0.81,1.67,2.12v3.07h-0.5v-3.07c0-0.91-0.11-1.66-1.22-1.66
			c-1.28,0-1.49,1.19-1.49,2.22v2.51h-0.49v-5.08h0.49V125.18z"/>
		<path d="M381.72,129.47h-0.49v-4.62h-0.56v-0.46h0.56v-1.81h0.49v1.81h0.89v0.46h-0.89V129.47z"/>
		<path d="M388.29,126.93c0,1.51-1.18,2.65-2.67,2.65c-1.46,0-2.64-1.2-2.64-2.64c0-1.46,1.17-2.66,2.64-2.66
			C387.11,124.28,388.29,125.42,388.29,126.93z M383.47,126.94c0,1.16,0.91,2.18,2.11,2.18c1.24,0,2.21-0.95,2.21-2.18
			c0-1.25-0.96-2.2-2.21-2.2C384.37,124.74,383.47,125.76,383.47,126.94z"/>
		<path d="M267.65,140.13c0,1.51-1.18,2.65-2.67,2.65c-1.46,0-2.64-1.2-2.64-2.64c0-1.46,1.17-2.66,2.64-2.66
			C266.47,137.48,267.65,138.62,267.65,140.13z M262.83,140.14c0,1.16,0.91,2.18,2.11,2.18c1.24,0,2.21-0.95,2.21-2.18
			c0-1.25-0.96-2.2-2.21-2.2C263.74,137.94,262.83,138.96,262.83,140.14z"/>
		<path d="M269.35,138.5h0.02c0.38-0.65,1.19-1.02,1.94-1.02c1.55,0,2.51,1.21,2.51,2.7c0,1.49-0.96,2.61-2.49,2.61
			c-0.78,0-1.54-0.34-1.96-0.99h-0.02v3.85h-0.5v-8.05h0.5V138.5z M269.31,140.24c0,1.19,0.8,2.08,2.02,2.08
			c1.19,0,1.98-1,1.98-2.13c0-1.17-0.76-2.24-2-2.24C270.02,137.94,269.31,139.02,269.31,140.24z"/>
		<path d="M275.01,140.17c-0.03,1.29,0.86,2.15,2.04,2.15c0.79,0,1.43-0.47,1.79-1.16l0.42,0.24c-0.46,0.88-1.28,1.38-2.28,1.38
			c-1.51,0-2.46-1.22-2.46-2.66c0-1.42,0.98-2.64,2.46-2.64c1.54,0,2.45,1.23,2.44,2.7H275.01z M278.93,139.71
			c-0.12-0.93-0.89-1.77-1.94-1.77c-1.03,0-1.89,0.81-1.98,1.77H278.93z"/>
		<path d="M281.12,138.38h0.02c0.3-0.56,0.85-0.9,1.51-0.9c1.31,0,1.67,0.81,1.67,2.12v3.07h-0.5v-3.07c0-0.91-0.11-1.66-1.22-1.66
			c-1.28,0-1.49,1.19-1.49,2.22v2.51h-0.49v-5.08h0.49V138.38z"/>
		<path d="M289.97,142.67h-0.49v-4.62h-0.56v-0.46h0.56v-1.82h0.49v1.82h0.89v0.46h-0.89V142.67z"/>
		<path d="M292.21,133.59v4.79h0.02c0.3-0.56,0.85-0.9,1.51-0.9c1.31,0,1.67,0.81,1.67,2.12v3.07h-0.49v-3.07
			c0-0.91-0.11-1.66-1.22-1.66c-1.28,0-1.48,1.19-1.48,2.22v2.51h-0.5v-9.08H292.21z"/>
		<path d="M297.11,140.17c-0.03,1.29,0.86,2.15,2.04,2.15c0.79,0,1.43-0.47,1.79-1.16l0.42,0.24c-0.46,0.88-1.28,1.38-2.28,1.38
			c-1.51,0-2.46-1.22-2.46-2.66c0-1.42,0.98-2.64,2.46-2.64c1.54,0,2.45,1.23,2.44,2.7H297.11z M301.03,139.71
			c-0.12-0.93-0.89-1.77-1.94-1.77c-1.04,0-1.89,0.81-1.98,1.77H301.03z"/>
		<path d="M306.68,142.67h-0.49v-4.62h-0.56v-0.46h0.56v-1.82h0.49v1.82h0.89v0.46h-0.89V142.67z"/>
		<path d="M312,137.59v3.05c0,0.52,0.01,1.03-0.31,1.46c-0.35,0.46-0.95,0.68-1.52,0.68s-1.17-0.22-1.52-0.68
			c-0.32-0.43-0.31-0.95-0.31-1.46v-3.05h0.5v2.87c0,0.98,0.11,1.86,1.33,1.86s1.33-0.88,1.33-1.86v-2.87H312z"/>
		<path d="M317.51,138.76c-0.48-0.53-1.07-0.82-1.79-0.82c-1.2,0-2.1,1.02-2.1,2.18s0.89,2.2,2.09,2.2c0.72,0,1.41-0.35,1.87-0.91
			v0.67c-0.52,0.45-1.17,0.7-1.85,0.7c-1.51,0-2.61-1.18-2.61-2.66c0-1.47,1.12-2.64,2.62-2.64c0.66,0,1.26,0.2,1.77,0.63V138.76z"
			/>
		<path d="M319.36,139.74l2.09-2.16h0.64l-2.13,2.2l2.85,2.88h-0.65l-2.52-2.54l-0.28,0.29v2.26h-0.49v-9.08h0.49V139.74z"/>
		<path d="M331.44,142.67h-0.5v-0.91h-0.02c-0.37,0.65-1.19,1.02-1.94,1.02c-1.54,0-2.51-1.2-2.51-2.68c0-1.49,0.96-2.62,2.49-2.62
			c0.78,0,1.53,0.35,1.96,0.99h0.02v-0.88h0.5V142.67z M326.97,140.1c0,1.17,0.77,2.22,2,2.22c1.3,0,2-1.06,2-2.28
			c0-1.18-0.8-2.1-2.04-2.1C327.78,137.94,326.97,139,326.97,140.1z"/>
		<path d="M333.63,138.38h0.02c0.3-0.56,0.85-0.9,1.51-0.9c1.31,0,1.67,0.81,1.67,2.12v3.07h-0.5v-3.07c0-0.91-0.11-1.66-1.22-1.66
			c-1.28,0-1.49,1.19-1.49,2.22v2.51h-0.49v-5.08h0.49V138.38z"/>
		<path d="M342.5,141.76h-0.02c-0.38,0.65-1.19,1.02-1.94,1.02c-1.54,0-2.51-1.2-2.51-2.68c0-1.49,0.96-2.62,2.49-2.62
			c0.78,0,1.53,0.35,1.96,0.99h0.02v-4.87h0.49v9.08h-0.49V141.76z M342.53,140.04c0-1.18-0.8-2.1-2.04-2.1
			c-1.17,0-1.97,1.06-1.97,2.16c0,1.17,0.77,2.22,2,2.22C341.82,142.32,342.53,141.26,342.53,140.04z"/>
		<path d="M350.23,138.51c-0.16-0.35-0.49-0.57-0.89-0.57c-0.43,0-0.87,0.35-0.87,0.79c0,1.22,2.47,0.63,2.47,2.46
			c0,0.94-0.72,1.58-1.64,1.58c-0.85,0-1.54-0.52-1.75-1.34l0.48-0.15c0.19,0.61,0.59,1.03,1.27,1.03c0.64,0,1.14-0.51,1.14-1.14
			c0-0.63-0.48-0.83-0.99-1c-0.69-0.25-1.48-0.55-1.48-1.41c0-0.77,0.65-1.29,1.38-1.29c0.52,0,1.08,0.34,1.3,0.81L350.23,138.51z"
			/>
		<path d="M352.77,142.67h-0.49v-4.62h-0.56v-0.46h0.56v-1.82h0.49v1.82h0.89v0.46h-0.89V142.67z"/>
		<path d="M359.34,140.13c0,1.51-1.18,2.65-2.67,2.65c-1.46,0-2.64-1.2-2.64-2.64c0-1.46,1.17-2.66,2.64-2.66
			C358.16,137.48,359.34,138.62,359.34,140.13z M354.52,140.14c0,1.16,0.91,2.18,2.11,2.18c1.24,0,2.21-0.95,2.21-2.18
			c0-1.25-0.96-2.2-2.21-2.2C355.42,137.94,354.52,138.96,354.52,140.14z"/>
		<path d="M361.03,138.5h0.02c0.37-0.65,1.19-1.02,1.94-1.02c1.55,0,2.51,1.21,2.51,2.7c0,1.49-0.96,2.61-2.49,2.61
			c-0.78,0-1.54-0.34-1.96-0.99h-0.02v3.85h-0.49v-8.05h0.49V138.5z M361,140.24c0,1.19,0.8,2.08,2.02,2.08c1.19,0,1.98-1,1.98-2.13
			c0-1.17-0.76-2.24-2-2.24C361.7,137.94,361,139.02,361,140.24z"/>
		<path d="M370.66,142.67h-0.5v-4.62h-0.56v-0.46h0.56v-1.82h0.5v1.82h0.89v0.46h-0.89V142.67z"/>
		<path d="M372.9,133.59v4.79h0.02c0.3-0.56,0.85-0.9,1.51-0.9c1.31,0,1.67,0.81,1.67,2.12v3.07h-0.5v-3.07
			c0-0.91-0.11-1.66-1.22-1.66c-1.28,0-1.49,1.19-1.49,2.22v2.51h-0.49v-9.08H372.9z"/>
		<path d="M377.79,140.17c-0.03,1.29,0.86,2.15,2.04,2.15c0.79,0,1.43-0.47,1.79-1.16l0.42,0.24c-0.46,0.88-1.28,1.38-2.28,1.38
			c-1.51,0-2.46-1.22-2.46-2.66c0-1.42,0.98-2.64,2.46-2.64c1.54,0,2.45,1.23,2.44,2.7H377.79z M381.71,139.71
			c-0.12-0.93-0.89-1.77-1.94-1.77c-1.03,0-1.89,0.81-1.98,1.77H381.71z"/>
		<path d="M263.33,151.45h0.02c0.2-0.46,0.56-0.77,1.1-0.77c0.2,0,0.36,0.04,0.54,0.12l-0.26,0.44c-0.12-0.07-0.22-0.1-0.35-0.1
			c-1.11,0-1.05,1.39-1.05,2.13v2.6h-0.49v-5.08h0.49V151.45z"/>
		<path d="M270.71,153.33c0,1.51-1.18,2.65-2.67,2.65c-1.46,0-2.64-1.2-2.64-2.64c0-1.46,1.17-2.66,2.64-2.66
			C269.53,150.68,270.71,151.82,270.71,153.33z M265.89,153.34c0,1.15,0.91,2.18,2.11,2.18c1.24,0,2.21-0.95,2.21-2.18
			c0-1.25-0.96-2.2-2.21-2.2C266.79,151.14,265.89,152.16,265.89,153.34z"/>
		<path d="M272.46,155.87h-0.5v-4.62h-0.56v-0.46h0.56v-1.82h0.5v1.82h0.89v0.46h-0.89V155.87z"/>
		<path d="M278.67,155.87h-0.5v-0.91h-0.02c-0.37,0.65-1.19,1.02-1.94,1.02c-1.54,0-2.51-1.2-2.51-2.68c0-1.48,0.96-2.62,2.49-2.62
			c0.78,0,1.53,0.35,1.96,0.99h0.02v-0.88h0.5V155.87z M274.21,153.29c0,1.17,0.77,2.22,2,2.22c1.3,0,2-1.06,2-2.28
			c0-1.18-0.8-2.1-2.04-2.1C275.01,151.14,274.21,152.2,274.21,153.29z"/>
		<path d="M280.92,155.87h-0.5v-4.62h-0.56v-0.46h0.56v-1.82h0.5v1.82h0.89v0.46h-0.89V155.87z"/>
		<path d="M283.56,149.09c0,0.25-0.2,0.45-0.45,0.45c-0.25,0-0.45-0.2-0.45-0.45c0-0.24,0.2-0.45,0.45-0.45
			C283.36,148.64,283.56,148.85,283.56,149.09z M283.35,155.87h-0.49v-5.08h0.49V155.87z"/>
		<path d="M290.06,153.33c0,1.51-1.18,2.65-2.67,2.65c-1.46,0-2.64-1.2-2.64-2.64c0-1.46,1.17-2.66,2.64-2.66
			C288.88,150.68,290.06,151.82,290.06,153.33z M285.24,153.34c0,1.15,0.91,2.18,2.11,2.18c1.24,0,2.21-0.95,2.21-2.18
			c0-1.25-0.96-2.2-2.21-2.2C286.14,151.14,285.24,152.16,285.24,153.34z"/>
		<path d="M291.75,151.58h0.02c0.3-0.56,0.85-0.9,1.51-0.9c1.31,0,1.67,0.81,1.67,2.12v3.07h-0.49v-3.07c0-0.91-0.11-1.66-1.22-1.66
			c-1.28,0-1.48,1.19-1.48,2.22v2.51h-0.5v-5.08h0.5V151.58z"/>
		<path d="M300.95,149.09c0,0.25-0.2,0.45-0.45,0.45c-0.25,0-0.45-0.2-0.45-0.45c0-0.24,0.2-0.45,0.45-0.45
			C300.75,148.64,300.95,148.85,300.95,149.09z M300.74,158.84h-0.49v-8.05h0.49V158.84z"/>
		<path d="M306.21,150.79v3.05c0,0.52,0.01,1.04-0.31,1.46c-0.35,0.46-0.95,0.68-1.52,0.68c-0.57,0-1.17-0.22-1.52-0.68
			c-0.32-0.43-0.31-0.95-0.31-1.46v-3.05h0.49v2.87c0,0.98,0.11,1.86,1.33,1.86c1.22,0,1.33-0.88,1.33-1.86v-2.87H306.21z"/>
		<path d="M309.96,151.71c-0.17-0.35-0.5-0.57-0.89-0.57c-0.43,0-0.87,0.35-0.87,0.79c0,1.22,2.48,0.63,2.48,2.46
			c0,0.93-0.73,1.58-1.64,1.58c-0.85,0-1.54-0.52-1.75-1.34l0.48-0.15c0.19,0.6,0.59,1.03,1.27,1.03c0.64,0,1.14-0.51,1.14-1.14
			c0-0.63-0.48-0.82-0.99-1c-0.69-0.25-1.48-0.55-1.48-1.41c0-0.77,0.65-1.29,1.39-1.29c0.52,0,1.08,0.34,1.3,0.81L309.96,151.71z"
			/>
		<path d="M312.5,155.87H312v-4.62h-0.56v-0.46H312v-1.82h0.5v1.82h0.89v0.46h-0.89V155.87z"/>
		<path d="M318.55,149.09c0,0.25-0.2,0.45-0.45,0.45c-0.25,0-0.45-0.2-0.45-0.45c0-0.24,0.2-0.45,0.45-0.45
			C318.35,148.64,318.55,148.85,318.55,149.09z M318.34,155.87h-0.49v-5.08h0.49V155.87z"/>
		<path d="M320.72,151.58h0.02c0.3-0.56,0.85-0.9,1.51-0.9c1.31,0,1.67,0.81,1.67,2.12v3.07h-0.5v-3.07c0-0.91-0.11-1.66-1.22-1.66
			c-1.28,0-1.49,1.19-1.49,2.22v2.51h-0.49v-5.08h0.49V151.58z"/>
		<path d="M329.58,155.87h-0.49v-4.62h-0.56v-0.46h0.56v-1.82h0.49v1.82h0.89v0.46h-0.89V155.87z"/>
		<path d="M332.22,149.09c0,0.25-0.2,0.45-0.45,0.45c-0.25,0-0.45-0.2-0.45-0.45c0-0.24,0.2-0.45,0.45-0.45
			C332.02,148.64,332.22,148.85,332.22,149.09z M332.01,155.87h-0.5v-5.08h0.5V155.87z"/>
		<path d="M334.4,151.42h0.02c0.23-0.47,0.74-0.75,1.28-0.75c0.65,0,1.17,0.33,1.43,0.92c0.28-0.61,0.84-0.92,1.48-0.92
			c1.31,0,1.57,0.89,1.57,2v3.19h-0.5v-3.26c0-0.78-0.12-1.47-1.09-1.47c-1.06,0-1.31,0.92-1.31,1.8v2.93h-0.49v-3.13
			c0-0.79-0.14-1.6-1.13-1.6c-1.07,0-1.27,1.11-1.27,1.94v2.79h-0.5v-5.08h0.5V151.42z"/>
		<path d="M341.88,153.37c-0.03,1.29,0.86,2.15,2.04,2.15c0.79,0,1.43-0.47,1.79-1.16l0.42,0.24c-0.46,0.88-1.28,1.38-2.28,1.38
			c-1.51,0-2.46-1.22-2.46-2.66c0-1.42,0.98-2.64,2.46-2.64c1.54,0,2.45,1.23,2.44,2.7H341.88z M345.79,152.91
			c-0.12-0.94-0.89-1.77-1.94-1.77c-1.03,0-1.89,0.81-1.98,1.77H345.79z"/>
		<path d="M351.45,155.87h-0.5v-4.62h-0.56v-0.46h0.56v-1.82h0.5v1.82h0.89v0.46h-0.89V155.87z"/>
		<path d="M358.02,153.33c0,1.51-1.18,2.65-2.67,2.65c-1.46,0-2.64-1.2-2.64-2.64c0-1.46,1.17-2.66,2.64-2.66
			C356.84,150.68,358.02,151.82,358.02,153.33z M353.2,153.34c0,1.15,0.91,2.18,2.11,2.18c1.24,0,2.21-0.95,2.21-2.18
			c0-1.25-0.96-2.2-2.21-2.2C354.1,151.14,353.2,152.16,353.2,153.34z"/>
		<path d="M363.12,155.87h-0.5v-9.08h0.5V155.87z"/>
		<path d="M369.28,155.87h-0.5v-0.91h-0.02c-0.37,0.65-1.19,1.02-1.94,1.02c-1.54,0-2.51-1.2-2.51-2.68c0-1.48,0.96-2.62,2.49-2.62
			c0.78,0,1.53,0.35,1.96,0.99h0.02v-0.88h0.5V155.87z M364.81,153.29c0,1.17,0.77,2.22,2,2.22c1.3,0,2-1.06,2-2.28
			c0-1.18-0.8-2.1-2.04-2.1C365.62,151.14,364.81,152.2,364.81,153.29z"/>
		<path d="M371.47,151.58h0.02c0.3-0.56,0.85-0.9,1.51-0.9c1.31,0,1.67,0.81,1.67,2.12v3.07h-0.5v-3.07c0-0.91-0.11-1.66-1.22-1.66
			c-1.28,0-1.49,1.19-1.49,2.22v2.51h-0.49v-5.08h0.49V151.58z"/>
		<path d="M380.33,154.96h-0.02c-0.38,0.65-1.19,1.02-1.94,1.02c-1.54,0-2.51-1.2-2.51-2.68c0-1.48,0.96-2.62,2.49-2.62
			c0.78,0,1.53,0.35,1.96,0.99h0.02v-4.87h0.49v9.08h-0.49V154.96z M380.37,153.24c0-1.18-0.8-2.1-2.04-2.1
			c-1.17,0-1.97,1.06-1.97,2.16c0,1.17,0.77,2.22,2,2.22C379.66,155.52,380.37,154.46,380.37,153.24z"/>
		<path d="M390.75,153.33c0,1.51-1.18,2.65-2.67,2.65c-1.46,0-2.64-1.2-2.64-2.64c0-1.46,1.17-2.66,2.64-2.66
			C389.57,150.68,390.75,151.82,390.75,153.33z M385.93,153.34c0,1.15,0.91,2.18,2.11,2.18c1.24,0,2.21-0.95,2.21-2.18
			c0-1.25-0.96-2.2-2.21-2.2C386.83,151.14,385.93,152.16,385.93,153.34z"/>
		<path d="M392.44,151.58h0.02c0.3-0.56,0.85-0.9,1.51-0.9c1.31,0,1.67,0.81,1.67,2.12v3.07h-0.5v-3.07c0-0.91-0.11-1.66-1.22-1.66
			c-1.28,0-1.49,1.19-1.49,2.22v2.51h-0.49v-5.08h0.49V151.58z"/>
		<path d="M261.91,163.99h0.52l2.17,4.6l1.95-4.6h0.51l-3.41,8.05h-0.51l1.22-2.88L261.91,163.99z"/>
		<path d="M272.71,166.53c0,1.51-1.18,2.65-2.67,2.65c-1.46,0-2.64-1.2-2.64-2.64c0-1.46,1.17-2.66,2.64-2.66
			C271.54,163.88,272.71,165.02,272.71,166.53z M267.89,166.54c0,1.16,0.91,2.18,2.11,2.18c1.24,0,2.21-0.95,2.21-2.18
			c0-1.25-0.96-2.2-2.21-2.2C268.79,164.34,267.89,165.36,267.89,166.54z"/>
		<path d="M277.49,163.99v3.05c0,0.52,0.01,1.03-0.31,1.46c-0.35,0.46-0.95,0.68-1.52,0.68c-0.57,0-1.17-0.22-1.52-0.68
			c-0.32-0.43-0.31-0.95-0.31-1.46v-3.05h0.49v2.87c0,0.98,0.11,1.86,1.33,1.86c1.22,0,1.33-0.88,1.33-1.86v-2.87H277.49z"/>
		<path d="M279.6,164.65h0.02c0.2-0.46,0.56-0.77,1.1-0.77c0.2,0,0.36,0.04,0.54,0.12l-0.26,0.44c-0.12-0.07-0.22-0.1-0.35-0.1
			c-1.11,0-1.05,1.39-1.05,2.13v2.6h-0.49v-5.08h0.49V164.65z"/>
		<path d="M286.06,169.07h-0.5v-4.62h-0.56v-0.46h0.56v-2.28c0-0.37,0.01-0.91,0.2-1.24c0.23-0.41,0.67-0.62,1.13-0.62
			c0.15,0,0.3,0.02,0.44,0.08v0.45c-0.13-0.02-0.26-0.07-0.41-0.07c-0.86,0-0.87,0.86-0.87,1.5v2.18h1.28v0.46h-1.28V169.07z"/>
		<path d="M288.21,166.57c-0.03,1.29,0.86,2.14,2.04,2.14c0.79,0,1.43-0.47,1.79-1.15l0.42,0.24c-0.46,0.88-1.28,1.38-2.28,1.38
			c-1.51,0-2.46-1.22-2.46-2.66c0-1.42,0.98-2.64,2.46-2.64c1.54,0,2.45,1.23,2.44,2.7H288.21z M292.12,166.11
			c-0.12-0.93-0.89-1.77-1.94-1.77c-1.04,0-1.89,0.81-1.98,1.77H292.12z"/>
		<path d="M293.82,166.57c-0.03,1.29,0.86,2.14,2.04,2.14c0.79,0,1.43-0.47,1.79-1.15l0.42,0.24c-0.46,0.88-1.28,1.38-2.28,1.38
			c-1.51,0-2.46-1.22-2.46-2.66c0-1.42,0.98-2.64,2.46-2.64c1.54,0,2.45,1.23,2.44,2.7H293.82z M297.74,166.11
			c-0.12-0.93-0.89-1.77-1.94-1.77c-1.03,0-1.89,0.81-1.98,1.77H297.74z"/>
		<path d="M299.98,169.07h-0.5v-4.62h-0.56v-0.46h0.56v-1.81h0.5v1.81h0.89v0.46h-0.89V169.07z"/>
		<path d="M309.61,169.07h-0.5v-0.91h-0.02c-0.37,0.65-1.19,1.02-1.94,1.02c-1.54,0-2.51-1.2-2.51-2.68s0.96-2.62,2.49-2.62
			c0.78,0,1.53,0.35,1.96,0.99h0.02v-0.88h0.5V169.07z M305.14,166.5c0,1.17,0.77,2.22,2,2.22c1.3,0,2-1.06,2-2.28
			c0-1.18-0.8-2.1-2.04-2.1C305.94,164.34,305.14,165.39,305.14,166.5z"/>
		<path d="M311.79,164.78h0.02c0.3-0.56,0.85-0.9,1.51-0.9c1.31,0,1.67,0.81,1.67,2.12v3.07h-0.5V166c0-0.91-0.11-1.66-1.22-1.66
			c-1.28,0-1.49,1.19-1.49,2.22v2.51h-0.49v-5.08h0.49V164.78z"/>
		<path d="M320.66,168.16h-0.02c-0.38,0.65-1.19,1.02-1.94,1.02c-1.54,0-2.51-1.2-2.51-2.68s0.96-2.62,2.49-2.62
			c0.78,0,1.53,0.35,1.96,0.99h0.02v-4.87h0.49v9.08h-0.49V168.16z M320.69,166.44c0-1.18-0.8-2.1-2.04-2.1
			c-1.17,0-1.97,1.06-1.97,2.16c0,1.17,0.77,2.22,2,2.22C319.99,168.72,320.69,167.66,320.69,166.44z"/>
		<path d="M327.15,162.29c0,0.25-0.2,0.45-0.45,0.45c-0.25,0-0.45-0.2-0.45-0.45c0-0.24,0.2-0.45,0.45-0.45
			C326.95,161.84,327.15,162.05,327.15,162.29z M326.94,169.07h-0.5v-5.08h0.5V169.07z"/>
		<path d="M329.33,164.78h0.02c0.3-0.56,0.85-0.9,1.51-0.9c1.31,0,1.67,0.81,1.67,2.12v3.07h-0.49V166c0-0.91-0.11-1.66-1.22-1.66
			c-1.28,0-1.48,1.19-1.48,2.22v2.51h-0.5v-5.08h0.5V164.78z"/>
		<path d="M338.18,169.07h-0.5v-4.62h-0.56v-0.46h0.56v-1.81h0.5v1.81h0.89v0.46h-0.89V169.07z"/>
		<path d="M340.43,159.99v4.79h0.02c0.3-0.56,0.85-0.9,1.51-0.9c1.31,0,1.67,0.81,1.67,2.12v3.07h-0.5V166
			c0-0.91-0.11-1.66-1.22-1.66c-1.28,0-1.49,1.19-1.49,2.22v2.51h-0.49v-9.08H340.43z"/>
		<path d="M345.32,166.57c-0.03,1.29,0.86,2.14,2.04,2.14c0.79,0,1.43-0.47,1.79-1.15l0.42,0.24c-0.46,0.88-1.28,1.38-2.28,1.38
			c-1.51,0-2.46-1.22-2.46-2.66c0-1.42,0.98-2.64,2.46-2.64c1.54,0,2.45,1.23,2.44,2.7H345.32z M349.24,166.11
			c-0.12-0.93-0.89-1.77-1.94-1.77c-1.03,0-1.89,0.81-1.98,1.77H349.24z"/>
		<path d="M358.24,165.16c-0.48-0.53-1.07-0.83-1.79-0.83c-1.2,0-2.1,1.02-2.1,2.18c0,1.15,0.89,2.2,2.09,2.2
			c0.73,0,1.41-0.35,1.87-0.91v0.67c-0.52,0.45-1.17,0.71-1.85,0.71c-1.51,0-2.61-1.18-2.61-2.66c0-1.47,1.12-2.64,2.62-2.64
			c0.66,0,1.27,0.2,1.77,0.63V165.16z"/>
		<path d="M359.59,166.57c-0.03,1.29,0.86,2.14,2.04,2.14c0.79,0,1.43-0.47,1.79-1.15l0.42,0.24c-0.46,0.88-1.28,1.38-2.28,1.38
			c-1.51,0-2.46-1.22-2.46-2.66c0-1.42,0.98-2.64,2.46-2.64c1.54,0,2.45,1.23,2.44,2.7H359.59z M363.51,166.11
			c-0.12-0.93-0.89-1.77-1.94-1.77c-1.03,0-1.89,0.81-1.98,1.77H363.51z"/>
		<path d="M365.69,164.78h0.02c0.3-0.56,0.85-0.9,1.51-0.9c1.31,0,1.67,0.81,1.67,2.12v3.07h-0.5V166c0-0.91-0.11-1.66-1.22-1.66
			c-1.28,0-1.49,1.19-1.49,2.22v2.51h-0.49v-5.08h0.49V164.78z"/>
		<path d="M371.14,169.07h-0.49v-4.62h-0.56v-0.46h0.56v-1.81h0.49v1.81h0.89v0.46h-0.89V169.07z"/>
		<path d="M372.89,166.57c-0.03,1.29,0.86,2.14,2.04,2.14c0.79,0,1.43-0.47,1.79-1.15l0.42,0.24c-0.46,0.88-1.28,1.38-2.28,1.38
			c-1.51,0-2.46-1.22-2.46-2.66c0-1.42,0.98-2.64,2.46-2.64c1.54,0,2.45,1.23,2.44,2.7H372.89z M376.8,166.11
			c-0.12-0.93-0.89-1.77-1.94-1.77c-1.03,0-1.89,0.81-1.98,1.77H376.8z"/>
		<path d="M378.99,164.65h0.02c0.2-0.46,0.56-0.77,1.1-0.77c0.2,0,0.36,0.04,0.54,0.12l-0.26,0.44c-0.12-0.07-0.22-0.1-0.35-0.1
			c-1.11,0-1.05,1.39-1.05,2.13v2.6h-0.49v-5.08h0.49V164.65z"/>
		<path d="M381.77,168.73c0,0.25-0.2,0.45-0.45,0.45c-0.25,0-0.45-0.2-0.45-0.45c0-0.25,0.2-0.45,0.45-0.45
			C381.57,168.28,381.77,168.47,381.77,168.73z"/>
	</g>
	<g>
		<path class="st8" d="M163.17,24.56v1.39h-1.81v10.68h-1.6V25.96h-1.89v-1.39H163.17z"/>
		<path class="st8" d="M165.68,24.56v4.71h2.42v-4.71h1.6v12.07h-1.6v-5.97h-2.42v5.97h-1.6V24.56H165.68z"/>
		<path class="st8" d="M175.95,24.56v1.39h-2.71v3.79h2.42v1.39h-2.42v4.1h2.71v1.39h-4.31V24.56H175.95z"/>
		<path class="st8" d="M182.17,24.28v18h4.54v2.35h-7.23V24.28H182.17z"/>
		<path class="st8" d="M193.42,24.28l4.37,20.35h-2.73l-0.76-3.97h-4.05l-0.76,3.97h-2.64l4.43-20.35H193.42z M193.37,35.62
			l-1.03-7.4h-0.05l-1.62,10.34h3.24L193.37,35.62z"/>
		<path class="st8" d="M201.88,30.33l0.4,6.83v7.48h-2.7V24.28h2.59l4.75,15.47l0.05-0.05l-0.65-8.15v-7.26h2.7v20.35h-2.51
			l-4.75-15.68L201.71,29L201.88,30.33z"/>
		<path class="st8" d="M215.35,24.28c3.18,0,6.8,0.22,6.8,10.53c0,9.39-3.13,9.83-7.96,9.83h-1.86V24.28H215.35z M215.02,26.57
			v15.76c4.45,0.14,4.26-4.08,4.26-7.53C219.29,31.68,219.58,26.3,215.02,26.57z"/>
		<path class="st8" d="M227.6,44.63h-2.7V24.28h2.7V44.63z"/>
		<path class="st8" d="M233.19,30.33l0.4,6.83v7.48h-2.7V24.28h2.59l4.75,15.47l0.05-0.05l-0.65-8.15v-7.26h2.7v20.35h-2.51
			l-4.75-15.68L233.03,29L233.19,30.33z"/>
		<path class="st8" d="M253.39,33.89v0.32c0,3.89,0.57,10.69-4.86,10.69c-4.83,0-5.4-4.64-5.4-10.39c0-5.7,0.46-10.5,5.16-10.5
			c2.89,0,4.26,1.46,4.97,4.16l-2.56,1.05c-0.27-1.35-0.65-2.67-2.32-2.67c-2.21,0-2.38,3.02-2.38,7.94c0,7.07,1.19,7.88,2.38,7.88
			c1.11,0,2.32-0.16,2.32-5.02v-1.11h-2.27v-2.35H253.39z"/>
	</g>
	<g>
		<g>
			<path class="st8" d="M218.1,96.25h2.46v3.8h-2.46v10.63h-5.03v-10.63h-10.42v-4.42l10.42-23.67h5.03V96.25z M213.07,79.82h-0.1
				l-6.26,16.43h6.37V79.82z"/>
		</g>
		<circle class="st23" cx="211.57" cy="91.47" r="26.27"/>
	</g>
	<polygon class="st21" points="335.49,34.11 330.54,29.16 211.39,148.31 92.24,29.16 87.29,34.11 206.44,153.26 87.29,272.41 
		92.24,277.36 211.39,158.21 330.54,277.36 335.49,272.41 216.34,153.26 	"/>
	<g>
		<rect x="40.41" y="120.39" class="st17" width="131.05" height="65.73"/>
		<path d="M41.3,129.47v-8.29h1.66c0.63,0,1.22,0.04,1.72,0.48c0.51,0.44,0.69,1.06,0.69,1.72c0,0.76-0.3,1.32-0.96,1.69
			c1.02,0.21,1.72,1.03,1.72,2.09c0,0.67-0.25,1.28-0.77,1.72c-0.58,0.5-1.2,0.59-1.94,0.59H41.3z M41.83,124.94h0.91
			c0.56,0,1.01,0.03,1.49-0.31c0.47-0.34,0.62-0.76,0.62-1.33c0-0.54-0.21-1.07-0.68-1.36c-0.42-0.26-0.94-0.26-1.42-0.26h-0.91
			V124.94z M41.83,128.97h1.27c0.58,0,1.19,0.02,1.69-0.32c0.51-0.34,0.81-0.86,0.81-1.47c0-0.61-0.3-1.21-0.86-1.49
			c-0.51-0.25-1.2-0.26-1.75-0.26h-1.17V128.97z"/>
		<path d="M48.36,122.69c0,0.25-0.2,0.45-0.45,0.45s-0.45-0.2-0.45-0.45c0-0.24,0.2-0.45,0.45-0.45S48.36,122.45,48.36,122.69z
			 M48.15,129.47h-0.5v-5.08h0.5V129.47z"/>
		<path d="M54.86,126.93c0,1.51-1.18,2.65-2.67,2.65c-1.46,0-2.64-1.2-2.64-2.64c0-1.46,1.17-2.66,2.64-2.66
			C53.68,124.28,54.86,125.42,54.86,126.93z M50.04,126.94c0,1.16,0.91,2.18,2.11,2.18c1.24,0,2.21-0.95,2.21-2.18
			c0-1.25-0.96-2.2-2.21-2.2C50.95,124.74,50.04,125.76,50.04,126.94z"/>
		<path d="M56.55,125.03h0.02c0.23-0.47,0.74-0.75,1.28-0.75c0.65,0,1.17,0.33,1.43,0.92c0.28-0.61,0.84-0.92,1.49-0.92
			c1.31,0,1.57,0.89,1.57,2v3.19h-0.5v-3.26c0-0.78-0.12-1.47-1.09-1.47c-1.06,0-1.31,0.92-1.31,1.8v2.93h-0.5v-3.14
			c0-0.79-0.14-1.59-1.13-1.59c-1.07,0-1.27,1.11-1.27,1.94v2.79h-0.5v-5.08h0.5V125.03z"/>
		<path d="M64.03,126.97c-0.03,1.29,0.86,2.15,2.04,2.15c0.79,0,1.43-0.47,1.79-1.16l0.42,0.24c-0.46,0.88-1.28,1.38-2.28,1.38
			c-1.51,0-2.46-1.22-2.46-2.66c0-1.42,0.98-2.64,2.46-2.64c1.54,0,2.45,1.23,2.44,2.7H64.03z M67.95,126.51
			c-0.12-0.94-0.89-1.77-1.94-1.77c-1.03,0-1.89,0.81-1.98,1.77H67.95z"/>
		<path d="M73.54,125.56c-0.48-0.53-1.07-0.83-1.79-0.83c-1.2,0-2.1,1.02-2.1,2.18s0.89,2.2,2.09,2.2c0.73,0,1.41-0.35,1.87-0.91
			v0.67c-0.52,0.45-1.17,0.7-1.85,0.7c-1.51,0-2.61-1.18-2.61-2.66c0-1.47,1.12-2.64,2.62-2.64c0.66,0,1.26,0.2,1.77,0.63V125.56z"
			/>
		<path d="M75.39,120.39v4.79h0.02c0.3-0.56,0.85-0.9,1.51-0.9c1.31,0,1.67,0.81,1.67,2.12v3.07h-0.5v-3.07
			c0-0.91-0.11-1.66-1.22-1.66c-1.28,0-1.49,1.19-1.49,2.22v2.51h-0.5v-9.08H75.39z"/>
		<path d="M84.75,129.47h-0.5v-0.91h-0.02c-0.37,0.65-1.19,1.02-1.94,1.02c-1.54,0-2.51-1.2-2.51-2.68s0.96-2.62,2.49-2.62
			c0.78,0,1.53,0.35,1.96,0.99h0.02v-0.88h0.5V129.47z M80.28,126.9c0,1.17,0.77,2.22,2,2.22c1.3,0,2-1.06,2-2.28
			c0-1.18-0.8-2.1-2.04-2.1C81.08,124.74,80.28,125.79,80.28,126.9z"/>
		<path d="M86.94,125.18h0.02c0.3-0.56,0.85-0.9,1.51-0.9c1.31,0,1.67,0.81,1.67,2.12v3.07h-0.5v-3.07c0-0.91-0.11-1.66-1.22-1.66
			c-1.28,0-1.49,1.19-1.49,2.22v2.51h-0.5v-5.08h0.5V125.18z"/>
		<path d="M92.72,122.69c0,0.25-0.2,0.45-0.45,0.45s-0.45-0.2-0.45-0.45c0-0.24,0.2-0.45,0.45-0.45S92.72,122.45,92.72,122.69z
			 M92.51,129.47h-0.5v-5.08h0.5V129.47z"/>
		<path d="M98.3,125.56c-0.48-0.53-1.07-0.83-1.79-0.83c-1.2,0-2.1,1.02-2.1,2.18s0.89,2.2,2.09,2.2c0.73,0,1.41-0.35,1.87-0.91
			v0.67c-0.52,0.45-1.17,0.7-1.85,0.7c-1.51,0-2.61-1.18-2.61-2.66c0-1.47,1.12-2.64,2.62-2.64c0.66,0,1.26,0.2,1.77,0.63V125.56z"
			/>
		<path d="M104.12,129.47h-0.5v-0.91h-0.02c-0.37,0.65-1.19,1.02-1.94,1.02c-1.54,0-2.51-1.2-2.51-2.68s0.96-2.62,2.49-2.62
			c0.78,0,1.53,0.35,1.96,0.99h0.02v-0.88h0.5V129.47z M99.65,126.9c0,1.17,0.77,2.22,2,2.22c1.3,0,2-1.06,2-2.28
			c0-1.18-0.8-2.1-2.04-2.1C100.46,124.74,99.65,125.79,99.65,126.9z"/>
		<path d="M106.31,129.47h-0.5v-9.08h0.5V129.47z"/>
		<path d="M108.5,129.47H108v-9.08h0.5V129.47z"/>
		<path d="M109.27,124.39h0.52l2.17,4.6l1.95-4.6h0.51l-3.41,8.05h-0.51l1.22-2.88L109.27,124.39z"/>
		<path d="M115.7,128.81l-0.91,2.49l-0.33-0.12l0.75-2.52L115.7,128.81z"/>
		<path d="M123.32,125.31c-0.17-0.35-0.5-0.57-0.89-0.57c-0.43,0-0.87,0.35-0.87,0.79c0,1.22,2.48,0.63,2.48,2.46
			c0,0.94-0.73,1.58-1.64,1.58c-0.85,0-1.54-0.52-1.75-1.34l0.48-0.15c0.19,0.6,0.59,1.03,1.27,1.03c0.64,0,1.14-0.51,1.14-1.14
			c0-0.63-0.48-0.83-0.99-1c-0.69-0.25-1.48-0.55-1.48-1.41c0-0.77,0.65-1.29,1.39-1.29c0.52,0,1.08,0.34,1.3,0.81L123.32,125.31z"
			/>
		<path d="M125.87,129.47h-0.5v-4.62h-0.56v-0.46h0.56v-1.82h0.5v1.82h0.89v0.46h-0.89V129.47z"/>
		<path d="M132.08,129.47h-0.5v-0.91h-0.02c-0.37,0.65-1.19,1.02-1.94,1.02c-1.54,0-2.51-1.2-2.51-2.68s0.96-2.62,2.49-2.62
			c0.78,0,1.53,0.35,1.96,0.99h0.02v-0.88h0.5V129.47z M127.61,126.9c0,1.17,0.77,2.22,2,2.22c1.3,0,2-1.06,2-2.28
			c0-1.18-0.8-2.1-2.04-2.1C128.42,124.74,127.61,125.79,127.61,126.9z"/>
		<path d="M132.85,124.39h0.52l2.17,4.6l1.95-4.6h0.51l-3.41,8.05h-0.51l1.22-2.88L132.85,124.39z"/>
		<path d="M139.72,122.69c0,0.25-0.2,0.45-0.45,0.45s-0.45-0.2-0.45-0.45c0-0.24,0.2-0.45,0.45-0.45S139.72,122.45,139.72,122.69z
			 M139.52,129.47h-0.5v-5.08h0.5V129.47z"/>
		<path d="M141.9,125.18h0.02c0.3-0.56,0.85-0.9,1.51-0.9c1.31,0,1.67,0.81,1.67,2.12v3.07h-0.5v-3.07c0-0.91-0.11-1.66-1.22-1.66
			c-1.28,0-1.49,1.19-1.49,2.22v2.51h-0.5v-5.08h0.5V125.18z"/>
		<path d="M151.34,129.23c0,0.78-0.02,1.49-0.51,2.16c-0.47,0.65-1.22,0.98-2.02,0.98c-1.33,0-2.43-0.78-2.51-2.18h0.5
			c0.06,1.06,0.95,1.72,1.97,1.72c0.64,0,1.25-0.22,1.63-0.76c0.4-0.58,0.45-1.24,0.45-1.92v-0.63h-0.02
			c-0.45,0.6-1.21,0.99-1.98,0.99c-1.47,0-2.46-1.24-2.46-2.66c0-1.46,1.05-2.64,2.53-2.64c0.83,0,1.44,0.35,1.92,0.99h0.02v-0.88
			h0.5V129.23z M146.87,126.9c0,1.17,0.77,2.22,2,2.22c1.3,0,2-1.06,2-2.28c0-1.18-0.8-2.1-2.04-2.1
			C147.68,124.74,146.87,125.79,146.87,126.9z"/>
		<path d="M157.34,122.69c0,0.25-0.2,0.45-0.45,0.45s-0.45-0.2-0.45-0.45c0-0.24,0.2-0.45,0.45-0.45S157.34,122.45,157.34,122.69z
			 M157.13,129.47h-0.5v-5.08h0.5V129.47z"/>
		<path d="M159.51,125.18h0.02c0.3-0.56,0.85-0.9,1.51-0.9c1.31,0,1.67,0.81,1.67,2.12v3.07h-0.5v-3.07c0-0.91-0.11-1.66-1.22-1.66
			c-1.28,0-1.49,1.19-1.49,2.22v2.51h-0.5v-5.08h0.5V125.18z"/>
		<path d="M45.72,142.67h-0.5v-0.91H45.2c-0.37,0.65-1.19,1.02-1.94,1.02c-1.54,0-2.51-1.2-2.51-2.68s0.96-2.62,2.49-2.62
			c0.78,0,1.53,0.35,1.96,0.99h0.02v-0.88h0.5V142.67z M41.25,140.1c0,1.17,0.77,2.22,2,2.22c1.3,0,2-1.06,2-2.28
			c0-1.18-0.8-2.1-2.04-2.1C42.06,137.94,41.25,139,41.25,140.1z"/>
		<path d="M51.38,142.67h-0.5v-4.62h-0.56v-0.46h0.56v-1.82h0.5v1.82h0.89v0.46h-0.89V142.67z"/>
		<path d="M56.7,137.59v3.05c0,0.52,0.01,1.03-0.31,1.46c-0.35,0.46-0.95,0.68-1.52,0.68c-0.57,0-1.17-0.22-1.52-0.68
			c-0.32-0.43-0.31-0.95-0.31-1.46v-3.05h0.5v2.87c0,0.98,0.11,1.86,1.33,1.86c1.22,0,1.33-0.88,1.33-1.86v-2.87H56.7z"/>
		<path d="M62.21,138.76c-0.48-0.53-1.07-0.83-1.79-0.83c-1.2,0-2.1,1.02-2.1,2.18s0.89,2.2,2.09,2.2c0.73,0,1.41-0.35,1.87-0.91
			v0.67c-0.52,0.45-1.17,0.7-1.85,0.7c-1.51,0-2.61-1.18-2.61-2.66c0-1.47,1.12-2.64,2.62-2.64c0.66,0,1.26,0.2,1.77,0.63V138.76z"
			/>
		<path d="M64.06,139.74l2.09-2.16h0.64l-2.13,2.2l2.85,2.88h-0.65l-2.52-2.54l-0.28,0.29v2.25h-0.5v-9.08h0.5V139.74z"/>
		<path d="M68.26,140.17c-0.03,1.29,0.86,2.14,2.04,2.14c0.79,0,1.43-0.47,1.79-1.15l0.42,0.24c-0.46,0.88-1.28,1.38-2.28,1.38
			c-1.51,0-2.46-1.22-2.46-2.66c0-1.42,0.98-2.64,2.46-2.64c1.54,0,2.45,1.23,2.44,2.7H68.26z M72.18,139.71
			c-0.12-0.94-0.89-1.77-1.94-1.77c-1.03,0-1.89,0.81-1.98,1.77H72.18z"/>
		<path d="M77.84,141.76h-0.02c-0.37,0.65-1.19,1.02-1.94,1.02c-1.54,0-2.51-1.2-2.51-2.68s0.96-2.62,2.49-2.62
			c0.78,0,1.53,0.35,1.96,0.99h0.02v-4.87h0.5v9.08h-0.5V141.76z M77.87,140.04c0-1.18-0.8-2.1-2.04-2.1
			c-1.17,0-1.97,1.06-1.97,2.16c0,1.17,0.77,2.22,2,2.22C77.17,142.32,77.87,141.26,77.87,140.04z"/>
		<path d="M83.93,138.5h0.02c0.37-0.65,1.19-1.02,1.94-1.02c1.55,0,2.51,1.21,2.51,2.7s-0.96,2.61-2.49,2.61
			c-0.78,0-1.54-0.34-1.96-0.99h-0.02v3.85h-0.5v-8.05h0.5V138.5z M83.9,140.24c0,1.19,0.8,2.08,2.02,2.08c1.19,0,1.98-1,1.98-2.13
			c0-1.17-0.76-2.24-2-2.24C84.61,137.94,83.9,139.02,83.9,140.24z"/>
		<path d="M94.42,140.13c0,1.51-1.18,2.65-2.67,2.65c-1.46,0-2.64-1.2-2.64-2.64c0-1.46,1.17-2.66,2.64-2.66
			C93.24,137.48,94.42,138.62,94.42,140.13z M89.6,140.14c0,1.16,0.91,2.18,2.11,2.18c1.24,0,2.21-0.95,2.21-2.18
			c0-1.25-0.96-2.2-2.21-2.2C90.5,137.94,89.6,138.96,89.6,140.14z"/>
		<path d="M97.75,138.51c-0.17-0.35-0.5-0.57-0.89-0.57c-0.43,0-0.87,0.35-0.87,0.79c0,1.22,2.48,0.63,2.48,2.46
			c0,0.94-0.73,1.58-1.64,1.58c-0.85,0-1.54-0.52-1.75-1.34l0.48-0.15c0.19,0.6,0.59,1.03,1.27,1.03c0.64,0,1.14-0.51,1.14-1.14
			c0-0.63-0.48-0.83-0.99-1c-0.69-0.25-1.48-0.55-1.48-1.41c0-0.77,0.65-1.29,1.39-1.29c0.52,0,1.08,0.34,1.3,0.81L97.75,138.51z"/>
		<path d="M100.63,135.89c0,0.25-0.2,0.45-0.45,0.45s-0.45-0.2-0.45-0.45c0-0.24,0.2-0.45,0.45-0.45S100.63,135.65,100.63,135.89z
			 M100.42,142.67h-0.5v-5.08h0.5V142.67z"/>
		<path d="M102.87,142.67h-0.5v-4.62h-0.56v-0.46h0.56v-1.82h0.5v1.82h0.89v0.46h-0.89V142.67z"/>
		<path d="M105.51,135.89c0,0.25-0.2,0.45-0.45,0.45s-0.45-0.2-0.45-0.45c0-0.24,0.2-0.45,0.45-0.45S105.51,135.65,105.51,135.89z
			 M105.3,142.67h-0.5v-5.08h0.5V142.67z"/>
		<path d="M112.01,140.13c0,1.51-1.18,2.65-2.67,2.65c-1.46,0-2.64-1.2-2.64-2.64c0-1.46,1.17-2.66,2.64-2.66
			C110.83,137.48,112.01,138.62,112.01,140.13z M107.19,140.14c0,1.16,0.91,2.18,2.11,2.18c1.24,0,2.21-0.95,2.21-2.18
			c0-1.25-0.96-2.2-2.21-2.2C108.09,137.94,107.19,138.96,107.19,140.14z"/>
		<path d="M113.7,138.38h0.02c0.3-0.56,0.85-0.9,1.51-0.9c1.31,0,1.67,0.81,1.67,2.12v3.07h-0.5v-3.07c0-0.91-0.11-1.66-1.22-1.66
			c-1.28,0-1.49,1.19-1.49,2.22v2.51h-0.5v-5.08h0.5V138.38z"/>
		<path d="M123.51,141.76l1.79-4.44l1.8,4.44l1.76-4.17h0.51l-2.3,5.36l-1.79-4.39l-1.78,4.39l-2.29-5.36h0.51L123.51,141.76z"/>
		<path d="M131.17,135.89c0,0.25-0.2,0.45-0.45,0.45s-0.45-0.2-0.45-0.45c0-0.24,0.2-0.45,0.45-0.45S131.17,135.65,131.17,135.89z
			 M130.96,142.67h-0.5v-5.08h0.5V142.67z"/>
		<path d="M133.35,142.67h-0.5v-9.08h0.5V142.67z"/>
		<path d="M135.54,142.67h-0.5v-9.08h0.5V142.67z"/>
		<path d="M141.13,139.74l2.09-2.16h0.64l-2.13,2.2l2.85,2.88h-0.65l-2.52-2.54l-0.28,0.29v2.25h-0.5v-9.08h0.5V139.74z"/>
		<path d="M145.34,140.17c-0.03,1.29,0.86,2.14,2.04,2.14c0.79,0,1.43-0.47,1.79-1.15l0.42,0.24c-0.46,0.88-1.28,1.38-2.28,1.38
			c-1.51,0-2.46-1.22-2.46-2.66c0-1.42,0.98-2.64,2.46-2.64c1.54,0,2.45,1.23,2.44,2.7H145.34z M149.25,139.71
			c-0.12-0.94-0.89-1.77-1.94-1.77c-1.03,0-1.89,0.81-1.98,1.77H149.25z"/>
		<path d="M150.95,140.17c-0.03,1.29,0.86,2.14,2.04,2.14c0.79,0,1.43-0.47,1.79-1.15l0.42,0.24c-0.46,0.88-1.28,1.38-2.28,1.38
			c-1.51,0-2.46-1.22-2.46-2.66c0-1.42,0.98-2.64,2.46-2.64c1.54,0,2.45,1.23,2.44,2.7H150.95z M154.86,139.71
			c-0.12-0.94-0.89-1.77-1.94-1.77c-1.03,0-1.89,0.81-1.98,1.77H154.86z"/>
		<path d="M157.05,138.5h0.02c0.37-0.65,1.19-1.02,1.94-1.02c1.55,0,2.51,1.21,2.51,2.7s-0.96,2.61-2.49,2.61
			c-0.78,0-1.54-0.34-1.96-0.99h-0.02v3.85h-0.5v-8.05h0.5V138.5z M157.02,140.24c0,1.19,0.8,2.08,2.02,2.08
			c1.19,0,1.98-1,1.98-2.13c0-1.17-0.76-2.24-2-2.24C157.72,137.94,157.02,139.02,157.02,140.24z"/>
		<path d="M41.8,155.87h-0.5v-4.62h-0.56v-0.46h0.56v-1.82h0.5v1.82h0.89v0.46H41.8V155.87z"/>
		<path d="M44.05,146.79v4.79h0.02c0.3-0.56,0.85-0.9,1.51-0.9c1.31,0,1.67,0.81,1.67,2.12v3.07h-0.5v-3.07
			c0-0.91-0.11-1.66-1.22-1.66c-1.28,0-1.49,1.19-1.49,2.22v2.51h-0.5v-9.08H44.05z"/>
		<path d="M48.94,153.37c-0.03,1.29,0.86,2.14,2.04,2.14c0.79,0,1.43-0.47,1.79-1.15l0.42,0.24c-0.46,0.88-1.28,1.38-2.28,1.38
			c-1.51,0-2.46-1.22-2.46-2.66c0-1.42,0.98-2.64,2.46-2.64c1.54,0,2.45,1.23,2.44,2.7H48.94z M52.86,152.91
			c-0.12-0.94-0.89-1.77-1.94-1.77c-1.03,0-1.89,0.81-1.98,1.77H52.86z"/>
		<path d="M58.46,151.45h0.02c0.2-0.46,0.56-0.77,1.1-0.77c0.2,0,0.36,0.04,0.54,0.12l-0.26,0.44c-0.12-0.07-0.22-0.1-0.35-0.1
			c-1.11,0-1.05,1.39-1.05,2.13v2.6h-0.5v-5.08h0.5V151.45z"/>
		<path d="M65.84,153.33c0,1.51-1.18,2.65-2.67,2.65c-1.46,0-2.64-1.2-2.64-2.64c0-1.46,1.17-2.66,2.64-2.66
			C64.66,150.68,65.84,151.82,65.84,153.33z M61.02,153.34c0,1.16,0.91,2.18,2.11,2.18c1.24,0,2.21-0.95,2.21-2.18
			c0-1.25-0.96-2.2-2.21-2.2C61.92,151.14,61.02,152.16,61.02,153.34z"/>
		<path d="M67.59,155.87h-0.5v-4.62h-0.56v-0.46h0.56v-1.82h0.5v1.82h0.89v0.46h-0.89V155.87z"/>
		<path d="M73.8,155.87h-0.5v-0.91h-0.02c-0.37,0.65-1.19,1.02-1.94,1.02c-1.54,0-2.51-1.2-2.51-2.68s0.96-2.62,2.49-2.62
			c0.78,0,1.53,0.35,1.96,0.99h0.02v-0.88h0.5V155.87z M69.34,153.29c0,1.17,0.77,2.22,2,2.22c1.3,0,2-1.06,2-2.28
			c0-1.18-0.8-2.1-2.04-2.1C70.14,151.14,69.34,152.19,69.34,153.29z"/>
		<path d="M76.05,155.87h-0.5v-4.62h-0.56v-0.46h0.56v-1.82h0.5v1.82h0.89v0.46h-0.89V155.87z"/>
		<path d="M78.69,149.09c0,0.25-0.2,0.45-0.45,0.45s-0.45-0.2-0.45-0.45c0-0.24,0.2-0.45,0.45-0.45S78.69,148.85,78.69,149.09z
			 M78.48,155.87h-0.5v-5.08h0.5V155.87z"/>
		<path d="M85.19,153.33c0,1.51-1.18,2.65-2.67,2.65c-1.46,0-2.64-1.2-2.64-2.64c0-1.46,1.17-2.66,2.64-2.66
			C84.01,150.68,85.19,151.82,85.19,153.33z M80.37,153.34c0,1.16,0.91,2.18,2.11,2.18c1.24,0,2.21-0.95,2.21-2.18
			c0-1.25-0.96-2.2-2.21-2.2C81.27,151.14,80.37,152.16,80.37,153.34z"/>
		<path d="M86.88,151.58h0.02c0.3-0.56,0.85-0.9,1.51-0.9c1.31,0,1.67,0.81,1.67,2.12v3.07h-0.5v-3.07c0-0.91-0.11-1.66-1.22-1.66
			c-1.28,0-1.49,1.19-1.49,2.22v2.51h-0.5v-5.08h0.5V151.58z"/>
		<path d="M97.32,151.71c-0.17-0.35-0.5-0.57-0.89-0.57c-0.43,0-0.87,0.35-0.87,0.79c0,1.22,2.48,0.63,2.48,2.46
			c0,0.94-0.73,1.58-1.64,1.58c-0.85,0-1.54-0.52-1.75-1.34l0.48-0.15c0.19,0.6,0.59,1.03,1.27,1.03c0.64,0,1.14-0.51,1.14-1.14
			c0-0.63-0.48-0.83-0.99-1c-0.69-0.25-1.48-0.55-1.48-1.41c0-0.77,0.65-1.29,1.39-1.29c0.52,0,1.08,0.34,1.3,0.81L97.32,151.71z"/>
		<path d="M99.81,151.7h0.02c0.37-0.65,1.19-1.02,1.94-1.02c1.55,0,2.51,1.21,2.51,2.7s-0.96,2.61-2.49,2.61
			c-0.78,0-1.54-0.34-1.96-0.99h-0.02v3.85h-0.5v-8.05h0.5V151.7z M99.77,153.44c0,1.19,0.8,2.08,2.02,2.08c1.19,0,1.98-1,1.98-2.13
			c0-1.17-0.76-2.24-2-2.24C100.48,151.14,99.77,152.22,99.77,153.44z"/>
		<path d="M106.36,149.09c0,0.25-0.2,0.45-0.45,0.45s-0.45-0.2-0.45-0.45c0-0.24,0.2-0.45,0.45-0.45S106.36,148.85,106.36,149.09z
			 M106.15,155.87h-0.5v-5.08h0.5V155.87z"/>
		<path d="M108.54,151.58h0.02c0.3-0.56,0.85-0.9,1.51-0.9c1.31,0,1.67,0.81,1.67,2.12v3.07h-0.5v-3.07c0-0.91-0.11-1.66-1.22-1.66
			c-1.28,0-1.49,1.19-1.49,2.22v2.51h-0.5v-5.08h0.5V151.58z"/>
		<path d="M113.93,151.58h0.02c0.3-0.56,0.85-0.9,1.51-0.9c1.31,0,1.67,0.81,1.67,2.12v3.07h-0.5v-3.07c0-0.91-0.11-1.66-1.22-1.66
			c-1.28,0-1.49,1.19-1.49,2.22v2.51h-0.5v-5.08h0.5V151.58z"/>
		<path d="M119.72,149.09c0,0.25-0.2,0.45-0.45,0.45s-0.45-0.2-0.45-0.45c0-0.24,0.2-0.45,0.45-0.45S119.72,148.85,119.72,149.09z
			 M119.51,155.87h-0.5v-5.08h0.5V155.87z"/>
		<path d="M121.89,151.58h0.02c0.3-0.56,0.85-0.9,1.51-0.9c1.31,0,1.67,0.81,1.67,2.12v3.07h-0.5v-3.07c0-0.91-0.11-1.66-1.22-1.66
			c-1.28,0-1.49,1.19-1.49,2.22v2.51h-0.5v-5.08h0.5V151.58z"/>
		<path d="M131.33,155.63c0,0.78-0.02,1.49-0.51,2.16c-0.47,0.65-1.22,0.98-2.02,0.98c-1.33,0-2.43-0.78-2.51-2.18h0.49
			c0.06,1.06,0.95,1.72,1.97,1.72c0.64,0,1.25-0.22,1.63-0.76c0.4-0.58,0.45-1.24,0.45-1.92v-0.63h-0.02
			c-0.45,0.6-1.21,0.99-1.98,0.99c-1.47,0-2.46-1.24-2.46-2.66c0-1.46,1.05-2.64,2.53-2.64c0.83,0,1.44,0.35,1.92,0.99h0.02v-0.88
			h0.5V155.63z M126.87,153.29c0,1.17,0.77,2.22,2,2.22c1.3,0,2-1.06,2-2.28c0-1.18-0.8-2.1-2.04-2.1
			C127.67,151.14,126.87,152.19,126.87,153.29z"/>
		<path d="M134.33,155.53c0,0.25-0.2,0.45-0.45,0.45s-0.45-0.2-0.45-0.45s0.2-0.45,0.45-0.45S134.33,155.28,134.33,155.53z"/>
		<path d="M141.74,155.87h-0.53v-7.8h-2.14v-0.5h4.82v0.5h-2.15V155.87z"/>
		<path d="M145.29,146.79v4.79h0.02c0.3-0.56,0.85-0.9,1.51-0.9c1.31,0,1.67,0.81,1.67,2.12v3.07H148v-3.07
			c0-0.91-0.11-1.66-1.22-1.66c-1.28,0-1.49,1.19-1.49,2.22v2.51h-0.5v-9.08H145.29z"/>
		<path d="M151.08,149.09c0,0.25-0.2,0.45-0.45,0.45s-0.45-0.2-0.45-0.45c0-0.24,0.2-0.45,0.45-0.45S151.08,148.85,151.08,149.09z
			 M150.87,155.87h-0.5v-5.08h0.5V155.87z"/>
		<path d="M154.89,151.71c-0.17-0.35-0.5-0.57-0.89-0.57c-0.43,0-0.87,0.35-0.87,0.79c0,1.22,2.48,0.63,2.48,2.46
			c0,0.94-0.73,1.58-1.64,1.58c-0.85,0-1.54-0.52-1.75-1.34l0.48-0.15c0.19,0.6,0.59,1.03,1.27,1.03c0.64,0,1.14-0.51,1.14-1.14
			c0-0.63-0.48-0.83-0.99-1c-0.69-0.25-1.48-0.55-1.48-1.41c0-0.77,0.65-1.29,1.39-1.29c0.52,0,1.08,0.34,1.3,0.81L154.89,151.71z"
			/>
		<path d="M46.07,166.53c0,1.51-1.18,2.65-2.67,2.65c-1.46,0-2.64-1.2-2.64-2.64c0-1.46,1.17-2.66,2.64-2.66
			C44.9,163.88,46.07,165.02,46.07,166.53z M41.25,166.54c0,1.16,0.91,2.18,2.11,2.18c1.24,0,2.21-0.95,2.21-2.18
			c0-1.25-0.96-2.2-2.21-2.2C42.16,164.34,41.25,165.36,41.25,166.54z"/>
		<path d="M48.82,168.18l1.8-4.19h0.51l-2.32,5.36l-2.33-5.36h0.51L48.82,168.18z"/>
		<path d="M52.03,166.57c-0.03,1.29,0.86,2.15,2.04,2.15c0.79,0,1.43-0.47,1.79-1.16l0.42,0.24c-0.46,0.88-1.28,1.38-2.28,1.38
			c-1.51,0-2.46-1.22-2.46-2.66c0-1.42,0.98-2.64,2.46-2.64c1.54,0,2.45,1.23,2.44,2.7H52.03z M55.95,166.11
			c-0.12-0.94-0.89-1.77-1.94-1.77c-1.03,0-1.89,0.81-1.98,1.77H55.95z"/>
		<path d="M58.14,164.65h0.02c0.2-0.46,0.56-0.77,1.1-0.77c0.2,0,0.36,0.04,0.54,0.12l-0.26,0.44c-0.12-0.07-0.22-0.1-0.35-0.1
			c-1.11,0-1.05,1.39-1.05,2.13v2.6h-0.5v-5.08h0.5V164.65z"/>
		<path d="M61.94,165.31v0.5h-2.09v-0.5H61.94z"/>
		<path d="M63.29,164.65h0.02c0.2-0.46,0.56-0.77,1.1-0.77c0.2,0,0.36,0.04,0.54,0.12l-0.26,0.44c-0.12-0.07-0.22-0.1-0.35-0.1
			c-1.11,0-1.05,1.39-1.05,2.13v2.6h-0.5v-5.08h0.5V164.65z"/>
		<path d="M70.67,166.53c0,1.51-1.18,2.65-2.67,2.65c-1.46,0-2.64-1.2-2.64-2.64c0-1.46,1.17-2.66,2.64-2.66
			C69.49,163.88,70.67,165.02,70.67,166.53z M65.85,166.54c0,1.16,0.91,2.18,2.11,2.18c1.24,0,2.21-0.95,2.21-2.18
			c0-1.25-0.96-2.2-2.21-2.2C66.75,164.34,65.85,165.36,65.85,166.54z"/>
		<path d="M72.42,169.07h-0.5v-4.62h-0.56v-0.46h0.56v-1.82h0.5v1.82h0.89v0.46h-0.89V169.07z"/>
		<path d="M78.63,169.07h-0.5v-0.91h-0.02c-0.37,0.65-1.19,1.02-1.94,1.02c-1.54,0-2.51-1.2-2.51-2.68s0.96-2.62,2.49-2.62
			c0.78,0,1.53,0.35,1.96,0.99h0.02v-0.88h0.5V169.07z M74.16,166.5c0,1.17,0.77,2.22,2,2.22c1.3,0,2-1.06,2-2.28
			c0-1.18-0.8-2.1-2.04-2.1C74.97,164.34,74.16,165.39,74.16,166.5z"/>
		<path d="M80.88,169.07h-0.5v-4.62h-0.56v-0.46h0.56v-1.82h0.5v1.82h0.89v0.46h-0.89V169.07z"/>
		<path d="M83.51,162.29c0,0.25-0.2,0.45-0.45,0.45s-0.45-0.2-0.45-0.45c0-0.24,0.2-0.45,0.45-0.45S83.51,162.05,83.51,162.29z
			 M83.31,169.07h-0.5v-5.08h0.5V169.07z"/>
		<path d="M90.02,166.53c0,1.51-1.18,2.65-2.67,2.65c-1.46,0-2.64-1.2-2.64-2.64c0-1.46,1.17-2.66,2.64-2.66
			C88.84,163.88,90.02,165.02,90.02,166.53z M85.2,166.54c0,1.16,0.91,2.18,2.11,2.18c1.24,0,2.21-0.95,2.21-2.18
			c0-1.25-0.96-2.2-2.21-2.2C86.1,164.34,85.2,165.36,85.2,166.54z"/>
		<path d="M91.71,164.78h0.02c0.3-0.56,0.85-0.9,1.51-0.9c1.31,0,1.67,0.81,1.67,2.12v3.07h-0.5V166c0-0.91-0.11-1.66-1.22-1.66
			c-1.28,0-1.49,1.19-1.49,2.22v2.51h-0.5v-5.08h0.5V164.78z"/>
		<path d="M100.91,162.29c0,0.25-0.2,0.45-0.45,0.45s-0.45-0.2-0.45-0.45c0-0.24,0.2-0.45,0.45-0.45S100.91,162.05,100.91,162.29z
			 M100.7,169.07h-0.5v-5.08h0.5V169.07z"/>
		<path d="M104.72,164.91c-0.17-0.35-0.5-0.57-0.89-0.57c-0.43,0-0.87,0.35-0.87,0.79c0,1.22,2.48,0.63,2.48,2.46
			c0,0.94-0.73,1.58-1.64,1.58c-0.85,0-1.54-0.52-1.75-1.34l0.48-0.15c0.19,0.6,0.59,1.03,1.27,1.03c0.64,0,1.14-0.51,1.14-1.14
			c0-0.63-0.48-0.83-0.99-1c-0.69-0.25-1.48-0.55-1.48-1.41c0-0.77,0.65-1.29,1.39-1.29c0.52,0,1.08,0.34,1.3,0.81L104.72,164.91z"
			/>
		<path d="M114.59,169.07h-0.5v-0.91h-0.02c-0.37,0.65-1.19,1.02-1.94,1.02c-1.54,0-2.51-1.2-2.51-2.68s0.96-2.62,2.49-2.62
			c0.78,0,1.53,0.35,1.96,0.99h0.02v-0.88h0.5V169.07z M110.12,166.5c0,1.17,0.77,2.22,2,2.22c1.3,0,2-1.06,2-2.28
			c0-1.18-0.8-2.1-2.04-2.1C110.93,164.34,110.12,165.39,110.12,166.5z"/>
		<path d="M116.78,164.78h0.02c0.3-0.56,0.85-0.9,1.51-0.9c1.31,0,1.67,0.81,1.67,2.12v3.07h-0.5V166c0-0.91-0.11-1.66-1.22-1.66
			c-1.28,0-1.49,1.19-1.49,2.22v2.51h-0.5v-5.08h0.5V164.78z"/>
		<path d="M125.08,166.57c-0.03,1.29,0.86,2.15,2.04,2.15c0.79,0,1.43-0.47,1.79-1.16l0.42,0.24c-0.46,0.88-1.28,1.38-2.28,1.38
			c-1.51,0-2.46-1.22-2.46-2.66c0-1.42,0.98-2.64,2.46-2.64c1.54,0,2.45,1.23,2.44,2.7H125.08z M129,166.11
			c-0.12-0.94-0.89-1.77-1.94-1.77c-1.03,0-1.89,0.81-1.98,1.77H129z"/>
		<path d="M130.07,163.99h0.59l1.62,2.06l1.63-2.06h0.59l-1.89,2.4l2.07,2.68h-0.58l-1.82-2.33l-1.8,2.33h-0.58l2.07-2.68
			L130.07,163.99z"/>
		<path d="M139.46,165.16c-0.48-0.53-1.07-0.83-1.79-0.83c-1.2,0-2.1,1.02-2.1,2.18s0.89,2.2,2.09,2.2c0.73,0,1.41-0.35,1.87-0.91
			v0.67c-0.52,0.45-1.17,0.7-1.85,0.7c-1.51,0-2.61-1.18-2.61-2.66c0-1.47,1.12-2.64,2.62-2.64c0.66,0,1.26,0.2,1.77,0.63V165.16z"
			/>
		<path d="M140.81,166.57c-0.03,1.29,0.86,2.15,2.04,2.15c0.79,0,1.43-0.47,1.79-1.16l0.42,0.24c-0.46,0.88-1.28,1.38-2.28,1.38
			c-1.51,0-2.46-1.22-2.46-2.66c0-1.42,0.98-2.64,2.46-2.64c1.54,0,2.45,1.23,2.44,2.7H140.81z M144.73,166.11
			c-0.12-0.94-0.89-1.77-1.94-1.77c-1.03,0-1.89,0.81-1.98,1.77H144.73z"/>
		<path d="M146.92,169.07h-0.5v-9.08h0.5V169.07z"/>
		<path d="M149.11,169.07h-0.5v-9.08h0.5V169.07z"/>
		<path d="M150.8,166.57c-0.03,1.29,0.86,2.15,2.04,2.15c0.79,0,1.43-0.47,1.79-1.16l0.42,0.24c-0.46,0.88-1.28,1.38-2.28,1.38
			c-1.51,0-2.46-1.22-2.46-2.66c0-1.42,0.98-2.64,2.46-2.64c1.54,0,2.45,1.23,2.44,2.7H150.8z M154.72,166.11
			c-0.12-0.94-0.89-1.77-1.94-1.77c-1.03,0-1.89,0.81-1.98,1.77H154.72z"/>
		<path d="M156.91,164.78h0.02c0.3-0.56,0.85-0.9,1.51-0.9c1.31,0,1.67,0.81,1.67,2.12v3.07h-0.5V166c0-0.91-0.11-1.66-1.22-1.66
			c-1.28,0-1.49,1.19-1.49,2.22v2.51h-0.5v-5.08h0.5V164.78z"/>
		<path d="M162.35,169.07h-0.5v-4.62h-0.56v-0.46h0.56v-1.82h0.5v1.82h0.89v0.46h-0.89V169.07z"/>
		<path d="M42.76,181.36l1.79-4.44l1.8,4.44l1.76-4.17h0.51l-2.3,5.36l-1.79-4.39l-1.78,4.39l-2.29-5.36h0.51L42.76,181.36z"/>
		<path d="M53.99,182.27h-0.5v-0.91h-0.02c-0.37,0.65-1.19,1.02-1.94,1.02c-1.54,0-2.51-1.2-2.51-2.68s0.96-2.62,2.49-2.62
			c0.78,0,1.53,0.35,1.96,0.99h0.02v-0.88h0.5V182.27z M49.53,179.7c0,1.17,0.77,2.22,2,2.22c1.3,0,2-1.06,2-2.28
			c0-1.18-0.8-2.1-2.04-2.1C50.33,177.54,49.53,178.59,49.53,179.7z"/>
		<path d="M54.76,177.19h0.52l2.17,4.6l1.95-4.6h0.51l-3.41,8.05h-0.51l1.22-2.88L54.76,177.19z"/>
		<path d="M64.71,182.27h-0.5v-4.62h-0.56v-0.46h0.56v-1.82h0.5v1.82h0.89v0.46h-0.89V182.27z"/>
		<path d="M71.27,179.73c0,1.51-1.18,2.65-2.67,2.65c-1.46,0-2.64-1.2-2.64-2.64c0-1.46,1.17-2.66,2.64-2.66
			C70.1,177.08,71.27,178.22,71.27,179.73z M66.46,179.74c0,1.16,0.91,2.18,2.11,2.18c1.24,0,2.21-0.95,2.21-2.18
			c0-1.25-0.96-2.2-2.21-2.2C67.36,177.54,66.46,178.56,66.46,179.74z"/>
		<path d="M76.38,182.27h-0.5v-9.08h0.5V182.27z"/>
		<path d="M82.54,182.27h-0.5v-0.91h-0.02c-0.37,0.65-1.19,1.02-1.94,1.02c-1.54,0-2.51-1.2-2.51-2.68s0.96-2.62,2.49-2.62
			c0.78,0,1.53,0.35,1.96,0.99h0.02v-0.88h0.5V182.27z M78.07,179.7c0,1.17,0.77,2.22,2,2.22c1.3,0,2-1.06,2-2.28
			c0-1.18-0.8-2.1-2.04-2.1C78.87,177.54,78.07,178.59,78.07,179.7z"/>
		<path d="M84.73,177.98h0.02c0.3-0.56,0.85-0.9,1.51-0.9c1.31,0,1.67,0.81,1.67,2.12v3.07h-0.5v-3.07c0-0.91-0.11-1.66-1.22-1.66
			c-1.28,0-1.49,1.19-1.49,2.22v2.51h-0.5v-5.08h0.5V177.98z"/>
		<path d="M93.59,181.36h-0.02c-0.37,0.65-1.19,1.02-1.94,1.02c-1.54,0-2.51-1.2-2.51-2.68s0.96-2.62,2.49-2.62
			c0.78,0,1.53,0.35,1.96,0.99h0.02v-4.87h0.5v9.08h-0.5V181.36z M93.62,179.64c0-1.18-0.8-2.1-2.04-2.1
			c-1.17,0-1.97,1.06-1.97,2.16c0,1.17,0.77,2.22,2,2.22C92.92,181.92,93.62,180.86,93.62,179.64z"/>
		<path d="M99.69,182.27h-0.5v-4.62h-0.56v-0.46h0.56v-2.28c0-0.37,0.01-0.91,0.2-1.24c0.23-0.41,0.67-0.62,1.13-0.62
			c0.15,0,0.3,0.02,0.44,0.08v0.45c-0.13-0.02-0.26-0.07-0.41-0.07c-0.86,0-0.87,0.86-0.87,1.5v2.18h1.28v0.46h-1.28V182.27z"/>
		<path d="M106.3,182.27h-0.5v-0.91h-0.02c-0.37,0.65-1.19,1.02-1.94,1.02c-1.54,0-2.51-1.2-2.51-2.68s0.96-2.62,2.49-2.62
			c0.78,0,1.53,0.35,1.96,0.99h0.02v-0.88h0.5V182.27z M101.83,179.7c0,1.17,0.77,2.22,2,2.22c1.3,0,2-1.06,2-2.28
			c0-1.18-0.8-2.1-2.04-2.1C102.63,177.54,101.83,178.59,101.83,179.7z"/>
		<path d="M111.88,178.36c-0.48-0.53-1.07-0.83-1.79-0.83c-1.2,0-2.1,1.02-2.1,2.18s0.89,2.2,2.09,2.2c0.73,0,1.41-0.35,1.87-0.91
			v0.67c-0.52,0.45-1.17,0.7-1.85,0.7c-1.51,0-2.61-1.18-2.61-2.66c0-1.47,1.12-2.64,2.62-2.64c0.66,0,1.26,0.2,1.77,0.63V178.36z"
			/>
		<path d="M113.24,179.77c-0.03,1.29,0.86,2.14,2.04,2.14c0.79,0,1.43-0.47,1.79-1.15l0.42,0.24c-0.46,0.88-1.28,1.38-2.28,1.38
			c-1.51,0-2.46-1.22-2.46-2.66c0-1.42,0.98-2.64,2.46-2.64c1.54,0,2.45,1.23,2.44,2.7H113.24z M117.15,179.31
			c-0.12-0.94-0.89-1.77-1.94-1.77c-1.03,0-1.89,0.81-1.98,1.77H117.15z"/>
		<path d="M122.75,182.27h-0.5v-4.62h-0.56v-0.46h0.56v-2.28c0-0.37,0.01-0.91,0.2-1.24c0.23-0.41,0.67-0.62,1.13-0.62
			c0.15,0,0.3,0.02,0.44,0.08v0.45c-0.13-0.02-0.26-0.07-0.41-0.07c-0.86,0-0.87,0.86-0.87,1.5v2.18h1.28v0.46h-1.28V182.27z
			 M125.8,175.49c0,0.25-0.2,0.45-0.45,0.45s-0.45-0.2-0.45-0.45c0-0.24,0.2-0.45,0.45-0.45S125.8,175.25,125.8,175.49z
			 M125.59,182.27h-0.5v-5.08h0.5V182.27z"/>
		<path d="M127.98,177.85H128c0.2-0.46,0.56-0.77,1.1-0.77c0.2,0,0.36,0.04,0.54,0.12l-0.26,0.44c-0.12-0.07-0.22-0.1-0.35-0.1
			c-1.11,0-1.05,1.39-1.05,2.13v2.6h-0.5v-5.08h0.5V177.85z"/>
		<path d="M132.67,178.11c-0.17-0.35-0.5-0.57-0.89-0.57c-0.43,0-0.87,0.35-0.87,0.79c0,1.22,2.48,0.63,2.48,2.46
			c0,0.94-0.73,1.58-1.64,1.58c-0.85,0-1.54-0.52-1.75-1.34l0.48-0.15c0.19,0.6,0.59,1.03,1.27,1.03c0.64,0,1.14-0.51,1.14-1.14
			c0-0.63-0.48-0.83-0.99-1c-0.69-0.25-1.48-0.55-1.48-1.41c0-0.77,0.65-1.29,1.39-1.29c0.52,0,1.08,0.34,1.3,0.81L132.67,178.11z"
			/>
		<path d="M135.22,182.27h-0.5v-4.62h-0.56v-0.46h0.56v-1.82h0.5v1.82h0.89v0.46h-0.89V182.27z"/>
		<path d="M138.27,181.93c0,0.25-0.2,0.45-0.45,0.45s-0.45-0.2-0.45-0.45s0.2-0.45,0.45-0.45S138.27,181.68,138.27,181.93z"/>
	</g>
	<g>
		<rect x="140.93" y="236.8" class="st17" width="141.05" height="55.5"/>
		<path d="M141.82,245.88v-8.29h1.66c0.63,0,1.22,0.04,1.72,0.48c0.51,0.44,0.69,1.06,0.69,1.72c0,0.76-0.3,1.32-0.96,1.69
			c1.02,0.21,1.72,1.03,1.72,2.09c0,0.67-0.25,1.28-0.77,1.72c-0.58,0.5-1.2,0.59-1.94,0.59H141.82z M142.35,241.34h0.91
			c0.56,0,1.01,0.03,1.49-0.31c0.47-0.34,0.62-0.76,0.62-1.33c0-0.54-0.21-1.07-0.68-1.36c-0.42-0.26-0.94-0.26-1.42-0.26h-0.91
			V241.34z M142.35,245.38h1.27c0.58,0,1.19,0.02,1.69-0.32c0.51-0.34,0.81-0.86,0.81-1.47c0-0.61-0.3-1.21-0.86-1.49
			c-0.51-0.25-1.2-0.26-1.75-0.26h-1.17V245.38z"/>
		<path d="M147.99,243.38c-0.03,1.29,0.86,2.14,2.04,2.14c0.79,0,1.43-0.47,1.79-1.15l0.42,0.24c-0.46,0.88-1.28,1.38-2.28,1.38
			c-1.51,0-2.46-1.22-2.46-2.66c0-1.42,0.98-2.64,2.46-2.64c1.54,0,2.45,1.23,2.44,2.7H147.99z M151.91,242.92
			c-0.12-0.94-0.89-1.77-1.94-1.77c-1.03,0-1.89,0.81-1.98,1.77H151.91z"/>
		<path d="M154.49,239.1c0,0.25-0.2,0.45-0.45,0.45s-0.45-0.2-0.45-0.45c0-0.24,0.2-0.45,0.45-0.45S154.49,238.86,154.49,239.1z
			 M154.28,245.88h-0.5v-5.08h0.5V245.88z"/>
		<path d="M156.67,241.58h0.02c0.3-0.56,0.85-0.9,1.51-0.9c1.31,0,1.67,0.81,1.67,2.12v3.07h-0.5v-3.07c0-0.91-0.11-1.66-1.22-1.66
			c-1.28,0-1.49,1.19-1.49,2.22v2.51h-0.5v-5.08h0.5V241.58z"/>
		<path d="M166.11,245.63c0,0.78-0.02,1.49-0.51,2.16c-0.47,0.65-1.22,0.98-2.02,0.98c-1.33,0-2.43-0.78-2.51-2.18h0.5
			c0.06,1.06,0.95,1.72,1.97,1.72c0.64,0,1.25-0.22,1.63-0.76c0.4-0.58,0.45-1.24,0.45-1.92V245h-0.02
			c-0.45,0.6-1.21,0.99-1.98,0.99c-1.47,0-2.46-1.24-2.46-2.66c0-1.46,1.05-2.64,2.53-2.64c0.83,0,1.44,0.35,1.92,0.99h0.02v-0.88
			h0.5V245.63z M161.64,243.3c0,1.17,0.77,2.22,2,2.22c1.3,0,2-1.06,2-2.28c0-1.18-0.8-2.1-2.04-2.1
			C162.44,241.14,161.64,242.2,161.64,243.3z"/>
		<path d="M175.68,245.88h-0.5v-0.91h-0.02c-0.37,0.65-1.19,1.02-1.94,1.02c-1.54,0-2.51-1.2-2.51-2.68s0.96-2.62,2.49-2.62
			c0.78,0,1.53,0.35,1.96,0.99h0.02v-0.88h0.5V245.88z M171.21,243.3c0,1.17,0.77,2.22,2,2.22c1.3,0,2-1.06,2-2.28
			c0-1.18-0.8-2.1-2.04-2.1C172.01,241.14,171.21,242.2,171.21,243.3z"/>
		<path d="M177.37,236.8h0.5v4.87h0.02c0.43-0.64,1.18-0.99,1.96-0.99c1.52,0,2.49,1.13,2.49,2.62s-0.97,2.68-2.51,2.68
			c-0.75,0-1.56-0.37-1.94-1.02h-0.02v0.91h-0.5V236.8z M181.84,243.3c0-1.11-0.8-2.16-1.98-2.16c-1.29,0-2.02,0.96-2.02,2.17
			c0,1.19,0.75,2.21,2,2.21C181.08,245.52,181.84,244.47,181.84,243.3z"/>
		<path d="M184.03,245.88h-0.5v-9.08h0.5V245.88z"/>
		<path d="M185.72,243.38c-0.03,1.29,0.86,2.14,2.04,2.14c0.79,0,1.43-0.47,1.79-1.15l0.42,0.24c-0.46,0.88-1.28,1.38-2.28,1.38
			c-1.51,0-2.46-1.22-2.46-2.66c0-1.42,0.98-2.64,2.46-2.64c1.54,0,2.45,1.23,2.44,2.7H185.72z M189.64,242.92
			c-0.12-0.94-0.89-1.77-1.94-1.77c-1.03,0-1.89,0.81-1.98,1.77H189.64z"/>
		<path d="M195.29,245.88h-0.5v-4.62h-0.56v-0.46h0.56v-1.82h0.5v1.82h0.89v0.46h-0.89V245.88z"/>
		<path d="M201.86,243.33c0,1.51-1.18,2.65-2.67,2.65c-1.46,0-2.64-1.2-2.64-2.64c0-1.46,1.17-2.66,2.64-2.66
			C200.68,240.68,201.86,241.83,201.86,243.33z M197.04,243.34c0,1.16,0.91,2.18,2.11,2.18c1.24,0,2.21-0.95,2.21-2.18
			c0-1.25-0.96-2.2-2.21-2.2C197.94,241.14,197.04,242.17,197.04,243.34z"/>
		<path d="M208.6,241.72c-0.17-0.35-0.5-0.57-0.89-0.57c-0.43,0-0.87,0.35-0.87,0.79c0,1.22,2.48,0.63,2.48,2.46
			c0,0.94-0.73,1.58-1.64,1.58c-0.85,0-1.54-0.52-1.75-1.34l0.48-0.15c0.19,0.6,0.59,1.03,1.27,1.03c0.64,0,1.14-0.51,1.14-1.14
			c0-0.63-0.48-0.83-0.99-1c-0.69-0.25-1.48-0.55-1.48-1.41c0-0.77,0.65-1.29,1.39-1.29c0.52,0,1.08,0.34,1.3,0.81L208.6,241.72z"/>
		<path d="M211.14,245.88h-0.5v-4.62h-0.56v-0.46h0.56v-1.82h0.5v1.82h0.89v0.46h-0.89V245.88z"/>
		<path d="M217.71,243.33c0,1.51-1.18,2.65-2.67,2.65c-1.46,0-2.64-1.2-2.64-2.64c0-1.46,1.17-2.66,2.64-2.66
			C216.53,240.68,217.71,241.83,217.71,243.33z M212.89,243.34c0,1.16,0.91,2.18,2.11,2.18c1.24,0,2.21-0.95,2.21-2.18
			c0-1.25-0.96-2.2-2.21-2.2C213.79,241.14,212.89,242.17,212.89,243.34z"/>
		<path d="M219.4,241.71h0.02c0.37-0.65,1.19-1.02,1.94-1.02c1.55,0,2.51,1.21,2.51,2.7s-0.96,2.61-2.49,2.61
			c-0.78,0-1.54-0.34-1.96-0.99h-0.02v3.85h-0.5v-8.05h0.5V241.71z M219.37,243.44c0,1.19,0.8,2.08,2.02,2.08
			c1.19,0,1.98-1,1.98-2.13c0-1.17-0.76-2.24-2-2.24C220.07,241.14,219.37,242.22,219.37,243.44z"/>
		<path d="M232.94,245.88h-0.5v-0.91h-0.02c-0.37,0.65-1.19,1.02-1.94,1.02c-1.54,0-2.51-1.2-2.51-2.68s0.96-2.62,2.49-2.62
			c0.78,0,1.53,0.35,1.96,0.99h0.02v-0.88h0.5V245.88z M228.48,243.3c0,1.17,0.77,2.22,2,2.22c1.3,0,2-1.06,2-2.28
			c0-1.18-0.8-2.1-2.04-2.1C229.28,241.14,228.48,242.2,228.48,243.3z"/>
		<path d="M235.13,241.58h0.02c0.3-0.56,0.85-0.9,1.51-0.9c1.31,0,1.67,0.81,1.67,2.12v3.07h-0.5v-3.07c0-0.91-0.11-1.66-1.22-1.66
			c-1.28,0-1.49,1.19-1.49,2.22v2.51h-0.5v-5.08h0.5V241.58z"/>
		<path d="M244,244.96h-0.02c-0.37,0.65-1.19,1.02-1.94,1.02c-1.54,0-2.51-1.2-2.51-2.68s0.96-2.62,2.49-2.62
			c0.78,0,1.53,0.35,1.96,0.99H244v-4.87h0.5v9.08H244V244.96z M244.03,243.25c0-1.18-0.8-2.1-2.04-2.1c-1.17,0-1.97,1.06-1.97,2.16
			c0,1.17,0.77,2.22,2,2.22C243.33,245.52,244.03,244.47,244.03,243.25z"/>
		<path d="M250.09,245.88h-0.5v-9.08h0.5V245.88z"/>
		<path d="M256.6,243.33c0,1.51-1.18,2.65-2.67,2.65c-1.46,0-2.64-1.2-2.64-2.64c0-1.46,1.17-2.66,2.64-2.66
			C255.43,240.68,256.6,241.83,256.6,243.33z M251.78,243.34c0,1.16,0.91,2.18,2.11,2.18c1.24,0,2.21-0.95,2.21-2.18
			c0-1.25-0.96-2.2-2.21-2.2C252.69,241.14,251.78,242.17,251.78,243.34z"/>
		<path d="M262.62,243.33c0,1.51-1.18,2.65-2.67,2.65c-1.46,0-2.64-1.2-2.64-2.64c0-1.46,1.17-2.66,2.64-2.66
			C261.44,240.68,262.62,241.83,262.62,243.33z M257.8,243.34c0,1.16,0.91,2.18,2.11,2.18c1.24,0,2.21-0.95,2.21-2.18
			c0-1.25-0.96-2.2-2.21-2.2C258.7,241.14,257.8,242.17,257.8,243.34z"/>
		<path d="M264.31,242.95l2.09-2.16h0.64l-2.13,2.2l2.85,2.88h-0.65l-2.52-2.54l-0.28,0.29v2.25h-0.5v-9.08h0.5V242.95z"/>
		<path d="M276.39,245.88h-0.5v-0.91h-0.02c-0.37,0.65-1.19,1.02-1.94,1.02c-1.54,0-2.51-1.2-2.51-2.68s0.96-2.62,2.49-2.62
			c0.78,0,1.53,0.35,1.96,0.99h0.02v-0.88h0.5V245.88z M271.92,243.3c0,1.17,0.77,2.22,2,2.22c1.3,0,2-1.06,2-2.28
			c0-1.18-0.8-2.1-2.04-2.1C272.73,241.14,271.92,242.2,271.92,243.3z"/>
		<path d="M278.64,245.88h-0.5v-4.62h-0.56v-0.46h0.56v-1.82h0.5v1.82h0.89v0.46h-0.89V245.88z"/>
		<path d="M143.28,258.16l1.79-4.44l1.8,4.44l1.76-4.17h0.51l-2.3,5.36l-1.79-4.39l-1.78,4.39l-2.29-5.36h0.51L143.28,258.16z"/>
		<path d="M150.54,250v4.79h0.02c0.3-0.56,0.85-0.9,1.51-0.9c1.31,0,1.67,0.81,1.67,2.12v3.07h-0.5v-3.07
			c0-0.91-0.11-1.66-1.22-1.66c-1.28,0-1.49,1.19-1.49,2.22v2.51h-0.5V250H150.54z"/>
		<path d="M155.44,256.58c-0.03,1.29,0.86,2.15,2.04,2.15c0.79,0,1.43-0.47,1.79-1.16l0.42,0.24c-0.46,0.88-1.28,1.38-2.28,1.38
			c-1.51,0-2.46-1.22-2.46-2.66c0-1.42,0.98-2.64,2.46-2.64c1.54,0,2.45,1.23,2.44,2.7H155.44z M159.35,256.12
			c-0.12-0.94-0.89-1.77-1.94-1.77c-1.03,0-1.89,0.81-1.98,1.77H159.35z"/>
		<path d="M161.54,254.65h0.02c0.2-0.46,0.56-0.77,1.1-0.77c0.2,0,0.36,0.04,0.54,0.12l-0.26,0.44c-0.12-0.07-0.22-0.1-0.35-0.1
			c-1.11,0-1.05,1.39-1.05,2.13v2.6h-0.5v-5.08h0.5V254.65z"/>
		<path d="M164.1,256.58c-0.03,1.29,0.86,2.15,2.04,2.15c0.79,0,1.43-0.47,1.79-1.16l0.42,0.24c-0.46,0.88-1.28,1.38-2.28,1.38
			c-1.51,0-2.46-1.22-2.46-2.66c0-1.42,0.98-2.64,2.46-2.64c1.54,0,2.45,1.23,2.44,2.7H164.1z M168.02,256.12
			c-0.12-0.94-0.89-1.77-1.94-1.77c-1.03,0-1.89,0.81-1.98,1.77H168.02z"/>
		<path d="M172.2,253.99h0.52l2.17,4.6l1.95-4.6h0.51l-3.41,8.05h-0.51l1.22-2.88L172.2,253.99z"/>
		<path d="M183,256.53c0,1.51-1.18,2.65-2.67,2.65c-1.46,0-2.64-1.2-2.64-2.64c0-1.46,1.17-2.66,2.64-2.66
			C181.83,253.88,183,255.03,183,256.53z M178.18,256.54c0,1.16,0.91,2.18,2.11,2.18c1.24,0,2.21-0.95,2.21-2.18
			c0-1.25-0.96-2.2-2.21-2.2C179.09,254.34,178.18,255.37,178.18,256.54z"/>
		<path d="M187.78,253.99v3.05c0,0.52,0.01,1.03-0.31,1.46c-0.35,0.46-0.95,0.68-1.52,0.68s-1.17-0.22-1.52-0.68
			c-0.32-0.43-0.31-0.95-0.31-1.46v-3.05h0.5v2.87c0,0.98,0.11,1.86,1.33,1.86c1.22,0,1.33-0.88,1.33-1.86v-2.87H187.78z"/>
		<path d="M197.27,259.08h-0.5v-0.91h-0.02c-0.37,0.65-1.19,1.02-1.94,1.02c-1.54,0-2.51-1.2-2.51-2.68s0.96-2.62,2.49-2.62
			c0.78,0,1.53,0.35,1.96,0.99h0.02v-0.88h0.5V259.08z M192.8,256.5c0,1.17,0.77,2.22,2,2.22c1.3,0,2-1.06,2-2.28
			c0-1.18-0.8-2.1-2.04-2.1C193.61,254.34,192.8,255.4,192.8,256.5z"/>
		<path d="M199.46,254.65h0.02c0.2-0.46,0.56-0.77,1.1-0.77c0.2,0,0.36,0.04,0.54,0.12l-0.26,0.44c-0.12-0.07-0.22-0.1-0.35-0.1
			c-1.11,0-1.05,1.39-1.05,2.13v2.6h-0.5v-5.08h0.5V254.65z"/>
		<path d="M202.02,256.58c-0.03,1.29,0.86,2.15,2.04,2.15c0.79,0,1.43-0.47,1.79-1.16l0.42,0.24c-0.46,0.88-1.28,1.38-2.28,1.38
			c-1.51,0-2.46-1.22-2.46-2.66c0-1.42,0.98-2.64,2.46-2.64c1.54,0,2.45,1.23,2.44,2.7H202.02z M205.94,256.12
			c-0.12-0.94-0.89-1.77-1.94-1.77c-1.03,0-1.89,0.81-1.98,1.77H205.94z"/>
		<path d="M208.96,258.42l-0.91,2.49l-0.33-0.12l0.75-2.52L208.96,258.42z"/>
		<path d="M215.34,252.3c0,0.25-0.2,0.45-0.45,0.45s-0.45-0.2-0.45-0.45c0-0.24,0.2-0.45,0.45-0.45S215.34,252.06,215.34,252.3z
			 M215.13,259.08h-0.5v-5.08h0.5V259.08z"/>
		<path d="M219.16,254.92c-0.17-0.35-0.5-0.57-0.89-0.57c-0.43,0-0.87,0.35-0.87,0.79c0,1.22,2.48,0.63,2.48,2.46
			c0,0.94-0.73,1.58-1.64,1.58c-0.85,0-1.54-0.52-1.75-1.34l0.48-0.15c0.19,0.6,0.59,1.03,1.27,1.03c0.64,0,1.14-0.51,1.14-1.14
			c0-0.63-0.48-0.83-0.99-1c-0.69-0.25-1.48-0.55-1.48-1.41c0-0.77,0.65-1.29,1.39-1.29c0.52,0,1.08,0.34,1.3,0.81L219.16,254.92z"
			/>
		<path d="M229.03,259.08h-0.5v-0.91h-0.02c-0.37,0.65-1.19,1.02-1.94,1.02c-1.54,0-2.51-1.2-2.51-2.68s0.96-2.62,2.49-2.62
			c0.78,0,1.53,0.35,1.96,0.99h0.02v-0.88h0.5V259.08z M224.56,256.5c0,1.17,0.77,2.22,2,2.22c1.3,0,2-1.06,2-2.28
			c0-1.18-0.8-2.1-2.04-2.1C225.36,254.34,224.56,255.4,224.56,256.5z"/>
		<path d="M234.62,250v4.79h0.02c0.3-0.56,0.85-0.9,1.51-0.9c1.31,0,1.67,0.81,1.67,2.12v3.07h-0.5v-3.07
			c0-0.91-0.11-1.66-1.22-1.66c-1.28,0-1.49,1.19-1.49,2.22v2.51h-0.5V250H234.62z"/>
		<path d="M243.99,259.08h-0.5v-0.91h-0.02c-0.37,0.65-1.19,1.02-1.94,1.02c-1.54,0-2.51-1.2-2.51-2.68s0.96-2.62,2.49-2.62
			c0.78,0,1.53,0.35,1.96,0.99h0.02v-0.88h0.5V259.08z M239.52,256.5c0,1.17,0.77,2.22,2,2.22c1.3,0,2-1.06,2-2.28
			c0-1.18-0.8-2.1-2.04-2.1C240.32,254.34,239.52,255.4,239.52,256.5z"/>
		<path d="M246.17,254.65h0.02c0.2-0.46,0.56-0.77,1.1-0.77c0.2,0,0.36,0.04,0.54,0.12l-0.26,0.44c-0.12-0.07-0.22-0.1-0.35-0.1
			c-1.11,0-1.05,1.39-1.05,2.13v2.6h-0.5v-5.08h0.5V254.65z"/>
		<path d="M252.71,258.16h-0.02c-0.37,0.65-1.19,1.02-1.94,1.02c-1.54,0-2.51-1.2-2.51-2.68s0.96-2.62,2.49-2.62
			c0.78,0,1.53,0.35,1.96,0.99h0.02V250h0.5v9.08h-0.5V258.16z M252.74,256.45c0-1.18-0.8-2.1-2.04-2.1c-1.17,0-1.97,1.06-1.97,2.16
			c0,1.17,0.77,2.22,2,2.22C252.04,258.72,252.74,257.67,252.74,256.45z"/>
		<path d="M260.44,254.92c-0.17-0.35-0.5-0.57-0.89-0.57c-0.43,0-0.87,0.35-0.87,0.79c0,1.22,2.48,0.63,2.48,2.46
			c0,0.94-0.73,1.58-1.64,1.58c-0.85,0-1.54-0.52-1.75-1.34l0.48-0.15c0.19,0.6,0.59,1.03,1.27,1.03c0.64,0,1.14-0.51,1.14-1.14
			c0-0.63-0.48-0.83-0.99-1c-0.69-0.25-1.48-0.55-1.48-1.41c0-0.77,0.65-1.29,1.39-1.29c0.52,0,1.08,0.34,1.3,0.81L260.44,254.92z"
			/>
		<path d="M262.93,256.15l2.09-2.16h0.64l-2.13,2.2l2.85,2.88h-0.65l-2.52-2.54l-0.28,0.29v2.25h-0.5V250h0.5V256.15z"/>
		<path d="M268.02,252.3c0,0.25-0.2,0.45-0.45,0.45s-0.45-0.2-0.45-0.45c0-0.24,0.2-0.45,0.45-0.45S268.02,252.06,268.02,252.3z
			 M267.81,259.08h-0.5v-5.08h0.5V259.08z"/>
		<path d="M270.2,259.08h-0.5V250h0.5V259.08z"/>
		<path d="M272.39,259.08h-0.5V250h0.5V259.08z"/>
		<path d="M142.32,272.27h-0.5v-4.62h-0.56v-0.46h0.56v-1.82h0.5v1.82h0.89v0.46h-0.89V272.27z"/>
		<path d="M148.89,269.73c0,1.51-1.18,2.65-2.67,2.65c-1.46,0-2.64-1.2-2.64-2.64c0-1.46,1.17-2.66,2.64-2.66
			C147.71,267.08,148.89,268.23,148.89,269.73z M144.07,269.74c0,1.16,0.91,2.18,2.11,2.18c1.24,0,2.21-0.95,2.21-2.18
			c0-1.25-0.96-2.2-2.21-2.2C144.97,267.54,144.07,268.57,144.07,269.74z"/>
		<path d="M153.99,272.27h-0.5v-9.08h0.5V272.27z"/>
		<path d="M155.69,269.78c-0.03,1.29,0.86,2.15,2.04,2.15c0.79,0,1.43-0.47,1.79-1.16l0.42,0.24c-0.46,0.88-1.28,1.38-2.28,1.38
			c-1.51,0-2.46-1.22-2.46-2.66c0-1.42,0.98-2.64,2.46-2.64c1.54,0,2.45,1.23,2.44,2.7H155.69z M159.6,269.32
			c-0.12-0.94-0.89-1.77-1.94-1.77c-1.03,0-1.89,0.81-1.98,1.77H159.6z"/>
		<path d="M165.76,272.27h-0.5v-0.91h-0.02c-0.37,0.65-1.19,1.02-1.94,1.02c-1.54,0-2.51-1.2-2.51-2.68s0.96-2.62,2.49-2.62
			c0.78,0,1.53,0.35,1.96,0.99h0.02v-0.88h0.5V272.27z M161.3,269.7c0,1.17,0.77,2.22,2,2.22c1.3,0,2-1.06,2-2.28
			c0-1.18-0.8-2.1-2.04-2.1C162.1,267.54,161.3,268.6,161.3,269.7z"/>
		<path d="M167.95,267.85h0.02c0.2-0.46,0.56-0.77,1.1-0.77c0.2,0,0.36,0.04,0.54,0.12l-0.26,0.44c-0.12-0.07-0.22-0.1-0.35-0.1
			c-1.11,0-1.05,1.39-1.05,2.13v2.6h-0.5v-5.08h0.5V267.85z"/>
		<path d="M171.1,267.98h0.02c0.3-0.56,0.85-0.9,1.51-0.9c1.31,0,1.67,0.81,1.67,2.12v3.07h-0.5v-3.07c0-0.91-0.11-1.66-1.22-1.66
			c-1.28,0-1.49,1.19-1.49,2.22v2.51h-0.5v-5.08h0.5V267.98z"/>
		<path d="M183.87,272.27h-0.5v-0.91h-0.02c-0.37,0.65-1.19,1.02-1.94,1.02c-1.54,0-2.51-1.2-2.51-2.68s0.96-2.62,2.49-2.62
			c0.78,0,1.53,0.35,1.96,0.99h0.02v-0.88h0.5V272.27z M179.4,269.7c0,1.17,0.77,2.22,2,2.22c1.3,0,2-1.06,2-2.28
			c0-1.18-0.8-2.1-2.04-2.1C180.21,267.54,179.4,268.6,179.4,269.7z"/>
		<path d="M186.06,267.98h0.02c0.3-0.56,0.85-0.9,1.51-0.9c1.31,0,1.67,0.81,1.67,2.12v3.07h-0.5v-3.07c0-0.91-0.11-1.66-1.22-1.66
			c-1.28,0-1.49,1.19-1.49,2.22v2.51h-0.5v-5.08h0.5V267.98z"/>
		<path d="M194.92,271.36h-0.02c-0.37,0.65-1.19,1.02-1.94,1.02c-1.54,0-2.51-1.2-2.51-2.68s0.96-2.62,2.49-2.62
			c0.78,0,1.53,0.35,1.96,0.99h0.02v-4.87h0.5v9.08h-0.5V271.36z M194.96,269.65c0-1.18-0.8-2.1-2.04-2.1
			c-1.17,0-1.97,1.06-1.97,2.16c0,1.17,0.77,2.22,2,2.22C194.25,271.92,194.96,270.87,194.96,269.65z"/>
		<path d="M204.1,267.19v3.05c0,0.52,0.01,1.03-0.31,1.46c-0.35,0.46-0.95,0.68-1.52,0.68c-0.57,0-1.17-0.22-1.52-0.68
			c-0.32-0.43-0.31-0.95-0.31-1.46v-3.05h0.5v2.87c0,0.98,0.11,1.86,1.33,1.86c1.22,0,1.33-0.88,1.33-1.86v-2.87H204.1z"/>
		<path d="M207.85,268.12c-0.17-0.35-0.5-0.57-0.89-0.57c-0.43,0-0.87,0.35-0.87,0.79c0,1.22,2.48,0.63,2.48,2.46
			c0,0.94-0.73,1.58-1.64,1.58c-0.85,0-1.54-0.52-1.75-1.34l0.48-0.15c0.19,0.6,0.59,1.03,1.27,1.03c0.64,0,1.14-0.51,1.14-1.14
			c0-0.63-0.48-0.83-0.99-1c-0.69-0.25-1.48-0.55-1.48-1.41c0-0.77,0.65-1.29,1.39-1.29c0.52,0,1.08,0.34,1.3,0.81L207.85,268.12z"
			/>
		<path d="M213.42,267.19v3.05c0,0.52,0.01,1.03-0.31,1.46c-0.35,0.46-0.95,0.68-1.52,0.68c-0.57,0-1.17-0.22-1.52-0.68
			c-0.32-0.43-0.31-0.95-0.31-1.46v-3.05h0.5v2.87c0,0.98,0.11,1.86,1.33,1.86c1.22,0,1.33-0.88,1.33-1.86v-2.87H213.42z"/>
		<path d="M219.5,272.27H219v-0.91h-0.02c-0.37,0.65-1.19,1.02-1.94,1.02c-1.54,0-2.51-1.2-2.51-2.68s0.96-2.62,2.49-2.62
			c0.78,0,1.53,0.35,1.96,0.99H219v-0.88h0.5V272.27z M215.03,269.7c0,1.17,0.77,2.22,2,2.22c1.3,0,2-1.06,2-2.28
			c0-1.18-0.8-2.1-2.04-2.1C215.83,267.54,215.03,268.6,215.03,269.7z"/>
		<path d="M221.69,272.27h-0.5v-9.08h0.5V272.27z"/>
		<path d="M223.88,272.27h-0.5v-9.08h0.5V272.27z"/>
		<path d="M224.64,267.19h0.52l2.17,4.6l1.95-4.6h0.51l-3.41,8.05h-0.51l1.22-2.88L224.64,267.19z"/>
		<path d="M237.93,268.37c-0.48-0.53-1.07-0.83-1.79-0.83c-1.2,0-2.1,1.02-2.1,2.18s0.89,2.2,2.09,2.2c0.73,0,1.41-0.35,1.87-0.91
			v0.67c-0.52,0.45-1.17,0.7-1.85,0.7c-1.51,0-2.61-1.18-2.61-2.66c0-1.47,1.12-2.64,2.62-2.64c0.66,0,1.26,0.2,1.77,0.63V268.37z"
			/>
		<path d="M244.1,269.73c0,1.51-1.18,2.65-2.67,2.65c-1.46,0-2.64-1.2-2.64-2.64c0-1.46,1.17-2.66,2.64-2.66
			C242.93,267.08,244.1,268.23,244.1,269.73z M239.29,269.74c0,1.16,0.91,2.18,2.11,2.18c1.24,0,2.21-0.95,2.21-2.18
			c0-1.25-0.96-2.2-2.21-2.2C240.19,267.54,239.29,268.57,239.29,269.74z"/>
		<path d="M245.8,267.83h0.02c0.23-0.47,0.74-0.75,1.28-0.75c0.65,0,1.17,0.33,1.43,0.92c0.28-0.61,0.84-0.92,1.49-0.92
			c1.31,0,1.57,0.89,1.57,2v3.19h-0.5v-3.26c0-0.78-0.12-1.47-1.09-1.47c-1.06,0-1.31,0.92-1.31,1.8v2.93h-0.5v-3.14
			c0-0.79-0.14-1.59-1.13-1.59c-1.07,0-1.27,1.11-1.27,1.94v2.79h-0.5v-5.08h0.5V267.83z"/>
		<path d="M253.28,269.78c-0.03,1.29,0.86,2.15,2.04,2.15c0.79,0,1.43-0.47,1.79-1.16l0.42,0.24c-0.46,0.88-1.28,1.38-2.28,1.38
			c-1.51,0-2.46-1.22-2.46-2.66c0-1.42,0.98-2.64,2.46-2.64c1.54,0,2.45,1.23,2.44,2.7H253.28z M257.19,269.32
			c-0.12-0.94-0.89-1.77-1.94-1.77c-1.03,0-1.89,0.81-1.98,1.77H257.19z"/>
		<path d="M261.02,268.12c-0.17-0.35-0.5-0.57-0.89-0.57c-0.43,0-0.87,0.35-0.87,0.79c0,1.22,2.48,0.63,2.48,2.46
			c0,0.94-0.73,1.58-1.64,1.58c-0.85,0-1.54-0.52-1.75-1.34l0.48-0.15c0.19,0.6,0.59,1.03,1.27,1.03c0.64,0,1.14-0.51,1.14-1.14
			c0-0.63-0.48-0.83-0.99-1c-0.69-0.25-1.48-0.55-1.48-1.41c0-0.77,0.65-1.29,1.39-1.29c0.52,0,1.08,0.34,1.3,0.81L261.02,268.12z"
			/>
		<path d="M143.28,284.56l1.79-4.44l1.8,4.44l1.76-4.17h0.51l-2.3,5.36l-1.79-4.39l-1.78,4.39l-2.29-5.36h0.51L143.28,284.56z"/>
		<path d="M150.94,278.7c0,0.25-0.2,0.45-0.45,0.45s-0.45-0.2-0.45-0.45c0-0.24,0.2-0.45,0.45-0.45S150.94,278.46,150.94,278.7z
			 M150.73,285.47h-0.5v-5.08h0.5V285.47z"/>
		<path d="M153.17,285.47h-0.5v-4.62h-0.56v-0.46h0.56v-1.82h0.5v1.82h0.89v0.46h-0.89V285.47z"/>
		<path d="M155.41,276.4v4.79h0.02c0.3-0.56,0.85-0.9,1.51-0.9c1.31,0,1.67,0.81,1.67,2.12v3.07h-0.5v-3.07
			c0-0.91-0.11-1.66-1.22-1.66c-1.28,0-1.49,1.19-1.49,2.22v2.51h-0.5v-9.08H155.41z"/>
		<path d="M164.21,281.3h0.02c0.37-0.65,1.19-1.02,1.94-1.02c1.55,0,2.51,1.21,2.51,2.7s-0.96,2.61-2.49,2.61
			c-0.78,0-1.54-0.34-1.96-0.99h-0.02v3.85h-0.5v-8.05h0.5V281.3z M164.18,283.04c0,1.19,0.8,2.08,2.02,2.08
			c1.19,0,1.98-1,1.98-2.13c0-1.17-0.76-2.24-2-2.24C164.89,280.74,164.18,281.82,164.18,283.04z"/>
		<path d="M170.37,281.05h0.02c0.2-0.46,0.56-0.77,1.1-0.77c0.2,0,0.36,0.04,0.54,0.12l-0.26,0.44c-0.12-0.07-0.22-0.1-0.35-0.1
			c-1.11,0-1.05,1.39-1.05,2.13v2.6h-0.5v-5.08h0.5V281.05z"/>
		<path d="M177.4,285.47h-0.5v-0.91h-0.02c-0.37,0.65-1.19,1.02-1.94,1.02c-1.54,0-2.51-1.2-2.51-2.68s0.96-2.62,2.49-2.62
			c0.78,0,1.53,0.35,1.96,0.99h0.02v-0.88h0.5V285.47z M172.94,282.9c0,1.17,0.77,2.22,2,2.22c1.3,0,2-1.06,2-2.28
			c0-1.18-0.8-2.1-2.04-2.1C173.74,280.74,172.94,281.8,172.94,282.9z"/>
		<path d="M182.99,281.57c-0.48-0.53-1.07-0.83-1.79-0.83c-1.2,0-2.1,1.02-2.1,2.18s0.89,2.2,2.09,2.2c0.73,0,1.41-0.35,1.87-0.91
			v0.67c-0.52,0.45-1.17,0.7-1.85,0.7c-1.51,0-2.61-1.18-2.61-2.66c0-1.47,1.12-2.64,2.62-2.64c0.66,0,1.26,0.2,1.77,0.63V281.57z"
			/>
		<path d="M184.89,285.47h-0.5v-4.62h-0.56v-0.46h0.56v-1.82h0.5v1.82h0.89v0.46h-0.89V285.47z"/>
		<path d="M187.53,278.7c0,0.25-0.2,0.45-0.45,0.45s-0.45-0.2-0.45-0.45c0-0.24,0.2-0.45,0.45-0.45S187.53,278.46,187.53,278.7z
			 M187.33,285.47h-0.5v-5.08h0.5V285.47z"/>
		<path d="M193.11,281.57c-0.48-0.53-1.07-0.83-1.79-0.83c-1.2,0-2.1,1.02-2.1,2.18s0.89,2.2,2.09,2.2c0.73,0,1.41-0.35,1.87-0.91
			v0.67c-0.52,0.45-1.17,0.7-1.85,0.7c-1.51,0-2.61-1.18-2.61-2.66c0-1.47,1.12-2.64,2.62-2.64c0.66,0,1.26,0.2,1.77,0.63V281.57z"
			/>
		<path d="M194.46,282.98c-0.03,1.29,0.86,2.14,2.04,2.14c0.79,0,1.43-0.47,1.79-1.15l0.42,0.24c-0.46,0.88-1.28,1.38-2.28,1.38
			c-1.51,0-2.46-1.22-2.46-2.66c0-1.42,0.98-2.64,2.46-2.64c1.54,0,2.45,1.23,2.44,2.7H194.46z M198.38,282.52
			c-0.12-0.94-0.89-1.77-1.94-1.77c-1.03,0-1.89,0.81-1.98,1.77H198.38z"/>
		<path d="M201.38,285.13c0,0.25-0.2,0.45-0.45,0.45s-0.45-0.2-0.45-0.45s0.2-0.45,0.45-0.45S201.38,284.88,201.38,285.13z"/>
	</g>
</g>
</svg>
