<?xml version="1.0" encoding="utf-8"?>
<!-- Generator: Adobe Illustrator 16.0.0, SVG Export Plug-In . SVG Version: 6.00 Build 0)  -->
<!DOCTYPE svg PUBLIC "-//W3C//DTD SVG 1.1//EN" "http://www.w3.org/Graphics/SVG/1.1/DTD/svg11.dtd">
<svg version="1.1" id="Layer_1" xmlns="http://www.w3.org/2000/svg" xmlns:xlink="http://www.w3.org/1999/xlink" x="0px" y="0px"
	 width="288px" height="189.36px" viewBox="0 0 288 189.36" style="enable-background:new 0 0 288 189.36;" xml:space="preserve">
<style type="text/css">
<![CDATA[
	.st0{fill:none;stroke:#262626;stroke-width:0.25;stroke-miterlimit:10;}
	.st1{opacity:0.6;fill:#FFC43B;}
	.st2{fill:none;stroke:#741472;stroke-width:0.9552;stroke-miterlimit:10;}
	.st3{display:none;opacity:0.6;fill:#E6E6E6;}
	.st4{opacity:0.6;fill:#6AD9C4;}
	.st5{fill:none;stroke:#FFFFFF;stroke-miterlimit:10;}
	.st6{opacity:0.6;fill:#741472;}
	.st7{fill:none;stroke:#741472;stroke-width:1.1228;stroke-miterlimit:10;}
	.st8{fill:#262626;}
	.st9{fill:none;stroke:#262626;stroke-width:2;stroke-linecap:round;stroke-miterlimit:10;stroke-dasharray:0,10;}
	.st10{fill:none;stroke:#741472;stroke-width:0.9578;stroke-miterlimit:10;}
	.st11{fill:none;stroke:#262626;stroke-linejoin:round;stroke-miterlimit:10;stroke-dasharray:3,4;}
	.st12{fill:none;stroke:#FFFFFF;stroke-width:0.4049;stroke-miterlimit:10;}
	.st13{fill:none;stroke:#741472;stroke-miterlimit:10;}
	.st14{fill:#FFC43B;}
	.st15{fill:#FFFFFF;}
	.st16{opacity:0.6;fill:#E6E6E6;}
	.st17{fill:none;}
	.st18{fill:none;stroke:#FFFFFF;stroke-width:0.8746;stroke-miterlimit:10;}
	.st19{fill:none;stroke:#741472;stroke-width:0.9389;stroke-miterlimit:10;}
	.st20{fill:#00AE8D;}
	.st21{fill:#741472;}
	.st22{fill:none;stroke:#741472;stroke-width:0.9324;stroke-miterlimit:10;}
	.st23{fill:none;stroke:#262626;stroke-width:1.2836;stroke-miterlimit:10;}
]]>
</style>
<g>
	<g>
		<path class="st8" d="M50.32,41.52l3.32,16.87h0.06l0.09-0.96l0.93-5.61l2.01-10.29h2.73l2.17,23.38H58.6l-0.56-8.71l-0.19-4.34
			l-0.06-3.07h-0.06l-0.53,3.35l-2.42,12.78h-2.14l-3.01-16.12h-0.06l-0.9,16.12h-2.95l1.92-23.38H50.32z"/>
		<path class="st8" d="M65.79,41.52l2.85,10.82h0.06l0.5-3.01l1.98-7.81h3.32l-4.34,13.3v10.08h-3.1V54.82l-4.62-13.3H65.79z"/>
		<path class="st8" d="M86.25,41.52c3.66,0,7.81,0.25,7.81,12.09c0,10.79-3.6,11.29-9.15,11.29h-2.14V41.52H86.25z M85.88,44.15
			v18.11c5.12,0.16,4.9-4.68,4.9-8.65C90.78,50.01,91.12,43.84,85.88,44.15z"/>
		<path class="st8" d="M105.56,41.52v2.7h-5.24v7.35h4.68v2.7h-4.68v7.94h5.24v2.7h-8.34V41.52H105.56z"/>
		<path class="st8" d="M115.17,45.11c-0.81-0.59-1.58-0.99-2.64-0.99c-1.71,0-2.76,1.4-2.76,3.01c0,1.02,0.25,1.74,0.87,2.54
			l2.36,2.57c2.11,2.14,3.32,3.69,3.32,6.85c0,3.29-2.05,6.11-5.49,6.11c-1.21,0-2.45-0.34-3.41-1.12v-3.13
			c0.93,0.68,1.86,1.21,3.07,1.21c1.92,0,2.73-1.52,2.73-3.26c0-4.65-6.54-5.58-6.54-11.72c0-3.29,1.74-5.98,5.24-5.98
			c1.18,0,2.29,0.19,3.29,0.78L115.17,45.11z"/>
		<path class="st8" d="M122.05,64.89h-3.1V41.52h3.1V64.89z"/>
		<path class="st8" d="M137.03,52.55v0.37c0,4.46,0.65,12.28-5.58,12.28c-5.55,0-6.2-5.33-6.2-11.94c0-6.54,0.53-12.06,5.92-12.06
			c3.32,0,4.9,1.67,5.71,4.78l-2.95,1.21c-0.31-1.55-0.74-3.07-2.67-3.07c-2.54,0-2.73,3.47-2.73,9.12c0,8.12,1.36,9.05,2.73,9.05
			c1.27,0,2.67-0.19,2.67-5.77v-1.27h-2.6v-2.7H137.03z"/>
		<path class="st8" d="M142.73,48.46l0.47,7.84v8.59h-3.1V41.52h2.98l5.46,17.77l0.06-0.06l-0.74-9.37v-8.34h3.1v23.38h-2.88
			l-5.46-18.02l-0.06,0.06L142.73,48.46z"/>
		<path class="st8" d="M161.08,64.89V41.52h3.72c2.67,0,6.08,0.25,6.08,6.26c0,4.74-1.86,6.95-6.7,6.76v10.36H161.08z M164.18,44.15
			v7.75c2.67,0.19,3.41-1.27,3.41-3.88c0-2.11-0.62-3.88-2.98-3.88H164.18z"/>
		<path class="st8" d="M173.11,41.52h3.72c2.26,0,5.8,0.12,5.8,5.98c0,2.2-0.65,5.55-3.22,6.02l4.31,11.38h-3.22l-4.22-11.44h-0.06
			v11.44h-3.1V41.52z M179.34,48.18c0-2.23-0.28-4.09-2.64-4.03h-0.5v7.72C178.53,52.03,179.34,50.54,179.34,48.18z"/>
		<path class="st8" d="M197.57,53.21c0,4.22-0.06,12-6.08,12c-6.01,0-6.08-7.78-6.08-12s0.06-12,6.08-12
			C197.51,41.21,197.57,48.99,197.57,53.21z M188.7,53.21c0,4.96,0.34,9.08,2.79,9.08c2.45,0,2.79-4.12,2.79-9.08
			s-0.34-9.08-2.79-9.08C189.04,44.12,188.7,48.24,188.7,53.21z"/>
		<path class="st8" d="M209.81,44.71c-0.62-0.31-1.27-0.59-1.98-0.59c-4.34,0-4.37,6.33-4.37,9.24c0,3.1,0.25,8.93,4.5,8.93
			c0.68,0,1.27-0.15,1.86-0.46v2.73c-0.78,0.5-1.58,0.65-2.48,0.65c-6.33,0-7.16-6.73-7.16-11.63c0-4.68,0.59-12.37,6.95-12.37
			c1.05,0,1.8,0.16,2.7,0.68V44.71z"/>
		<path class="st8" d="M220.54,41.52v2.7h-5.24v7.35h4.68v2.7h-4.68v7.94h5.24v2.7h-8.34V41.52H220.54z"/>
		<path class="st8" d="M230.15,45.11c-0.81-0.59-1.58-0.99-2.64-0.99c-1.71,0-2.76,1.4-2.76,3.01c0,1.02,0.25,1.74,0.87,2.54
			l2.36,2.57c2.11,2.14,3.32,3.69,3.32,6.85c0,3.29-2.05,6.11-5.49,6.11c-1.21,0-2.45-0.34-3.41-1.12v-3.13
			c0.93,0.68,1.86,1.21,3.07,1.21c1.92,0,2.73-1.52,2.73-3.26c0-4.65-6.54-5.58-6.54-11.72c0-3.29,1.74-5.98,5.24-5.98
			c1.18,0,2.29,0.19,3.29,0.78L230.15,45.11z"/>
		<path class="st8" d="M241.12,45.11c-0.81-0.59-1.58-0.99-2.64-0.99c-1.71,0-2.76,1.4-2.76,3.01c0,1.02,0.25,1.74,0.87,2.54
			l2.36,2.57c2.11,2.14,3.32,3.69,3.32,6.85c0,3.29-2.05,6.11-5.49,6.11c-1.21,0-2.45-0.34-3.41-1.12v-3.13
			c0.93,0.68,1.86,1.21,3.07,1.21c1.92,0,2.73-1.52,2.73-3.26c0-4.65-6.54-5.58-6.54-11.72c0-3.29,1.74-5.98,5.24-5.98
			c1.18,0,2.29,0.19,3.29,0.78L241.12,45.11z"/>
	</g>
	<g>
		<rect x="44.55" y="72.82" class="st17" width="202.91" height="30.75"/>
		<path d="M46.42,72.83v4.92l0.02,0.03c0.4-0.54,0.91-0.84,1.61-0.84c1.56,0,1.92,1.13,1.92,2.45v3.35h-0.96v-3.18
			c0-0.91-0.07-1.73-1.19-1.73c-1.32,0-1.4,1.22-1.4,2.23v2.68h-0.96v-9.89H46.42z"/>
		<path d="M56.84,82.72h-0.96v-0.78h-0.02c-0.49,0.62-1.15,0.94-1.94,0.94c-1.65,0-2.7-1.4-2.7-2.96c0-1.61,1.02-2.99,2.71-2.99
			c0.77,0,1.46,0.36,1.93,0.96h0.02v-0.8h0.96V82.72z M52.2,79.84c0,1.1,0.65,2.15,1.85,2.15c1.24,0,1.88-0.99,1.88-2.13
			c0-1.13-0.71-2.04-1.9-2.04C52.92,77.82,52.2,78.79,52.2,79.84z"/>
		<path d="M59.44,77.89h0.02c0.47-0.62,1.16-0.96,1.94-0.96c1.66,0,2.7,1.43,2.7,2.99c0,1.61-1.02,2.96-2.71,2.96
			c-0.77,0-1.47-0.34-1.93-0.95h-0.02v3.96h-0.96v-8.8h0.96V77.89z M59.39,79.84c0,1.1,0.65,2.15,1.85,2.15
			c1.24,0,1.88-0.99,1.88-2.13c0-1.13-0.71-2.04-1.89-2.04C60.11,77.82,59.39,78.79,59.39,79.84z"/>
		<path d="M66.27,77.89h0.02c0.47-0.62,1.16-0.96,1.94-0.96c1.66,0,2.7,1.43,2.7,2.99c0,1.61-1.02,2.96-2.71,2.96
			c-0.77,0-1.47-0.34-1.93-0.95h-0.02v3.96h-0.96v-8.8h0.96V77.89z M66.22,79.84c0,1.1,0.65,2.15,1.85,2.15
			c1.24,0,1.88-0.99,1.88-2.13c0-1.13-0.71-2.04-1.89-2.04C66.94,77.82,66.22,78.79,66.22,79.84z"/>
		<path d="M72.66,80.11c0.01,1.04,0.76,1.88,1.85,1.88c0.81,0,1.34-0.49,1.71-1.16l0.81,0.47c-0.54,1.01-1.45,1.58-2.6,1.58
			c-1.68,0-2.76-1.28-2.76-2.9c0-1.67,0.97-3.05,2.73-3.05c1.81,0,2.77,1.5,2.67,3.18H72.66z M76.08,79.29
			c-0.13-0.82-0.81-1.48-1.65-1.48c-0.83,0-1.6,0.66-1.71,1.48H76.08z"/>
		<path d="M79.27,77.77h0.02c0.4-0.54,0.91-0.84,1.61-0.84c1.56,0,1.92,1.13,1.92,2.45v3.35h-0.96v-3.18c0-0.91-0.07-1.73-1.19-1.73
			c-1.32,0-1.4,1.22-1.4,2.23v2.68h-0.96v-5.64h0.96V77.77z"/>
		<path d="M86.83,78.39c-0.13-0.3-0.42-0.58-0.77-0.58c-0.34,0-0.7,0.26-0.7,0.62c0,0.52,0.65,0.71,1.31,0.98
			c0.66,0.28,1.31,0.67,1.31,1.62c0,1.07-0.86,1.84-1.91,1.84c-0.95,0-1.69-0.54-1.99-1.43l0.85-0.36c0.24,0.53,0.52,0.9,1.15,0.9
			c0.52,0,0.91-0.35,0.91-0.86c0-1.26-2.54-0.83-2.54-2.6c0-0.95,0.77-1.6,1.68-1.6c0.65,0,1.25,0.46,1.5,1.04L86.83,78.39z"/>
		<path d="M93.85,82.72h-0.96v-4.75h-0.59v-0.89h0.59v-2.03h0.96v2.03h1.01v0.89h-1.01V82.72z"/>
		<path d="M95.13,79.92c0-1.66,1.31-2.99,2.96-2.99c1.66,0,2.96,1.33,2.96,2.99c0,1.65-1.32,2.96-2.96,2.96
			C96.45,82.88,95.13,81.57,95.13,79.92z M96.09,79.9c0,1.15,0.81,2.09,2,2.09s2-0.94,2-2.09c0-1.14-0.82-2.09-2-2.09
			S96.09,78.76,96.09,79.9z"/>
		<path d="M105.83,72.83h0.96v5.06h0.02c0.46-0.6,1.16-0.96,1.93-0.96c1.68,0,2.71,1.38,2.71,2.97c0,1.57-1.04,2.97-2.7,2.97
			c-0.78,0-1.49-0.32-1.94-0.94h-0.02v0.78h-0.96V72.83z M106.74,79.84c0,1.1,0.65,2.15,1.85,2.15c1.23,0,1.88-0.99,1.88-2.13
			c0-1.13-0.71-2.04-1.89-2.04C107.46,77.82,106.74,78.79,106.74,79.84z"/>
		<path d="M113.19,80.11c0.01,1.04,0.76,1.88,1.85,1.88c0.81,0,1.34-0.49,1.71-1.16l0.81,0.47c-0.54,1.01-1.45,1.58-2.6,1.58
			c-1.68,0-2.76-1.28-2.76-2.9c0-1.67,0.97-3.05,2.73-3.05c1.81,0,2.77,1.5,2.67,3.18H113.19z M116.6,79.29
			c-0.13-0.82-0.81-1.48-1.65-1.48c-0.83,0-1.6,0.66-1.71,1.48H116.6z"/>
		<path d="M123.78,74.96c0,0.38-0.31,0.68-0.68,0.68c-0.37,0-0.68-0.3-0.68-0.68c0-0.37,0.31-0.68,0.68-0.68
			C123.47,74.28,123.78,74.59,123.78,74.96z M123.58,82.72h-0.96v-5.64h0.96V82.72z"/>
		<path d="M129.67,81.94h-0.03c-0.47,0.61-1.18,0.94-1.94,0.94c-1.65,0-2.7-1.4-2.7-2.96c0-1.61,1.02-2.99,2.71-2.99
			c0.75,0,1.47,0.36,1.93,0.96h0.03v-5.06h0.96v9.89h-0.96V81.94z M125.99,79.84c0,1.1,0.65,2.15,1.85,2.15
			c1.23,0,1.88-0.99,1.88-2.13c0-1.13-0.71-2.04-1.89-2.04C126.71,77.82,125.99,78.79,125.99,79.84z"/>
		<path d="M132.79,80.11c0.01,1.04,0.76,1.88,1.85,1.88c0.81,0,1.34-0.49,1.71-1.16l0.81,0.47c-0.54,1.01-1.45,1.58-2.6,1.58
			c-1.68,0-2.76-1.28-2.76-2.9c0-1.67,0.97-3.05,2.73-3.05c1.81,0,2.77,1.5,2.67,3.18H132.79z M136.21,79.29
			c-0.13-0.82-0.81-1.48-1.65-1.48c-0.83,0-1.6,0.66-1.71,1.48H136.21z"/>
		<path d="M139.4,77.77h0.02c0.4-0.54,0.91-0.84,1.61-0.84c1.56,0,1.92,1.13,1.92,2.45v3.35H142v-3.18c0-0.91-0.07-1.73-1.19-1.73
			c-1.32,0-1.4,1.22-1.4,2.23v2.68h-0.96v-5.64h0.96V77.77z"/>
		<path d="M145.69,82.72h-0.96v-4.75h-0.59v-0.89h0.59v-2.03h0.96v2.03h1.01v0.89h-1.01V82.72z"/>
		<path d="M148.81,74.96c0,0.38-0.31,0.68-0.68,0.68c-0.37,0-0.68-0.3-0.68-0.68c0-0.37,0.31-0.68,0.68-0.68
			C148.5,74.28,148.81,74.59,148.81,74.96z M148.61,82.72h-0.96v-5.64h0.96V82.72z"/>
		<path d="M154.7,78.76h-0.03c-0.44-0.56-0.99-0.95-1.75-0.95c-1.16,0-1.99,0.96-1.99,2.09c0,1.12,0.77,2.09,1.94,2.09
			c0.8,0,1.37-0.36,1.84-0.97h0.02v1.28c-0.55,0.37-1.12,0.58-1.79,0.58c-1.7,0-3-1.27-3-2.97c0-1.68,1.36-2.97,3.01-2.97
			c0.61,0,1.24,0.2,1.74,0.56V78.76z"/>
		<path d="M161.28,82.72h-0.96v-0.78h-0.02c-0.49,0.62-1.15,0.94-1.94,0.94c-1.65,0-2.7-1.4-2.7-2.96c0-1.61,1.02-2.99,2.71-2.99
			c0.77,0,1.46,0.36,1.93,0.96h0.02v-0.8h0.96V82.72z M156.64,79.84c0,1.1,0.65,2.15,1.85,2.15c1.24,0,1.88-0.99,1.88-2.13
			c0-1.13-0.71-2.04-1.9-2.04C157.36,77.82,156.64,78.79,156.64,79.84z"/>
		<path d="M163.89,82.72h-0.96v-9.89h0.96V82.72z"/>
		<path d="M170.2,82.72h-0.96v-4.75h-0.59v-0.89h0.59v-2.03h0.96v2.03h1.01v0.89h-1.01V82.72z"/>
		<path d="M171.47,79.92c0-1.66,1.31-2.99,2.96-2.99c1.66,0,2.96,1.33,2.96,2.99c0,1.65-1.32,2.96-2.96,2.96
			C172.79,82.88,171.47,81.57,171.47,79.92z M172.43,79.9c0,1.15,0.81,2.09,2,2.09s2-0.94,2-2.09c0-1.14-0.82-2.09-2-2.09
			S172.43,78.76,172.43,79.9z"/>
		<path d="M183.23,82.72h-0.96v-4.75h-0.59v-0.89h0.59v-2.03h0.96v2.03h1.01v0.89h-1.01V82.72z"/>
		<path d="M185.96,72.83v4.92l0.02,0.03c0.4-0.54,0.91-0.84,1.61-0.84c1.56,0,1.92,1.13,1.92,2.45v3.35h-0.96v-3.18
			c0-0.91-0.07-1.73-1.19-1.73c-1.32,0-1.4,1.22-1.4,2.23v2.68H185v-9.89H185.96z"/>
		<path d="M191.72,80.11c0.01,1.04,0.75,1.88,1.85,1.88c0.82,0,1.34-0.49,1.71-1.16l0.82,0.47c-0.54,1.01-1.45,1.58-2.6,1.58
			c-1.68,0-2.76-1.28-2.76-2.9c0-1.67,0.97-3.05,2.73-3.05c1.81,0,2.77,1.5,2.67,3.18H191.72z M195.14,79.29
			c-0.13-0.82-0.82-1.48-1.66-1.48c-0.83,0-1.59,0.66-1.71,1.48H195.14z"/>
		<path d="M203.26,78.39c-0.13-0.3-0.42-0.58-0.77-0.58c-0.34,0-0.7,0.26-0.7,0.62c0,0.52,0.65,0.71,1.31,0.98s1.31,0.67,1.31,1.62
			c0,1.07-0.86,1.84-1.91,1.84c-0.95,0-1.69-0.54-1.99-1.43l0.85-0.36c0.24,0.53,0.52,0.9,1.15,0.9c0.52,0,0.91-0.35,0.91-0.86
			c0-1.26-2.54-0.83-2.54-2.6c0-0.95,0.77-1.6,1.68-1.6c0.65,0,1.25,0.46,1.5,1.04L203.26,78.39z"/>
		<path d="M206.68,82.72h-0.96v-4.75h-0.59v-0.89h0.59v-2.03h0.96v2.03h1.01v0.89h-1.01V82.72z"/>
		<path d="M208.93,80.11c0.01,1.04,0.76,1.88,1.85,1.88c0.81,0,1.34-0.49,1.71-1.16l0.81,0.47c-0.54,1.01-1.45,1.58-2.6,1.58
			c-1.68,0-2.76-1.28-2.76-2.9c0-1.67,0.97-3.05,2.73-3.05c1.81,0,2.77,1.5,2.67,3.18H208.93z M212.35,79.29
			c-0.13-0.82-0.81-1.48-1.65-1.48c-0.83,0-1.6,0.66-1.71,1.48H212.35z"/>
		<path d="M215.5,77.89h0.02c0.47-0.62,1.16-0.96,1.94-0.96c1.65,0,2.7,1.43,2.7,2.99c0,1.61-1.02,2.96-2.71,2.96
			c-0.77,0-1.48-0.34-1.93-0.95h-0.02v3.96h-0.96v-8.8h0.96V77.89z M215.45,79.84c0,1.1,0.65,2.15,1.85,2.15
			c1.23,0,1.88-0.99,1.88-2.13c0-1.13-0.71-2.04-1.89-2.04C216.17,77.82,215.45,78.79,215.45,79.84z"/>
		<path d="M223.69,78.39c-0.13-0.3-0.42-0.58-0.77-0.58c-0.34,0-0.7,0.26-0.7,0.62c0,0.52,0.65,0.71,1.31,0.98
			c0.66,0.28,1.31,0.67,1.31,1.62c0,1.07-0.86,1.84-1.91,1.84c-0.95,0-1.69-0.54-1.99-1.43l0.85-0.36c0.24,0.53,0.52,0.9,1.15,0.9
			c0.52,0,0.91-0.35,0.91-0.86c0-1.26-2.54-0.83-2.54-2.6c0-0.95,0.77-1.6,1.68-1.6c0.65,0,1.25,0.46,1.5,1.04L223.69,78.39z"/>
		<path d="M230.75,82.72h-0.96v-4.75h-0.53v-0.89h0.53v-2.24c0-0.47,0-1.05,0.25-1.46c0.31-0.5,0.88-0.71,1.45-0.71
			c0.23,0,0.46,0.05,0.68,0.12v0.97c-0.21-0.07-0.41-0.13-0.65-0.13c-0.78,0-0.78,0.55-0.78,1.55v1.91h1.43v0.89h-1.43V82.72z"/>
		<path d="M232.39,79.92c0-1.66,1.31-2.99,2.96-2.99c1.66,0,2.96,1.33,2.96,2.99c0,1.65-1.32,2.96-2.96,2.96
			C233.71,82.88,232.39,81.57,232.39,79.92z M233.35,79.9c0,1.15,0.81,2.09,2,2.09s2-0.94,2-2.09c0-1.14-0.82-2.09-2-2.09
			S233.35,78.76,233.35,79.9z"/>
		<path d="M240.46,77.7h0.02c0.34-0.44,0.62-0.77,1.25-0.77c0.32,0,0.59,0.11,0.86,0.26l-0.46,0.88c-0.19-0.13-0.32-0.25-0.58-0.25
			c-1.05,0-1.1,1.36-1.1,2.09v2.82h-0.96v-5.64h0.96V77.7z"/>
		<path d="M49.64,96.34h-0.02c-0.47,0.61-1.18,0.94-1.94,0.94c-1.65,0-2.7-1.4-2.7-2.96c0-1.61,1.02-2.99,2.71-2.99
			c0.76,0,1.47,0.36,1.93,0.96h0.02v-5.06h0.96v9.89h-0.96V96.34z M45.96,94.24c0,1.1,0.65,2.15,1.85,2.15c1.24,0,1.88-1,1.88-2.13
			c0-1.13-0.71-2.04-1.9-2.04C46.68,92.22,45.96,93.19,45.96,94.24z"/>
		<path d="M51.88,94.31c0-1.65,1.31-2.99,2.96-2.99c1.65,0,2.96,1.33,2.96,2.99c0,1.66-1.32,2.96-2.96,2.96
			C53.2,97.28,51.88,95.97,51.88,94.31z M52.84,94.3c0,1.15,0.82,2.09,2,2.09s2-0.94,2-2.09c0-1.14-0.81-2.09-2-2.09
			S52.84,93.16,52.84,94.3z"/>
		<path d="M60.47,89.36c0,0.38-0.31,0.68-0.68,0.68c-0.37,0-0.68-0.3-0.68-0.68c0-0.37,0.31-0.68,0.68-0.68
			C60.16,88.68,60.47,88.99,60.47,89.36z M60.27,97.12h-0.96v-5.64h0.96V97.12z"/>
		<path d="M63.23,92.17h0.02c0.4-0.54,0.91-0.84,1.61-0.84c1.56,0,1.92,1.13,1.92,2.45v3.35h-0.96v-3.18c0-0.91-0.07-1.73-1.19-1.73
			c-1.32,0-1.4,1.22-1.4,2.23v2.67h-0.96v-5.64h0.96V92.17z"/>
		<path d="M73.69,96.85c0,0.9,0,1.68-0.58,2.42c-0.53,0.67-1.34,1-2.18,1c-1.57,0-2.73-1-2.77-2.59h0.96c0.01,1.04,0.77,1.7,1.8,1.7
			c1.49,0,1.81-1.09,1.81-2.36v-0.67h-0.02c-0.46,0.59-1.2,0.94-1.96,0.94c-1.64,0-2.69-1.38-2.69-2.95c0-1.58,1.05-3,2.72-3
			c0.78,0,1.46,0.35,1.92,0.96h0.02v-0.8h0.96V96.85z M69.05,94.24c0,1.1,0.65,2.15,1.85,2.15c1.24,0,1.88-1,1.88-2.13
			c0-1.13-0.71-2.04-1.89-2.04C69.77,92.22,69.05,93.19,69.05,94.24z"/>
		<path d="M84.41,97.12h-0.96v-0.78h-0.03c-0.49,0.62-1.15,0.94-1.94,0.94c-1.65,0-2.7-1.4-2.7-2.96c0-1.61,1.02-2.99,2.71-2.99
			c0.77,0,1.46,0.36,1.93,0.96h0.03v-0.8h0.96V97.12z M79.77,94.24c0,1.1,0.65,2.15,1.85,2.15c1.23,0,1.88-1,1.88-2.13
			c0-1.13-0.71-2.04-1.89-2.04C80.49,92.22,79.77,93.19,79.77,94.24z"/>
		<path d="M90.93,97.12h-0.96v-4.75h-0.53v-0.89h0.53v-2.24c0-0.47,0-1.06,0.25-1.46c0.31-0.5,0.88-0.71,1.45-0.71
			c0.23,0,0.46,0.05,0.68,0.12v0.97c-0.22-0.07-0.41-0.13-0.65-0.13c-0.78,0-0.78,0.55-0.78,1.55v1.91h1.43v0.89h-1.43V97.12z"/>
		<path d="M94.08,92.1h0.02c0.34-0.44,0.62-0.77,1.25-0.77c0.32,0,0.59,0.11,0.86,0.26l-0.46,0.88c-0.19-0.13-0.32-0.25-0.58-0.25
			c-1.05,0-1.1,1.36-1.1,2.09v2.82h-0.96v-5.64h0.96V92.1z"/>
		<path d="M96.69,94.31c0-1.65,1.31-2.99,2.96-2.99c1.66,0,2.96,1.33,2.96,2.99c0,1.66-1.32,2.96-2.96,2.96
			C98.01,97.28,96.69,95.97,96.69,94.31z M97.65,94.3c0,1.15,0.81,2.09,2,2.09s2-0.94,2-2.09c0-1.14-0.82-2.09-2-2.09
			S97.65,93.16,97.65,94.3z"/>
		<path d="M104.89,92.17h0.02c0.4-0.54,0.91-0.84,1.61-0.84c1.56,0,1.92,1.13,1.92,2.45v3.35h-0.96v-3.18
			c0-0.91-0.07-1.73-1.19-1.73c-1.32,0-1.4,1.22-1.4,2.23v2.67h-0.96v-5.64h0.96V92.17z"/>
		<path d="M111.28,97.12h-0.96v-4.75h-0.59v-0.89h0.59v-2.03h0.96v2.03h1.01v0.89h-1.01V97.12z"/>
		<path d="M117.75,97.12h-0.96v-4.75h-0.53v-0.89h0.53v-2.24c0-0.47,0-1.06,0.25-1.46c0.31-0.5,0.88-0.71,1.45-0.71
			c0.23,0,0.46,0.05,0.68,0.12v0.97c-0.22-0.07-0.41-0.13-0.65-0.13c-0.78,0-0.78,0.55-0.78,1.55v1.91h1.43v0.89h-1.43V97.12z
			 M121.07,97.12h-0.96v-9.89h0.96V97.12z"/>
		<path d="M124.2,89.36c0,0.38-0.31,0.68-0.68,0.68c-0.37,0-0.68-0.3-0.68-0.68c0-0.37,0.31-0.68,0.68-0.68
			C123.89,88.68,124.2,88.99,124.2,89.36z M124,97.12h-0.96v-5.64H124V97.12z"/>
		<path d="M126.91,92.29h0.02c0.47-0.62,1.16-0.96,1.94-0.96c1.65,0,2.7,1.43,2.7,2.99c0,1.61-1.02,2.96-2.71,2.96
			c-0.77,0-1.48-0.34-1.93-0.95h-0.02v3.96h-0.96v-8.8h0.96V92.29z M126.87,94.24c0,1.1,0.65,2.15,1.85,2.15
			c1.23,0,1.88-1,1.88-2.13c0-1.13-0.71-2.04-1.89-2.04C127.58,92.22,126.87,93.19,126.87,94.24z"/>
		<path d="M136.12,94.31c0-1.65,1.31-2.99,2.96-2.99c1.66,0,2.96,1.33,2.96,2.99c0,1.66-1.32,2.96-2.96,2.96
			C137.44,97.28,136.12,95.97,136.12,94.31z M137.08,94.3c0,1.15,0.81,2.09,2,2.09s2-0.94,2-2.09c0-1.14-0.82-2.09-2-2.09
			S137.08,93.16,137.08,94.3z"/>
		<path d="M144.33,92.17h0.02c0.4-0.54,0.91-0.84,1.61-0.84c1.56,0,1.92,1.13,1.92,2.45v3.35h-0.96v-3.18
			c0-0.91-0.07-1.73-1.19-1.73c-1.32,0-1.4,1.22-1.4,2.23v2.67h-0.96v-5.64h0.96V92.17z"/>
		<path d="M154.41,97.12h-0.96v-4.75h-0.59v-0.89h0.59v-2.03h0.96v2.03h1.01v0.89h-1.01V97.12z"/>
		<path d="M157.24,87.23v4.92l0.02,0.02c0.4-0.54,0.91-0.84,1.61-0.84c1.56,0,1.92,1.13,1.92,2.45v3.35h-0.96v-3.18
			c0-0.91-0.07-1.73-1.19-1.73c-1.32,0-1.4,1.22-1.4,2.23v2.67h-0.96v-9.89H157.24z"/>
		<path d="M163.09,94.51c0.01,1.04,0.76,1.88,1.85,1.88c0.81,0,1.34-0.49,1.71-1.16l0.81,0.47c-0.54,1.01-1.45,1.58-2.6,1.58
			c-1.68,0-2.76-1.28-2.76-2.9c0-1.67,0.97-3.05,2.73-3.05c1.81,0,2.77,1.5,2.67,3.18H163.09z M166.51,93.69
			c-0.13-0.82-0.81-1.47-1.65-1.47c-0.83,0-1.6,0.66-1.71,1.47H166.51z"/>
		<path d="M173.54,97.12h-0.96v-4.75H172v-0.89h0.59v-2.03h0.96v2.03h1.01v0.89h-1.01V97.12z"/>
		<path d="M176.33,92.1h0.02c0.34-0.44,0.62-0.77,1.25-0.77c0.32,0,0.59,0.11,0.86,0.26l-0.46,0.88c-0.19-0.13-0.32-0.25-0.57-0.25
			c-1.06,0-1.1,1.36-1.1,2.09v2.82h-0.96v-5.64h0.96V92.1z"/>
		<path d="M184.58,97.12h-0.96v-0.78h-0.02c-0.49,0.62-1.15,0.94-1.94,0.94c-1.65,0-2.7-1.4-2.7-2.96c0-1.61,1.02-2.99,2.71-2.99
			c0.77,0,1.46,0.36,1.93,0.96h0.02v-0.8h0.96V97.12z M179.94,94.24c0,1.1,0.65,2.15,1.85,2.15c1.24,0,1.88-1,1.88-2.13
			c0-1.13-0.71-2.04-1.9-2.04C180.66,92.22,179.94,93.19,179.94,94.24z"/>
		<path d="M187.32,92.1h0.02c0.3-0.47,0.78-0.77,1.36-0.77c0.66,0,1.26,0.35,1.56,0.94c0.34-0.62,1.01-0.94,1.69-0.94
			c1.44,0,1.8,1.18,1.8,2.36v3.43h-0.96v-3.27c0-0.73-0.05-1.63-1.03-1.63c-1.1,0-1.22,1.07-1.22,1.92v2.99h-0.96v-3.2
			c0-0.7-0.08-1.7-1.01-1.7c-1.13,0-1.25,1.14-1.25,1.99v2.91h-0.96v-5.64h0.96V92.1z"/>
		<path d="M196.49,92.29h0.02c0.47-0.62,1.16-0.96,1.94-0.96c1.66,0,2.7,1.43,2.7,2.99c0,1.61-1.02,2.96-2.71,2.96
			c-0.77,0-1.47-0.34-1.93-0.95h-0.02v3.96h-0.96v-8.8h0.96V92.29z M196.44,94.24c0,1.1,0.65,2.15,1.85,2.15
			c1.24,0,1.88-1,1.88-2.13c0-1.13-0.71-2.04-1.89-2.04C197.16,92.22,196.44,93.19,196.44,94.24z"/>
		<path d="M202,94.31c0-1.65,1.31-2.99,2.96-2.99c1.66,0,2.96,1.33,2.96,2.99c0,1.66-1.32,2.96-2.96,2.96
			C203.32,97.28,202,95.97,202,94.31z M202.96,94.3c0,1.15,0.81,2.09,2,2.09s2-0.94,2-2.09c0-1.14-0.82-2.09-2-2.09
			S202.96,93.16,202.96,94.3z"/>
		<path d="M210.18,97.12h-0.96v-9.89h0.96V97.12z"/>
		<path d="M213.31,89.36c0,0.38-0.31,0.68-0.68,0.68c-0.37,0-0.68-0.3-0.68-0.68c0-0.37,0.31-0.68,0.68-0.68
			C213,88.68,213.31,88.99,213.31,89.36z M213.11,97.12h-0.96v-5.64h0.96V97.12z"/>
		<path d="M216.07,92.17h0.02c0.4-0.54,0.91-0.84,1.61-0.84c1.56,0,1.92,1.13,1.92,2.45v3.35h-0.96v-3.18
			c0-0.91-0.07-1.73-1.19-1.73c-1.32,0-1.4,1.22-1.4,2.23v2.67h-0.96v-5.64h0.96V92.17z"/>
		<path d="M221.93,94.51c0.01,1.04,0.76,1.88,1.85,1.88c0.81,0,1.34-0.49,1.71-1.16l0.81,0.47c-0.54,1.01-1.45,1.58-2.6,1.58
			c-1.68,0-2.76-1.28-2.76-2.9c0-1.67,0.97-3.05,2.73-3.05c1.81,0,2.77,1.5,2.67,3.18H221.93z M225.35,93.69
			c-0.13-0.82-0.81-1.47-1.65-1.47c-0.83,0-1.6,0.66-1.71,1.47H225.35z"/>
		<path d="M229.28,96.59c0,0.37-0.3,0.68-0.67,0.68s-0.67-0.31-0.67-0.68c0-0.36,0.3-0.66,0.67-0.66S229.28,96.23,229.28,96.59z"/>
	</g>
	<g>
		<rect x="44.55" y="119.45" class="st17" width="198.91" height="30.75"/>
		<path d="M46.47,121.24v2.69h3.01v0.94h-3.01v4.49h-1.01v-9.04h4.11v0.94H46.47z"/>
		<path d="M50.69,126.54c0-1.66,1.31-2.99,2.96-2.99c1.65,0,2.96,1.33,2.96,2.99c0,1.65-1.32,2.96-2.96,2.96
			C52.01,129.5,50.69,128.2,50.69,126.54z M51.65,126.53c0,1.15,0.82,2.09,2,2.09s2-0.94,2-2.09c0-1.14-0.81-2.09-2-2.09
			S51.65,125.39,51.65,126.53z"/>
		<path d="M58.88,129.35h-0.96v-9.89h0.96V129.35z"/>
		<path d="M61.6,129.35h-0.96v-9.89h0.96V129.35z"/>
		<path d="M62.88,126.54c0-1.66,1.31-2.99,2.96-2.99c1.65,0,2.96,1.33,2.96,2.99c0,1.65-1.32,2.96-2.96,2.96
			C64.2,129.5,62.88,128.2,62.88,126.54z M63.84,126.53c0,1.15,0.82,2.09,2,2.09s2-0.94,2-2.09c0-1.14-0.81-2.09-2-2.09
			S63.84,125.39,63.84,126.53z"/>
		<path d="M72.01,127.52l1.75-4.24l1.76,4.24l1.68-3.81h1.09l-2.79,6.03l-1.74-4.2l-1.74,4.2l-2.77-6.03h1.09L72.01,127.52z"/>
		<path d="M83.96,129.35h-0.96v-4.75h-0.59v-0.89h0.59v-2.03h0.96v2.03h1.01v0.89h-1.01V129.35z"/>
		<path d="M86.79,119.45v4.92l0.02,0.03c0.4-0.54,0.91-0.84,1.61-0.84c1.56,0,1.92,1.13,1.92,2.45v3.35h-0.96v-3.18
			c0-0.91-0.07-1.73-1.19-1.73c-1.32,0-1.4,1.22-1.4,2.23v2.68h-0.96v-9.89H86.79z"/>
		<path d="M92.64,126.73c0.01,1.04,0.76,1.88,1.85,1.88c0.81,0,1.34-0.49,1.71-1.16l0.81,0.47c-0.54,1.01-1.45,1.58-2.6,1.58
			c-1.68,0-2.76-1.28-2.76-2.9c0-1.67,0.97-3.05,2.73-3.05c1.81,0,2.77,1.5,2.67,3.18H92.64z M96.06,125.92
			c-0.13-0.82-0.81-1.48-1.65-1.48c-0.83,0-1.6,0.66-1.71,1.48H96.06z"/>
		<path d="M103.13,129.35h-0.96v-4.75h-0.53v-0.89h0.53v-2.24c0-0.47,0-1.05,0.25-1.46c0.31-0.5,0.88-0.71,1.45-0.71
			c0.23,0,0.46,0.05,0.68,0.12v0.97c-0.21-0.07-0.41-0.13-0.65-0.13c-0.78,0-0.78,0.55-0.78,1.55v1.91h1.43v0.89h-1.43V129.35z"/>
		<path d="M104.87,126.54c0-1.66,1.31-2.99,2.96-2.99c1.65,0,2.96,1.33,2.96,2.99c0,1.65-1.32,2.96-2.96,2.96
			C106.19,129.5,104.87,128.2,104.87,126.54z M105.83,126.53c0,1.15,0.82,2.09,2,2.09s2-0.94,2-2.09c0-1.14-0.81-2.09-2-2.09
			S105.83,125.39,105.83,126.53z"/>
		<path d="M113.01,126.85c0,0.95,0.11,1.76,1.27,1.76c1.16,0,1.27-0.81,1.27-1.76v-3.14h0.96v3.25c0,1.5-0.56,2.54-2.23,2.54
			c-1.67,0-2.23-1.04-2.23-2.54v-3.25h0.96V126.85z"/>
		<path d="M119.17,124.32h0.02c0.34-0.44,0.62-0.77,1.25-0.77c0.32,0,0.59,0.11,0.86,0.26l-0.46,0.88
			c-0.19-0.13-0.32-0.25-0.58-0.25c-1.05,0-1.1,1.36-1.1,2.09v2.82h-0.96v-5.64h0.96V124.32z"/>
		<path d="M128.26,125.02c-0.13-0.3-0.42-0.58-0.77-0.58c-0.34,0-0.7,0.26-0.7,0.62c0,0.52,0.65,0.71,1.31,0.98s1.31,0.67,1.31,1.62
			c0,1.07-0.86,1.84-1.91,1.84c-0.95,0-1.69-0.54-1.99-1.43l0.85-0.36c0.24,0.53,0.52,0.9,1.15,0.9c0.52,0,0.91-0.35,0.91-0.86
			c0-1.26-2.54-0.83-2.54-2.6c0-0.95,0.77-1.6,1.68-1.6c0.65,0,1.25,0.46,1.5,1.04L128.26,125.02z"/>
		<path d="M131.77,129.35h-0.96v-4.75h-0.59v-0.89h0.59v-2.03h0.96v2.03h1.01v0.89h-1.01V129.35z"/>
		<path d="M134.13,126.73c0.01,1.04,0.75,1.88,1.85,1.88c0.82,0,1.34-0.49,1.71-1.16l0.82,0.47c-0.54,1.01-1.45,1.58-2.6,1.58
			c-1.68,0-2.76-1.28-2.76-2.9c0-1.67,0.97-3.05,2.73-3.05c1.81,0,2.77,1.5,2.67,3.18H134.13z M137.54,125.92
			c-0.13-0.82-0.82-1.48-1.66-1.48c-0.83,0-1.59,0.66-1.71,1.48H137.54z"/>
		<path d="M140.79,124.51h0.02c0.47-0.62,1.16-0.96,1.94-0.96c1.66,0,2.7,1.43,2.7,2.99c0,1.61-1.02,2.96-2.71,2.96
			c-0.77,0-1.47-0.34-1.93-0.95h-0.02v3.96h-0.96v-8.8h0.96V124.51z M140.74,126.47c0,1.1,0.65,2.15,1.85,2.15
			c1.24,0,1.88-0.99,1.88-2.13c0-1.13-0.71-2.04-1.89-2.04C141.46,124.44,140.74,125.41,140.74,126.47z"/>
		<path d="M149.08,125.02c-0.13-0.3-0.42-0.58-0.77-0.58c-0.34,0-0.7,0.26-0.7,0.62c0,0.52,0.65,0.71,1.31,0.98
			c0.66,0.28,1.31,0.67,1.31,1.62c0,1.07-0.86,1.84-1.91,1.84c-0.95,0-1.69-0.54-1.99-1.43l0.85-0.36c0.24,0.53,0.52,0.9,1.15,0.9
			c0.52,0,0.91-0.35,0.91-0.86c0-1.26-2.54-0.83-2.54-2.6c0-0.95,0.77-1.6,1.68-1.6c0.65,0,1.25,0.46,1.5,1.04L149.08,125.02z"/>
		<path d="M156.29,129.35h-0.96v-4.75h-0.59v-0.89h0.59v-2.03h0.96v2.03h1.01v0.89h-1.01V129.35z"/>
		<path d="M157.66,126.54c0-1.66,1.31-2.99,2.96-2.99c1.65,0,2.96,1.33,2.96,2.99c0,1.65-1.32,2.96-2.96,2.96
			C158.98,129.5,157.66,128.2,157.66,126.54z M158.62,126.53c0,1.15,0.82,2.09,2,2.09s2-0.94,2-2.09c0-1.14-0.81-2.09-2-2.09
			S158.62,125.39,158.62,126.53z"/>
		<path d="M169.56,124.32h0.02c0.3-0.47,0.78-0.77,1.36-0.77c0.66,0,1.26,0.35,1.56,0.94c0.34-0.62,1.01-0.94,1.69-0.94
			c1.44,0,1.8,1.18,1.8,2.36v3.43h-0.96v-3.28c0-0.73-0.05-1.63-1.03-1.63c-1.1,0-1.22,1.07-1.22,1.92v2.99h-0.96v-3.2
			c0-0.7-0.08-1.7-1.01-1.7c-1.13,0-1.25,1.14-1.25,1.99v2.91h-0.96v-5.64h0.96V124.32z"/>
		<path d="M182.96,129.35H182v-0.78h-0.02c-0.49,0.62-1.15,0.94-1.94,0.94c-1.65,0-2.7-1.4-2.7-2.96c0-1.61,1.02-2.99,2.71-2.99
			c0.77,0,1.46,0.36,1.93,0.96H182v-0.8h0.96V129.35z M178.32,126.47c0,1.1,0.65,2.15,1.85,2.15c1.24,0,1.88-0.99,1.88-2.13
			c0-1.13-0.71-2.04-1.9-2.04C179.04,124.44,178.32,125.41,178.32,126.47z"/>
		<path d="M187.02,125.02c-0.13-0.3-0.42-0.58-0.77-0.58c-0.34,0-0.7,0.26-0.7,0.62c0,0.52,0.65,0.71,1.31,0.98s1.31,0.67,1.31,1.62
			c0,1.07-0.86,1.84-1.91,1.84c-0.95,0-1.69-0.54-1.99-1.43l0.85-0.36c0.24,0.53,0.52,0.9,1.15,0.9c0.52,0,0.91-0.35,0.91-0.86
			c0-1.26-2.54-0.83-2.54-2.6c0-0.95,0.77-1.6,1.68-1.6c0.65,0,1.25,0.46,1.5,1.04L187.02,125.02z"/>
		<path d="M190.54,129.35h-0.96v-4.75h-0.59v-0.89h0.59v-2.03h0.96v2.03h1.01v0.89h-1.01V129.35z"/>
		<path d="M192.89,126.73c0.01,1.04,0.75,1.88,1.85,1.88c0.82,0,1.34-0.49,1.71-1.16l0.82,0.47c-0.54,1.01-1.45,1.58-2.6,1.58
			c-1.68,0-2.76-1.28-2.76-2.9c0-1.67,0.97-3.05,2.73-3.05c1.81,0,2.77,1.5,2.67,3.18H192.89z M196.31,125.92
			c-0.13-0.82-0.82-1.48-1.66-1.48c-0.83,0-1.59,0.66-1.71,1.48H196.31z"/>
		<path d="M199.55,124.32h0.02c0.34-0.44,0.62-0.77,1.25-0.77c0.32,0,0.59,0.11,0.86,0.26l-0.46,0.88
			c-0.19-0.13-0.32-0.25-0.58-0.25c-1.05,0-1.1,1.36-1.1,2.09v2.82h-0.96v-5.64h0.96V124.32z"/>
		<path d="M204,121.59c0,0.38-0.31,0.68-0.68,0.68c-0.37,0-0.68-0.3-0.68-0.68c0-0.37,0.31-0.68,0.68-0.68
			C203.69,120.9,204,121.21,204,121.59z M203.8,129.35h-0.96v-5.64h0.96V129.35z"/>
		<path d="M206.76,124.39h0.02c0.4-0.54,0.91-0.84,1.61-0.84c1.56,0,1.92,1.13,1.92,2.45v3.35h-0.96v-3.18
			c0-0.91-0.07-1.73-1.19-1.73c-1.32,0-1.4,1.22-1.4,2.23v2.68h-0.96v-5.64h0.96V124.39z"/>
		<path d="M217.22,129.07c0,0.9,0,1.68-0.58,2.42c-0.53,0.67-1.34,1-2.18,1c-1.57,0-2.73-1-2.77-2.59h0.96
			c0.01,1.04,0.77,1.7,1.8,1.7c1.49,0,1.81-1.09,1.81-2.36v-0.67h-0.02c-0.46,0.59-1.2,0.94-1.96,0.94c-1.64,0-2.69-1.38-2.69-2.95
			c0-1.58,1.05-3,2.72-3c0.78,0,1.46,0.35,1.92,0.96h0.02v-0.8h0.96V129.07z M212.58,126.47c0,1.1,0.65,2.15,1.85,2.15
			c1.23,0,1.88-0.99,1.88-2.13c0-1.13-0.71-2.04-1.89-2.04C213.3,124.44,212.58,125.41,212.58,126.47z"/>
		<path d="M223.8,129.35h-0.96v-4.75h-0.59v-0.89h0.59v-2.03h0.96v2.03h1.01v0.89h-1.01V129.35z"/>
		<path d="M226.63,119.45v4.92l0.02,0.03c0.4-0.54,0.91-0.84,1.61-0.84c1.56,0,1.92,1.13,1.92,2.45v3.35h-0.96v-3.18
			c0-0.91-0.07-1.73-1.19-1.73c-1.32,0-1.4,1.22-1.4,2.23v2.68h-0.96v-9.89H226.63z"/>
		<path d="M232.49,126.73c0.01,1.04,0.76,1.88,1.85,1.88c0.81,0,1.34-0.49,1.71-1.16l0.81,0.47c-0.54,1.01-1.45,1.58-2.6,1.58
			c-1.68,0-2.76-1.28-2.76-2.9c0-1.67,0.97-3.05,2.73-3.05c1.81,0,2.77,1.5,2.67,3.18H232.49z M235.91,125.92
			c-0.13-0.82-0.81-1.48-1.65-1.48c-0.83,0-1.6,0.66-1.71,1.48H235.91z"/>
		<path d="M46.37,138.91h0.02c0.47-0.62,1.16-0.96,1.94-0.96c1.65,0,2.7,1.43,2.7,2.99c0,1.61-1.02,2.96-2.71,2.96
			c-0.77,0-1.48-0.34-1.93-0.95h-0.02v3.96h-0.96v-8.8h0.96V138.91z M46.32,140.87c0,1.1,0.65,2.15,1.85,2.15
			c1.23,0,1.88-1,1.88-2.13c0-1.13-0.71-2.04-1.89-2.04C47.04,138.84,46.32,139.81,46.32,140.87z"/>
		<path d="M52.86,141.13c0.01,1.04,0.75,1.88,1.85,1.88c0.82,0,1.34-0.49,1.71-1.16l0.82,0.47c-0.54,1.01-1.45,1.58-2.6,1.58
			c-1.68,0-2.76-1.28-2.76-2.9c0-1.67,0.97-3.05,2.73-3.05c1.81,0,2.77,1.5,2.67,3.18H52.86z M56.28,140.32
			c-0.13-0.82-0.82-1.47-1.66-1.47c-0.83,0-1.59,0.66-1.71,1.47H56.28z"/>
		<path d="M59.52,138.72h0.02c0.34-0.44,0.62-0.77,1.25-0.77c0.32,0,0.59,0.11,0.86,0.26l-0.46,0.88c-0.19-0.13-0.32-0.25-0.58-0.25
			c-1.05,0-1.1,1.36-1.1,2.09v2.82h-0.96v-5.64h0.96V138.72z"/>
		<path d="M63.91,143.75h-0.96V139h-0.53v-0.89h0.53v-2.24c0-0.47,0-1.06,0.25-1.46c0.31-0.5,0.88-0.71,1.45-0.71
			c0.23,0,0.46,0.05,0.68,0.12v0.97c-0.21-0.07-0.41-0.13-0.65-0.13c-0.78,0-0.78,0.55-0.78,1.55v1.91h1.43V139h-1.43V143.75z"/>
		<path d="M66.64,141.13c0.01,1.04,0.75,1.88,1.85,1.88c0.82,0,1.34-0.49,1.71-1.16l0.82,0.47c-0.54,1.01-1.45,1.58-2.6,1.58
			c-1.68,0-2.76-1.28-2.76-2.9c0-1.67,0.97-3.05,2.73-3.05c1.81,0,2.77,1.5,2.67,3.18H66.64z M70.06,140.32
			c-0.13-0.82-0.82-1.47-1.66-1.47c-0.83,0-1.59,0.66-1.71,1.47H70.06z"/>
		<path d="M76.57,139.79h-0.03c-0.44-0.56-0.99-0.95-1.75-0.95c-1.16,0-1.99,0.96-1.99,2.09c0,1.12,0.77,2.09,1.94,2.09
			c0.8,0,1.37-0.36,1.84-0.97h0.02v1.28c-0.55,0.37-1.12,0.58-1.79,0.58c-1.7,0-3-1.27-3-2.97c0-1.68,1.36-2.97,3.01-2.97
			c0.61,0,1.24,0.21,1.74,0.56V139.79z"/>
		<path d="M79.11,143.75h-0.96V139h-0.59v-0.89h0.59v-2.03h0.96v2.03h1.01V139h-1.01V143.75z"/>
		<path d="M86.96,135.64l-0.42,2.69h3.01l-0.16,0.94h-3.01l-0.71,4.48h-1.01l1.43-9.04h4.11l-0.14,0.94H86.96z"/>
		<path d="M92.11,138.72h0.02c0.41-0.44,0.76-0.77,1.38-0.77c0.32,0,0.56,0.11,0.82,0.26l-0.6,0.88c-0.17-0.13-0.28-0.25-0.53-0.25
			c-1.06,0-1.32,1.36-1.44,2.09l-0.44,2.82h-0.96l0.89-5.64h0.96L92.11,138.72z"/>
		<path d="M94.37,140.94c0.26-1.65,1.79-2.99,3.44-2.99c1.65,0,2.75,1.33,2.48,2.99c-0.26,1.66-1.79,2.96-3.43,2.96
			C95.22,143.9,94.11,142.6,94.37,140.94z M95.33,140.93c-0.18,1.15,0.49,2.09,1.68,2.09s2.15-0.94,2.33-2.09
			c0.18-1.14-0.48-2.09-1.67-2.09S95.51,139.79,95.33,140.93z"/>
		<path d="M102.91,138.79h0.03c0.49-0.54,1.05-0.84,1.75-0.84c1.56,0,1.74,1.13,1.52,2.45l-0.53,3.35h-0.96l0.5-3.18
			c0.14-0.91,0.21-1.73-0.91-1.73c-1.32,0-1.6,1.22-1.76,2.23l-0.42,2.67h-0.96l0.89-5.64h0.96L102.91,138.79z"/>
		<path d="M108.52,143.75h-0.96l0.76-4.75h-0.59l0.13-0.89h0.59l0.32-2.03h0.96l-0.32,2.03h1.01l-0.13,0.89h-1.01L108.52,143.75z"/>
		<path d="M116.38,135.64l-0.42,2.69h3.01l-0.16,0.94h-3.01l-0.71,4.48h-1.01l1.43-9.04h4.11l-0.14,0.94H116.38z"/>
		<path d="M120.76,143.75h-0.96l1.57-9.89h0.96L120.76,143.75z"/>
		<path d="M123.69,143.75h-0.96l0.89-5.64h0.96L123.69,143.75z M125.11,135.99c-0.06,0.38-0.42,0.68-0.79,0.68
			c-0.37,0-0.63-0.3-0.58-0.68c0.06-0.37,0.43-0.68,0.8-0.68S125.17,135.62,125.11,135.99z"/>
		<path d="M127.37,138.91h0.02c0.56-0.62,1.32-0.96,2.1-0.96c1.65,0,2.47,1.43,2.22,2.99c-0.25,1.61-1.49,2.96-3.18,2.96
			c-0.77,0-1.43-0.34-1.79-0.95h-0.02l-0.62,3.96h-0.96l1.39-8.8h0.96L127.37,138.91z M127.01,140.87c-0.18,1.1,0.31,2.15,1.51,2.15
			c1.24,0,2.04-1,2.22-2.13c0.18-1.13-0.38-2.04-1.57-2.04C128.05,138.84,127.18,139.81,127.01,140.87z"/>
		<path d="M135.81,140.94c0-1.65,1.31-2.99,2.96-2.99c1.66,0,2.96,1.33,2.96,2.99c0,1.66-1.32,2.96-2.96,2.96
			C137.12,143.9,135.81,142.6,135.81,140.94z M136.77,140.93c0,1.15,0.81,2.09,2,2.09s2-0.94,2-2.09c0-1.14-0.82-2.09-2-2.09
			S136.77,139.79,136.77,140.93z"/>
		<path d="M144.01,138.79h0.02c0.4-0.54,0.91-0.84,1.61-0.84c1.56,0,1.92,1.13,1.92,2.45v3.35h-0.96v-3.18
			c0-0.91-0.07-1.73-1.19-1.73c-1.32,0-1.4,1.22-1.4,2.23v2.67h-0.96v-5.64h0.96V138.79z"/>
		<path d="M158.23,143.75h-0.96v-0.78h-0.02c-0.49,0.62-1.15,0.94-1.94,0.94c-1.65,0-2.7-1.4-2.7-2.96c0-1.61,1.02-2.99,2.71-2.99
			c0.77,0,1.46,0.36,1.93,0.96h0.02v-0.8h0.96V143.75z M153.59,140.87c0,1.1,0.65,2.15,1.85,2.15c1.24,0,1.88-1,1.88-2.13
			c0-1.13-0.71-2.04-1.9-2.04C154.31,138.84,153.59,139.81,153.59,140.87z"/>
		<path d="M164.71,143.75h-0.96V139h-0.59v-0.89h0.59v-2.03h0.96v2.03h1.01V139h-1.01V143.75z"/>
		<path d="M167.5,138.72h0.02c0.34-0.44,0.62-0.77,1.25-0.77c0.32,0,0.59,0.11,0.86,0.26l-0.46,0.88c-0.19-0.13-0.32-0.25-0.57-0.25
			c-1.06,0-1.1,1.36-1.1,2.09v2.82h-0.96v-5.64h0.96V138.72z"/>
		<path d="M175.75,143.75h-0.96v-0.78h-0.02c-0.49,0.62-1.15,0.94-1.94,0.94c-1.65,0-2.7-1.4-2.7-2.96c0-1.61,1.02-2.99,2.71-2.99
			c0.77,0,1.46,0.36,1.93,0.96h0.02v-0.8h0.96V143.75z M171.11,140.87c0,1.1,0.65,2.15,1.85,2.15c1.24,0,1.88-1,1.88-2.13
			c0-1.13-0.71-2.04-1.9-2.04C171.83,138.84,171.11,139.81,171.11,140.87z"/>
		<path d="M178.49,138.72h0.02c0.3-0.47,0.78-0.77,1.36-0.77c0.66,0,1.26,0.35,1.56,0.94c0.34-0.62,1.01-0.94,1.69-0.94
			c1.44,0,1.8,1.18,1.8,2.36v3.43h-0.96v-3.27c0-0.73-0.05-1.63-1.03-1.63c-1.1,0-1.22,1.07-1.22,1.92v2.99h-0.96v-3.2
			c0-0.7-0.08-1.7-1.01-1.7c-1.13,0-1.25,1.14-1.25,1.99v2.91h-0.96v-5.64h0.96V138.72z"/>
		<path d="M187.66,138.91h0.02c0.47-0.62,1.16-0.96,1.94-0.96c1.66,0,2.7,1.43,2.7,2.99c0,1.61-1.02,2.96-2.71,2.96
			c-0.77,0-1.47-0.34-1.93-0.95h-0.02v3.96h-0.96v-8.8h0.96V138.91z M187.61,140.87c0,1.1,0.65,2.15,1.85,2.15
			c1.24,0,1.88-1,1.88-2.13c0-1.13-0.71-2.04-1.89-2.04C188.33,138.84,187.61,139.81,187.61,140.87z"/>
		<path d="M193.17,140.94c0-1.65,1.31-2.99,2.96-2.99c1.66,0,2.96,1.33,2.96,2.99c0,1.66-1.32,2.96-2.96,2.96
			C194.48,143.9,193.17,142.6,193.17,140.94z M194.12,140.93c0,1.15,0.81,2.09,2,2.09s2-0.94,2-2.09c0-1.14-0.82-2.09-2-2.09
			S194.12,139.79,194.12,140.93z"/>
		<path d="M201.35,143.75h-0.96v-9.89h0.96V143.75z"/>
		<path d="M204.48,135.99c0,0.38-0.31,0.68-0.68,0.68c-0.37,0-0.68-0.3-0.68-0.68c0-0.37,0.31-0.68,0.68-0.68
			C204.17,135.3,204.48,135.62,204.48,135.99z M204.28,143.75h-0.96v-5.64h0.96V143.75z"/>
		<path d="M207.24,138.79h0.02c0.4-0.54,0.91-0.84,1.61-0.84c1.56,0,1.92,1.13,1.92,2.45v3.35h-0.96v-3.18
			c0-0.91-0.07-1.73-1.19-1.73c-1.32,0-1.4,1.22-1.4,2.23v2.67h-0.96v-5.64h0.96V138.79z"/>
		<path d="M213.1,141.13c0.01,1.04,0.76,1.88,1.85,1.88c0.81,0,1.34-0.49,1.71-1.16l0.81,0.47c-0.54,1.01-1.45,1.58-2.6,1.58
			c-1.68,0-2.76-1.28-2.76-2.9c0-1.67,0.97-3.05,2.73-3.05c1.81,0,2.77,1.5,2.67,3.18H213.1z M216.51,140.32
			c-0.13-0.82-0.81-1.47-1.65-1.47c-0.83,0-1.6,0.66-1.71,1.47H216.51z"/>
		<path d="M220.45,143.22c0,0.37-0.3,0.68-0.67,0.68s-0.67-0.31-0.67-0.68c0-0.36,0.3-0.66,0.67-0.66S220.45,142.86,220.45,143.22z"
			/>
	</g>
</g>
</svg>
