<?xml version="1.0" encoding="utf-8"?>
<!-- Generator: Adobe Illustrator 16.0.0, SVG Export Plug-In . SVG Version: 6.00 Build 0)  -->
<!DOCTYPE svg PUBLIC "-//W3C//DTD SVG 1.1//EN" "http://www.w3.org/Graphics/SVG/1.1/DTD/svg11.dtd">
<svg version="1.1" id="Layer_1" xmlns="http://www.w3.org/2000/svg" xmlns:xlink="http://www.w3.org/1999/xlink" x="0px" y="0px"
	 width="432px" height="324px" viewBox="0 0 432 324" style="enable-background:new 0 0 432 324;" xml:space="preserve">
<style type="text/css">
<![CDATA[
	.st0{fill:none;stroke:#262626;stroke-width:0.25;stroke-miterlimit:10;}
	.st1{opacity:0.6;fill:#FFC43B;}
	.st2{fill:none;stroke:#741472;stroke-width:0.9552;stroke-miterlimit:10;}
	.st3{display:none;opacity:0.6;fill:#E6E6E6;}
	.st4{opacity:0.6;fill:#6AD9C4;}
	.st5{fill:none;stroke:#FFFFFF;stroke-miterlimit:10;}
	.st6{opacity:0.6;fill:#741472;}
	.st7{fill:none;stroke:#741472;stroke-width:1.1228;stroke-miterlimit:10;}
	.st8{fill:#262626;}
	.st9{fill:none;stroke:#262626;stroke-width:2;stroke-linecap:round;stroke-miterlimit:10;stroke-dasharray:0,10;}
	.st10{fill:none;stroke:#741472;stroke-width:0.9578;stroke-miterlimit:10;}
	.st11{fill:none;stroke:#262626;stroke-linejoin:round;stroke-miterlimit:10;stroke-dasharray:3,4;}
	.st12{fill:none;stroke:#FFFFFF;stroke-width:0.4049;stroke-miterlimit:10;}
	.st13{fill:none;stroke:#741472;stroke-miterlimit:10;}
	.st14{fill:#FFC43B;}
	.st15{fill:#FFFFFF;}
	.st16{opacity:0.6;fill:#E6E6E6;}
	.st17{fill:none;}
	.st18{fill:none;stroke:#FFFFFF;stroke-width:0.8746;stroke-miterlimit:10;}
	.st19{fill:none;stroke:#741472;stroke-width:0.9389;stroke-miterlimit:10;}
	.st20{fill:#00AE8D;}
	.st21{fill:#741472;}
	.st22{fill:none;stroke:#741472;stroke-width:0.9324;stroke-miterlimit:10;}
	.st23{fill:none;stroke:#262626;stroke-width:1.2836;stroke-miterlimit:10;}
]]>
</style>
<g>
	<g>
		<path class="st8" d="M137.63,94.21v1.39h-1.81v10.68h-1.6V95.6h-1.89v-1.39H137.63z"/>
		<path class="st8" d="M140.14,94.21v4.71h2.42v-4.71h1.6v12.07h-1.6v-5.97h-2.42v5.97h-1.6V94.21H140.14z"/>
		<path class="st8" d="M150.41,94.21v1.39h-2.71v3.79h2.42v1.39h-2.42v4.1h2.71v1.39h-4.31V94.21H150.41z"/>
		<path class="st8" d="M157.35,93.93l4.37,20.35h-2.73l-0.76-3.97h-4.05l-0.76,3.97h-2.64l4.43-20.35H157.35z M157.29,105.26
			l-1.03-7.4h-0.05l-1.62,10.34h3.24L157.29,105.26z"/>
		<path class="st8" d="M166.2,114.28h-2.7V93.93h2.7V114.28z"/>
		<path class="st8" d="M172.49,93.93l2.89,14.68h0.05l0.08-0.84l0.81-4.89l1.75-8.96h2.38l1.89,20.35h-2.65l-0.49-7.59l-0.16-3.78
			l-0.05-2.67h-0.05l-0.46,2.92l-2.11,11.12h-1.86l-2.62-14.04h-0.05l-0.78,14.04h-2.56l1.67-20.35H172.49z"/>
	</g>
	<g>
		<g>
			<path class="st8" d="M208.49,25.81c0-6.16,0.77-11.65,8.27-11.65c6.37,0,8.63,3.54,8.63,9.55c0,5.8-3.95,13.81-6.67,18.9
				l-3.29,6.26h9.6v4.47h-17.05l9.4-19.87c1.39-3.13,2.77-6.57,2.77-10.06c0-2.11-0.77-4.62-3.44-4.62c-3.49,0-2.98,5.8-2.98,7.39
				v1.03h-5.24V25.81z"/>
		</g>
		<circle class="st23" cx="215.87" cy="34.11" r="26.27"/>
	</g>
	<polygon class="st20" points="220,103.39 235.96,114.51 216.92,69.8 198.03,114.51 214,103.46 214,231.13 203,245.72 203,273.03 
		217.5,259.38 232,273.03 232,245.72 220,231.2 	"/>
	<polygon class="st20" points="73.7,156.39 87.05,161.1 65.11,133.44 60.15,168.49 68.89,157.77 93.47,247.22 89.04,259.43 
		94.3,278.57 101.73,266.24 114.41,273.04 109.15,253.9 98.31,245.94 	"/>
	<polygon class="st20" points="357.5,158.52 344.21,163.21 366.05,135.69 370.98,170.56 362.29,159.89 337.83,248.88 342.24,261.04 
		337,280.07 329.62,267.8 316.99,274.57 322.23,255.53 333.01,247.61 	"/>
	<g>
		<rect x="248.27" y="91.48" class="st17" width="54.64" height="22.8"/>
		<path d="M249.98,97.82l-1.11,2.73h-0.54l3.48-8.57l3.47,8.57h-0.54l-1.11-2.73H249.98z M251.8,93.32l-1.63,4h3.25L251.8,93.32z"/>
		<path d="M257.06,93.78c0,0.25-0.2,0.45-0.45,0.45s-0.45-0.2-0.45-0.45c0-0.24,0.2-0.45,0.45-0.45S257.06,93.53,257.06,93.78z
			 M256.85,100.55h-0.5v-5.08h0.5V100.55z"/>
		<path d="M259.24,96.11h0.02c0.23-0.47,0.74-0.75,1.28-0.75c0.65,0,1.17,0.33,1.43,0.92c0.28-0.61,0.84-0.92,1.49-0.92
			c1.31,0,1.57,0.89,1.57,2v3.19h-0.5v-3.26c0-0.78-0.12-1.47-1.09-1.47c-1.06,0-1.31,0.92-1.31,1.8v2.93h-0.5v-3.14
			c0-0.79-0.14-1.59-1.13-1.59c-1.07,0-1.27,1.11-1.27,1.94v2.79h-0.5v-5.08h0.5V96.11z"/>
		<path d="M274.59,100.55h-0.5v-0.91h-0.02c-0.37,0.65-1.19,1.02-1.94,1.02c-1.54,0-2.51-1.2-2.51-2.68s0.96-2.62,2.49-2.62
			c0.78,0,1.53,0.35,1.96,0.99h0.02v-0.88h0.5V100.55z M270.13,97.98c0,1.17,0.77,2.22,2,2.22c1.3,0,2-1.06,2-2.28
			c0-1.18-0.8-2.1-2.04-2.1C270.93,95.82,270.13,96.88,270.13,97.98z"/>
		<path d="M278.42,96.39c-0.17-0.35-0.5-0.57-0.89-0.57c-0.43,0-0.87,0.35-0.87,0.79c0,1.22,2.48,0.63,2.48,2.46
			c0,0.93-0.73,1.58-1.64,1.58c-0.85,0-1.54-0.52-1.75-1.34l0.48-0.15c0.19,0.6,0.59,1.03,1.27,1.03c0.64,0,1.14-0.51,1.14-1.14
			c0-0.63-0.48-0.83-0.99-1c-0.69-0.25-1.48-0.55-1.48-1.41c0-0.77,0.65-1.29,1.39-1.29c0.52,0,1.08,0.34,1.3,0.81L278.42,96.39z"/>
		<path d="M284.32,91.48v4.79h0.02c0.3-0.56,0.85-0.9,1.51-0.9c1.31,0,1.67,0.81,1.67,2.12v3.07h-0.5v-3.07
			c0-0.91-0.11-1.66-1.22-1.66c-1.28,0-1.49,1.19-1.49,2.22v2.51h-0.5v-9.08H284.32z"/>
		<path d="M290.1,93.78c0,0.25-0.2,0.45-0.45,0.45s-0.45-0.2-0.45-0.45c0-0.24,0.2-0.45,0.45-0.45S290.1,93.53,290.1,93.78z
			 M289.89,100.55h-0.5v-5.08h0.5V100.55z"/>
		<path d="M296.33,100.31c0,0.78-0.02,1.49-0.51,2.16c-0.47,0.65-1.22,0.98-2.02,0.98c-1.33,0-2.43-0.78-2.51-2.18h0.49
			c0.06,1.06,0.95,1.71,1.97,1.71c0.64,0,1.25-0.22,1.63-0.76c0.4-0.58,0.45-1.24,0.45-1.93v-0.63h-0.02
			c-0.45,0.61-1.21,0.99-1.98,0.99c-1.47,0-2.46-1.24-2.46-2.66c0-1.46,1.05-2.64,2.53-2.64c0.83,0,1.44,0.35,1.92,0.99h0.02v-0.88
			h0.5V100.31z M291.86,97.98c0,1.17,0.77,2.22,2,2.22c1.3,0,2-1.06,2-2.28c0-1.18-0.8-2.1-2.04-2.1
			C292.67,95.82,291.86,96.88,291.86,97.98z"/>
		<path d="M298.52,91.48v4.79h0.02c0.3-0.56,0.85-0.9,1.51-0.9c1.31,0,1.67,0.81,1.67,2.12v3.07h-0.5v-3.07
			c0-0.91-0.11-1.66-1.22-1.66c-1.28,0-1.49,1.19-1.49,2.22v2.51h-0.5v-9.08H298.52z"/>
		<path d="M253.58,113.75h-0.5v-0.91h-0.02c-0.37,0.65-1.19,1.02-1.94,1.02c-1.54,0-2.51-1.2-2.51-2.68c0-1.49,0.96-2.62,2.49-2.62
			c0.78,0,1.53,0.35,1.96,0.99h0.02v-0.88h0.5V113.75z M249.12,111.18c0,1.17,0.77,2.22,2,2.22c1.3,0,2-1.06,2-2.28
			c0-1.18-0.8-2.1-2.04-2.1C249.92,109.02,249.12,110.08,249.12,111.18z"/>
		<path d="M257.41,109.59c-0.17-0.35-0.5-0.57-0.89-0.57c-0.43,0-0.87,0.35-0.87,0.79c0,1.22,2.48,0.63,2.48,2.46
			c0,0.94-0.73,1.58-1.64,1.58c-0.85,0-1.54-0.52-1.75-1.34l0.48-0.15c0.19,0.61,0.59,1.03,1.27,1.03c0.64,0,1.14-0.51,1.14-1.14
			c0-0.63-0.48-0.83-0.99-1c-0.69-0.25-1.48-0.55-1.48-1.41c0-0.77,0.65-1.29,1.39-1.29c0.52,0,1.08,0.34,1.3,0.81L257.41,109.59z"
			/>
		<path d="M263.31,109.58h0.02c0.37-0.65,1.19-1.02,1.94-1.02c1.55,0,2.51,1.21,2.51,2.7c0,1.49-0.96,2.61-2.49,2.61
			c-0.78,0-1.54-0.34-1.96-0.99h-0.02v3.85h-0.5v-8.05h0.5V109.58z M263.28,111.32c0,1.19,0.8,2.08,2.02,2.08
			c1.19,0,1.98-1,1.98-2.13c0-1.17-0.76-2.24-2-2.24C263.98,109.02,263.28,110.1,263.28,111.32z"/>
		<path d="M273.79,111.21c0,1.51-1.18,2.65-2.67,2.65c-1.46,0-2.64-1.2-2.64-2.64c0-1.46,1.17-2.66,2.64-2.66
			C272.61,108.56,273.79,109.7,273.79,111.21z M268.97,111.22c0,1.16,0.91,2.18,2.11,2.18c1.24,0,2.21-0.95,2.21-2.18
			c0-1.25-0.96-2.2-2.21-2.2C269.88,109.02,268.97,110.04,268.97,111.22z"/>
		<path d="M277.12,109.59c-0.17-0.35-0.5-0.57-0.89-0.57c-0.43,0-0.87,0.35-0.87,0.79c0,1.22,2.48,0.63,2.48,2.46
			c0,0.94-0.73,1.58-1.64,1.58c-0.85,0-1.54-0.52-1.75-1.34l0.48-0.15c0.19,0.61,0.59,1.03,1.27,1.03c0.64,0,1.14-0.51,1.14-1.14
			c0-0.63-0.48-0.83-0.99-1c-0.69-0.25-1.48-0.55-1.48-1.41c0-0.77,0.65-1.29,1.39-1.29c0.52,0,1.08,0.34,1.3,0.81L277.12,109.59z"
			/>
		<path d="M281.25,109.59c-0.17-0.35-0.5-0.57-0.89-0.57c-0.43,0-0.87,0.35-0.87,0.79c0,1.22,2.48,0.63,2.48,2.46
			c0,0.94-0.73,1.58-1.64,1.58c-0.85,0-1.54-0.52-1.75-1.34l0.48-0.15c0.19,0.61,0.59,1.03,1.27,1.03c0.64,0,1.14-0.51,1.14-1.14
			c0-0.63-0.48-0.83-0.99-1c-0.69-0.25-1.48-0.55-1.48-1.41c0-0.77,0.65-1.29,1.39-1.29c0.52,0,1.08,0.34,1.3,0.81L281.25,109.59z"
			/>
		<path d="M284.13,106.97c0,0.25-0.2,0.45-0.45,0.45s-0.45-0.2-0.45-0.45c0-0.24,0.2-0.45,0.45-0.45S284.13,106.73,284.13,106.97z
			 M283.92,113.75h-0.5v-5.08h0.5V113.75z"/>
		<path d="M285.81,104.68h0.5v4.87h0.02c0.43-0.64,1.18-0.99,1.96-0.99c1.52,0,2.49,1.13,2.49,2.62c0,1.48-0.97,2.68-2.51,2.68
			c-0.75,0-1.56-0.37-1.94-1.02h-0.02v0.91h-0.5V104.68z M290.28,111.18c0-1.11-0.8-2.16-1.98-2.16c-1.29,0-2.02,0.96-2.02,2.17
			c0,1.19,0.75,2.21,2,2.21C289.52,113.4,290.28,112.34,290.28,111.18z"/>
		<path d="M292.47,113.75h-0.5v-9.08h0.5V113.75z"/>
		<path d="M294.16,111.25c-0.03,1.29,0.86,2.15,2.04,2.15c0.79,0,1.43-0.47,1.79-1.16l0.42,0.24c-0.46,0.88-1.28,1.38-2.28,1.38
			c-1.51,0-2.46-1.22-2.46-2.66c0-1.42,0.98-2.64,2.46-2.64c1.54,0,2.45,1.23,2.44,2.7H294.16z M298.08,110.79
			c-0.12-0.93-0.89-1.77-1.94-1.77c-1.03,0-1.89,0.81-1.98,1.77H298.08z"/>
		<path d="M301.14,113.41c0,0.25-0.2,0.45-0.45,0.45c-0.25,0-0.45-0.2-0.45-0.45c0-0.25,0.2-0.45,0.45-0.45
			C300.94,112.96,301.14,113.16,301.14,113.41z M300.42,105.46h0.53v6.72h-0.53V105.46z"/>
	</g>
	<g>
		<rect x="96.81" y="179.54" class="st17" width="108.08" height="45.09"/>
		<path d="M98.23,188.12h2.11v0.5H97.7v-8.3h0.53V188.12z"/>
		<path d="M102.14,181.84c0,0.25-0.2,0.45-0.45,0.45s-0.45-0.2-0.45-0.45c0-0.24,0.2-0.45,0.45-0.45S102.14,181.6,102.14,181.84z
			 M101.93,188.62h-0.5v-5.08h0.5V188.62z"/>
		<path d="M104.38,188.62h-0.5V184h-0.56v-0.46h0.56v-1.81h0.5v1.81h0.89V184h-0.89V188.62z"/>
		<path d="M106.12,186.12c-0.03,1.29,0.86,2.14,2.04,2.14c0.79,0,1.43-0.47,1.79-1.15l0.42,0.24c-0.46,0.88-1.28,1.38-2.28,1.38
			c-1.51,0-2.46-1.22-2.46-2.66c0-1.42,0.98-2.64,2.46-2.64c1.54,0,2.45,1.23,2.44,2.7H106.12z M110.04,185.66
			c-0.12-0.93-0.89-1.77-1.94-1.77c-1.03,0-1.89,0.81-1.98,1.77H110.04z"/>
		<path d="M112.23,184.2h0.02c0.2-0.46,0.56-0.77,1.1-0.77c0.2,0,0.36,0.04,0.54,0.12l-0.26,0.44c-0.12-0.07-0.22-0.1-0.35-0.1
			c-1.11,0-1.05,1.39-1.05,2.13v2.6h-0.5v-5.08h0.5V184.2z"/>
		<path d="M119.26,188.62h-0.5v-0.91h-0.02c-0.37,0.65-1.19,1.02-1.94,1.02c-1.54,0-2.51-1.2-2.51-2.68s0.96-2.62,2.49-2.62
			c0.78,0,1.53,0.35,1.96,0.99h0.02v-0.88h0.5V188.62z M114.79,186.05c0,1.17,0.77,2.22,2,2.22c1.3,0,2-1.06,2-2.28
			c0-1.18-0.8-2.1-2.04-2.1C115.6,183.89,114.79,184.95,114.79,186.05z"/>
		<path d="M121.45,188.62h-0.5v-9.08h0.5V188.62z"/>
		<path d="M123.64,188.62h-0.5v-9.08h0.5V188.62z"/>
		<path d="M124.41,183.54h0.52l2.17,4.6l1.95-4.6h0.51l-3.41,8.05h-0.51l1.22-2.88L124.41,183.54z"/>
		<path d="M134.35,188.62h-0.5V184h-0.56v-0.46h0.56v-1.81h0.5v1.81h0.89V184h-0.89V188.62z"/>
		<path d="M136.59,184.2h0.02c0.2-0.46,0.56-0.77,1.1-0.77c0.2,0,0.36,0.04,0.54,0.12l-0.26,0.44c-0.12-0.07-0.22-0.1-0.35-0.1
			c-1.11,0-1.05,1.39-1.05,2.13v2.6h-0.5v-5.08h0.5V184.2z"/>
		<path d="M138.67,183.54h0.52l2.17,4.6l1.95-4.6h0.51l-3.41,8.05h-0.51l1.22-2.88L138.67,183.54z"/>
		<path d="M152.53,188.62h-0.5v-0.91h-0.02c-0.37,0.65-1.19,1.02-1.94,1.02c-1.54,0-2.51-1.2-2.51-2.68s0.96-2.62,2.49-2.62
			c0.78,0,1.53,0.35,1.96,0.99h0.02v-0.88h0.5V188.62z M148.07,186.05c0,1.17,0.77,2.22,2,2.22c1.3,0,2-1.06,2-2.28
			c0-1.18-0.8-2.1-2.04-2.1C148.87,183.89,148.07,184.95,148.07,186.05z"/>
		<path d="M154.72,184.33h0.02c0.3-0.56,0.85-0.9,1.51-0.9c1.31,0,1.67,0.81,1.67,2.12v3.07h-0.5v-3.07c0-0.91-0.11-1.66-1.22-1.66
			c-1.28,0-1.49,1.19-1.49,2.22v2.51h-0.5v-5.08h0.5V184.33z"/>
		<path d="M163.59,187.71h-0.02c-0.37,0.65-1.19,1.02-1.94,1.02c-1.54,0-2.51-1.2-2.51-2.68s0.96-2.62,2.49-2.62
			c0.78,0,1.53,0.35,1.96,0.99h0.02v-4.87h0.5v9.08h-0.5V187.71z M163.62,185.99c0-1.18-0.8-2.1-2.04-2.1
			c-1.17,0-1.97,1.06-1.97,2.16c0,1.17,0.77,2.22,2,2.22C162.92,188.27,163.62,187.21,163.62,185.99z"/>
		<path d="M169.74,188.62h-0.5V184h-0.56v-0.46h0.56v-1.81h0.5v1.81h0.89V184h-0.89V188.62z"/>
		<path d="M176.3,186.08c0,1.51-1.18,2.65-2.67,2.65c-1.46,0-2.64-1.2-2.64-2.64c0-1.46,1.17-2.66,2.64-2.66
			C175.13,183.43,176.3,184.57,176.3,186.08z M171.48,186.09c0,1.16,0.91,2.18,2.11,2.18c1.24,0,2.21-0.95,2.21-2.18
			c0-1.25-0.96-2.2-2.21-2.2C172.39,183.89,171.48,184.91,171.48,186.09z"/>
		<path d="M181.08,183.54v3.05c0,0.52,0.01,1.03-0.31,1.46c-0.35,0.46-0.95,0.68-1.52,0.68s-1.17-0.22-1.52-0.68
			c-0.32-0.43-0.31-0.95-0.31-1.46v-3.05h0.5v2.87c0,0.98,0.11,1.86,1.33,1.86c1.22,0,1.33-0.88,1.33-1.86v-2.87H181.08z"/>
		<path d="M186.59,184.71c-0.48-0.53-1.07-0.83-1.79-0.83c-1.2,0-2.1,1.02-2.1,2.18c0,1.15,0.89,2.2,2.09,2.2
			c0.73,0,1.41-0.35,1.87-0.91v0.67c-0.52,0.45-1.17,0.71-1.85,0.71c-1.51,0-2.61-1.18-2.61-2.66c0-1.47,1.12-2.64,2.62-2.64
			c0.66,0,1.26,0.2,1.77,0.63V184.71z"/>
		<path d="M188.43,179.54v4.79h0.02c0.3-0.56,0.85-0.9,1.51-0.9c1.31,0,1.67,0.81,1.67,2.12v3.07h-0.5v-3.07
			c0-0.91-0.11-1.66-1.22-1.66c-1.28,0-1.49,1.19-1.49,2.22v2.51h-0.5v-9.08H188.43z"/>
		<path d="M98.21,201.82h-0.5v-4.62h-0.56v-0.46h0.56v-1.82h0.5v1.82h0.89v0.46h-0.89V201.82z"/>
		<path d="M100.45,192.74v4.79h0.02c0.3-0.56,0.85-0.9,1.51-0.9c1.31,0,1.67,0.81,1.67,2.12v3.07h-0.5v-3.07
			c0-0.91-0.11-1.66-1.22-1.66c-1.28,0-1.49,1.19-1.49,2.22v2.51h-0.5v-9.08H100.45z"/>
		<path d="M105.34,199.32c-0.03,1.29,0.86,2.15,2.04,2.15c0.79,0,1.43-0.47,1.79-1.16l0.42,0.24c-0.46,0.88-1.28,1.38-2.28,1.38
			c-1.51,0-2.46-1.22-2.46-2.66c0-1.42,0.98-2.64,2.46-2.64c1.54,0,2.45,1.23,2.44,2.7H105.34z M109.26,198.86
			c-0.12-0.93-0.89-1.77-1.94-1.77c-1.03,0-1.89,0.81-1.98,1.77H109.26z"/>
		<path d="M118.26,197.91c-0.48-0.53-1.07-0.82-1.79-0.82c-1.2,0-2.1,1.02-2.1,2.18s0.89,2.2,2.09,2.2c0.73,0,1.41-0.35,1.87-0.91
			v0.67c-0.52,0.45-1.17,0.7-1.85,0.7c-1.51,0-2.61-1.18-2.61-2.66c0-1.47,1.12-2.64,2.62-2.64c0.66,0,1.26,0.2,1.77,0.63V197.91z"
			/>
		<path d="M119.61,199.32c-0.03,1.29,0.86,2.15,2.04,2.15c0.79,0,1.43-0.47,1.79-1.16l0.42,0.24c-0.46,0.88-1.28,1.38-2.28,1.38
			c-1.51,0-2.46-1.22-2.46-2.66c0-1.42,0.98-2.64,2.46-2.64c1.54,0,2.45,1.23,2.44,2.7H119.61z M123.53,198.86
			c-0.12-0.93-0.89-1.77-1.94-1.77c-1.03,0-1.89,0.81-1.98,1.77H123.53z"/>
		<path d="M126.11,195.04c0,0.25-0.2,0.45-0.45,0.45s-0.45-0.2-0.45-0.45c0-0.24,0.2-0.45,0.45-0.45S126.11,194.8,126.11,195.04z
			 M125.9,201.82h-0.5v-5.08h0.5V201.82z"/>
		<path d="M128.29,201.82h-0.5v-9.08h0.5V201.82z"/>
		<path d="M130.88,195.04c0,0.25-0.2,0.45-0.45,0.45s-0.45-0.2-0.45-0.45c0-0.24,0.2-0.45,0.45-0.45S130.88,194.8,130.88,195.04z
			 M130.67,201.82h-0.5v-5.08h0.5V201.82z"/>
		<path d="M133.05,197.53h0.02c0.3-0.56,0.85-0.9,1.51-0.9c1.31,0,1.67,0.81,1.67,2.12v3.07h-0.5v-3.07c0-0.91-0.11-1.66-1.22-1.66
			c-1.28,0-1.49,1.19-1.49,2.22v2.51h-0.5v-5.08h0.5V197.53z"/>
		<path d="M142.49,201.58c0,0.78-0.02,1.48-0.51,2.16c-0.47,0.65-1.22,0.98-2.02,0.98c-1.33,0-2.43-0.78-2.51-2.18h0.49
			c0.06,1.06,0.95,1.72,1.97,1.72c0.64,0,1.25-0.22,1.63-0.76c0.4-0.58,0.45-1.24,0.45-1.93v-0.63h-0.02
			c-0.45,0.61-1.21,0.99-1.98,0.99c-1.47,0-2.46-1.24-2.46-2.66c0-1.46,1.05-2.64,2.53-2.64c0.83,0,1.44,0.35,1.92,0.99H142v-0.88
			h0.5V201.58z M138.03,199.25c0,1.17,0.77,2.22,2,2.22c1.3,0,2-1.06,2-2.28c0-1.18-0.8-2.1-2.04-2.1
			C138.83,197.09,138.03,198.15,138.03,199.25z"/>
		<path d="M145.52,201.16l-0.91,2.49l-0.33-0.12l0.75-2.52L145.52,201.16z M145.56,197.08c0,0.25-0.2,0.45-0.45,0.45
			s-0.45-0.2-0.45-0.45s0.2-0.45,0.45-0.45S145.56,196.83,145.56,197.08z"/>
		<path d="M154.98,200.91h-0.02c-0.37,0.65-1.19,1.02-1.94,1.02c-1.54,0-2.51-1.2-2.51-2.68c0-1.49,0.96-2.62,2.49-2.62
			c0.78,0,1.53,0.35,1.96,0.99h0.02v-4.87h0.5v9.08h-0.5V200.91z M155.01,199.19c0-1.18-0.8-2.1-2.04-2.1
			c-1.17,0-1.97,1.06-1.97,2.16c0,1.17,0.77,2.22,2,2.22C154.31,201.47,155.01,200.41,155.01,199.19z"/>
		<path d="M161.99,199.28c0,1.51-1.18,2.65-2.67,2.65c-1.46,0-2.64-1.2-2.64-2.64c0-1.46,1.17-2.66,2.64-2.66
			C160.81,196.63,161.99,197.77,161.99,199.28z M157.17,199.29c0,1.16,0.91,2.18,2.11,2.18c1.24,0,2.21-0.95,2.21-2.18
			c0-1.25-0.96-2.2-2.21-2.2C158.07,197.09,157.17,198.11,157.17,199.29z"/>
		<path d="M163.68,197.53h0.02c0.3-0.56,0.85-0.9,1.51-0.9c1.31,0,1.67,0.81,1.67,2.12v3.07h-0.5v-3.07c0-0.91-0.11-1.66-1.22-1.66
			c-1.28,0-1.49,1.19-1.49,2.22v2.51h-0.5v-5.08h0.5V197.53z"/>
		<path d="M169.77,193.56l-0.91,2.5l-0.33-0.12l0.75-2.52L169.77,193.56z"/>
		<path d="M171.75,201.82h-0.5v-4.62h-0.56v-0.46h0.56v-1.82h0.5v1.82h0.89v0.46h-0.89V201.82z"/>
		<path d="M178.42,200.91l1.79-4.44l1.8,4.44l1.76-4.17h0.51l-2.3,5.36l-1.79-4.39l-1.78,4.39l-2.29-5.36h0.51L178.42,200.91z"/>
		<path d="M190,199.28c0,1.51-1.18,2.65-2.67,2.65c-1.46,0-2.64-1.2-2.64-2.64c0-1.46,1.17-2.66,2.64-2.66
			C188.82,196.63,190,197.77,190,199.28z M185.18,199.29c0,1.16,0.91,2.18,2.11,2.18c1.24,0,2.21-0.95,2.21-2.18
			c0-1.25-0.96-2.2-2.21-2.2C186.08,197.09,185.18,198.11,185.18,199.29z"/>
		<path d="M191.69,197.4h0.02c0.2-0.46,0.56-0.77,1.1-0.77c0.2,0,0.36,0.04,0.54,0.12l-0.26,0.44c-0.12-0.07-0.22-0.1-0.35-0.1
			c-1.11,0-1.05,1.39-1.05,2.13v2.6h-0.5v-5.08h0.5V197.4z"/>
		<path d="M194.75,197.4h0.02c0.2-0.46,0.56-0.77,1.1-0.77c0.2,0,0.36,0.04,0.54,0.12l-0.26,0.44c-0.12-0.07-0.22-0.1-0.35-0.1
			c-1.11,0-1.05,1.39-1.05,2.13v2.6h-0.5v-5.08h0.5V197.4z"/>
		<path d="M196.83,196.74h0.52l2.17,4.6l1.95-4.6h0.51l-3.41,8.05h-0.51l1.22-2.88L196.83,196.74z"/>
		<path d="M203.27,201.16l-0.91,2.49l-0.33-0.12l0.75-2.52L203.27,201.16z"/>
		<path d="M96.73,209.94h0.52l2.17,4.6l1.95-4.6h0.51l-3.41,8.05h-0.51l1.22-2.88L96.73,209.94z"/>
		<path d="M107.53,212.48c0,1.51-1.18,2.65-2.67,2.65c-1.46,0-2.64-1.2-2.64-2.64c0-1.46,1.17-2.66,2.64-2.66
			C106.36,209.83,107.53,210.97,107.53,212.48z M102.71,212.49c0,1.15,0.91,2.18,2.11,2.18c1.24,0,2.21-0.95,2.21-2.18
			c0-1.25-0.96-2.2-2.21-2.2C103.62,210.29,102.71,211.31,102.71,212.49z"/>
		<path d="M112.31,209.94v3.05c0,0.52,0.01,1.04-0.31,1.46c-0.35,0.46-0.95,0.68-1.52,0.68s-1.17-0.22-1.52-0.68
			c-0.32-0.43-0.31-0.95-0.31-1.46v-3.05h0.5v2.87c0,0.98,0.11,1.86,1.33,1.86c1.22,0,1.33-0.88,1.33-1.86v-2.87H112.31z"/>
		<path d="M118.84,214.11l1.79-4.45l1.8,4.45l1.76-4.17h0.51l-2.3,5.36l-1.79-4.39l-1.78,4.39l-2.29-5.36h0.51L118.84,214.11z"/>
		<path d="M130.42,212.48c0,1.51-1.18,2.65-2.67,2.65c-1.46,0-2.64-1.2-2.64-2.64c0-1.46,1.17-2.66,2.64-2.66
			C129.25,209.83,130.42,210.97,130.42,212.48z M125.61,212.49c0,1.15,0.91,2.18,2.11,2.18c1.24,0,2.21-0.95,2.21-2.18
			c0-1.25-0.96-2.2-2.21-2.2C126.51,210.29,125.61,211.31,125.61,212.49z"/>
		<path d="M132.12,210.73h0.02c0.3-0.56,0.85-0.9,1.51-0.9c1.31,0,1.67,0.81,1.67,2.12v3.07h-0.5v-3.07c0-0.91-0.11-1.66-1.22-1.66
			c-1.28,0-1.49,1.19-1.49,2.22v2.51h-0.5v-5.08h0.5V210.73z"/>
		<path d="M138.21,206.76l-0.91,2.5l-0.33-0.12l0.75-2.52L138.21,206.76z"/>
		<path d="M140.19,215.02h-0.5v-4.62h-0.56v-0.46h0.56v-1.82h0.5v1.82h0.89v0.46h-0.89V215.02z"/>
		<path d="M143.25,214.68c0,0.25-0.2,0.45-0.45,0.45s-0.45-0.2-0.45-0.45c0-0.25,0.2-0.45,0.45-0.45S143.25,214.43,143.25,214.68z"
			/>
	</g>
	<g>
		<rect x="228.41" y="180.52" class="st17" width="126.15" height="33.01"/>
		<path d="M231.15,189.59h-0.53v-7.8h-2.14v-0.5h4.82v0.5h-2.15V189.59z"/>
		<path d="M234.7,180.52v4.79h0.02c0.3-0.56,0.85-0.9,1.51-0.9c1.31,0,1.67,0.81,1.67,2.12v3.07h-0.5v-3.07
			c0-0.91-0.11-1.66-1.22-1.66c-1.28,0-1.49,1.19-1.49,2.22v2.51h-0.5v-9.08H234.7z"/>
		<path d="M239.6,187.1c-0.03,1.29,0.86,2.14,2.04,2.14c0.79,0,1.43-0.47,1.79-1.15l0.42,0.24c-0.46,0.88-1.28,1.38-2.28,1.38
			c-1.51,0-2.46-1.22-2.46-2.66c0-1.42,0.98-2.64,2.46-2.64c1.54,0,2.45,1.23,2.44,2.7H239.6z M243.51,186.63
			c-0.12-0.93-0.89-1.77-1.94-1.77c-1.03,0-1.89,0.81-1.98,1.77H243.51z"/>
		<path d="M249.11,185.43h0.02c0.37-0.65,1.19-1.02,1.94-1.02c1.55,0,2.51,1.21,2.51,2.7c0,1.48-0.96,2.61-2.49,2.61
			c-0.78,0-1.54-0.34-1.96-0.99h-0.02v3.85h-0.5v-8.05h0.5V185.43z M249.08,187.16c0,1.19,0.8,2.08,2.02,2.08
			c1.19,0,1.98-1,1.98-2.13c0-1.17-0.76-2.24-2-2.24C249.78,184.86,249.08,185.94,249.08,187.16z"/>
		<path d="M259.6,187.05c0,1.51-1.18,2.65-2.67,2.65c-1.46,0-2.64-1.2-2.64-2.64c0-1.46,1.17-2.66,2.64-2.66
			C258.42,184.4,259.6,185.55,259.6,187.05z M254.78,187.06c0,1.16,0.91,2.18,2.11,2.18c1.24,0,2.21-0.95,2.21-2.18
			c0-1.25-0.96-2.2-2.21-2.2C255.68,184.86,254.78,185.89,254.78,187.06z"/>
		<path d="M261.68,182.82c0,0.25-0.2,0.45-0.45,0.45s-0.45-0.2-0.45-0.45c0-0.24,0.2-0.45,0.45-0.45S261.68,182.58,261.68,182.82z
			 M261.48,189.59h-0.5v-5.08h0.5V189.59z"/>
		<path d="M263.86,185.3h0.02c0.3-0.56,0.85-0.9,1.51-0.9c1.31,0,1.67,0.81,1.67,2.12v3.07h-0.5v-3.07c0-0.91-0.11-1.66-1.22-1.66
			c-1.28,0-1.49,1.19-1.49,2.22v2.51h-0.5v-5.08h0.5V185.3z"/>
		<path d="M269.31,189.59h-0.5v-4.62h-0.56v-0.46h0.56v-1.81h0.5v1.81h0.89v0.46h-0.89V189.59z"/>
		<path d="M275.36,182.82c0,0.25-0.2,0.45-0.45,0.45s-0.45-0.2-0.45-0.45c0-0.24,0.2-0.45,0.45-0.45S275.36,182.58,275.36,182.82z
			 M275.15,189.59h-0.5v-5.08h0.5V189.59z"/>
		<path d="M279.17,185.44c-0.17-0.35-0.5-0.57-0.89-0.57c-0.43,0-0.87,0.35-0.87,0.79c0,1.22,2.48,0.63,2.48,2.46
			c0,0.93-0.73,1.58-1.64,1.58c-0.85,0-1.54-0.52-1.75-1.34l0.48-0.15c0.19,0.6,0.59,1.03,1.27,1.03c0.64,0,1.14-0.51,1.14-1.14
			c0-0.63-0.48-0.83-0.99-1c-0.69-0.25-1.48-0.55-1.48-1.41c0-0.77,0.65-1.29,1.39-1.29c0.52,0,1.08,0.34,1.3,0.81L279.17,185.44z"
			/>
		<path d="M285.13,189.59h-0.5v-4.62h-0.56v-0.46h0.56v-1.81h0.5v1.81h0.89v0.46h-0.89V189.59z"/>
		<path d="M291.69,187.05c0,1.51-1.18,2.65-2.67,2.65c-1.46,0-2.64-1.2-2.64-2.64c0-1.46,1.17-2.66,2.64-2.66
			C290.52,184.4,291.69,185.55,291.69,187.05z M286.87,187.06c0,1.16,0.91,2.18,2.11,2.18c1.24,0,2.21-0.95,2.21-2.18
			c0-1.25-0.96-2.2-2.21-2.2C287.78,184.86,286.87,185.89,286.87,187.06z"/>
		<path d="M300.77,189.59h-0.5v-0.91h-0.02c-0.37,0.65-1.19,1.02-1.94,1.02c-1.54,0-2.51-1.2-2.51-2.68s0.96-2.62,2.49-2.62
			c0.78,0,1.53,0.35,1.96,0.99h0.02v-0.88h0.5V189.59z M296.3,187.02c0,1.17,0.77,2.22,2,2.22c1.3,0,2-1.06,2-2.28
			c0-1.18-0.8-2.1-2.04-2.1C297.1,184.86,296.3,185.92,296.3,187.02z"/>
		<path d="M303.35,182.82c0,0.25-0.2,0.45-0.45,0.45s-0.45-0.2-0.45-0.45c0-0.24,0.2-0.45,0.45-0.45S303.35,182.58,303.35,182.82z
			 M303.14,189.59h-0.5v-5.08h0.5V189.59z"/>
		<path d="M305.53,185.15h0.02c0.23-0.47,0.74-0.75,1.28-0.75c0.65,0,1.17,0.33,1.43,0.92c0.28-0.61,0.84-0.92,1.49-0.92
			c1.31,0,1.57,0.89,1.57,2v3.19h-0.5v-3.26c0-0.78-0.12-1.47-1.09-1.47c-1.06,0-1.31,0.92-1.31,1.8v2.93h-0.5v-3.14
			c0-0.79-0.14-1.59-1.13-1.59c-1.07,0-1.27,1.11-1.27,1.94v2.79h-0.5v-5.08h0.5V185.15z"/>
		<path d="M316.92,180.52v4.79h0.02c0.3-0.56,0.85-0.9,1.51-0.9c1.31,0,1.67,0.81,1.67,2.12v3.07h-0.5v-3.07
			c0-0.91-0.11-1.66-1.22-1.66c-1.28,0-1.49,1.19-1.49,2.22v2.51h-0.5v-9.08H316.92z"/>
		<path d="M322.7,182.82c0,0.25-0.2,0.45-0.45,0.45s-0.45-0.2-0.45-0.45c0-0.24,0.2-0.45,0.45-0.45S322.7,182.58,322.7,182.82z
			 M322.49,189.59H322v-5.08h0.5V189.59z"/>
		<path d="M328.93,189.35c0,0.78-0.02,1.49-0.51,2.16c-0.47,0.65-1.22,0.98-2.02,0.98c-1.33,0-2.43-0.78-2.51-2.18h0.5
			c0.06,1.06,0.95,1.71,1.97,1.71c0.64,0,1.25-0.22,1.63-0.76c0.4-0.58,0.45-1.24,0.45-1.93v-0.63h-0.02
			c-0.45,0.61-1.21,0.99-1.98,0.99c-1.47,0-2.46-1.24-2.46-2.66c0-1.46,1.05-2.64,2.53-2.64c0.83,0,1.44,0.35,1.92,0.99h0.02v-0.88
			h0.5V189.35z M324.46,187.02c0,1.17,0.77,2.22,2,2.22c1.3,0,2-1.06,2-2.28c0-1.18-0.8-2.1-2.04-2.1
			C325.26,184.86,324.46,185.92,324.46,187.02z"/>
		<path d="M331.12,180.52v4.79h0.02c0.3-0.56,0.85-0.9,1.51-0.9c1.31,0,1.67,0.81,1.67,2.12v3.07h-0.5v-3.07
			c0-0.91-0.11-1.66-1.22-1.66c-1.28,0-1.49,1.19-1.49,2.22v2.51h-0.5v-9.08H331.12z"/>
		<path d="M336.01,187.1c-0.03,1.29,0.86,2.14,2.04,2.14c0.79,0,1.43-0.47,1.79-1.15l0.42,0.24c-0.46,0.88-1.28,1.38-2.28,1.38
			c-1.51,0-2.46-1.22-2.46-2.66c0-1.42,0.98-2.64,2.46-2.64c1.54,0,2.45,1.23,2.44,2.7H336.01z M339.93,186.63
			c-0.12-0.93-0.89-1.77-1.94-1.77c-1.03,0-1.89,0.81-1.98,1.77H339.93z"/>
		<path d="M342.12,185.17h0.02c0.2-0.46,0.56-0.77,1.1-0.77c0.2,0,0.36,0.04,0.54,0.12l-0.26,0.44c-0.12-0.07-0.22-0.1-0.35-0.1
			c-1.11,0-1.05,1.39-1.05,2.13v2.6h-0.5v-5.08h0.5V185.17z"/>
		<path d="M229.81,202.79h-0.5v-4.62h-0.56v-0.46h0.56v-1.82h0.5v1.82h0.89v0.46h-0.89V202.79z"/>
		<path d="M232.05,193.72v4.79h0.02c0.3-0.56,0.85-0.9,1.51-0.9c1.31,0,1.67,0.81,1.67,2.12v3.07h-0.5v-3.07
			c0-0.91-0.11-1.66-1.22-1.66c-1.28,0-1.49,1.19-1.49,2.22v2.51h-0.5v-9.08H232.05z"/>
		<path d="M241.41,202.79h-0.5v-0.91h-0.02c-0.37,0.65-1.19,1.02-1.94,1.02c-1.54,0-2.51-1.2-2.51-2.68c0-1.49,0.96-2.62,2.49-2.62
			c0.78,0,1.53,0.35,1.96,0.99h0.02v-0.88h0.5V202.79z M236.94,200.22c0,1.17,0.77,2.22,2,2.22c1.3,0,2-1.06,2-2.28
			c0-1.18-0.8-2.1-2.04-2.1C237.75,198.06,236.94,199.12,236.94,200.22z"/>
		<path d="M243.6,198.5h0.02c0.3-0.56,0.85-0.9,1.51-0.9c1.31,0,1.67,0.81,1.67,2.12v3.07h-0.5v-3.07c0-0.91-0.11-1.66-1.22-1.66
			c-1.28,0-1.49,1.19-1.49,2.22v2.51h-0.5v-5.08h0.5V198.5z"/>
		<path d="M250.98,197.71h0.52l2.17,4.6l1.95-4.6h0.51l-3.41,8.05h-0.51l1.22-2.88L250.98,197.71z"/>
		<path d="M261.78,200.25c0,1.51-1.18,2.65-2.67,2.65c-1.46,0-2.64-1.2-2.64-2.64c0-1.46,1.17-2.66,2.64-2.66
			C260.61,197.6,261.78,198.75,261.78,200.25z M256.96,200.26c0,1.16,0.91,2.18,2.11,2.18c1.24,0,2.21-0.95,2.21-2.18
			c0-1.25-0.96-2.2-2.21-2.2C257.87,198.06,256.96,199.09,256.96,200.26z"/>
		<path d="M266.56,197.71v3.05c0,0.52,0.01,1.03-0.31,1.46c-0.35,0.46-0.95,0.68-1.52,0.68s-1.17-0.22-1.52-0.68
			c-0.32-0.43-0.31-0.95-0.31-1.46v-3.05h0.5v2.87c0,0.98,0.11,1.86,1.33,1.86c1.22,0,1.33-0.88,1.33-1.86v-2.87H266.56z"/>
		<path d="M268.67,198.37h0.02c0.2-0.46,0.56-0.77,1.1-0.77c0.2,0,0.36,0.04,0.54,0.12l-0.26,0.44c-0.12-0.07-0.22-0.1-0.35-0.1
			c-1.11,0-1.05,1.39-1.05,2.13v2.6h-0.5v-5.08h0.5V198.37z"/>
		<path d="M278.53,198.89c-0.48-0.53-1.07-0.82-1.79-0.82c-1.2,0-2.1,1.02-2.1,2.18s0.89,2.2,2.09,2.2c0.73,0,1.41-0.35,1.87-0.91
			v0.67c-0.52,0.45-1.17,0.7-1.85,0.7c-1.51,0-2.61-1.18-2.61-2.66c0-1.47,1.12-2.64,2.62-2.64c0.66,0,1.26,0.2,1.77,0.63V198.89z"
			/>
		<path d="M284.35,202.79h-0.5v-0.91h-0.02c-0.37,0.65-1.19,1.02-1.94,1.02c-1.54,0-2.51-1.2-2.51-2.68c0-1.49,0.96-2.62,2.49-2.62
			c0.78,0,1.53,0.35,1.96,0.99h0.02v-0.88h0.5V202.79z M279.89,200.22c0,1.17,0.77,2.22,2,2.22c1.3,0,2-1.06,2-2.28
			c0-1.18-0.8-2.1-2.04-2.1C280.69,198.06,279.89,199.12,279.89,200.22z"/>
		<path d="M286.54,198.62h0.02c0.37-0.65,1.19-1.02,1.94-1.02c1.55,0,2.51,1.21,2.51,2.7c0,1.49-0.96,2.61-2.49,2.61
			c-0.78,0-1.54-0.34-1.96-0.99h-0.02v3.85h-0.5v-8.05h0.5V198.62z M286.51,200.36c0,1.19,0.8,2.08,2.02,2.08
			c1.19,0,1.98-1,1.98-2.13c0-1.17-0.76-2.24-2-2.24C287.21,198.06,286.51,199.14,286.51,200.36z"/>
		<path d="M296.67,202.79h-0.5v-0.91h-0.02c-0.37,0.65-1.19,1.02-1.94,1.02c-1.54,0-2.51-1.2-2.51-2.68c0-1.49,0.96-2.62,2.49-2.62
			c0.78,0,1.53,0.35,1.96,0.99h0.02v-0.88h0.5V202.79z M292.21,200.22c0,1.17,0.77,2.22,2,2.22c1.3,0,2-1.06,2-2.28
			c0-1.18-0.8-2.1-2.04-2.1C293.01,198.06,292.21,199.12,292.21,200.22z"/>
		<path d="M298.37,193.72h0.5v4.87h0.02c0.43-0.64,1.18-0.99,1.96-0.99c1.52,0,2.49,1.13,2.49,2.62c0,1.48-0.97,2.68-2.51,2.68
			c-0.75,0-1.56-0.37-1.94-1.02h-0.02v0.91h-0.5V193.72z M302.83,200.22c0-1.11-0.8-2.16-1.98-2.16c-1.29,0-2.02,0.96-2.02,2.17
			c0,1.19,0.75,2.21,2,2.21C302.08,202.44,302.83,201.39,302.83,200.22z"/>
		<path d="M305.42,196.02c0,0.25-0.2,0.45-0.45,0.45s-0.45-0.2-0.45-0.45c0-0.24,0.2-0.45,0.45-0.45S305.42,195.78,305.42,196.02z
			 M305.21,202.79h-0.5v-5.08h0.5V202.79z"/>
		<path d="M307.6,202.79h-0.5v-9.08h0.5V202.79z"/>
		<path d="M310.18,196.02c0,0.25-0.2,0.45-0.45,0.45s-0.45-0.2-0.45-0.45c0-0.24,0.2-0.45,0.45-0.45S310.18,195.78,310.18,196.02z
			 M309.97,202.79h-0.5v-5.08h0.5V202.79z"/>
		<path d="M312.42,202.79h-0.5v-4.62h-0.56v-0.46h0.56v-1.82h0.5v1.82h0.89v0.46h-0.89V202.79z"/>
		<path d="M315.05,196.02c0,0.25-0.2,0.45-0.45,0.45s-0.45-0.2-0.45-0.45c0-0.24,0.2-0.45,0.45-0.45S315.05,195.78,315.05,196.02z
			 M314.85,202.79h-0.5v-5.08h0.5V202.79z"/>
		<path d="M316.74,200.3c-0.03,1.29,0.86,2.15,2.04,2.15c0.79,0,1.43-0.47,1.79-1.16l0.42,0.24c-0.46,0.88-1.28,1.38-2.28,1.38
			c-1.51,0-2.46-1.22-2.46-2.66c0-1.42,0.98-2.64,2.46-2.64c1.54,0,2.45,1.23,2.44,2.7H316.74z M320.65,199.83
			c-0.12-0.93-0.89-1.77-1.94-1.77c-1.03,0-1.89,0.81-1.98,1.77H320.65z"/>
		<path d="M324.48,198.64c-0.17-0.35-0.5-0.57-0.89-0.57c-0.43,0-0.87,0.35-0.87,0.79c0,1.22,2.48,0.63,2.48,2.46
			c0,0.94-0.73,1.58-1.64,1.58c-0.85,0-1.54-0.52-1.75-1.34l0.48-0.15c0.19,0.61,0.59,1.03,1.27,1.03c0.64,0,1.14-0.51,1.14-1.14
			c0-0.63-0.48-0.83-0.99-1c-0.69-0.25-1.48-0.55-1.48-1.41c0-0.77,0.65-1.29,1.39-1.29c0.52,0,1.08,0.34,1.3,0.81L324.48,198.64z"
			/>
		<path d="M327.78,202.45c0,0.25-0.2,0.45-0.45,0.45s-0.45-0.2-0.45-0.45c0-0.25,0.2-0.45,0.45-0.45S327.78,202.2,327.78,202.45z"/>
	</g>
	<g>
		<rect x="128.64" y="287.61" class="st17" width="177.02" height="27.5"/>
		<path d="M137.02,296.96l-6.96-7.4v7.13h-0.53v-8.4l6.96,7.35v-7.24h0.53V296.96z"/>
		<path d="M143.58,294.14c0,1.51-1.18,2.65-2.67,2.65c-1.46,0-2.64-1.2-2.64-2.64c0-1.46,1.17-2.66,2.64-2.66
			C142.4,291.49,143.58,292.64,143.58,294.14z M138.76,294.16c0,1.15,0.91,2.18,2.11,2.18c1.24,0,2.21-0.95,2.21-2.18
			c0-1.25-0.96-2.2-2.21-2.2C139.66,291.96,138.76,292.98,138.76,294.16z"/>
		<path d="M145.33,296.69h-0.5v-4.62h-0.56v-0.46h0.56v-1.82h0.5v1.82h0.89v0.46h-0.89V296.69z"/>
		<path d="M150.98,292.26H151c0.2-0.46,0.56-0.77,1.1-0.77c0.2,0,0.36,0.04,0.54,0.12l-0.26,0.44c-0.12-0.07-0.22-0.1-0.35-0.1
			c-1.11,0-1.05,1.39-1.05,2.13v2.6h-0.5v-5.08h0.5V292.26z"/>
		<path d="M153.54,294.19c-0.03,1.29,0.86,2.14,2.04,2.14c0.79,0,1.43-0.47,1.79-1.15l0.42,0.24c-0.46,0.88-1.28,1.38-2.28,1.38
			c-1.51,0-2.46-1.22-2.46-2.66c0-1.42,0.98-2.64,2.46-2.64c1.54,0,2.45,1.23,2.44,2.7H153.54z M157.46,293.73
			c-0.12-0.94-0.89-1.77-1.94-1.77c-1.03,0-1.89,0.81-1.98,1.77H157.46z"/>
		<path d="M163.62,296.69h-0.5v-0.91h-0.02c-0.37,0.65-1.19,1.02-1.94,1.02c-1.54,0-2.51-1.2-2.51-2.69c0-1.48,0.96-2.62,2.49-2.62
			c0.78,0,1.53,0.35,1.96,0.99h0.02v-0.88h0.5V296.69z M159.15,294.11c0,1.17,0.77,2.22,2,2.22c1.3,0,2-1.06,2-2.28
			c0-1.18-0.8-2.1-2.04-2.1C159.96,291.96,159.15,293.01,159.15,294.11z"/>
		<path d="M169.21,292.78c-0.48-0.53-1.07-0.83-1.79-0.83c-1.2,0-2.1,1.02-2.1,2.18c0,1.16,0.89,2.2,2.09,2.2
			c0.73,0,1.41-0.35,1.87-0.91v0.67c-0.52,0.45-1.17,0.71-1.85,0.71c-1.51,0-2.61-1.18-2.61-2.66c0-1.47,1.12-2.64,2.62-2.64
			c0.66,0,1.26,0.2,1.77,0.63V292.78z"/>
		<path d="M171.06,287.61v4.79h0.02c0.3-0.56,0.85-0.9,1.51-0.9c1.31,0,1.67,0.81,1.67,2.12v3.07h-0.5v-3.07
			c0-0.91-0.11-1.66-1.22-1.66c-1.28,0-1.49,1.19-1.49,2.22v2.51h-0.5v-9.08H171.06z"/>
		<path d="M176.84,289.91c0,0.25-0.2,0.45-0.45,0.45s-0.45-0.2-0.45-0.45c0-0.24,0.2-0.45,0.45-0.45S176.84,289.67,176.84,289.91z
			 M176.63,296.69h-0.5v-5.08h0.5V296.69z"/>
		<path d="M179.02,292.39h0.02c0.3-0.56,0.85-0.9,1.51-0.9c1.31,0,1.67,0.81,1.67,2.12v3.07h-0.5v-3.07c0-0.91-0.11-1.66-1.22-1.66
			c-1.28,0-1.49,1.19-1.49,2.22v2.51h-0.5v-5.08h0.5V292.39z"/>
		<path d="M188.46,296.44c0,0.78-0.02,1.49-0.51,2.16c-0.47,0.65-1.22,0.98-2.02,0.98c-1.33,0-2.43-0.78-2.51-2.18h0.49
			c0.06,1.06,0.95,1.72,1.97,1.72c0.64,0,1.25-0.22,1.63-0.76c0.4-0.58,0.45-1.24,0.45-1.92v-0.63h-0.02
			c-0.45,0.6-1.21,0.99-1.98,0.99c-1.47,0-2.46-1.24-2.46-2.66c0-1.46,1.05-2.64,2.53-2.64c0.83,0,1.44,0.35,1.92,0.99h0.02v-0.88
			h0.5V296.44z M183.99,294.11c0,1.17,0.77,2.22,2,2.22c1.3,0,2-1.06,2-2.28c0-1.18-0.8-2.1-2.04-2.1
			C184.79,291.96,183.99,293.01,183.99,294.11z"/>
		<path d="M194.06,287.61v4.79h0.02c0.3-0.56,0.85-0.9,1.51-0.9c1.31,0,1.67,0.81,1.67,2.12v3.07h-0.5v-3.07
			c0-0.91-0.11-1.66-1.22-1.66c-1.28,0-1.49,1.19-1.49,2.22v2.51h-0.5v-9.08H194.06z"/>
		<path d="M199.84,289.91c0,0.25-0.2,0.45-0.45,0.45s-0.45-0.2-0.45-0.45c0-0.24,0.2-0.45,0.45-0.45S199.84,289.67,199.84,289.91z
			 M199.63,296.69h-0.5v-5.08h0.5V296.69z"/>
		<path d="M206.07,296.44c0,0.78-0.02,1.49-0.51,2.16c-0.47,0.65-1.22,0.98-2.02,0.98c-1.33,0-2.43-0.78-2.51-2.18h0.49
			c0.06,1.06,0.95,1.72,1.97,1.72c0.64,0,1.25-0.22,1.63-0.76c0.4-0.58,0.45-1.24,0.45-1.92v-0.63h-0.02
			c-0.45,0.6-1.21,0.99-1.98,0.99c-1.47,0-2.46-1.24-2.46-2.66c0-1.46,1.05-2.64,2.53-2.64c0.83,0,1.44,0.35,1.92,0.99h0.02v-0.88
			h0.5V296.44z M201.6,294.11c0,1.17,0.77,2.22,2,2.22c1.3,0,2-1.06,2-2.28c0-1.18-0.8-2.1-2.04-2.1
			C202.41,291.96,201.6,293.01,201.6,294.11z"/>
		<path d="M208.26,287.61v4.79h0.02c0.3-0.56,0.85-0.9,1.51-0.9c1.31,0,1.67,0.81,1.67,2.12v3.07h-0.5v-3.07
			c0-0.91-0.11-1.66-1.22-1.66c-1.28,0-1.49,1.19-1.49,2.22v2.51h-0.5v-9.08H208.26z"/>
		<path d="M218.07,295.77l1.79-4.45l1.8,4.45l1.76-4.17h0.51l-2.3,5.36l-1.79-4.39l-1.78,4.39l-2.29-5.36h0.51L218.07,295.77z"/>
		<path d="M225.73,289.91c0,0.25-0.2,0.45-0.45,0.45s-0.45-0.2-0.45-0.45c0-0.24,0.2-0.45,0.45-0.45S225.73,289.67,225.73,289.91z
			 M225.52,296.69h-0.5v-5.08h0.5V296.69z"/>
		<path d="M227.9,296.69h-0.5v-9.08h0.5V296.69z"/>
		<path d="M230.09,296.69h-0.5v-9.08h0.5V296.69z"/>
		<path d="M239.09,292.78c-0.48-0.53-1.07-0.83-1.79-0.83c-1.2,0-2.1,1.02-2.1,2.18c0,1.16,0.89,2.2,2.09,2.2
			c0.73,0,1.41-0.35,1.87-0.91v0.67c-0.52,0.45-1.17,0.71-1.85,0.71c-1.51,0-2.61-1.18-2.61-2.66c0-1.47,1.12-2.64,2.62-2.64
			c0.66,0,1.26,0.2,1.77,0.63V292.78z"/>
		<path d="M244.91,296.69h-0.5v-0.91h-0.02c-0.37,0.65-1.19,1.02-1.94,1.02c-1.54,0-2.51-1.2-2.51-2.69c0-1.48,0.96-2.62,2.49-2.62
			c0.78,0,1.53,0.35,1.96,0.99h0.02v-0.88h0.5V296.69z M240.44,294.11c0,1.17,0.77,2.22,2,2.22c1.3,0,2-1.06,2-2.28
			c0-1.18-0.8-2.1-2.04-2.1C241.25,291.96,240.44,293.01,240.44,294.11z"/>
		<path d="M250.18,291.6v3.05c0,0.52,0.01,1.04-0.31,1.46c-0.35,0.46-0.95,0.68-1.52,0.68s-1.17-0.22-1.52-0.68
			c-0.32-0.43-0.31-0.95-0.31-1.46v-3.05h0.5v2.87c0,0.98,0.11,1.86,1.33,1.86c1.22,0,1.33-0.88,1.33-1.86v-2.87H250.18z"/>
		<path d="M253.93,292.53c-0.17-0.35-0.5-0.57-0.89-0.57c-0.43,0-0.87,0.35-0.87,0.79c0,1.22,2.48,0.63,2.48,2.46
			c0,0.94-0.73,1.59-1.64,1.59c-0.85,0-1.54-0.52-1.75-1.34l0.48-0.15c0.19,0.6,0.59,1.03,1.27,1.03c0.64,0,1.14-0.51,1.14-1.14
			c0-0.63-0.48-0.82-0.99-1c-0.69-0.25-1.48-0.55-1.48-1.41c0-0.77,0.65-1.29,1.39-1.29c0.52,0,1.08,0.34,1.3,0.81L253.93,292.53z"
			/>
		<path d="M255.92,294.19c-0.03,1.29,0.86,2.14,2.04,2.14c0.79,0,1.43-0.47,1.79-1.15l0.42,0.24c-0.46,0.88-1.28,1.38-2.28,1.38
			c-1.51,0-2.46-1.22-2.46-2.66c0-1.42,0.98-2.64,2.46-2.64c1.54,0,2.45,1.23,2.44,2.7H255.92z M259.84,293.73
			c-0.12-0.94-0.89-1.77-1.94-1.77c-1.03,0-1.89,0.81-1.98,1.77H259.84z"/>
		<path d="M264.94,294.19c-0.03,1.29,0.86,2.14,2.04,2.14c0.79,0,1.43-0.47,1.79-1.15l0.42,0.24c-0.46,0.88-1.28,1.38-2.28,1.38
			c-1.51,0-2.46-1.22-2.46-2.66c0-1.42,0.98-2.64,2.46-2.64c1.54,0,2.45,1.23,2.44,2.7H264.94z M268.86,293.73
			c-0.12-0.94-0.89-1.77-1.94-1.77c-1.03,0-1.89,0.81-1.98,1.77H268.86z"/>
		<path d="M271.44,289.91c0,0.25-0.2,0.45-0.45,0.45s-0.45-0.2-0.45-0.45c0-0.24,0.2-0.45,0.45-0.45S271.44,289.67,271.44,289.91z
			 M271.23,296.69h-0.5v-5.08h0.5V296.69z"/>
		<path d="M273.68,296.69h-0.5v-4.62h-0.56v-0.46h0.56v-1.82h0.5v1.82h0.89v0.46h-0.89V296.69z"/>
		<path d="M275.92,287.61v4.79h0.02c0.3-0.56,0.85-0.9,1.51-0.9c1.31,0,1.67,0.81,1.67,2.12v3.07h-0.5v-3.07
			c0-0.91-0.11-1.66-1.22-1.66c-1.28,0-1.49,1.19-1.49,2.22v2.51h-0.5v-9.08H275.92z"/>
		<path d="M280.81,294.19c-0.03,1.29,0.86,2.14,2.04,2.14c0.79,0,1.43-0.47,1.79-1.15l0.42,0.24c-0.46,0.88-1.28,1.38-2.28,1.38
			c-1.51,0-2.46-1.22-2.46-2.66c0-1.42,0.98-2.64,2.46-2.64c1.54,0,2.45,1.23,2.44,2.7H280.81z M284.73,293.73
			c-0.12-0.94-0.89-1.77-1.94-1.77c-1.03,0-1.89,0.81-1.98,1.77H284.73z"/>
		<path d="M286.92,292.26h0.02c0.2-0.46,0.56-0.77,1.1-0.77c0.2,0,0.36,0.04,0.54,0.12l-0.26,0.44c-0.12-0.07-0.22-0.1-0.35-0.1
			c-1.11,0-1.05,1.39-1.05,2.13v2.6h-0.5v-5.08h0.5V292.26z"/>
		<path d="M129.49,300.81h0.5v4.87H130c0.43-0.64,1.18-0.99,1.96-0.99c1.52,0,2.49,1.13,2.49,2.62c0,1.48-0.97,2.68-2.51,2.68
			c-0.75,0-1.56-0.37-1.94-1.02h-0.02v0.91h-0.5V300.81z M133.95,307.31c0-1.11-0.8-2.16-1.98-2.16c-1.29,0-2.02,0.96-2.02,2.17
			c0,1.19,0.75,2.21,2,2.21C133.2,309.54,133.95,308.48,133.95,307.31z"/>
		<path d="M140.11,309.89h-0.5v-0.91h-0.02c-0.37,0.65-1.19,1.02-1.94,1.02c-1.54,0-2.51-1.2-2.51-2.68c0-1.49,0.96-2.62,2.49-2.62
			c0.78,0,1.53,0.35,1.96,0.99h0.02v-0.88h0.5V309.89z M135.65,307.31c0,1.17,0.77,2.22,2,2.22c1.3,0,2-1.06,2-2.28
			c0-1.18-0.8-2.1-2.04-2.1C136.45,305.16,135.65,306.21,135.65,307.31z"/>
		<path d="M145.78,308.97h-0.02c-0.37,0.65-1.19,1.02-1.94,1.02c-1.54,0-2.51-1.2-2.51-2.68c0-1.49,0.96-2.62,2.49-2.62
			c0.78,0,1.53,0.35,1.96,0.99h0.02v-4.87h0.5v9.08h-0.5V308.97z M145.81,307.26c0-1.18-0.8-2.1-2.04-2.1
			c-1.17,0-1.97,1.05-1.97,2.16c0,1.17,0.77,2.22,2,2.22C145.11,309.54,145.81,308.48,145.81,307.26z"/>
		<path d="M151.87,309.89h-0.5v-4.62h-0.56v-0.46h0.56v-2.28c0-0.37,0.01-0.91,0.2-1.24c0.23-0.41,0.67-0.62,1.13-0.62
			c0.15,0,0.3,0.02,0.44,0.08v0.45c-0.13-0.02-0.26-0.07-0.41-0.07c-0.86,0-0.87,0.86-0.87,1.5v2.18h1.28v0.46h-1.28V309.89z"/>
		<path d="M158.48,309.89h-0.5v-0.91h-0.02c-0.37,0.65-1.19,1.02-1.94,1.02c-1.54,0-2.51-1.2-2.51-2.68c0-1.49,0.96-2.62,2.49-2.62
			c0.78,0,1.53,0.35,1.96,0.99h0.02v-0.88h0.5V309.89z M154.02,307.31c0,1.17,0.77,2.22,2,2.22c1.3,0,2-1.06,2-2.28
			c0-1.18-0.8-2.1-2.04-2.1C154.82,305.16,154.02,306.21,154.02,307.31z"/>
		<path d="M164.07,305.98c-0.48-0.53-1.07-0.82-1.79-0.82c-1.2,0-2.1,1.02-2.1,2.18c0,1.15,0.89,2.2,2.09,2.2
			c0.73,0,1.41-0.35,1.87-0.91v0.67c-0.52,0.45-1.17,0.7-1.85,0.7c-1.51,0-2.61-1.18-2.61-2.66c0-1.47,1.12-2.64,2.62-2.64
			c0.66,0,1.26,0.2,1.77,0.63V305.98z"/>
		<path d="M166.32,303.11c0,0.25-0.2,0.45-0.45,0.45s-0.45-0.2-0.45-0.45c0-0.24,0.2-0.45,0.45-0.45S166.32,302.87,166.32,303.11z
			 M166.11,309.89h-0.5v-5.08h0.5V309.89z"/>
		<path d="M172.47,309.89h-0.5v-0.91h-0.02c-0.37,0.65-1.19,1.02-1.94,1.02c-1.54,0-2.51-1.2-2.51-2.68c0-1.49,0.96-2.62,2.49-2.62
			c0.78,0,1.53,0.35,1.96,0.99h0.02v-0.88h0.5V309.89z M168,307.31c0,1.17,0.77,2.22,2,2.22c1.3,0,2-1.06,2-2.28
			c0-1.18-0.8-2.1-2.04-2.1C168.8,305.16,168,306.21,168,307.31z"/>
		<path d="M174.65,309.89h-0.5v-9.08h0.5V309.89z"/>
		<path d="M180.25,309.89h-0.5v-9.08h0.5V309.89z"/>
		<path d="M186.41,309.89h-0.5v-0.91h-0.02c-0.37,0.65-1.19,1.02-1.94,1.02c-1.54,0-2.51-1.2-2.51-2.68c0-1.49,0.96-2.62,2.49-2.62
			c0.78,0,1.53,0.35,1.96,0.99h0.02v-0.88h0.5V309.89z M181.95,307.31c0,1.17,0.77,2.22,2,2.22c1.3,0,2-1.06,2-2.28
			c0-1.18-0.8-2.1-2.04-2.1C182.75,305.16,181.95,306.21,181.95,307.31z"/>
		<path d="M188.6,305.6h0.02c0.3-0.56,0.85-0.9,1.51-0.9c1.31,0,1.67,0.81,1.67,2.12v3.07h-0.5v-3.07c0-0.91-0.11-1.66-1.22-1.66
			c-1.28,0-1.49,1.19-1.49,2.22v2.51h-0.5v-5.08h0.5V305.6z"/>
		<path d="M197.47,308.97h-0.02c-0.37,0.65-1.19,1.02-1.94,1.02c-1.54,0-2.51-1.2-2.51-2.68c0-1.49,0.96-2.62,2.49-2.62
			c0.78,0,1.53,0.35,1.96,0.99h0.02v-4.87h0.5v9.08h-0.5V308.97z M197.5,307.26c0-1.18-0.8-2.1-2.04-2.1
			c-1.17,0-1.97,1.05-1.97,2.16c0,1.17,0.77,2.22,2,2.22C196.8,309.54,197.5,308.48,197.5,307.26z"/>
		<path d="M200.55,303.11c0,0.25-0.2,0.45-0.45,0.45s-0.45-0.2-0.45-0.45c0-0.24,0.2-0.45,0.45-0.45S200.55,302.87,200.55,303.11z
			 M200.34,309.89h-0.5v-5.08h0.5V309.89z"/>
		<path d="M202.73,305.6h0.02c0.3-0.56,0.85-0.9,1.51-0.9c1.31,0,1.67,0.81,1.67,2.12v3.07h-0.5v-3.07c0-0.91-0.11-1.66-1.22-1.66
			c-1.28,0-1.49,1.19-1.49,2.22v2.51h-0.5v-5.08h0.5V305.6z"/>
		<path d="M212.16,309.64c0,0.78-0.02,1.48-0.51,2.16c-0.47,0.65-1.22,0.98-2.02,0.98c-1.33,0-2.43-0.78-2.51-2.18h0.5
			c0.06,1.06,0.95,1.72,1.97,1.72c0.64,0,1.25-0.22,1.63-0.76c0.4-0.58,0.45-1.24,0.45-1.93v-0.63h-0.02
			c-0.45,0.61-1.21,0.99-1.98,0.99c-1.47,0-2.46-1.24-2.46-2.66c0-1.46,1.05-2.64,2.53-2.64c0.83,0,1.44,0.35,1.92,0.99h0.02v-0.88
			h0.5V309.64z M207.7,307.31c0,1.17,0.77,2.22,2,2.22c1.3,0,2-1.06,2-2.28c0-1.18-0.8-2.1-2.04-2.1
			C208.5,305.16,207.7,306.21,207.7,307.31z"/>
		<path d="M222.09,307.35c0,1.51-1.18,2.65-2.67,2.65c-1.46,0-2.64-1.2-2.64-2.64c0-1.46,1.17-2.66,2.64-2.66
			C220.91,304.69,222.09,305.84,222.09,307.35z M217.27,307.36c0,1.16,0.91,2.18,2.11,2.18c1.24,0,2.21-0.95,2.21-2.18
			c0-1.25-0.96-2.2-2.21-2.2C218.17,305.16,217.27,306.18,217.27,307.36z"/>
		<path d="M223.78,305.46h0.02c0.2-0.46,0.56-0.77,1.1-0.77c0.2,0,0.36,0.04,0.54,0.12l-0.26,0.44c-0.12-0.06-0.22-0.1-0.35-0.1
			c-1.11,0-1.05,1.38-1.05,2.13v2.6h-0.5v-5.08h0.5V305.46z"/>
		<path d="M234.22,309.89h-0.5v-0.91h-0.02c-0.37,0.65-1.19,1.02-1.94,1.02c-1.54,0-2.51-1.2-2.51-2.68c0-1.49,0.96-2.62,2.49-2.62
			c0.78,0,1.53,0.35,1.96,0.99h0.02v-0.88h0.5V309.89z M229.75,307.31c0,1.17,0.77,2.22,2,2.22c1.3,0,2-1.06,2-2.28
			c0-1.18-0.8-2.1-2.04-2.1C230.56,305.16,229.75,306.21,229.75,307.31z"/>
		<path d="M236.41,305.6h0.02c0.3-0.56,0.85-0.9,1.51-0.9c1.31,0,1.67,0.81,1.67,2.12v3.07h-0.5v-3.07c0-0.91-0.11-1.66-1.22-1.66
			c-1.28,0-1.49,1.19-1.49,2.22v2.51h-0.5v-5.08h0.5V305.6z"/>
		<path d="M248.29,304.8v3.05c0,0.52,0.01,1.03-0.31,1.46c-0.35,0.46-0.95,0.68-1.52,0.68c-0.57,0-1.17-0.22-1.52-0.68
			c-0.32-0.43-0.31-0.95-0.31-1.46v-3.05h0.5v2.87c0,0.98,0.11,1.86,1.33,1.86c1.22,0,1.33-0.88,1.33-1.86v-2.87H248.29z"/>
		<path d="M250.4,305.6h0.02c0.3-0.56,0.85-0.9,1.51-0.9c1.31,0,1.67,0.81,1.67,2.12v3.07h-0.5v-3.07c0-0.91-0.11-1.66-1.22-1.66
			c-1.28,0-1.49,1.19-1.49,2.22v2.51h-0.5v-5.08h0.5V305.6z"/>
		<path d="M257.43,305.73c-0.17-0.35-0.5-0.57-0.89-0.57c-0.43,0-0.87,0.35-0.87,0.79c0,1.22,2.48,0.63,2.48,2.46
			c0,0.94-0.73,1.58-1.64,1.58c-0.85,0-1.54-0.52-1.75-1.34l0.48-0.15c0.19,0.61,0.59,1.04,1.27,1.04c0.64,0,1.14-0.51,1.14-1.14
			c0-0.63-0.48-0.83-0.99-1c-0.69-0.25-1.48-0.55-1.48-1.41c0-0.77,0.65-1.29,1.39-1.29c0.52,0,1.08,0.34,1.3,0.81L257.43,305.73z"
			/>
		<path d="M259.97,309.89h-0.5v-4.62h-0.56v-0.46h0.56v-1.81h0.5v1.81h0.89v0.46h-0.89V309.89z"/>
		<path d="M266.18,309.89h-0.5v-0.91h-0.02c-0.37,0.65-1.19,1.02-1.94,1.02c-1.54,0-2.51-1.2-2.51-2.68c0-1.49,0.96-2.62,2.49-2.62
			c0.78,0,1.53,0.35,1.96,0.99h0.02v-0.88h0.5V309.89z M261.72,307.31c0,1.17,0.77,2.22,2,2.22c1.3,0,2-1.06,2-2.28
			c0-1.18-0.8-2.1-2.04-2.1C262.52,305.16,261.72,306.21,261.72,307.31z"/>
		<path d="M267.88,300.81h0.5v4.87h0.02c0.43-0.64,1.18-0.99,1.96-0.99c1.52,0,2.49,1.13,2.49,2.62c0,1.48-0.97,2.68-2.51,2.68
			c-0.75,0-1.56-0.37-1.94-1.02h-0.02v0.91h-0.5V300.81z M272.34,307.31c0-1.11-0.8-2.16-1.98-2.16c-1.29,0-2.02,0.96-2.02,2.17
			c0,1.19,0.75,2.21,2,2.21C271.58,309.54,272.34,308.48,272.34,307.31z"/>
		<path d="M274.53,309.89h-0.5v-9.08h0.5V309.89z"/>
		<path d="M276.23,307.39c-0.03,1.29,0.86,2.15,2.04,2.15c0.79,0,1.43-0.47,1.79-1.16l0.42,0.24c-0.46,0.88-1.28,1.38-2.28,1.38
			c-1.51,0-2.46-1.22-2.46-2.66c0-1.42,0.98-2.64,2.46-2.64c1.54,0,2.45,1.23,2.44,2.7H276.23z M280.14,306.93
			c-0.12-0.94-0.89-1.77-1.94-1.77c-1.03,0-1.89,0.81-1.98,1.77H280.14z"/>
		<path d="M285.74,309.89h-0.5v-4.62h-0.56v-0.46h0.56v-2.28c0-0.37,0.01-0.91,0.2-1.24c0.23-0.41,0.67-0.62,1.13-0.62
			c0.15,0,0.3,0.02,0.44,0.08v0.45c-0.13-0.02-0.26-0.07-0.41-0.07c-0.86,0-0.87,0.86-0.87,1.5v2.18h1.28v0.46h-1.28V309.89z
			 M288.38,309.89h-0.5v-9.08h0.5V309.89z"/>
		<path d="M290.97,303.11c0,0.25-0.2,0.45-0.45,0.45s-0.45-0.2-0.45-0.45c0-0.24,0.2-0.45,0.45-0.45S290.97,302.87,290.97,303.11z
			 M290.76,309.89h-0.5v-5.08h0.5V309.89z"/>
		<path d="M293.14,305.72h0.02c0.37-0.65,1.19-1.02,1.94-1.02c1.55,0,2.51,1.21,2.51,2.7c0,1.49-0.96,2.61-2.49,2.61
			c-0.78,0-1.54-0.34-1.96-0.99h-0.02v3.85h-0.5v-8.05h0.5V305.72z M293.11,307.46c0,1.19,0.8,2.08,2.02,2.08
			c1.19,0,1.98-1,1.98-2.13c0-1.17-0.76-2.24-2-2.24C293.82,305.16,293.11,306.23,293.11,307.46z"/>
	</g>
</g>
</svg>
