<?xml version="1.0" encoding="utf-8"?>
<!-- Generator: Adobe Illustrator 16.0.0, SVG Export Plug-In . SVG Version: 6.00 Build 0)  -->
<!DOCTYPE svg PUBLIC "-//W3C//DTD SVG 1.1//EN" "http://www.w3.org/Graphics/SVG/1.1/DTD/svg11.dtd">
<svg version="1.1" id="Layer_1" xmlns="http://www.w3.org/2000/svg" xmlns:xlink="http://www.w3.org/1999/xlink" x="0px" y="0px"
	 width="367.6px" height="317px" viewBox="0 0 367.6 317" style="enable-background:new 0 0 367.6 317;" xml:space="preserve">
<style type="text/css">
<![CDATA[
	.st0{opacity:0.6;fill:#FFC43B;}
	.st1{fill:none;stroke:#741472;stroke-width:0.9552;stroke-miterlimit:10;}
	.st2{fill:none;stroke:#741472;stroke-width:1.7216;stroke-miterlimit:10;}
	.st3{fill:none;stroke:#741472;stroke-width:1.7516;stroke-miterlimit:10;}
	.st4{opacity:0.6;fill:#6AD9C4;}
	.st5{fill:none;stroke:#741472;stroke-width:1.7096;stroke-miterlimit:10;}
	.st6{fill:none;stroke:#FFFFFF;stroke-miterlimit:10;}
	.st7{opacity:0.6;fill:#741472;}
	.st8{fill:none;stroke:#741472;stroke-width:2.0589;stroke-miterlimit:10;}
	.st9{fill:none;stroke:#741472;stroke-width:1.8337;stroke-miterlimit:10;}
	.st10{fill:none;stroke:#741472;stroke-width:1.1228;stroke-miterlimit:10;}
	.st11{fill:#262626;}
	.st12{fill:none;stroke:#262626;stroke-width:2;stroke-linecap:round;stroke-miterlimit:10;stroke-dasharray:0,10;}
	.st13{fill:none;stroke:#262626;stroke-width:1.9911;stroke-miterlimit:10;}
	.st14{fill:none;stroke:#262626;stroke-width:1.8337;stroke-linejoin:round;stroke-miterlimit:10;stroke-dasharray:5.5011,7.3348;}
	.st15{fill:none;stroke:#741472;stroke-width:0.9578;stroke-miterlimit:10;}
	.st16{fill:none;stroke:#262626;stroke-width:2.3537;stroke-miterlimit:10;}
	.st17{fill:none;stroke:#262626;stroke-linejoin:round;stroke-miterlimit:10;stroke-dasharray:3,4;}
	.st18{fill:none;stroke:#741472;stroke-miterlimit:10;}
	.st19{fill:#FFC43B;}
	.st20{fill:#FFFFFF;}
	.st21{opacity:0.6;fill:#E6E6E6;}
	.st22{fill:none;stroke:#262626;stroke-width:1.8426;stroke-miterlimit:10;}
	.st23{fill:none;}
	.st24{fill:none;stroke:#FFFFFF;stroke-width:0.8746;stroke-miterlimit:10;}
	.st25{fill:none;stroke:#741472;stroke-width:0.9389;stroke-miterlimit:10;}
	.st26{fill:none;stroke:#262626;stroke-width:2.3586;stroke-miterlimit:10;}
	.st27{fill:#00AE8D;}
	.st28{fill:none;stroke:#741472;stroke-width:1.7563;stroke-miterlimit:10;}
	.st29{fill:#741472;}
	.st30{fill:none;stroke:#741472;stroke-width:0.9324;stroke-miterlimit:10;}
	.st31{fill:none;stroke:#262626;stroke-width:1.2836;stroke-miterlimit:10;}
]]>
</style>
<g>
	<g>
		<polygon class="st20" points="183.74,317 122.45,211 183.74,105 306.31,105 367.6,211 306.31,317 		"/>
		<polygon class="st20" points="61.29,317 0,211 61.29,105 183.86,105 245.15,211 183.86,317 		"/>
		<polygon class="st20" points="122.51,212 61.22,106 122.51,0 245.08,0 306.37,106 245.08,212 		"/>
	</g>
	<g>
		<polygon class="st0" points="183.74,317 122.45,211 183.74,105 306.31,105 367.6,211 306.31,317 		"/>
		<polygon class="st4" points="61.29,317 0,211 61.29,105 183.86,105 245.15,211 183.86,317 		"/>
		<polygon class="st7" points="122.51,212 61.22,106 122.51,0 245.08,0 306.37,106 245.08,212 		"/>
	</g>
	<g>
		<path class="st20" d="M146.25,44.43v26.38h-3.43V47.48h-2.59v-3.04H146.25z"/>
	</g>
	<g>
		<path class="st20" d="M268.51,236.28c0-4.2,0.52-7.94,5.63-7.94c4.34,0,5.88,2.41,5.88,6.51c0,3.95-2.69,9.41-4.55,12.88
			l-2.24,4.27h6.54v3.04h-11.62l6.4-13.54c0.95-2.13,1.89-4.48,1.89-6.86c0-1.43-0.53-3.15-2.34-3.15c-2.38,0-2.03,3.95-2.03,5.04
			v0.7h-3.57V236.28z"/>
	</g>
	<g>
		<path class="st20" d="M165.72,193.27h1.68v2.59h-1.68v7.24h-3.43v-7.24h-7.1v-3.01l7.1-16.13h3.43V193.27z M162.29,182.08h-0.07
			l-4.27,11.2h4.34V182.08z"/>
	</g>
	<g>
		<path class="st20" d="M48.99,242.84v-3.15h0.42c2.97,0,3.6-1.08,3.6-4.02c0-1.4,0-4.23-2.03-4.23c-1.82,0-2.06,2.03-2.06,3.43v0.8
			h-3.36v-0.25c0-3.99,0.59-7.14,5.32-7.14c4.41,0,5.49,3.01,5.49,6.82c0,2.45-0.17,5.39-2.94,6.23v0.07
			c2.9,0.73,3.25,3.5,3.25,6.09c0,4.23-1.26,7.8-6.05,7.8c-3.99,0-5.56-2.24-5.56-6.12v-0.81h3.36v0.84c0,1.47,0.56,2.94,2.21,2.94
			c2.48,0,2.48-3.18,2.48-4.93c0-2.24-0.42-4.48-3.11-4.37H48.99z"/>
	</g>
	<g>
		<path class="st20" d="M168.43,65.71V45.92h2.05c2.83,0,5.35,0.26,5.35,5.14c0,3.83-1.34,5.17-5.09,5.17h-0.47v9.47H168.43z
			 M170.26,54.56h0.71c2.57,0,2.89-0.94,2.97-3.49c0-2.73-0.73-3.46-3.31-3.46h-0.37V54.56z"/>
		<path class="st20" d="M177.82,65.71V45.92h1.97c2.76,0,5.41,0.21,5.41,5.04c0,2.52-0.55,4.99-3.73,5.09l4.38,9.66h-1.94l-4.2-9.68
			h-0.05v9.68H177.82z M179.66,54.53h0.66c2.57,0,2.99-0.89,2.99-3.49c0-3.12-0.94-3.44-3.28-3.44h-0.37V54.53z"/>
		<path class="st20" d="M194.04,47.6h-4.38v6.98h4.25v1.68h-4.25v7.77h4.38v1.68h-6.22V45.92h6.22V47.6z"/>
		<path class="st20" d="M196.69,65.71V45.92h2.05c2.83,0,5.35,0.26,5.35,5.14c0,3.83-1.34,5.17-5.09,5.17h-0.47v9.47H196.69z
			 M198.52,54.56h0.71c2.57,0,2.89-0.94,2.97-3.49c0-2.73-0.73-3.46-3.31-3.46h-0.37V54.56z"/>
		<path class="st20" d="M213.11,65.71h-1.97l-0.74-4.07h-4.2l-0.71,4.07h-1.97l3.88-19.79h1.73L213.11,65.71z M210.12,60.04
			l-1.31-7.58c-0.24-1.34-0.34-2.7-0.5-4.04h-0.1c-0.18,1.34-0.32,2.7-0.53,4.04l-1.15,7.58H210.12z"/>
		<path class="st20" d="M214.69,65.71V45.92h1.97c2.76,0,5.41,0.21,5.41,5.04c0,2.52-0.55,4.99-3.73,5.09l4.38,9.66h-1.94l-4.2-9.68
			h-0.05v9.68H214.69z M216.52,54.53h0.66c2.57,0,2.99-0.89,2.99-3.49c0-3.12-0.94-3.44-3.28-3.44h-0.37V54.53z"/>
		<path class="st20" d="M230.9,47.6h-4.38v6.98h4.25v1.68h-4.25v7.77h4.38v1.68h-6.22V45.92h6.22V47.6z"/>
	</g>
	<g>
		<path class="st20" d="M305.71,250.78h-1.97l-0.74-4.07h-4.2l-0.71,4.07h-1.97l3.88-19.79h1.73L305.71,250.78z M302.72,245.11
			l-1.31-7.58c-0.24-1.34-0.34-2.7-0.5-4.04h-0.1c-0.18,1.34-0.32,2.7-0.53,4.04l-1.15,7.58H302.72z"/>
		<path class="st20" d="M309.12,250.78h-1.84v-19.79h1.84V250.78z"/>
		<path class="st20" d="M324.84,250.78h-1.81l-1.39-14.59c-0.05-0.63-0.08-1.23-0.11-1.86h-0.1c-0.16,1.31-0.21,2.6-0.45,3.91
			l-2.15,12.54h-1.5l-2.18-14.59c-0.11-0.63-0.16-1.23-0.24-1.86h-0.08c-0.05,1.29-0.03,2.62-0.18,3.88l-1.57,12.57h-1.79
			l2.78-19.79h1.57l2.23,14.75c0.1,0.66,0.16,1.31,0.24,1.97h0.08c0.13-1.13,0.21-2.28,0.39-3.41l2.26-13.31h1.57L324.84,250.78z"/>
	</g>
	<g>
		<path class="st20" d="M80.53,232.67h-2.97v18.11h-1.84v-18.11h-2.97v-1.68h7.77V232.67z"/>
		<path class="st20" d="M90.5,244.51c0,3.65-0.29,6.54-4.15,6.54c-3.96,0-4.15-2.99-4.15-6.54v-13.52h1.84v13.41
			c0,3.28,0.18,4.86,2.31,4.86c2.1,0,2.31-1.57,2.31-4.86v-13.41h1.84V244.51z"/>
		<path class="st20" d="M100.84,250.23c-0.68,0.47-1.65,0.81-2.52,0.81c-4.65,0-5.33-6.06-5.33-9.45c0-3.2,0.11-10.87,5.51-10.87
			c0.73,0,1.73,0.18,2.34,0.63v2.02c-0.74-0.5-1.39-0.87-2.31-0.87c-3.2,0-3.65,4.65-3.65,8.32c0,2.31,0,8.42,3.52,8.42
			c0.89,0,1.73-0.39,2.44-0.89V250.23z"/>
		<path class="st20" d="M106.64,240.41l4.46,10.37h-2.07l-3.94-9.97h-0.05v9.97h-1.84v-19.79h1.84v8.98h0.05l3.94-8.98h2.05
			L106.64,240.41z"/>
	</g>
	<g>
		<path class="st20" d="M188.58,196.36h4.3v1.68h-6.14v-19.79h1.84V196.36z"/>
		<path class="st20" d="M202.46,198.04h-1.97l-0.74-4.07h-4.2l-0.71,4.07h-1.97l3.88-19.79h1.73L202.46,198.04z M199.47,192.37
			l-1.31-7.58c-0.24-1.34-0.34-2.7-0.5-4.04h-0.1c-0.18,1.34-0.32,2.7-0.53,4.04l-1.15,7.58H199.47z"/>
		<path class="st20" d="M212.27,198.04h-1.6l-4.46-13.31c-0.29-0.81-0.45-1.71-0.68-2.55h-0.1c0.08,1.29,0.21,2.55,0.21,3.83v12.02
			h-1.6v-19.79h1.6l4.54,13.75c0.24,0.68,0.42,1.36,0.6,2.05h0.08c-0.05-0.87-0.18-1.76-0.18-2.62v-13.17h1.6V198.04z"/>
		<path class="st20" d="M215.45,178.25h1.99c3.78,0,6.25,0.47,6.25,9.89c0,7.74-1.26,9.89-6.12,9.89h-2.12V178.25z M217.28,196.36
			h0.52c3.54,0,3.99-2.49,3.99-8.21c0-6.8-0.71-8.21-4.2-8.21h-0.31V196.36z"/>
	</g>
	<circle class="st24" cx="144.3" cy="57.72" r="17.9"/>
	<circle class="st24" cx="161.8" cy="190.05" r="17.9"/>
	<circle class="st24" cx="51.59" cy="242.53" r="17.9"/>
	<circle class="st24" cx="273.75" cy="242.79" r="17.9"/>
</g>
</svg>
