<?xml version="1.0" encoding="utf-8"?>
<!-- Generator: Adobe Illustrator 16.0.0, SVG Export Plug-In . SVG Version: 6.00 Build 0)  -->
<!DOCTYPE svg PUBLIC "-//W3C//DTD SVG 1.1//EN" "http://www.w3.org/Graphics/SVG/1.1/DTD/svg11.dtd">
<svg version="1.1" id="Layer_1" xmlns="http://www.w3.org/2000/svg" xmlns:xlink="http://www.w3.org/1999/xlink" x="0px" y="0px"
	 width="432px" height="324px" viewBox="0 0 432 324" style="enable-background:new 0 0 432 324;" xml:space="preserve">
<style type="text/css">
<![CDATA[
	.st0{fill:none;stroke:#262626;stroke-width:0.25;stroke-miterlimit:10;}
	.st1{opacity:0.6;fill:#FFC43B;}
	.st2{fill:none;stroke:#741472;stroke-width:0.9552;stroke-miterlimit:10;}
	.st3{display:none;opacity:0.6;fill:#E6E6E6;}
	.st4{opacity:0.6;fill:#6AD9C4;}
	.st5{fill:none;stroke:#FFFFFF;stroke-miterlimit:10;}
	.st6{opacity:0.6;fill:#741472;}
	.st7{fill:none;stroke:#741472;stroke-width:1.1228;stroke-miterlimit:10;}
	.st8{fill:#262626;}
	.st9{fill:none;stroke:#262626;stroke-width:2;stroke-linecap:round;stroke-miterlimit:10;stroke-dasharray:0,10;}
	.st10{fill:none;stroke:#741472;stroke-width:0.9578;stroke-miterlimit:10;}
	.st11{fill:none;stroke:#262626;stroke-linejoin:round;stroke-miterlimit:10;stroke-dasharray:3,4;}
	.st12{fill:none;stroke:#FFFFFF;stroke-width:0.4049;stroke-miterlimit:10;}
	.st13{fill:none;stroke:#741472;stroke-miterlimit:10;}
	.st14{fill:#FFC43B;}
	.st15{fill:#FFFFFF;}
	.st16{opacity:0.6;fill:#E6E6E6;}
	.st17{fill:none;}
	.st18{fill:none;stroke:#FFFFFF;stroke-width:0.8746;stroke-miterlimit:10;}
	.st19{fill:none;stroke:#741472;stroke-width:0.9389;stroke-miterlimit:10;}
	.st20{fill:#00AE8D;}
	.st21{fill:#741472;}
	.st22{fill:none;stroke:#741472;stroke-width:0.9324;stroke-miterlimit:10;}
	.st23{fill:none;stroke:#262626;stroke-width:1.2836;stroke-miterlimit:10;}
]]>
</style>
<g>
	<g>
		<path class="st8" d="M97.5,17.4v1.39h-1.81v10.68h-1.6V18.79H92.2V17.4H97.5z"/>
		<path class="st8" d="M100.01,17.4v4.71h2.42V17.4h1.6v12.07h-1.6V23.5h-2.42v5.97h-1.6V17.4H100.01z"/>
		<path class="st8" d="M110.28,17.4v1.39h-2.71v3.79h2.42v1.39h-2.42v4.1h2.71v1.39h-4.31V17.4H110.28z"/>
		<path class="st8" d="M120.98,17.12v2.35h-3.05v18h-2.7v-18h-3.19v-2.35H120.98z"/>
		<path class="st8" d="M125.22,17.12v14.93c0,2.62,0.78,3.16,1.89,3.16c1.86,0,2.02-1.19,2.05-2.86V17.12h2.7v14.44
			c0,2.67,0.03,6.18-4.67,6.18c-4.29,0-4.67-2.92-4.67-6.59V17.12H125.22z"/>
		<path class="st8" d="M143.01,19.9c-0.54-0.27-1.11-0.51-1.73-0.51c-3.78,0-3.81,5.51-3.81,8.04c0,2.7,0.22,7.77,3.91,7.77
			c0.59,0,1.11-0.13,1.62-0.41v2.38c-0.67,0.43-1.38,0.57-2.16,0.57c-5.51,0-6.24-5.86-6.24-10.12c0-4.08,0.51-10.77,6.05-10.77
			c0.92,0,1.57,0.13,2.35,0.59V19.9z"/>
		<path class="st8" d="M147.84,17.12v9.77l3.81-9.77h2.78l-4,9.85l4.32,10.5h-3.1l-3.81-10.31v10.31h-2.75V17.12H147.84z"/>
	</g>
	<g>
		<g>
			<path class="st8" d="M53.34,32.7v-4.62h0.62c4.37,0,5.29-1.59,5.29-5.91c0-2.05,0-6.21-2.98-6.21c-2.67,0-3.03,2.98-3.03,5.03
				v1.18h-4.93v-0.36c0-5.85,0.87-10.47,7.8-10.47c6.47,0,8.06,4.42,8.06,10.01c0,3.59-0.26,7.91-4.31,9.14v0.1
				c4.26,1.08,4.78,5.13,4.78,8.93c0,6.21-1.85,11.45-8.88,11.45c-5.85,0-8.16-3.29-8.16-8.99v-1.18h4.93v1.23
				c0,2.16,0.82,4.31,3.24,4.31c3.65,0,3.65-4.67,3.65-7.24c0-3.29-0.62-6.57-4.57-6.42H53.34z"/>
		</g>
		<circle class="st23" cx="55.72" cy="31.3" r="26.27"/>
	</g>
	<g>
		<rect x="183.68" y="44.52" class="st17" width="142.57" height="40.73"/>
		<path d="M191.52,46.73h-0.02l-2.89,7.14l-2.88-7.14h-0.02l-1.42,6.87h-0.51l1.78-8.57l3.05,7.55l3.06-7.55l1.78,8.57h-0.51
			L191.52,46.73z"/>
		<path d="M199.21,51.05c0,1.51-1.18,2.65-2.67,2.65c-1.46,0-2.64-1.2-2.64-2.64c0-1.46,1.17-2.66,2.64-2.66
			C198.04,48.4,199.21,49.55,199.21,51.05z M194.39,51.06c0,1.16,0.91,2.18,2.11,2.18c1.24,0,2.21-0.95,2.21-2.18
			c0-1.25-0.96-2.2-2.21-2.2C195.3,48.86,194.39,49.89,194.39,51.06z"/>
		<path d="M202.55,49.44c-0.17-0.35-0.5-0.57-0.89-0.57c-0.43,0-0.87,0.35-0.87,0.79c0,1.22,2.48,0.63,2.48,2.46
			c0,0.94-0.73,1.58-1.64,1.58c-0.85,0-1.54-0.52-1.75-1.34l0.48-0.15c0.19,0.6,0.59,1.03,1.27,1.03c0.64,0,1.14-0.51,1.14-1.14
			c0-0.63-0.48-0.83-0.99-1c-0.69-0.25-1.48-0.55-1.48-1.41c0-0.77,0.65-1.29,1.39-1.29c0.52,0,1.08,0.34,1.3,0.81L202.55,49.44z"/>
		<path d="M205.09,53.59h-0.5v-4.62h-0.56v-0.46h0.56V46.7h0.5v1.82h0.89v0.46h-0.89V53.59z"/>
		<path d="M210.8,53.59h-0.5v-4.62h-0.56v-0.46h0.56V46.7h0.5v1.82h0.89v0.46h-0.89V53.59z"/>
		<path d="M213.04,44.52v4.79h0.02c0.3-0.56,0.85-0.9,1.51-0.9c1.31,0,1.67,0.81,1.67,2.12v3.07h-0.5v-3.07
			c0-0.91-0.11-1.66-1.22-1.66c-1.28,0-1.49,1.19-1.49,2.22v2.51h-0.5v-9.08H213.04z"/>
		<path d="M218.83,46.82c0,0.25-0.2,0.45-0.45,0.45s-0.45-0.2-0.45-0.45c0-0.24,0.2-0.45,0.45-0.45S218.83,46.58,218.83,46.82z
			 M218.62,53.59h-0.5v-5.08h0.5V53.59z"/>
		<path d="M221,49.3h0.02c0.3-0.56,0.85-0.9,1.51-0.9c1.31,0,1.67,0.81,1.67,2.12v3.07h-0.5v-3.07c0-0.91-0.11-1.66-1.22-1.66
			c-1.28,0-1.49,1.19-1.49,2.22v2.51h-0.5v-5.08h0.5V49.3z"/>
		<path d="M226.39,50.67l2.09-2.16h0.64l-2.13,2.2l2.85,2.88h-0.65l-2.52-2.54l-0.28,0.29v2.25h-0.5v-9.08h0.5V50.67z"/>
		<path d="M234.56,53.59h-0.5v-4.62h-0.56v-0.46h0.56V46.7h0.5v1.82h0.89v0.46h-0.89V53.59z"/>
		<path d="M236.8,44.52v4.79h0.02c0.3-0.56,0.85-0.9,1.51-0.9c1.31,0,1.67,0.81,1.67,2.12v3.07h-0.5v-3.07
			c0-0.91-0.11-1.66-1.22-1.66c-1.28,0-1.49,1.19-1.49,2.22v2.51h-0.5v-9.08H236.8z"/>
		<path d="M241.69,51.1c-0.03,1.29,0.86,2.15,2.04,2.15c0.79,0,1.43-0.47,1.79-1.16l0.42,0.24c-0.46,0.88-1.28,1.38-2.28,1.38
			c-1.51,0-2.46-1.22-2.46-2.66c0-1.42,0.98-2.64,2.46-2.64c1.54,0,2.45,1.23,2.44,2.7H241.69z M245.61,50.64
			c-0.12-0.94-0.89-1.77-1.94-1.77c-1.03,0-1.89,0.81-1.98,1.77H245.61z"/>
		<path d="M246.38,48.51h0.52l2.17,4.6l1.95-4.6h0.51l-3.41,8.05h-0.51l1.22-2.88L246.38,48.51z"/>
		<path d="M255.77,44.52h0.5v4.87h0.02c0.43-0.64,1.18-0.99,1.96-0.99c1.52,0,2.49,1.13,2.49,2.62s-0.97,2.68-2.51,2.68
			c-0.75,0-1.56-0.37-1.94-1.02h-0.02v0.91h-0.5V44.52z M260.24,51.02c0-1.11-0.8-2.16-1.98-2.16c-1.29,0-2.02,0.96-2.02,2.17
			c0,1.19,0.75,2.21,2,2.21C259.48,53.24,260.24,52.19,260.24,51.02z"/>
		<path d="M266.4,53.59h-0.5v-0.91h-0.02c-0.37,0.65-1.19,1.02-1.94,1.02c-1.54,0-2.51-1.2-2.51-2.68s0.96-2.62,2.49-2.62
			c0.78,0,1.53,0.35,1.96,0.99h0.02v-0.88h0.5V53.59z M261.93,51.02c0,1.17,0.77,2.22,2,2.22c1.3,0,2-1.06,2-2.28
			c0-1.18-0.8-2.1-2.04-2.1C262.74,48.86,261.93,49.92,261.93,51.02z"/>
		<path d="M268.59,49.17h0.02c0.2-0.46,0.56-0.77,1.1-0.77c0.2,0,0.36,0.04,0.54,0.12l-0.26,0.44c-0.12-0.07-0.22-0.1-0.35-0.1
			c-1.11,0-1.05,1.39-1.05,2.13v2.6h-0.5v-5.08h0.5V49.17z"/>
		<path d="M271.15,51.1c-0.03,1.29,0.86,2.15,2.04,2.15c0.79,0,1.43-0.47,1.79-1.16l0.42,0.24c-0.46,0.88-1.28,1.38-2.28,1.38
			c-1.51,0-2.46-1.22-2.46-2.66c0-1.42,0.98-2.64,2.46-2.64c1.54,0,2.45,1.23,2.44,2.7H271.15z M275.07,50.64
			c-0.12-0.94-0.89-1.77-1.94-1.77c-1.03,0-1.89,0.81-1.98,1.77H275.07z"/>
		<path d="M277.26,53.59h-0.5v-9.08h0.5V53.59z"/>
		<path d="M278.03,48.51h0.52l2.17,4.6l1.95-4.6h0.51l-3.41,8.05h-0.51l1.22-2.88L278.03,48.51z"/>
		<path d="M287.92,49.3h0.02c0.3-0.56,0.85-0.9,1.51-0.9c1.31,0,1.67,0.81,1.67,2.12v3.07h-0.5v-3.07c0-0.91-0.11-1.66-1.22-1.66
			c-1.28,0-1.49,1.19-1.49,2.22v2.51h-0.5v-5.08h0.5V49.3z"/>
		<path d="M292.81,51.1c-0.03,1.29,0.86,2.15,2.04,2.15c0.79,0,1.43-0.47,1.79-1.16l0.42,0.24c-0.46,0.88-1.28,1.38-2.28,1.38
			c-1.51,0-2.46-1.22-2.46-2.66c0-1.42,0.98-2.64,2.46-2.64c1.54,0,2.45,1.23,2.44,2.7H292.81z M296.73,50.64
			c-0.12-0.94-0.89-1.77-1.94-1.77c-1.03,0-1.89,0.81-1.98,1.77H296.73z"/>
		<path d="M298.42,51.1c-0.03,1.29,0.86,2.15,2.04,2.15c0.79,0,1.43-0.47,1.79-1.16l0.42,0.24c-0.46,0.88-1.28,1.38-2.28,1.38
			c-1.51,0-2.46-1.22-2.46-2.66c0-1.42,0.98-2.64,2.46-2.64c1.54,0,2.45,1.23,2.44,2.7H298.42z M302.34,50.64
			c-0.12-0.94-0.89-1.77-1.94-1.77c-1.03,0-1.89,0.81-1.98,1.77H302.34z"/>
		<path d="M308,52.68h-0.02c-0.37,0.65-1.19,1.02-1.94,1.02c-1.54,0-2.51-1.2-2.51-2.68s0.96-2.62,2.49-2.62
			c0.78,0,1.53,0.35,1.96,0.99H308v-4.87h0.5v9.08H308V52.68z M308.04,50.97c0-1.18-0.8-2.1-2.04-2.1c-1.17,0-1.97,1.06-1.97,2.16
			c0,1.17,0.77,2.22,2,2.22C307.33,53.24,308.04,52.19,308.04,50.97z"/>
		<path d="M314.15,53.59h-0.5v-4.62h-0.56v-0.46h0.56V46.7h0.5v1.82h0.89v0.46h-0.89V53.59z"/>
		<path d="M320.72,51.05c0,1.51-1.18,2.65-2.67,2.65c-1.46,0-2.64-1.2-2.64-2.64c0-1.46,1.17-2.66,2.64-2.66
			C319.54,48.4,320.72,49.55,320.72,51.05z M315.9,51.06c0,1.16,0.91,2.18,2.11,2.18c1.24,0,2.21-0.95,2.21-2.18
			c0-1.25-0.96-2.2-2.21-2.2C316.8,48.86,315.9,49.89,315.9,51.06z"/>
		<path d="M188.5,65.88h-0.02c-0.37,0.65-1.19,1.02-1.94,1.02c-1.54,0-2.51-1.2-2.51-2.68s0.96-2.62,2.49-2.62
			c0.78,0,1.53,0.35,1.96,0.99h0.02v-4.87h0.5v9.08h-0.5V65.88z M188.53,64.17c0-1.18-0.8-2.1-2.04-2.1c-1.17,0-1.97,1.06-1.97,2.16
			c0,1.17,0.77,2.22,2,2.22C187.83,66.44,188.53,65.39,188.53,64.17z"/>
		<path d="M195.51,64.25c0,1.51-1.18,2.65-2.67,2.65c-1.46,0-2.64-1.2-2.64-2.64c0-1.46,1.17-2.66,2.64-2.66
			C194.33,61.6,195.51,62.75,195.51,64.25z M190.69,64.26c0,1.16,0.91,2.18,2.11,2.18c1.24,0,2.21-0.95,2.21-2.18
			c0-1.25-0.96-2.2-2.21-2.2C191.59,62.06,190.69,63.09,190.69,64.26z"/>
		<path d="M204.58,66.79h-0.5v-0.91h-0.02c-0.37,0.65-1.19,1.02-1.94,1.02c-1.54,0-2.51-1.2-2.51-2.68s0.96-2.62,2.49-2.62
			c0.78,0,1.53,0.35,1.96,0.99h0.02v-0.88h0.5V66.79z M200.11,64.22c0,1.17,0.77,2.22,2,2.22c1.3,0,2-1.06,2-2.28
			c0-1.18-0.8-2.1-2.04-2.1C200.92,62.06,200.11,63.12,200.11,64.22z"/>
		<path d="M206.77,62.5h0.02c0.3-0.56,0.85-0.9,1.51-0.9c1.31,0,1.67,0.81,1.67,2.12v3.07h-0.5v-3.07c0-0.91-0.11-1.66-1.22-1.66
			c-1.28,0-1.49,1.19-1.49,2.22v2.51h-0.5v-5.08h0.5V62.5z"/>
		<path d="M210.74,61.71h0.52l2.17,4.6l1.95-4.6h0.51l-3.41,8.05h-0.51l1.22-2.88L210.74,61.71z"/>
		<path d="M217.27,66.79h-0.5v-4.62h-0.56v-0.46h0.56V59.9h0.5v1.82h0.89v0.46h-0.89V66.79z"/>
		<path d="M219.52,57.72v4.79h0.02c0.3-0.56,0.85-0.9,1.51-0.9c1.31,0,1.67,0.81,1.67,2.12v3.07h-0.5v-3.07
			c0-0.91-0.11-1.66-1.22-1.66c-1.28,0-1.49,1.19-1.49,2.22v2.51h-0.5v-9.08H219.52z"/>
		<path d="M225.3,60.02c0,0.25-0.2,0.45-0.45,0.45s-0.45-0.2-0.45-0.45c0-0.24,0.2-0.45,0.45-0.45S225.3,59.78,225.3,60.02z
			 M225.09,66.79h-0.5v-5.08h0.5V66.79z"/>
		<path d="M227.48,62.5h0.02c0.3-0.56,0.85-0.9,1.51-0.9c1.31,0,1.67,0.81,1.67,2.12v3.07h-0.5v-3.07c0-0.91-0.11-1.66-1.22-1.66
			c-1.28,0-1.49,1.19-1.49,2.22v2.51h-0.5v-5.08h0.5V62.5z"/>
		<path d="M236.92,66.55c0,0.78-0.02,1.49-0.51,2.16c-0.47,0.65-1.22,0.98-2.02,0.98c-1.33,0-2.43-0.78-2.51-2.18h0.5
			c0.06,1.06,0.95,1.72,1.97,1.72c0.64,0,1.25-0.22,1.63-0.76c0.4-0.58,0.45-1.24,0.45-1.92v-0.63h-0.02
			c-0.45,0.6-1.21,0.99-1.98,0.99c-1.47,0-2.46-1.24-2.46-2.66c0-1.46,1.05-2.64,2.53-2.64c0.83,0,1.44,0.35,1.92,0.99h0.02v-0.88
			h0.5V66.55z M232.45,64.22c0,1.17,0.77,2.22,2,2.22c1.3,0,2-1.06,2-2.28c0-1.18-0.8-2.1-2.04-2.1
			C233.26,62.06,232.45,63.12,232.45,64.22z"/>
		<path d="M246.49,66.79H246v-0.91h-0.02c-0.37,0.65-1.19,1.02-1.94,1.02c-1.54,0-2.51-1.2-2.51-2.68s0.96-2.62,2.49-2.62
			c0.78,0,1.53,0.35,1.96,0.99H246v-0.88h0.5V66.79z M242.02,64.22c0,1.17,0.77,2.22,2,2.22c1.3,0,2-1.06,2-2.28
			c0-1.18-0.8-2.1-2.04-2.1C242.83,62.06,242.02,63.12,242.02,64.22z"/>
		<path d="M248.68,62.5h0.02c0.3-0.56,0.85-0.9,1.51-0.9c1.31,0,1.67,0.81,1.67,2.12v3.07h-0.5v-3.07c0-0.91-0.11-1.66-1.22-1.66
			c-1.28,0-1.49,1.19-1.49,2.22v2.51h-0.5v-5.08h0.5V62.5z"/>
		<path d="M257.54,65.88h-0.02c-0.37,0.65-1.19,1.02-1.94,1.02c-1.54,0-2.51-1.2-2.51-2.68s0.96-2.62,2.49-2.62
			c0.78,0,1.53,0.35,1.96,0.99h0.02v-4.87h0.5v9.08h-0.5V65.88z M257.58,64.17c0-1.18-0.8-2.1-2.04-2.1c-1.17,0-1.97,1.06-1.97,2.16
			c0,1.17,0.77,2.22,2,2.22C256.87,66.44,257.58,65.39,257.58,64.17z"/>
		<path d="M263.69,66.79h-0.5v-4.62h-0.56v-0.46h0.56V59.9h0.5v1.82h0.89v0.46h-0.89V66.79z"/>
		<path d="M265.94,57.72v4.79h0.02c0.3-0.56,0.85-0.9,1.51-0.9c1.31,0,1.67,0.81,1.67,2.12v3.07h-0.5v-3.07
			c0-0.91-0.11-1.66-1.22-1.66c-1.28,0-1.49,1.19-1.49,2.22v2.51h-0.5v-9.08H265.94z"/>
		<path d="M270.83,64.3c-0.03,1.29,0.86,2.14,2.04,2.14c0.79,0,1.43-0.47,1.79-1.15l0.42,0.24c-0.46,0.88-1.28,1.38-2.28,1.38
			c-1.51,0-2.46-1.22-2.46-2.66c0-1.42,0.98-2.64,2.46-2.64c1.54,0,2.45,1.23,2.44,2.7H270.83z M274.75,63.84
			c-0.12-0.94-0.89-1.77-1.94-1.77c-1.03,0-1.89,0.81-1.98,1.77H274.75z"/>
		<path d="M280.35,66.79h-0.5v-4.62h-0.56v-0.46h0.56v-2.28c0-0.37,0.01-0.91,0.2-1.24c0.23-0.41,0.67-0.62,1.13-0.62
			c0.15,0,0.3,0.02,0.44,0.08v0.45c-0.13-0.02-0.26-0.07-0.41-0.07c-0.86,0-0.87,0.86-0.87,1.5v2.18h1.28v0.46h-1.28V66.79z
			 M282.99,66.79h-0.5v-9.08h0.5V66.79z"/>
		<path d="M285.57,60.02c0,0.25-0.2,0.45-0.45,0.45s-0.45-0.2-0.45-0.45c0-0.24,0.2-0.45,0.45-0.45S285.57,59.78,285.57,60.02z
			 M285.36,66.79h-0.5v-5.08h0.5V66.79z"/>
		<path d="M287.75,62.62h0.02c0.37-0.65,1.19-1.02,1.94-1.02c1.55,0,2.51,1.21,2.51,2.7s-0.96,2.61-2.49,2.61
			c-0.78,0-1.54-0.34-1.96-0.99h-0.02v3.85h-0.5v-8.05h0.5V62.62z M287.72,64.36c0,1.19,0.8,2.08,2.02,2.08c1.19,0,1.98-1,1.98-2.13
			c0-1.17-0.76-2.24-2-2.24C288.42,62.06,287.72,63.14,287.72,64.36z"/>
		<path d="M297.72,60.02c0,0.25-0.2,0.45-0.45,0.45s-0.45-0.2-0.45-0.45c0-0.24,0.2-0.45,0.45-0.45S297.72,59.78,297.72,60.02z
			 M297.51,66.79h-0.5v-5.08h0.5V66.79z"/>
		<path d="M301.54,62.64c-0.17-0.35-0.5-0.57-0.89-0.57c-0.43,0-0.87,0.35-0.87,0.79c0,1.22,2.48,0.63,2.48,2.46
			c0,0.94-0.73,1.58-1.64,1.58c-0.85,0-1.54-0.52-1.75-1.34l0.48-0.15c0.19,0.6,0.59,1.03,1.27,1.03c0.64,0,1.14-0.51,1.14-1.14
			c0-0.63-0.48-0.83-0.99-1c-0.69-0.25-1.48-0.55-1.48-1.41c0-0.77,0.65-1.29,1.39-1.29c0.52,0,1.08,0.34,1.3,0.81L301.54,62.64z"/>
		<path d="M307.83,60.02c0,0.25-0.2,0.45-0.45,0.45s-0.45-0.2-0.45-0.45c0-0.24,0.2-0.45,0.45-0.45S307.83,59.78,307.83,60.02z
			 M307.62,69.77h-0.5v-8.05h0.5V69.77z"/>
		<path d="M313.09,61.71v3.05c0,0.52,0.01,1.03-0.31,1.46c-0.35,0.46-0.95,0.68-1.52,0.68s-1.17-0.22-1.52-0.68
			c-0.32-0.43-0.31-0.95-0.31-1.46v-3.05h0.5v2.87c0,0.98,0.11,1.86,1.33,1.86c1.22,0,1.33-0.88,1.33-1.86v-2.87H313.09z"/>
		<path d="M316.84,62.64c-0.17-0.35-0.5-0.57-0.89-0.57c-0.43,0-0.87,0.35-0.87,0.79c0,1.22,2.48,0.63,2.48,2.46
			c0,0.94-0.73,1.58-1.64,1.58c-0.85,0-1.54-0.52-1.75-1.34l0.48-0.15c0.19,0.6,0.59,1.03,1.27,1.03c0.64,0,1.14-0.51,1.14-1.14
			c0-0.63-0.48-0.83-0.99-1c-0.69-0.25-1.48-0.55-1.48-1.41c0-0.77,0.65-1.29,1.39-1.29c0.52,0,1.08,0.34,1.3,0.81L316.84,62.64z"/>
		<path d="M319.38,66.79h-0.5v-4.62h-0.56v-0.46h0.56V59.9h0.5v1.82h0.89v0.46h-0.89V66.79z"/>
		<path d="M189.07,79.75c0,0.78-0.02,1.49-0.51,2.16c-0.47,0.65-1.22,0.98-2.02,0.98c-1.33,0-2.43-0.78-2.51-2.18h0.49
			c0.06,1.06,0.95,1.72,1.97,1.72c0.64,0,1.25-0.22,1.63-0.76c0.4-0.58,0.45-1.24,0.45-1.92v-0.63h-0.02
			c-0.45,0.6-1.21,0.99-1.98,0.99c-1.47,0-2.46-1.24-2.46-2.66c0-1.46,1.05-2.64,2.53-2.64c0.83,0,1.44,0.35,1.92,0.99h0.02v-0.88
			h0.5V79.75z M184.6,77.42c0,1.17,0.77,2.22,2,2.22c1.3,0,2-1.06,2-2.28c0-1.18-0.8-2.1-2.04-2.1
			C185.41,75.26,184.6,76.32,184.6,77.42z"/>
		<path d="M195.58,77.45c0,1.51-1.18,2.65-2.67,2.65c-1.46,0-2.64-1.2-2.64-2.64c0-1.46,1.17-2.66,2.64-2.66
			C194.41,74.8,195.58,75.95,195.58,77.45z M190.76,77.46c0,1.16,0.91,2.18,2.11,2.18c1.24,0,2.21-0.95,2.21-2.18
			c0-1.25-0.96-2.2-2.21-2.2C191.67,75.26,190.76,76.29,190.76,77.46z"/>
		<path d="M197.67,73.22c0,0.25-0.2,0.45-0.45,0.45s-0.45-0.2-0.45-0.45c0-0.24,0.2-0.45,0.45-0.45S197.67,72.98,197.67,73.22z
			 M197.46,79.99h-0.5v-5.08h0.5V79.99z"/>
		<path d="M199.85,75.7h0.02c0.3-0.56,0.85-0.9,1.51-0.9c1.31,0,1.67,0.81,1.67,2.12v3.07h-0.5v-3.07c0-0.91-0.11-1.66-1.22-1.66
			c-1.28,0-1.49,1.19-1.49,2.22v2.51h-0.5v-5.08h0.5V75.7z"/>
		<path d="M209.29,79.75c0,0.78-0.02,1.49-0.51,2.16c-0.47,0.65-1.22,0.98-2.02,0.98c-1.33,0-2.43-0.78-2.51-2.18h0.5
			c0.06,1.06,0.95,1.72,1.97,1.72c0.64,0,1.25-0.22,1.63-0.76c0.4-0.58,0.45-1.24,0.45-1.92v-0.63h-0.02
			c-0.45,0.6-1.21,0.99-1.98,0.99c-1.47,0-2.46-1.24-2.46-2.66c0-1.46,1.05-2.64,2.53-2.64c0.83,0,1.44,0.35,1.92,0.99h0.02v-0.88
			h0.5V79.75z M204.82,77.42c0,1.17,0.77,2.22,2,2.22c1.3,0,2-1.06,2-2.28c0-1.18-0.8-2.1-2.04-2.1
			C205.63,75.26,204.82,76.32,204.82,77.42z"/>
		<path d="M214.94,79.99h-0.5v-4.62h-0.56v-0.46h0.56V73.1h0.5v1.82h0.89v0.46h-0.89V79.99z"/>
		<path d="M221.51,77.45c0,1.51-1.18,2.65-2.67,2.65c-1.46,0-2.64-1.2-2.64-2.64c0-1.46,1.17-2.66,2.64-2.66
			C220.33,74.8,221.51,75.95,221.51,77.45z M216.69,77.46c0,1.16,0.91,2.18,2.11,2.18c1.24,0,2.21-0.95,2.21-2.18
			c0-1.25-0.96-2.2-2.21-2.2C217.59,75.26,216.69,76.29,216.69,77.46z"/>
		<path d="M226.61,70.92v4.79h0.02c0.3-0.56,0.85-0.9,1.51-0.9c1.31,0,1.67,0.81,1.67,2.12v3.07h-0.5v-3.07
			c0-0.91-0.11-1.66-1.22-1.66c-1.28,0-1.49,1.19-1.49,2.22v2.51h-0.5v-9.08H226.61z"/>
		<path d="M235.97,79.99h-0.5v-0.91h-0.02c-0.37,0.65-1.19,1.02-1.94,1.02c-1.54,0-2.51-1.2-2.51-2.68s0.96-2.62,2.49-2.62
			c0.78,0,1.53,0.35,1.96,0.99h0.02v-0.88h0.5V79.99z M231.51,77.42c0,1.17,0.77,2.22,2,2.22c1.3,0,2-1.06,2-2.28
			c0-1.18-0.8-2.1-2.04-2.1C232.31,75.26,231.51,76.32,231.51,77.42z"/>
		<path d="M238.16,75.82h0.02c0.37-0.65,1.19-1.02,1.94-1.02c1.55,0,2.51,1.21,2.51,2.7s-0.96,2.61-2.49,2.61
			c-0.78,0-1.54-0.34-1.96-0.99h-0.02v3.85h-0.5v-8.05h0.5V75.82z M238.13,77.56c0,1.19,0.8,2.08,2.02,2.08c1.19,0,1.98-1,1.98-2.13
			c0-1.17-0.76-2.24-2-2.24C238.83,75.26,238.13,76.34,238.13,77.56z"/>
		<path d="M244.32,75.82h0.02c0.37-0.65,1.19-1.02,1.94-1.02c1.55,0,2.51,1.21,2.51,2.7s-0.96,2.61-2.49,2.61
			c-0.78,0-1.54-0.34-1.96-0.99h-0.02v3.85h-0.5v-8.05h0.5V75.82z M244.29,77.56c0,1.19,0.8,2.08,2.02,2.08c1.19,0,1.98-1,1.98-2.13
			c0-1.17-0.76-2.24-2-2.24C245,75.26,244.29,76.34,244.29,77.56z"/>
		<path d="M249.99,77.5c-0.03,1.29,0.86,2.14,2.04,2.14c0.79,0,1.43-0.47,1.79-1.15l0.42,0.24c-0.46,0.88-1.28,1.38-2.28,1.38
			c-1.51,0-2.46-1.22-2.46-2.66c0-1.42,0.98-2.64,2.46-2.64c1.54,0,2.45,1.23,2.44,2.7H249.99z M253.91,77.04
			c-0.12-0.94-0.89-1.77-1.94-1.77c-1.03,0-1.89,0.81-1.98,1.77H253.91z"/>
		<path d="M256.09,75.7h0.02c0.3-0.56,0.85-0.9,1.51-0.9c1.31,0,1.67,0.81,1.67,2.12v3.07h-0.5v-3.07c0-0.91-0.11-1.66-1.22-1.66
			c-1.28,0-1.49,1.19-1.49,2.22v2.51h-0.5v-5.08h0.5V75.7z"/>
		<path d="M264.4,70.92h0.5v4.87h0.02c0.43-0.64,1.18-0.99,1.96-0.99c1.52,0,2.49,1.13,2.49,2.62s-0.97,2.68-2.51,2.68
			c-0.75,0-1.56-0.37-1.94-1.02h-0.02v0.91h-0.5V70.92z M268.87,77.42c0-1.11-0.8-2.16-1.98-2.16c-1.29,0-2.02,0.96-2.02,2.17
			c0,1.19,0.75,2.21,2,2.21C268.11,79.64,268.87,78.59,268.87,77.42z"/>
		<path d="M269.63,74.91h0.52l2.17,4.6l1.95-4.6h0.51l-3.41,8.05h-0.51l1.22-2.88L269.63,74.91z"/>
		<path d="M279.92,73.22c0,0.25-0.2,0.45-0.45,0.45s-0.45-0.2-0.45-0.45c0-0.24,0.2-0.45,0.45-0.45S279.92,72.98,279.92,73.22z
			 M279.71,79.99h-0.5v-5.08h0.5V79.99z"/>
		<path d="M282.15,79.99h-0.5v-4.62h-0.56v-0.46h0.56V73.1h0.5v1.82h0.89v0.46h-0.89V79.99z"/>
		<path d="M286.04,75.84c-0.17-0.35-0.5-0.57-0.89-0.57c-0.43,0-0.87,0.35-0.87,0.79c0,1.22,2.48,0.63,2.48,2.46
			c0,0.94-0.73,1.58-1.64,1.58c-0.85,0-1.54-0.52-1.75-1.34l0.48-0.15c0.19,0.6,0.59,1.03,1.27,1.03c0.64,0,1.14-0.51,1.14-1.14
			c0-0.63-0.48-0.83-0.99-1c-0.69-0.25-1.48-0.55-1.48-1.41c0-0.77,0.65-1.29,1.39-1.29c0.52,0,1.08,0.34,1.3,0.81L286.04,75.84z"/>
		<path d="M288.03,77.5c-0.03,1.29,0.86,2.14,2.04,2.14c0.79,0,1.43-0.47,1.79-1.15l0.42,0.24c-0.46,0.88-1.28,1.38-2.28,1.38
			c-1.51,0-2.46-1.22-2.46-2.66c0-1.42,0.98-2.64,2.46-2.64c1.54,0,2.45,1.23,2.44,2.7H288.03z M291.94,77.04
			c-0.12-0.94-0.89-1.77-1.94-1.77c-1.03,0-1.89,0.81-1.98,1.77H291.94z"/>
		<path d="M294.13,79.99h-0.5v-9.08h0.5V79.99z"/>
		<path d="M296.32,79.99h-0.5v-4.62h-0.56v-0.46h0.56v-2.28c0-0.37,0.01-0.91,0.2-1.24c0.23-0.41,0.67-0.62,1.13-0.62
			c0.15,0,0.3,0.02,0.44,0.08v0.45c-0.13-0.02-0.26-0.07-0.41-0.07c-0.86,0-0.87,0.86-0.87,1.5v2.18h1.28v0.46h-1.28V79.99z"/>
		<path d="M299.77,79.65c0,0.25-0.2,0.45-0.45,0.45s-0.45-0.2-0.45-0.45s0.2-0.45,0.45-0.45S299.77,79.4,299.77,79.65z"/>
	</g>
	<g>
		<rect x="308.7" y="133.93" class="st17" width="82.28" height="120.89"/>
		<path d="M310.11,143.01h-0.53v-8.29h0.53V143.01z"/>
		<path d="M312.35,143.01h-0.49v-4.62h-0.56v-0.46h0.56v-2.28c0-0.37,0.01-0.91,0.2-1.24c0.23-0.41,0.67-0.62,1.13-0.62
			c0.15,0,0.3,0.02,0.44,0.08v0.45c-0.13-0.02-0.26-0.07-0.41-0.07c-0.86,0-0.87,0.86-0.87,1.5v2.18h1.28v0.46h-1.28V143.01z"/>
		<path d="M316.98,137.92h0.52l2.17,4.6l1.95-4.6h0.51l-3.41,8.05h-0.51l1.22-2.88L316.98,137.92z"/>
		<path d="M327.78,140.46c0,1.51-1.18,2.65-2.67,2.65c-1.46,0-2.64-1.2-2.64-2.64c0-1.46,1.17-2.66,2.64-2.66
			C326.6,137.81,327.78,138.96,327.78,140.46z M322.96,140.48c0,1.16,0.91,2.18,2.11,2.18c1.24,0,2.21-0.95,2.21-2.18
			c0-1.25-0.96-2.2-2.21-2.2C323.86,138.28,322.96,139.3,322.96,140.48z"/>
		<path d="M332.55,137.92v3.05c0,0.52,0.01,1.03-0.31,1.46c-0.35,0.46-0.95,0.68-1.52,0.68s-1.17-0.22-1.52-0.68
			c-0.32-0.43-0.31-0.95-0.31-1.46v-3.05h0.5v2.87c0,0.98,0.11,1.86,1.33,1.86s1.33-0.88,1.33-1.86v-2.87H332.55z"/>
		<path d="M342.4,140.46c0,1.51-1.18,2.65-2.67,2.65c-1.46,0-2.64-1.2-2.64-2.64c0-1.46,1.17-2.66,2.64-2.66
			C341.22,137.81,342.4,138.96,342.4,140.46z M337.58,140.48c0,1.16,0.91,2.18,2.11,2.18c1.24,0,2.21-0.95,2.21-2.18
			c0-1.25-0.96-2.2-2.21-2.2C338.48,138.28,337.58,139.3,337.58,140.48z"/>
		<path d="M344.09,138.71h0.02c0.3-0.56,0.85-0.9,1.51-0.9c1.31,0,1.67,0.81,1.67,2.12v3.07h-0.5v-3.07c0-0.91-0.11-1.66-1.22-1.66
			c-1.28,0-1.49,1.19-1.49,2.22v2.51h-0.49v-5.08h0.49V138.71z"/>
		<path d="M349.48,143.01h-0.5v-9.08h0.5V143.01z"/>
		<path d="M350.25,137.92h0.52l2.17,4.6l1.95-4.6h0.51l-3.41,8.05h-0.51l1.22-2.88L350.25,137.92z"/>
		<path d="M360.14,138.84h0.02c0.38-0.65,1.19-1.02,1.94-1.02c1.55,0,2.51,1.21,2.51,2.7s-0.96,2.61-2.49,2.61
			c-0.78,0-1.54-0.34-1.96-0.99h-0.02v3.85h-0.5v-8.05h0.5V138.84z M360.11,140.57c0,1.19,0.8,2.08,2.02,2.08
			c1.19,0,1.98-1,1.98-2.13c0-1.17-0.76-2.24-2-2.24C360.81,138.28,360.11,139.35,360.11,140.57z"/>
		<path d="M369.38,137.92v3.05c0,0.52,0.01,1.03-0.31,1.46c-0.35,0.46-0.95,0.68-1.52,0.68s-1.17-0.22-1.52-0.68
			c-0.32-0.43-0.31-0.95-0.31-1.46v-3.05h0.5v2.87c0,0.98,0.11,1.86,1.33,1.86s1.33-0.88,1.33-1.86v-2.87H369.38z"/>
		<path d="M371.54,143.01h-0.49v-4.62h-0.56v-0.46h0.56v-1.82h0.49v1.82h0.89v0.46h-0.89V143.01z"/>
		<path d="M381.17,143.01h-0.49v-0.91h-0.02c-0.38,0.65-1.19,1.02-1.94,1.02c-1.54,0-2.51-1.2-2.51-2.68s0.96-2.62,2.49-2.62
			c0.78,0,1.53,0.35,1.96,0.99h0.02v-0.88h0.49V143.01z M376.7,140.43c0,1.17,0.77,2.22,2,2.22c1.3,0,2-1.06,2-2.28
			c0-1.18-0.8-2.1-2.04-2.1C377.51,138.28,376.7,139.33,376.7,140.43z"/>
		<path d="M310.04,156.21h-0.5v-9.08h0.5V156.21z"/>
		<path d="M312.62,149.43c0,0.25-0.2,0.45-0.45,0.45c-0.25,0-0.45-0.2-0.45-0.45c0-0.24,0.2-0.45,0.45-0.45
			C312.42,148.98,312.62,149.19,312.62,149.43z M312.41,156.21h-0.49v-5.08h0.49V156.21z"/>
		<path d="M314.86,156.21h-0.5v-4.62h-0.56v-0.46h0.56v-1.82h0.5v1.82h0.89v0.46h-0.89V156.21z"/>
		<path d="M317.15,156.21h-0.5v-4.62h-0.56v-0.46h0.56v-1.82h0.5v1.82h0.89v0.46h-0.89V156.21z"/>
		<path d="M319.4,156.21h-0.49v-9.08h0.49V156.21z"/>
		<path d="M321.09,153.71c-0.03,1.29,0.86,2.15,2.04,2.15c0.79,0,1.43-0.47,1.79-1.16l0.42,0.24c-0.46,0.88-1.28,1.38-2.28,1.38
			c-1.51,0-2.46-1.22-2.46-2.66c0-1.42,0.98-2.64,2.46-2.64c1.54,0,2.45,1.23,2.44,2.7H321.09z M325.01,153.25
			c-0.12-0.94-0.89-1.77-1.94-1.77c-1.03,0-1.89,0.81-1.98,1.77H325.01z"/>
		<path d="M330.11,153.71c-0.03,1.29,0.86,2.15,2.04,2.15c0.79,0,1.43-0.47,1.79-1.16l0.42,0.24c-0.46,0.88-1.28,1.38-2.28,1.38
			c-1.51,0-2.46-1.22-2.46-2.66c0-1.42,0.98-2.64,2.46-2.64c1.54,0,2.45,1.23,2.44,2.7H330.11z M334.03,153.25
			c-0.12-0.94-0.89-1.77-1.94-1.77c-1.04,0-1.89,0.81-1.98,1.77H334.03z"/>
		<path d="M336.22,156.21h-0.5v-4.62h-0.56v-0.46h0.56v-2.28c0-0.37,0.01-0.91,0.2-1.24c0.23-0.41,0.67-0.62,1.13-0.62
			c0.15,0,0.3,0.02,0.44,0.08v0.45c-0.13-0.02-0.26-0.07-0.41-0.07c-0.86,0-0.87,0.86-0.87,1.5v2.18h1.28v0.46h-1.28V156.21z"/>
		<path d="M339.08,156.21h-0.5v-4.62h-0.56v-0.46h0.56v-2.28c0-0.37,0.01-0.91,0.2-1.24c0.23-0.41,0.67-0.62,1.13-0.62
			c0.15,0,0.3,0.02,0.44,0.08v0.45c-0.13-0.02-0.26-0.07-0.41-0.07c-0.86,0-0.87,0.86-0.87,1.5v2.18h1.28v0.46h-1.28V156.21z"/>
		<path d="M346.04,153.67c0,1.51-1.18,2.65-2.67,2.65c-1.46,0-2.64-1.2-2.64-2.64c0-1.46,1.17-2.66,2.64-2.66
			C344.86,151.01,346.04,152.16,346.04,153.67z M341.22,153.68c0,1.16,0.91,2.18,2.11,2.18c1.24,0,2.21-0.95,2.21-2.18
			c0-1.25-0.96-2.2-2.21-2.2C342.12,151.48,341.22,152.5,341.22,153.68z"/>
		<path d="M347.73,151.78h0.02c0.2-0.46,0.56-0.77,1.1-0.77c0.2,0,0.36,0.04,0.54,0.12l-0.27,0.44c-0.12-0.07-0.22-0.1-0.35-0.1
			c-1.11,0-1.04,1.39-1.04,2.13v2.6h-0.5v-5.08h0.5V151.78z"/>
		<path d="M351.06,156.21h-0.49v-4.62h-0.56v-0.46h0.56v-1.82h0.49v1.82h0.89v0.46h-0.89V156.21z"/>
		<path d="M354.14,155.55l-0.91,2.49l-0.33-0.12l0.75-2.52L354.14,155.55z"/>
		<path d="M358.71,151.12h0.52l2.17,4.6l1.95-4.6h0.51l-3.41,8.05h-0.51l1.22-2.88L358.71,151.12z"/>
		<path d="M369.51,153.67c0,1.51-1.18,2.65-2.67,2.65c-1.46,0-2.64-1.2-2.64-2.64c0-1.46,1.17-2.66,2.64-2.66
			C368.33,151.01,369.51,152.16,369.51,153.67z M364.69,153.68c0,1.16,0.91,2.18,2.11,2.18c1.24,0,2.21-0.95,2.21-2.18
			c0-1.25-0.96-2.2-2.21-2.2C365.6,151.48,364.69,152.5,364.69,153.68z"/>
		<path d="M374.29,151.12v3.05c0,0.52,0.01,1.03-0.31,1.46c-0.35,0.46-0.95,0.68-1.52,0.68s-1.17-0.22-1.52-0.68
			c-0.32-0.43-0.31-0.95-0.31-1.46v-3.05h0.5V154c0,0.98,0.11,1.86,1.33,1.86s1.33-0.88,1.33-1.86v-2.87H374.29z"/>
		<path d="M314.01,169.41h-0.49v-0.91h-0.02c-0.38,0.65-1.19,1.02-1.94,1.02c-1.54,0-2.51-1.2-2.51-2.68s0.96-2.62,2.49-2.62
			c0.78,0,1.53,0.35,1.96,0.99h0.02v-0.88h0.49V169.41z M309.54,166.83c0,1.17,0.77,2.22,2,2.22c1.3,0,2-1.06,2-2.28
			c0-1.18-0.8-2.1-2.04-2.1C310.35,164.67,309.54,165.73,309.54,166.83z"/>
		<path d="M316.2,164.98h0.02c0.2-0.46,0.56-0.77,1.1-0.77c0.2,0,0.36,0.04,0.54,0.12l-0.27,0.44c-0.12-0.07-0.22-0.1-0.35-0.1
			c-1.11,0-1.04,1.39-1.04,2.13v2.6h-0.5v-5.08h0.5V164.98z"/>
		<path d="M318.76,166.91c-0.03,1.29,0.86,2.15,2.04,2.15c0.79,0,1.43-0.47,1.79-1.16l0.42,0.24c-0.46,0.88-1.28,1.38-2.28,1.38
			c-1.51,0-2.46-1.22-2.46-2.66c0-1.42,0.98-2.64,2.46-2.64c1.54,0,2.45,1.23,2.44,2.7H318.76z M322.68,166.45
			c-0.12-0.94-0.89-1.77-1.94-1.77c-1.04,0-1.89,0.81-1.98,1.77H322.68z"/>
		<path d="M328.28,165.11h0.02c0.3-0.56,0.85-0.9,1.51-0.9c1.31,0,1.67,0.81,1.67,2.12v3.07h-0.49v-3.07c0-0.91-0.11-1.66-1.22-1.66
			c-1.28,0-1.48,1.19-1.48,2.22v2.51h-0.5v-5.08h0.5V165.11z"/>
		<path d="M337.99,166.86c0,1.51-1.18,2.65-2.67,2.65c-1.46,0-2.64-1.2-2.64-2.64c0-1.46,1.17-2.66,2.64-2.66
			C336.81,164.21,337.99,165.36,337.99,166.86z M333.17,166.88c0,1.16,0.91,2.18,2.11,2.18c1.24,0,2.21-0.95,2.21-2.18
			c0-1.25-0.96-2.2-2.21-2.2C334.07,164.67,333.17,165.7,333.17,166.88z"/>
		<path d="M339.74,169.41h-0.49v-4.62h-0.56v-0.46h0.56v-1.82h0.49v1.82h0.89v0.46h-0.89V169.41z"/>
		<path d="M349.44,169.16c0,0.78-0.02,1.49-0.51,2.16c-0.47,0.65-1.22,0.98-2.03,0.98c-1.33,0-2.43-0.78-2.51-2.18h0.49
			c0.06,1.06,0.95,1.72,1.97,1.72c0.64,0,1.25-0.22,1.63-0.76c0.4-0.58,0.45-1.24,0.45-1.92v-0.63h-0.02
			c-0.45,0.6-1.21,0.99-1.98,0.99c-1.47,0-2.46-1.24-2.46-2.66c0-1.46,1.05-2.64,2.53-2.64c0.82,0,1.44,0.35,1.91,0.99h0.02v-0.88
			h0.5V169.16z M344.97,166.83c0,1.17,0.77,2.22,2,2.22c1.3,0,2-1.06,2-2.28c0-1.18-0.8-2.1-2.04-2.1
			C345.78,164.67,344.97,165.73,344.97,166.83z"/>
		<path d="M355.95,166.86c0,1.51-1.18,2.65-2.67,2.65c-1.46,0-2.64-1.2-2.64-2.64c0-1.46,1.17-2.66,2.64-2.66
			C354.77,164.21,355.95,165.36,355.95,166.86z M351.13,166.88c0,1.16,0.91,2.18,2.11,2.18c1.24,0,2.21-0.95,2.21-2.18
			c0-1.25-0.96-2.2-2.21-2.2C352.04,164.67,351.13,165.7,351.13,166.88z"/>
		<path d="M358.04,162.63c0,0.25-0.2,0.45-0.45,0.45c-0.25,0-0.45-0.2-0.45-0.45c0-0.24,0.2-0.45,0.45-0.45
			C357.84,162.18,358.04,162.39,358.04,162.63z M357.83,169.41h-0.5v-5.08h0.5V169.41z"/>
		<path d="M360.22,165.11h0.02c0.3-0.56,0.85-0.9,1.51-0.9c1.31,0,1.67,0.81,1.67,2.12v3.07h-0.49v-3.07c0-0.91-0.11-1.66-1.22-1.66
			c-1.28,0-1.48,1.19-1.48,2.22v2.51h-0.5v-5.08h0.5V165.11z"/>
		<path d="M369.66,169.16c0,0.78-0.02,1.49-0.51,2.16c-0.47,0.65-1.22,0.98-2.02,0.98c-1.33,0-2.43-0.78-2.51-2.18h0.49
			c0.05,1.06,0.95,1.72,1.97,1.72c0.64,0,1.25-0.22,1.63-0.76c0.4-0.58,0.45-1.24,0.45-1.92v-0.63h-0.02
			c-0.45,0.6-1.21,0.99-1.98,0.99c-1.47,0-2.46-1.24-2.46-2.66c0-1.46,1.04-2.64,2.53-2.64c0.83,0,1.44,0.35,1.92,0.99h0.02v-0.88
			h0.49V169.16z M365.19,166.83c0,1.17,0.77,2.22,2,2.22c1.3,0,2-1.06,2-2.28c0-1.18-0.8-2.1-2.04-2.1
			C365.99,164.67,365.19,165.73,365.19,166.83z"/>
		<path d="M375.31,169.41h-0.49v-4.62h-0.56v-0.46h0.56v-1.82h0.49v1.82h0.89v0.46h-0.89V169.41z"/>
		<path d="M381.88,166.86c0,1.51-1.18,2.65-2.67,2.65c-1.46,0-2.64-1.2-2.64-2.64c0-1.46,1.17-2.66,2.64-2.66
			C380.7,164.21,381.88,165.36,381.88,166.86z M377.06,166.88c0,1.16,0.91,2.18,2.11,2.18c1.24,0,2.21-0.95,2.21-2.18
			c0-1.25-0.96-2.2-2.21-2.2C377.96,164.67,377.06,165.7,377.06,166.88z"/>
		<path d="M310.04,178.16h0.02c0.23-0.47,0.74-0.75,1.28-0.75c0.65,0,1.17,0.33,1.43,0.92c0.28-0.61,0.84-0.92,1.48-0.92
			c1.31,0,1.57,0.89,1.57,2v3.19h-0.5v-3.26c0-0.78-0.12-1.47-1.09-1.47c-1.06,0-1.31,0.92-1.31,1.8v2.93h-0.49v-3.14
			c0-0.79-0.14-1.59-1.13-1.59c-1.07,0-1.27,1.11-1.27,1.94v2.79h-0.5v-5.08h0.5V178.16z"/>
		<path d="M321.98,182.61h-0.49v-0.91h-0.02c-0.38,0.65-1.19,1.02-1.94,1.02c-1.54,0-2.51-1.2-2.51-2.68s0.96-2.62,2.49-2.62
			c0.78,0,1.53,0.35,1.96,0.99h0.02v-0.88h0.49V182.61z M317.52,180.03c0,1.17,0.77,2.22,2,2.22c1.3,0,2-1.06,2-2.28
			c0-1.18-0.8-2.1-2.04-2.1C318.32,177.88,317.52,178.93,317.52,180.03z"/>
		<path d="M324.17,179.68l2.09-2.16h0.64l-2.13,2.2l2.85,2.88h-0.65l-2.52-2.54l-0.28,0.29v2.25h-0.5v-9.08h0.5V179.68z"/>
		<path d="M328.37,180.11c-0.03,1.29,0.86,2.14,2.04,2.14c0.79,0,1.43-0.47,1.79-1.15l0.42,0.24c-0.46,0.88-1.28,1.38-2.28,1.38
			c-1.51,0-2.46-1.22-2.46-2.66c0-1.42,0.98-2.64,2.46-2.64c1.54,0,2.45,1.23,2.44,2.7H328.37z M332.29,179.65
			c-0.12-0.94-0.89-1.77-1.94-1.77c-1.03,0-1.89,0.81-1.98,1.77H332.29z"/>
		<path d="M338.29,175.83c0,0.25-0.2,0.45-0.45,0.45c-0.25,0-0.45-0.2-0.45-0.45c0-0.24,0.2-0.45,0.45-0.45
			C338.09,175.38,338.29,175.59,338.29,175.83z M338.08,182.61h-0.49v-5.08h0.49V182.61z"/>
		<path d="M340.52,182.61h-0.5v-4.62h-0.56v-0.46h0.56v-1.82h0.5v1.82h0.89v0.46h-0.89V182.61z"/>
		<path d="M350.14,182.61h-0.5v-0.91h-0.02c-0.37,0.65-1.19,1.02-1.94,1.02c-1.54,0-2.51-1.2-2.51-2.68s0.96-2.62,2.49-2.62
			c0.78,0,1.53,0.35,1.96,0.99h0.02v-0.88h0.5V182.61z M345.68,180.03c0,1.17,0.77,2.22,2,2.22c1.3,0,2-1.06,2-2.28
			c0-1.18-0.8-2.1-2.04-2.1C346.48,177.88,345.68,178.93,345.68,180.03z"/>
		<path d="M352.33,182.61h-0.49v-9.08h0.49V182.61z"/>
		<path d="M354.52,182.61h-0.5v-9.08h0.5V182.61z"/>
		<path d="M360.18,182.61h-0.5v-4.62h-0.56v-0.46h0.56v-1.82h0.5v1.82h0.89v0.46h-0.89V182.61z"/>
		<path d="M362.42,173.53v4.79h0.02c0.3-0.56,0.85-0.9,1.51-0.9c1.31,0,1.67,0.81,1.67,2.12v3.07h-0.5v-3.07
			c0-0.91-0.11-1.66-1.22-1.66c-1.28,0-1.49,1.19-1.49,2.22v2.51h-0.49v-9.08H362.42z"/>
		<path d="M367.31,180.11c-0.03,1.29,0.86,2.14,2.04,2.14c0.79,0,1.43-0.47,1.79-1.15l0.42,0.24c-0.46,0.88-1.28,1.38-2.28,1.38
			c-1.51,0-2.46-1.22-2.46-2.66c0-1.42,0.98-2.64,2.46-2.64c1.54,0,2.45,1.23,2.44,2.7H367.31z M371.23,179.65
			c-0.12-0.94-0.89-1.77-1.94-1.77c-1.03,0-1.89,0.81-1.98,1.77H371.23z"/>
		<path d="M311.05,194.89l1.79-4.44l1.8,4.44l1.76-4.17h0.51l-2.3,5.36l-1.79-4.39l-1.78,4.39l-2.29-5.36h0.51L311.05,194.89z"/>
		<path d="M322.28,195.81h-0.5v-0.91h-0.02c-0.37,0.65-1.19,1.02-1.94,1.02c-1.54,0-2.51-1.2-2.51-2.68s0.96-2.62,2.49-2.62
			c0.78,0,1.53,0.35,1.96,0.99h0.02v-0.88h0.5V195.81z M317.81,193.23c0,1.17,0.77,2.22,2,2.22c1.3,0,2-1.06,2-2.28
			c0-1.18-0.8-2.1-2.04-2.1C318.62,191.08,317.81,192.13,317.81,193.23z"/>
		<path d="M323.05,190.72h0.52l2.17,4.6l1.95-4.6h0.51l-3.41,8.05h-0.51l1.22-2.88L323.05,190.72z"/>
		<path d="M336.91,195.81h-0.49v-0.91h-0.02c-0.38,0.65-1.19,1.02-1.94,1.02c-1.54,0-2.51-1.2-2.51-2.68s0.96-2.62,2.49-2.62
			c0.78,0,1.53,0.35,1.96,0.99h0.02v-0.88h0.49V195.81z M332.44,193.23c0,1.17,0.77,2.22,2,2.22c1.3,0,2-1.06,2-2.28
			c0-1.18-0.8-2.1-2.04-2.1C333.25,191.08,332.44,192.13,332.44,193.23z"/>
		<path d="M339.1,191.38h0.02c0.2-0.46,0.56-0.77,1.1-0.77c0.2,0,0.36,0.04,0.54,0.12l-0.27,0.44c-0.12-0.07-0.22-0.1-0.35-0.1
			c-1.11,0-1.04,1.39-1.04,2.13v2.6h-0.5v-5.08h0.5V191.38z"/>
		<path d="M346.48,193.26c0,1.51-1.18,2.65-2.67,2.65c-1.46,0-2.64-1.2-2.64-2.64c0-1.46,1.17-2.66,2.64-2.66
			C345.3,190.61,346.48,191.76,346.48,193.26z M341.66,193.28c0,1.16,0.91,2.18,2.11,2.18c1.24,0,2.21-0.95,2.21-2.18
			c0-1.25-0.96-2.2-2.21-2.2C342.56,191.08,341.66,192.1,341.66,193.28z"/>
		<path d="M351.25,190.72v3.05c0,0.52,0.01,1.03-0.31,1.46c-0.35,0.46-0.95,0.68-1.52,0.68s-1.17-0.22-1.52-0.68
			c-0.32-0.43-0.31-0.95-0.31-1.46v-3.05h0.5v2.87c0,0.98,0.11,1.86,1.33,1.86s1.33-0.88,1.33-1.86v-2.87H351.25z"/>
		<path d="M353.37,191.51h0.02c0.3-0.56,0.85-0.9,1.51-0.9c1.31,0,1.67,0.81,1.67,2.12v3.07h-0.49v-3.07c0-0.91-0.11-1.66-1.22-1.66
			c-1.28,0-1.48,1.19-1.48,2.22v2.51h-0.5v-5.08h0.5V191.51z"/>
		<path d="M362.23,194.89h-0.02c-0.37,0.65-1.19,1.02-1.94,1.02c-1.54,0-2.51-1.2-2.51-2.68s0.96-2.62,2.49-2.62
			c0.78,0,1.53,0.35,1.96,0.99h0.02v-4.87h0.5v9.08h-0.5V194.89z M362.26,193.18c0-1.18-0.8-2.1-2.04-2.1
			c-1.17,0-1.97,1.06-1.97,2.16c0,1.17,0.77,2.22,2,2.22C361.56,195.45,362.26,194.4,362.26,193.18z"/>
		<path d="M365.73,195.46c0,0.25-0.2,0.45-0.45,0.45c-0.25,0-0.45-0.2-0.45-0.45s0.2-0.45,0.45-0.45
			C365.53,195.01,365.73,195.21,365.73,195.46z"/>
		<path d="M373.13,195.81h-0.53v-7.8h-2.14v-0.5h4.82v0.5h-2.14V195.81z"/>
		<path d="M376.69,186.73v4.79h0.02c0.3-0.56,0.85-0.9,1.51-0.9c1.31,0,1.67,0.81,1.67,2.12v3.07h-0.49v-3.07
			c0-0.91-0.11-1.66-1.22-1.66c-1.28,0-1.48,1.19-1.48,2.22v2.51h-0.5v-9.08H376.69z"/>
		<path d="M382.47,189.03c0,0.25-0.2,0.45-0.45,0.45c-0.25,0-0.45-0.2-0.45-0.45c0-0.24,0.2-0.45,0.45-0.45
			C382.27,188.58,382.47,188.79,382.47,189.03z M382.26,195.81h-0.49v-5.08h0.49V195.81z"/>
		<path d="M386.29,191.65c-0.17-0.35-0.5-0.57-0.89-0.57c-0.43,0-0.87,0.35-0.87,0.79c0,1.22,2.48,0.63,2.48,2.46
			c0,0.94-0.73,1.58-1.64,1.58c-0.85,0-1.54-0.52-1.75-1.34l0.48-0.15c0.19,0.6,0.59,1.03,1.27,1.03c0.64,0,1.14-0.51,1.14-1.14
			c0-0.63-0.48-0.83-0.99-1c-0.69-0.25-1.48-0.55-1.48-1.41c0-0.77,0.65-1.29,1.39-1.29c0.52,0,1.08,0.34,1.3,0.81L386.29,191.65z"
			/>
		<path d="M311.05,208.09l1.79-4.44l1.8,4.44l1.76-4.17h0.51l-2.3,5.36l-1.79-4.39l-1.78,4.39l-2.29-5.36h0.51L311.05,208.09z"/>
		<path d="M318.71,202.23c0,0.25-0.2,0.45-0.45,0.45c-0.25,0-0.45-0.2-0.45-0.45c0-0.24,0.2-0.45,0.45-0.45
			C318.51,201.78,318.71,201.99,318.71,202.23z M318.5,209.01H318v-5.08h0.49V209.01z"/>
		<path d="M320.88,209.01h-0.49v-9.08h0.49V209.01z"/>
		<path d="M323.07,209.01h-0.5v-9.08h0.5V209.01z"/>
		<path d="M332.07,205.1c-0.48-0.53-1.07-0.83-1.79-0.83c-1.2,0-2.1,1.02-2.1,2.18s0.89,2.2,2.09,2.2c0.73,0,1.41-0.35,1.87-0.91
			v0.67c-0.52,0.45-1.17,0.7-1.85,0.7c-1.51,0-2.61-1.18-2.61-2.66c0-1.47,1.12-2.64,2.62-2.64c0.66,0,1.27,0.2,1.77,0.63V205.1z"/>
		<path d="M337.89,209.01h-0.49v-0.91h-0.02c-0.38,0.65-1.19,1.02-1.94,1.02c-1.54,0-2.51-1.2-2.51-2.68s0.96-2.62,2.49-2.62
			c0.78,0,1.53,0.35,1.96,0.99h0.02v-0.88h0.49V209.01z M333.42,206.43c0,1.17,0.77,2.22,2,2.22c1.3,0,2-1.06,2-2.28
			c0-1.18-0.8-2.1-2.04-2.1C334.23,204.28,333.42,205.33,333.42,206.43z"/>
		<path d="M343.16,203.92v3.05c0,0.52,0.01,1.03-0.31,1.46c-0.35,0.46-0.95,0.68-1.52,0.68s-1.17-0.22-1.52-0.68
			c-0.32-0.43-0.31-0.95-0.31-1.46v-3.05h0.5v2.87c0,0.98,0.11,1.86,1.33,1.86s1.33-0.88,1.33-1.86v-2.87H343.16z"/>
		<path d="M346.91,204.85c-0.16-0.35-0.49-0.57-0.89-0.57c-0.43,0-0.87,0.35-0.87,0.79c0,1.22,2.47,0.63,2.47,2.46
			c0,0.94-0.72,1.58-1.64,1.58c-0.85,0-1.54-0.52-1.75-1.34l0.48-0.15c0.19,0.6,0.59,1.03,1.27,1.03c0.64,0,1.14-0.51,1.14-1.14
			c0-0.63-0.48-0.83-0.99-1c-0.69-0.25-1.48-0.55-1.48-1.41c0-0.77,0.65-1.29,1.38-1.29c0.52,0,1.08,0.34,1.3,0.81L346.91,204.85z"
			/>
		<path d="M348.9,206.51c-0.03,1.29,0.86,2.14,2.04,2.14c0.79,0,1.43-0.47,1.79-1.15l0.42,0.24c-0.46,0.88-1.28,1.38-2.28,1.38
			c-1.51,0-2.46-1.22-2.46-2.66c0-1.42,0.98-2.64,2.46-2.64c1.54,0,2.45,1.23,2.44,2.7H348.9z M352.82,206.05
			c-0.12-0.94-0.89-1.77-1.94-1.77c-1.03,0-1.89,0.81-1.98,1.77H352.82z"/>
		<path d="M362.39,209.01h-0.5v-0.91h-0.02c-0.37,0.65-1.19,1.02-1.94,1.02c-1.54,0-2.51-1.2-2.51-2.68s0.96-2.62,2.49-2.62
			c0.78,0,1.53,0.35,1.96,0.99h0.02v-0.88h0.5V209.01z M357.92,206.43c0,1.17,0.77,2.22,2,2.22c1.3,0,2-1.06,2-2.28
			c0-1.18-0.8-2.1-2.04-2.1C358.72,204.28,357.92,205.33,357.92,206.43z"/>
		<path d="M367.49,199.93h0.49v4.87h0.02c0.43-0.64,1.18-0.99,1.96-0.99c1.52,0,2.49,1.13,2.49,2.62s-0.97,2.68-2.51,2.68
			c-0.75,0-1.56-0.37-1.94-1.02h-0.02v0.91h-0.49V199.93z M371.96,206.43c0-1.11-0.8-2.16-1.98-2.16c-1.29,0-2.02,0.96-2.02,2.17
			c0,1.19,0.75,2.21,2,2.21C371.2,208.65,371.96,207.6,371.96,206.43z"/>
		<path d="M378.12,209.01h-0.5v-0.91h-0.02c-0.37,0.65-1.19,1.02-1.94,1.02c-1.54,0-2.51-1.2-2.51-2.68s0.96-2.62,2.49-2.62
			c0.78,0,1.53,0.35,1.96,0.99h0.02v-0.88h0.5V209.01z M373.65,206.43c0,1.17,0.77,2.22,2,2.22c1.3,0,2-1.06,2-2.28
			c0-1.18-0.8-2.1-2.04-2.1C374.45,204.28,373.65,205.33,373.65,206.43z"/>
		<path d="M383.78,208.09h-0.02c-0.37,0.65-1.19,1.02-1.94,1.02c-1.54,0-2.51-1.2-2.51-2.68s0.96-2.62,2.49-2.62
			c0.78,0,1.53,0.35,1.96,0.99h0.02v-4.87h0.5v9.08h-0.5V208.09z M383.81,206.38c0-1.18-0.8-2.1-2.04-2.1
			c-1.17,0-1.97,1.06-1.97,2.16c0,1.17,0.77,2.22,2,2.22C383.11,208.65,383.81,207.6,383.81,206.38z"/>
		<path d="M310.04,222.21h-0.5v-9.08h0.5V222.21z"/>
		<path d="M316.2,222.21h-0.5v-0.91h-0.02c-0.37,0.65-1.19,1.02-1.94,1.02c-1.54,0-2.51-1.2-2.51-2.68s0.96-2.62,2.49-2.62
			c0.78,0,1.53,0.35,1.96,0.99h0.02v-0.88h0.5V222.21z M311.73,219.63c0,1.17,0.77,2.22,2,2.22c1.3,0,2-1.06,2-2.28
			c0-1.18-0.8-2.1-2.04-2.1C312.53,217.48,311.73,218.53,311.73,219.63z"/>
		<path d="M318.38,217.92h0.02c0.3-0.56,0.85-0.9,1.51-0.9c1.31,0,1.67,0.81,1.67,2.12v3.07h-0.5v-3.07c0-0.91-0.11-1.66-1.22-1.66
			c-1.28,0-1.49,1.19-1.49,2.22v2.51h-0.49v-5.08h0.49V217.92z"/>
		<path d="M327.25,221.29h-0.02c-0.38,0.65-1.19,1.02-1.94,1.02c-1.54,0-2.51-1.2-2.51-2.68s0.96-2.62,2.49-2.62
			c0.78,0,1.53,0.35,1.96,0.99h0.02v-4.87h0.49v9.08h-0.49V221.29z M327.29,219.58c0-1.18-0.8-2.1-2.04-2.1
			c-1.17,0-1.97,1.06-1.97,2.16c0,1.17,0.77,2.22,2,2.22C326.58,221.85,327.29,220.8,327.29,219.58z"/>
		<path d="M330.33,215.43c0,0.25-0.2,0.45-0.45,0.45c-0.25,0-0.45-0.2-0.45-0.45c0-0.24,0.2-0.45,0.45-0.45
			C330.13,214.98,330.33,215.19,330.33,215.43z M330.12,222.21h-0.5v-5.08h0.5V222.21z"/>
		<path d="M332.51,217.92h0.02c0.3-0.56,0.85-0.9,1.51-0.9c1.31,0,1.67,0.81,1.67,2.12v3.07h-0.49v-3.07c0-0.91-0.11-1.66-1.22-1.66
			c-1.28,0-1.48,1.19-1.48,2.22v2.51h-0.5v-5.08h0.5V217.92z"/>
		<path d="M341.95,221.96c0,0.78-0.02,1.49-0.51,2.16c-0.47,0.65-1.22,0.98-2.02,0.98c-1.33,0-2.43-0.78-2.51-2.18h0.49
			c0.05,1.06,0.95,1.72,1.97,1.72c0.64,0,1.25-0.22,1.63-0.76c0.4-0.58,0.45-1.24,0.45-1.92v-0.63h-0.02
			c-0.45,0.6-1.21,0.99-1.98,0.99c-1.47,0-2.46-1.24-2.46-2.66c0-1.46,1.04-2.64,2.53-2.64c0.83,0,1.44,0.35,1.92,0.99h0.02v-0.88
			h0.49V221.96z M337.48,219.63c0,1.17,0.77,2.22,2,2.22c1.3,0,2-1.06,2-2.28c0-1.18-0.8-2.1-2.04-2.1
			C338.29,217.48,337.48,218.53,337.48,219.63z"/>
		<path d="M347.6,222.21h-0.49v-4.62h-0.56v-0.46h0.56v-1.82h0.49v1.82h0.89v0.46h-0.89V222.21z"/>
		<path d="M354.17,219.67c0,1.51-1.18,2.65-2.67,2.65c-1.46,0-2.64-1.2-2.64-2.64c0-1.46,1.17-2.66,2.64-2.66
			C352.99,217.01,354.17,218.16,354.17,219.67z M349.35,219.68c0,1.16,0.91,2.18,2.11,2.18c1.24,0,2.21-0.95,2.21-2.18
			c0-1.25-0.96-2.2-2.21-2.2C350.25,217.48,349.35,218.5,349.35,219.68z"/>
		<path d="M359.33,222.21h-0.5v-4.62h-0.56v-0.46h0.56v-1.82h0.5v1.82h0.89v0.46h-0.89V222.21z"/>
		<path d="M361.57,213.13v4.79h0.02c0.3-0.56,0.85-0.9,1.51-0.9c1.31,0,1.67,0.81,1.67,2.12v3.07h-0.5v-3.07
			c0-0.91-0.11-1.66-1.22-1.66c-1.28,0-1.49,1.19-1.49,2.22v2.51h-0.49v-9.08H361.57z"/>
		<path d="M366.46,219.71c-0.03,1.29,0.86,2.15,2.04,2.15c0.79,0,1.43-0.47,1.79-1.16l0.42,0.24c-0.46,0.88-1.28,1.38-2.28,1.38
			c-1.51,0-2.46-1.22-2.46-2.66c0-1.42,0.98-2.64,2.46-2.64c1.54,0,2.45,1.23,2.44,2.7H366.46z M370.38,219.25
			c-0.12-0.94-0.89-1.77-1.94-1.77c-1.03,0-1.89,0.81-1.98,1.77H370.38z"/>
		<path d="M310.04,235.41h-0.5v-4.62h-0.56v-0.46h0.56v-2.28c0-0.37,0.01-0.91,0.2-1.24c0.23-0.41,0.67-0.62,1.13-0.62
			c0.15,0,0.3,0.02,0.44,0.08v0.45c-0.13-0.02-0.26-0.07-0.41-0.07c-0.86,0-0.87,0.86-0.87,1.5v2.18h1.28v0.46h-1.28V235.41z"/>
		<path d="M316.65,235.41h-0.5v-0.91h-0.02c-0.37,0.65-1.19,1.02-1.94,1.02c-1.54,0-2.51-1.2-2.51-2.68s0.96-2.62,2.49-2.62
			c0.78,0,1.53,0.35,1.96,0.99h0.02v-0.88h0.5V235.41z M312.18,232.83c0,1.17,0.77,2.22,2,2.22c1.3,0,2-1.06,2-2.28
			c0-1.18-0.8-2.1-2.04-2.1C312.98,230.67,312.18,231.73,312.18,232.83z"/>
		<path d="M322.24,231.5c-0.48-0.53-1.07-0.83-1.79-0.83c-1.2,0-2.1,1.02-2.1,2.18s0.89,2.2,2.09,2.2c0.73,0,1.41-0.35,1.87-0.91
			v0.67c-0.52,0.45-1.17,0.7-1.85,0.7c-1.51,0-2.61-1.18-2.61-2.66c0-1.47,1.12-2.64,2.62-2.64c0.66,0,1.27,0.2,1.77,0.63V231.5z"/>
		<path d="M323.59,232.91c-0.03,1.29,0.86,2.15,2.04,2.15c0.79,0,1.43-0.47,1.79-1.16l0.42,0.24c-0.46,0.88-1.28,1.38-2.28,1.38
			c-1.51,0-2.46-1.22-2.46-2.66c0-1.42,0.98-2.64,2.46-2.64c1.54,0,2.45,1.23,2.44,2.7H323.59z M327.51,232.45
			c-0.12-0.94-0.89-1.77-1.94-1.77c-1.03,0-1.89,0.81-1.98,1.77H327.51z"/>
		<path d="M330.51,235.06c0,0.25-0.2,0.45-0.45,0.45c-0.25,0-0.45-0.2-0.45-0.45s0.2-0.45,0.45-0.45
			C330.31,234.61,330.51,234.81,330.51,235.06z"/>
	</g>
	<g>
		<rect x="183.68" y="245.64" class="st17" width="102.28" height="37.98"/>
		<path d="M186.42,254.72h-0.53v-7.8h-2.14v-0.5h4.82v0.5h-2.15V254.72z"/>
		<path d="M189.97,245.64v4.79H190c0.3-0.56,0.85-0.9,1.51-0.9c1.31,0,1.67,0.81,1.67,2.12v3.07h-0.5v-3.07
			c0-0.91-0.11-1.66-1.22-1.66c-1.28,0-1.49,1.19-1.49,2.22v2.51h-0.5v-9.08H189.97z"/>
		<path d="M194.87,252.22c-0.03,1.29,0.86,2.15,2.04,2.15c0.79,0,1.43-0.47,1.79-1.16l0.42,0.24c-0.46,0.88-1.28,1.38-2.28,1.38
			c-1.51,0-2.46-1.22-2.46-2.66c0-1.42,0.98-2.64,2.46-2.64c1.54,0,2.45,1.23,2.44,2.7H194.87z M198.78,251.76
			c-0.12-0.94-0.89-1.77-1.94-1.77c-1.03,0-1.89,0.81-1.98,1.77H198.78z"/>
		<path d="M204.44,254.72h-0.5v-4.62h-0.56v-0.46h0.56v-1.82h0.5v1.82h0.89v0.46h-0.89V254.72z"/>
		<path d="M206.68,250.3h0.02c0.2-0.46,0.56-0.77,1.1-0.77c0.2,0,0.36,0.04,0.54,0.12l-0.26,0.44c-0.12-0.07-0.22-0.1-0.35-0.1
			c-1.11,0-1.05,1.39-1.05,2.13v2.6h-0.5v-5.08h0.5V250.3z"/>
		<path d="M210.14,247.94c0,0.25-0.2,0.45-0.45,0.45s-0.45-0.2-0.45-0.45c0-0.24,0.2-0.45,0.45-0.45S210.14,247.7,210.14,247.94z
			 M209.93,254.72h-0.5v-5.08h0.5V254.72z"/>
		<path d="M215.71,250.81c-0.48-0.53-1.07-0.83-1.79-0.83c-1.2,0-2.1,1.02-2.1,2.18s0.89,2.2,2.09,2.2c0.73,0,1.41-0.35,1.87-0.91
			v0.67c-0.52,0.45-1.17,0.7-1.85,0.7c-1.51,0-2.61-1.18-2.61-2.66c0-1.47,1.12-2.64,2.62-2.64c0.66,0,1.26,0.2,1.77,0.63V250.81z"
			/>
		<path d="M217.56,251.79l2.09-2.16h0.64l-2.13,2.2l2.85,2.88h-0.65l-2.52-2.54l-0.28,0.29v2.25h-0.5v-9.08h0.5V251.79z"/>
		<path d="M226.06,247.94c0,0.25-0.2,0.45-0.45,0.45s-0.45-0.2-0.45-0.45c0-0.24,0.2-0.45,0.45-0.45S226.06,247.7,226.06,247.94z
			 M225.86,254.72h-0.5v-5.08h0.5V254.72z"/>
		<path d="M229.88,250.56c-0.17-0.35-0.5-0.57-0.89-0.57c-0.43,0-0.87,0.35-0.87,0.79c0,1.22,2.48,0.63,2.48,2.46
			c0,0.94-0.73,1.58-1.64,1.58c-0.85,0-1.54-0.52-1.75-1.34l0.48-0.15c0.19,0.6,0.59,1.03,1.27,1.03c0.64,0,1.14-0.51,1.14-1.14
			c0-0.63-0.48-0.83-0.99-1c-0.69-0.25-1.48-0.55-1.48-1.41c0-0.77,0.65-1.29,1.39-1.29c0.52,0,1.08,0.34,1.3,0.81L229.88,250.56z"
			/>
		<path d="M235.83,254.72h-0.5v-4.62h-0.56v-0.46h0.56v-1.82h0.5v1.82h0.89v0.46h-0.89V254.72z"/>
		<path d="M242.4,252.18c0,1.51-1.18,2.65-2.67,2.65c-1.46,0-2.64-1.2-2.64-2.64c0-1.46,1.17-2.66,2.64-2.66
			C241.22,249.53,242.4,250.67,242.4,252.18z M237.58,252.19c0,1.16,0.91,2.18,2.11,2.18c1.24,0,2.21-0.95,2.21-2.18
			c0-1.25-0.96-2.2-2.21-2.2C238.48,249.99,237.58,251.01,237.58,252.19z"/>
		<path d="M247.01,245.64h0.5v4.87h0.02c0.43-0.64,1.18-0.99,1.96-0.99c1.52,0,2.49,1.13,2.49,2.62s-0.97,2.68-2.51,2.68
			c-0.75,0-1.56-0.37-1.94-1.02h-0.02v0.91h-0.5V245.64z M251.47,252.14c0-1.11-0.8-2.16-1.98-2.16c-1.29,0-2.02,0.96-2.02,2.17
			c0,1.19,0.75,2.21,2,2.21C250.72,254.37,251.47,253.31,251.47,252.14z"/>
		<path d="M253.17,252.22c-0.03,1.29,0.86,2.15,2.04,2.15c0.79,0,1.43-0.47,1.79-1.16l0.42,0.24c-0.46,0.88-1.28,1.38-2.28,1.38
			c-1.51,0-2.46-1.22-2.46-2.66c0-1.42,0.98-2.64,2.46-2.64c1.54,0,2.45,1.23,2.44,2.7H253.17z M257.08,251.76
			c-0.12-0.94-0.89-1.77-1.94-1.77c-1.03,0-1.89,0.81-1.98,1.77H257.08z"/>
		<path d="M188.99,267.92h-0.5v-0.91h-0.02c-0.37,0.65-1.19,1.02-1.94,1.02c-1.54,0-2.51-1.2-2.51-2.68s0.96-2.62,2.49-2.62
			c0.78,0,1.53,0.35,1.96,0.99h0.02v-0.88h0.5V267.92z M184.53,265.34c0,1.17,0.77,2.22,2,2.22c1.3,0,2-1.06,2-2.28
			c0-1.18-0.8-2.1-2.04-2.1C185.33,263.19,184.53,264.24,184.53,265.34z"/>
		<path d="M195.23,267.68c0,0.78-0.02,1.49-0.51,2.16c-0.47,0.65-1.22,0.98-2.02,0.98c-1.33,0-2.43-0.78-2.51-2.18h0.5
			c0.06,1.06,0.95,1.72,1.97,1.72c0.64,0,1.25-0.22,1.63-0.76c0.4-0.58,0.45-1.24,0.45-1.92v-0.63h-0.02
			c-0.45,0.6-1.21,0.99-1.98,0.99c-1.47,0-2.46-1.24-2.46-2.66c0-1.46,1.05-2.64,2.53-2.64c0.83,0,1.44,0.35,1.92,0.99h0.02v-0.88
			h0.5V267.68z M190.76,265.34c0,1.17,0.77,2.22,2,2.22c1.3,0,2-1.06,2-2.28c0-1.18-0.8-2.1-2.04-2.1
			C191.57,263.19,190.76,264.24,190.76,265.34z"/>
		<path d="M201.47,267.68c0,0.78-0.02,1.49-0.51,2.16c-0.47,0.65-1.22,0.98-2.02,0.98c-1.33,0-2.43-0.78-2.51-2.18h0.49
			c0.06,1.06,0.95,1.72,1.97,1.72c0.64,0,1.25-0.22,1.63-0.76c0.4-0.58,0.45-1.24,0.45-1.92v-0.63h-0.02
			c-0.45,0.6-1.21,0.99-1.98,0.99c-1.47,0-2.46-1.24-2.46-2.66c0-1.46,1.05-2.64,2.53-2.64c0.83,0,1.44,0.35,1.92,0.99h0.02v-0.88
			h0.5V267.68z M197,265.34c0,1.17,0.77,2.22,2,2.22c1.3,0,2-1.06,2-2.28c0-1.18-0.8-2.1-2.04-2.1
			C197.81,263.19,197,264.24,197,265.34z"/>
		<path d="M203.66,263.5h0.02c0.2-0.46,0.56-0.77,1.1-0.77c0.2,0,0.36,0.04,0.54,0.12l-0.26,0.44c-0.12-0.07-0.22-0.1-0.35-0.1
			c-1.11,0-1.05,1.39-1.05,2.13v2.6h-0.5v-5.08h0.5V263.5z"/>
		<path d="M206.22,265.42c-0.03,1.29,0.86,2.14,2.04,2.14c0.79,0,1.43-0.47,1.79-1.15l0.42,0.24c-0.46,0.88-1.28,1.38-2.28,1.38
			c-1.51,0-2.46-1.22-2.46-2.66c0-1.42,0.98-2.64,2.46-2.64c1.54,0,2.45,1.23,2.44,2.7H206.22z M210.14,264.96
			c-0.12-0.94-0.89-1.77-1.94-1.77c-1.03,0-1.89,0.81-1.98,1.77H210.14z"/>
		<path d="M213.96,263.76c-0.17-0.35-0.5-0.57-0.89-0.57c-0.43,0-0.87,0.35-0.87,0.79c0,1.22,2.48,0.63,2.48,2.46
			c0,0.94-0.73,1.58-1.64,1.58c-0.85,0-1.54-0.52-1.75-1.34l0.48-0.15c0.19,0.6,0.59,1.03,1.27,1.03c0.64,0,1.14-0.51,1.14-1.14
			c0-0.63-0.48-0.83-0.99-1c-0.69-0.25-1.48-0.55-1.48-1.41c0-0.77,0.65-1.29,1.39-1.29c0.52,0,1.08,0.34,1.3,0.81L213.96,263.76z"
			/>
		<path d="M218.09,263.76c-0.17-0.35-0.5-0.57-0.89-0.57c-0.43,0-0.87,0.35-0.87,0.79c0,1.22,2.48,0.63,2.48,2.46
			c0,0.94-0.73,1.58-1.64,1.58c-0.85,0-1.54-0.52-1.75-1.34l0.48-0.15c0.19,0.6,0.59,1.03,1.27,1.03c0.64,0,1.14-0.51,1.14-1.14
			c0-0.63-0.48-0.83-0.99-1c-0.69-0.25-1.48-0.55-1.48-1.41c0-0.77,0.65-1.29,1.39-1.29c0.52,0,1.08,0.34,1.3,0.81L218.09,263.76z"
			/>
		<path d="M220.97,261.14c0,0.25-0.2,0.45-0.45,0.45s-0.45-0.2-0.45-0.45c0-0.24,0.2-0.45,0.45-0.45S220.97,260.9,220.97,261.14z
			 M220.76,267.92h-0.5v-5.08h0.5V267.92z"/>
		<path d="M224.21,267.03l1.8-4.19h0.51l-2.32,5.36l-2.33-5.36h0.51L224.21,267.03z"/>
		<path d="M227.42,265.42c-0.03,1.29,0.86,2.14,2.04,2.14c0.79,0,1.43-0.47,1.79-1.15l0.42,0.24c-0.46,0.88-1.28,1.38-2.28,1.38
			c-1.51,0-2.46-1.22-2.46-2.66c0-1.42,0.98-2.64,2.46-2.64c1.54,0,2.45,1.23,2.44,2.7H227.42z M231.33,264.96
			c-0.12-0.94-0.89-1.77-1.94-1.77c-1.03,0-1.89,0.81-1.98,1.77H231.33z"/>
		<path d="M240.9,267.92h-0.5v-0.91h-0.02c-0.37,0.65-1.19,1.02-1.94,1.02c-1.54,0-2.51-1.2-2.51-2.68s0.96-2.62,2.49-2.62
			c0.78,0,1.53,0.35,1.96,0.99h0.02v-0.88h0.5V267.92z M236.44,265.34c0,1.17,0.77,2.22,2,2.22c1.3,0,2-1.06,2-2.28
			c0-1.18-0.8-2.1-2.04-2.1C237.24,263.19,236.44,264.24,236.44,265.34z"/>
		<path d="M243.09,263.63h0.02c0.3-0.56,0.85-0.9,1.51-0.9c1.31,0,1.67,0.81,1.67,2.12v3.07h-0.5v-3.07c0-0.91-0.11-1.66-1.22-1.66
			c-1.28,0-1.49,1.19-1.49,2.22v2.51h-0.5v-5.08h0.5V263.63z"/>
		<path d="M251.96,267.01h-0.02c-0.37,0.65-1.19,1.02-1.94,1.02c-1.54,0-2.51-1.2-2.51-2.68s0.96-2.62,2.49-2.62
			c0.78,0,1.53,0.35,1.96,0.99h0.02v-4.87h0.5v9.08h-0.5V267.01z M251.99,265.29c0-1.18-0.8-2.1-2.04-2.1
			c-1.17,0-1.97,1.06-1.97,2.16c0,1.17,0.77,2.22,2,2.22C251.29,267.57,251.99,266.51,251.99,265.29z"/>
		<path d="M258.11,267.92h-0.5v-4.62h-0.56v-0.46h0.56v-1.82h0.5v1.82H259v0.46h-0.89V267.92z"/>
		<path d="M260.35,258.84v4.79h0.02c0.3-0.56,0.85-0.9,1.51-0.9c1.31,0,1.67,0.81,1.67,2.12v3.07h-0.5v-3.07
			c0-0.91-0.11-1.66-1.22-1.66c-1.28,0-1.49,1.19-1.49,2.22v2.51h-0.5v-9.08H260.35z"/>
		<path d="M265.74,263.5h0.02c0.2-0.46,0.56-0.77,1.1-0.77c0.2,0,0.36,0.04,0.54,0.12l-0.26,0.44c-0.12-0.07-0.22-0.1-0.35-0.1
			c-1.11,0-1.05,1.39-1.05,2.13v2.6h-0.5v-5.08h0.5V263.5z"/>
		<path d="M273.12,265.38c0,1.51-1.18,2.65-2.67,2.65c-1.46,0-2.64-1.2-2.64-2.64c0-1.46,1.17-2.66,2.64-2.66
			C271.95,262.73,273.12,263.87,273.12,265.38z M268.3,265.39c0,1.16,0.91,2.18,2.11,2.18c1.24,0,2.21-0.95,2.21-2.18
			c0-1.25-0.96-2.2-2.21-2.2C269.21,263.19,268.3,264.21,268.3,265.39z"/>
		<path d="M275.83,267.01l1.79-4.44l1.8,4.44l1.76-4.17h0.51l-2.3,5.36l-1.79-4.39l-1.78,4.39l-2.29-5.36h0.51L275.83,267.01z"/>
		<path d="M183.6,276.04h0.52l2.17,4.6l1.95-4.6h0.51l-3.41,8.05h-0.51l1.22-2.88L183.6,276.04z"/>
		<path d="M194.41,278.58c0,1.51-1.18,2.65-2.67,2.65c-1.46,0-2.64-1.2-2.64-2.64c0-1.46,1.17-2.66,2.64-2.66
			C193.23,275.93,194.41,277.07,194.41,278.58z M189.59,278.59c0,1.16,0.91,2.18,2.11,2.18c1.24,0,2.21-0.95,2.21-2.18
			c0-1.25-0.96-2.2-2.21-2.2C190.49,276.39,189.59,277.41,189.59,278.59z"/>
		<path d="M199.18,276.04v3.05c0,0.52,0.01,1.03-0.31,1.46c-0.35,0.46-0.95,0.68-1.52,0.68c-0.57,0-1.17-0.22-1.52-0.68
			c-0.32-0.43-0.31-0.95-0.31-1.46v-3.05h0.5v2.87c0,0.98,0.11,1.86,1.33,1.86c1.22,0,1.33-0.88,1.33-1.86v-2.87H199.18z"/>
		<path d="M201.29,276.7h0.02c0.2-0.46,0.56-0.77,1.1-0.77c0.2,0,0.36,0.04,0.54,0.12l-0.26,0.44c-0.12-0.07-0.22-0.1-0.35-0.1
			c-1.11,0-1.05,1.39-1.05,2.13v2.6h-0.5v-5.08h0.5V276.7z"/>
		<path d="M205.99,276.96c-0.17-0.35-0.5-0.57-0.89-0.57c-0.43,0-0.87,0.35-0.87,0.79c0,1.22,2.48,0.63,2.48,2.46
			c0,0.94-0.73,1.58-1.64,1.58c-0.85,0-1.54-0.52-1.75-1.34l0.48-0.15c0.19,0.6,0.59,1.03,1.27,1.03c0.64,0,1.14-0.51,1.14-1.14
			c0-0.63-0.48-0.83-0.99-1c-0.69-0.25-1.48-0.55-1.48-1.41c0-0.77,0.65-1.29,1.39-1.29c0.52,0,1.08,0.34,1.3,0.81L205.99,276.96z"
			/>
		<path d="M207.98,278.62c-0.03,1.29,0.86,2.14,2.04,2.14c0.79,0,1.43-0.47,1.79-1.15l0.42,0.24c-0.46,0.88-1.28,1.38-2.28,1.38
			c-1.51,0-2.46-1.22-2.46-2.66c0-1.42,0.98-2.64,2.46-2.64c1.54,0,2.45,1.23,2.44,2.7H207.98z M211.89,278.16
			c-0.12-0.94-0.89-1.77-1.94-1.77c-1.03,0-1.89,0.81-1.98,1.77H211.89z"/>
		<path d="M214.08,281.12h-0.5v-9.08h0.5V281.12z"/>
		<path d="M216.27,281.12h-0.5v-4.62h-0.56v-0.46h0.56v-2.28c0-0.37,0.01-0.91,0.2-1.24c0.23-0.41,0.67-0.62,1.13-0.62
			c0.15,0,0.3,0.02,0.44,0.08v0.45c-0.13-0.02-0.26-0.07-0.41-0.07c-0.86,0-0.87,0.86-0.87,1.5v2.18h1.28v0.46h-1.28V281.12z"/>
		<path d="M222.72,274.34c0,0.25-0.2,0.45-0.45,0.45s-0.45-0.2-0.45-0.45c0-0.24,0.2-0.45,0.45-0.45S222.72,274.1,222.72,274.34z
			 M222.51,281.12h-0.5v-5.08h0.5V281.12z"/>
		<path d="M224.9,276.83h0.02c0.3-0.56,0.85-0.9,1.51-0.9c1.31,0,1.67,0.81,1.67,2.12v3.07h-0.5v-3.07c0-0.91-0.11-1.66-1.22-1.66
			c-1.28,0-1.49,1.19-1.49,2.22v2.51h-0.5v-5.08h0.5V276.83z"/>
		<path d="M230.34,281.12h-0.5v-4.62h-0.56v-0.46h0.56v-1.82h0.5v1.82h0.89v0.46h-0.89V281.12z"/>
		<path d="M236.91,278.58c0,1.51-1.18,2.65-2.67,2.65c-1.46,0-2.64-1.2-2.64-2.64c0-1.46,1.17-2.66,2.64-2.66
			C235.73,275.93,236.91,277.07,236.91,278.58z M232.09,278.59c0,1.16,0.91,2.18,2.11,2.18c1.24,0,2.21-0.95,2.21-2.18
			c0-1.25-0.96-2.2-2.21-2.2C232.99,276.39,232.09,277.41,232.09,278.59z"/>
		<path d="M242.41,274.34c0,0.25-0.2,0.45-0.45,0.45s-0.45-0.2-0.45-0.45c0-0.24,0.2-0.45,0.45-0.45S242.41,274.1,242.41,274.34z
			 M242.2,281.12h-0.5v-5.08h0.5V281.12z"/>
		<path d="M244.64,281.12h-0.5v-4.62h-0.56v-0.46h0.56v-1.82h0.5v1.82h0.89v0.46h-0.89V281.12z"/>
		<path d="M251.03,273.32l0.25-0.5h1.58v8.29h-0.53v-7.8H251.03z"/>
		<path d="M262.2,276.92c0,1.72-0.9,4.31-3.01,4.31s-3.01-2.6-3.01-4.31c0-1.74,0.96-4.2,3.01-4.2
			C261.24,272.71,262.2,275.18,262.2,276.92z M261.67,276.92c0-1.31-0.71-3.71-2.49-3.71c-1.77,0-2.49,2.4-2.49,3.71
			c0,1.5,0.72,3.82,2.49,3.82C260.95,280.73,261.67,278.41,261.67,276.92z"/>
		<path d="M269.02,276.92c0,1.72-0.9,4.31-3.01,4.31s-3.01-2.6-3.01-4.31c0-1.74,0.96-4.2,3.01-4.2
			C268.06,272.71,269.02,275.18,269.02,276.92z M268.49,276.92c0-1.31-0.71-3.71-2.49-3.71c-1.77,0-2.49,2.4-2.49,3.71
			c0,1.5,0.72,3.82,2.49,3.82C267.77,280.73,268.49,278.41,268.49,276.92z"/>
		<path d="M273.07,274.38c0,0.94-0.75,1.62-1.67,1.62s-1.67-0.68-1.67-1.62c0-0.96,0.74-1.64,1.67-1.64
			C272.33,272.75,273.07,273.43,273.07,274.38z M270.18,274.38c0,0.64,0.56,1.16,1.21,1.16c0.65,0,1.21-0.52,1.21-1.16
			c0-0.66-0.56-1.18-1.21-1.18C270.74,273.21,270.18,273.72,270.18,274.38z M275.7,272.82l-4.93,8.48l-0.34-0.2l4.91-8.47
			L275.7,272.82z M276.41,279.58c0,0.93-0.75,1.62-1.67,1.62c-0.92,0-1.67-0.68-1.67-1.62c0-0.96,0.74-1.64,1.67-1.64
			C275.67,277.94,276.41,278.62,276.41,279.58z M273.53,279.58c0,0.64,0.56,1.16,1.21,1.16c0.65,0,1.21-0.52,1.21-1.16
			c0-0.66-0.56-1.18-1.21-1.18C274.09,278.4,273.53,278.92,273.53,279.58z"/>
		<path d="M278.87,280.78c0,0.25-0.2,0.45-0.45,0.45s-0.45-0.2-0.45-0.45s0.2-0.45,0.45-0.45S278.87,280.52,278.87,280.78z"/>
	</g>
	<g>
		<rect x="219.54" y="173.14" class="st17" width="62.33" height="10.67"/>
		<path d="M222.28,182.21h-0.53v-7.8h-2.14v-0.5h4.82v0.5h-2.15V182.21z"/>
		<path d="M228.7,182.21h-0.5v-0.91h-0.02c-0.37,0.65-1.19,1.02-1.94,1.02c-1.54,0-2.51-1.2-2.51-2.68s0.96-2.62,2.49-2.62
			c0.78,0,1.53,0.35,1.96,0.99h0.02v-0.88h0.5V182.21z M224.24,179.64c0,1.17,0.77,2.22,2,2.22c1.3,0,2-1.06,2-2.28
			c0-1.18-0.8-2.1-2.04-2.1C225.04,177.48,224.24,178.54,224.24,179.64z"/>
		<path d="M230.89,179.29l2.09-2.16h0.64l-2.13,2.2l2.85,2.88h-0.65l-2.52-2.54l-0.28,0.29v2.25h-0.5v-9.08h0.5V179.29z"/>
		<path d="M235.09,179.71c-0.03,1.29,0.86,2.14,2.04,2.14c0.79,0,1.43-0.47,1.79-1.15l0.42,0.24c-0.46,0.88-1.28,1.38-2.28,1.38
			c-1.51,0-2.46-1.22-2.46-2.66c0-1.42,0.98-2.64,2.46-2.64c1.54,0,2.45,1.23,2.44,2.7H235.09z M239.01,179.25
			c-0.12-0.94-0.89-1.77-1.94-1.77c-1.03,0-1.89,0.81-1.98,1.77H239.01z"/>
		<path d="M244.67,182.21h-0.5v-4.62h-0.56v-0.46h0.56v-1.82h0.5v1.82h0.89v0.46h-0.89V182.21z"/>
		<path d="M246.91,173.14v4.79h0.02c0.3-0.56,0.85-0.9,1.51-0.9c1.31,0,1.67,0.81,1.67,2.12v3.07h-0.5v-3.07
			c0-0.91-0.11-1.66-1.22-1.66c-1.28,0-1.49,1.19-1.49,2.22v2.51h-0.5v-9.08H246.91z"/>
		<path d="M251.8,179.71c-0.03,1.29,0.86,2.14,2.04,2.14c0.79,0,1.43-0.47,1.79-1.15l0.42,0.24c-0.46,0.88-1.28,1.38-2.28,1.38
			c-1.51,0-2.46-1.22-2.46-2.66c0-1.42,0.98-2.64,2.46-2.64c1.54,0,2.45,1.23,2.44,2.7H251.8z M255.72,179.25
			c-0.12-0.94-0.89-1.77-1.94-1.77c-1.03,0-1.89,0.81-1.98,1.77H255.72z"/>
		<path d="M261.32,177.79h0.02c0.2-0.46,0.56-0.77,1.1-0.77c0.2,0,0.36,0.04,0.54,0.12l-0.26,0.44c-0.12-0.07-0.22-0.1-0.35-0.1
			c-1.11,0-1.05,1.39-1.05,2.13v2.6h-0.5v-5.08h0.5V177.79z"/>
		<path d="M264.77,175.43c0,0.25-0.2,0.45-0.45,0.45s-0.45-0.2-0.45-0.45c0-0.24,0.2-0.45,0.45-0.45S264.77,175.19,264.77,175.43z
			 M264.56,182.21h-0.5v-5.08h0.5V182.21z"/>
		<path d="M268.59,178.05c-0.17-0.35-0.5-0.57-0.89-0.57c-0.43,0-0.87,0.35-0.87,0.79c0,1.22,2.48,0.63,2.48,2.46
			c0,0.94-0.73,1.58-1.64,1.58c-0.85,0-1.54-0.52-1.75-1.34l0.48-0.15c0.19,0.6,0.59,1.03,1.27,1.03c0.64,0,1.14-0.51,1.14-1.14
			c0-0.63-0.48-0.83-0.99-1c-0.69-0.25-1.48-0.55-1.48-1.41c0-0.77,0.65-1.29,1.39-1.29c0.52,0,1.08,0.34,1.3,0.81L268.59,178.05z"
			/>
		<path d="M271.08,179.29l2.09-2.16h0.64l-2.13,2.2l2.85,2.88h-0.65l-2.52-2.54l-0.28,0.29v2.25h-0.5v-9.08h0.5V179.29z"/>
		<path d="M276.59,181.87c0,0.25-0.2,0.45-0.45,0.45s-0.45-0.2-0.45-0.45s0.2-0.45,0.45-0.45S276.59,181.62,276.59,181.87z"/>
	</g>
	<g>
		<path class="st14" d="M403.85,183.74c-5.61,79.21-77.8,139.6-160.82,134.62c-70.89-4.25-124.73-62.75-119.94-130.4
			c4.09-57.81,57.28-108.1,117.28-98.26c56.58,9.28,66.85,48.8,63.66,88.78c-3.38,42.32-36.4,59.99-75.56,56.96
			c-38.01-2.94-44.11-29.75-45.72-50.57c-2.4-31.12,25-52.84,58.44-50.84l-0.54,7.62c-28.66-1.72-52.86,16.89-49.92,43.7
			c2.02,18.46,4.61,41.9,38.33,42.48c37.25,0.64,64.31-11.67,67.01-49.83c3.2-45.26-11.45-73.26-56.24-80.68
			c-55.62-9.22-104.99,37.51-108.79,91.12c-4.49,63.45,45.95,118.31,112.44,122.3c78.61,4.71,147.08-52.47,152.39-127.48
			C402.14,94.64,330.96,17.96,239,12.45l0.54-7.62C336.27,10.63,410.42,90.92,403.85,183.74z"/>
	</g>
</g>
</svg>
