<?xml version="1.0" encoding="utf-8"?>
<!-- Generator: Adobe Illustrator 16.0.0, SVG Export Plug-In . SVG Version: 6.00 Build 0)  -->
<!DOCTYPE svg PUBLIC "-//W3C//DTD SVG 1.1//EN" "http://www.w3.org/Graphics/SVG/1.1/DTD/svg11.dtd">
<svg version="1.1" id="Layer_1" xmlns="http://www.w3.org/2000/svg" xmlns:xlink="http://www.w3.org/1999/xlink" x="0px" y="0px"
	 width="432px" height="189.61px" viewBox="0 0 432 189.61" style="enable-background:new 0 0 432 189.61;" xml:space="preserve">
<style type="text/css">
<![CDATA[
	.st0{fill:none;stroke:#262626;stroke-width:0.25;stroke-miterlimit:10;}
	.st1{opacity:0.6;fill:#FFC43B;}
	.st2{fill:none;stroke:#741472;stroke-width:0.9552;stroke-miterlimit:10;}
	.st3{display:none;opacity:0.6;fill:#E6E6E6;}
	.st4{opacity:0.6;fill:#6AD9C4;}
	.st5{fill:none;stroke:#FFFFFF;stroke-miterlimit:10;}
	.st6{opacity:0.6;fill:#741472;}
	.st7{fill:none;stroke:#741472;stroke-width:1.1228;stroke-miterlimit:10;}
	.st8{fill:#262626;}
	.st9{fill:none;stroke:#262626;stroke-width:2;stroke-linecap:round;stroke-miterlimit:10;stroke-dasharray:0,10;}
	.st10{fill:none;stroke:#741472;stroke-width:0.9578;stroke-miterlimit:10;}
	.st11{fill:none;stroke:#262626;stroke-linejoin:round;stroke-miterlimit:10;stroke-dasharray:3,4;}
	.st12{fill:none;stroke:#FFFFFF;stroke-width:0.4049;stroke-miterlimit:10;}
	.st13{fill:none;stroke:#741472;stroke-miterlimit:10;}
	.st14{fill:#FFC43B;}
	.st15{fill:#FFFFFF;}
	.st16{opacity:0.6;fill:#E6E6E6;}
	.st17{fill:none;}
	.st18{fill:none;stroke:#FFFFFF;stroke-width:0.8746;stroke-miterlimit:10;}
	.st19{fill:none;stroke:#741472;stroke-width:0.9389;stroke-miterlimit:10;}
	.st20{fill:#00AE8D;}
	.st21{fill:#741472;}
	.st22{fill:none;stroke:#741472;stroke-width:0.9324;stroke-miterlimit:10;}
	.st23{fill:none;stroke:#262626;stroke-width:1.2836;stroke-miterlimit:10;}
]]>
</style>
<g>
	<g>
		<rect x="318.75" y="153.11" class="st17" width="73.47" height="27.41"/>
		<path d="M318.68,157.1h0.52l2.17,4.6l1.95-4.6h0.51l-3.41,8.05h-0.51l1.22-2.88L318.68,157.1z"/>
		<path d="M329.48,159.64c0,1.51-1.18,2.65-2.67,2.65c-1.46,0-2.64-1.2-2.64-2.64c0-1.46,1.17-2.66,2.64-2.66
			C328.3,156.99,329.48,158.14,329.48,159.64z M324.66,159.65c0,1.16,0.91,2.18,2.11,2.18c1.24,0,2.21-0.95,2.21-2.18
			c0-1.25-0.96-2.2-2.21-2.2C325.56,157.45,324.66,158.48,324.66,159.65z"/>
		<path d="M334.25,157.1v3.05c0,0.52,0.01,1.03-0.31,1.46c-0.35,0.46-0.95,0.68-1.52,0.68s-1.17-0.22-1.52-0.68
			c-0.32-0.43-0.31-0.95-0.31-1.46v-3.05h0.49v2.87c0,0.98,0.11,1.86,1.33,1.86c1.22,0,1.33-0.88,1.33-1.86v-2.87H334.25z"/>
		<path d="M336.51,153.89l-0.12,2.64h-0.3l-0.11-2.64H336.51z"/>
		<path d="M338.8,162.19h-0.49v-9.08h0.49V162.19z"/>
		<path d="M340.99,162.19h-0.5v-9.08h0.5V162.19z"/>
		<path d="M346.99,155.41c0,0.25-0.2,0.45-0.45,0.45c-0.25,0-0.45-0.2-0.45-0.45c0-0.24,0.2-0.45,0.45-0.45
			C346.79,154.96,346.99,155.17,346.99,155.41z M346.78,165.15h-0.49v-8.05h0.49V165.15z"/>
		<path d="M352.25,157.1v3.05c0,0.52,0.01,1.03-0.31,1.46c-0.35,0.46-0.95,0.68-1.52,0.68s-1.17-0.22-1.52-0.68
			c-0.32-0.43-0.31-0.95-0.31-1.46v-3.05h0.49v2.87c0,0.98,0.11,1.86,1.33,1.86c1.22,0,1.33-0.88,1.33-1.86v-2.87H352.25z"/>
		<path d="M356,158.03c-0.17-0.35-0.5-0.57-0.89-0.57c-0.43,0-0.87,0.35-0.87,0.79c0,1.22,2.48,0.63,2.48,2.46
			c0,0.93-0.73,1.58-1.64,1.58c-0.85,0-1.54-0.52-1.75-1.34l0.48-0.15c0.19,0.6,0.59,1.03,1.27,1.03c0.64,0,1.14-0.51,1.14-1.14
			c0-0.63-0.48-0.83-0.99-1c-0.69-0.25-1.48-0.55-1.48-1.41c0-0.77,0.65-1.29,1.39-1.29c0.52,0,1.08,0.34,1.3,0.81L356,158.03z"/>
		<path d="M358.54,162.19h-0.5v-4.62h-0.56v-0.46h0.56v-1.81h0.5v1.81h0.89v0.46h-0.89V162.19z"/>
		<path d="M364.19,158.02h0.02c0.37-0.65,1.19-1.02,1.94-1.02c1.55,0,2.51,1.21,2.51,2.7c0,1.48-0.96,2.61-2.49,2.61
			c-0.78,0-1.54-0.34-1.96-0.99h-0.02v3.85h-0.49v-8.05h0.49V158.02z M364.16,159.75c0,1.19,0.8,2.08,2.02,2.08
			c1.19,0,1.98-1,1.98-2.13c0-1.17-0.76-2.24-2-2.24C364.86,157.45,364.16,158.53,364.16,159.75z"/>
		<path d="M371.99,158.03c-0.17-0.35-0.5-0.57-0.89-0.57c-0.43,0-0.87,0.35-0.87,0.79c0,1.22,2.48,0.63,2.48,2.46
			c0,0.93-0.73,1.58-1.64,1.58c-0.85,0-1.54-0.52-1.75-1.34l0.48-0.15c0.19,0.6,0.59,1.03,1.27,1.03c0.64,0,1.14-0.51,1.14-1.14
			c0-0.63-0.48-0.83-0.99-1c-0.69-0.25-1.48-0.55-1.48-1.41c0-0.77,0.65-1.29,1.39-1.29c0.52,0,1.08,0.34,1.3,0.81L371.99,158.03z"
			/>
		<path d="M373.06,157.1h0.52l2.17,4.6l1.95-4.6h0.51l-3.41,8.05h-0.51l1.22-2.88L373.06,157.1z"/>
		<path d="M382.93,158.28c-0.48-0.53-1.07-0.83-1.79-0.83c-1.2,0-2.1,1.02-2.1,2.18c0,1.15,0.89,2.2,2.09,2.2
			c0.72,0,1.41-0.35,1.87-0.91v0.67c-0.52,0.45-1.17,0.71-1.85,0.71c-1.51,0-2.61-1.18-2.61-2.66c0-1.47,1.12-2.64,2.62-2.64
			c0.66,0,1.26,0.2,1.77,0.63V158.28z"/>
		<path d="M384.78,153.11v4.79h0.02c0.3-0.56,0.85-0.9,1.51-0.9c1.31,0,1.67,0.81,1.67,2.12v3.07h-0.5v-3.07
			c0-0.91-0.11-1.66-1.22-1.66c-1.28,0-1.49,1.19-1.49,2.22v2.51h-0.49v-9.08H384.78z"/>
		<path d="M318.68,170.3h0.52l2.17,4.6l1.95-4.6h0.51l-3.41,8.05h-0.51l1.22-2.88L318.68,170.3z"/>
		<path d="M329.48,172.84c0,1.51-1.18,2.65-2.67,2.65c-1.46,0-2.64-1.2-2.64-2.64c0-1.46,1.17-2.66,2.64-2.66
			C328.3,170.19,329.48,171.34,329.48,172.84z M324.66,172.85c0,1.16,0.91,2.18,2.11,2.18c1.24,0,2.21-0.95,2.21-2.18
			c0-1.25-0.96-2.2-2.21-2.2C325.56,170.65,324.66,171.68,324.66,172.85z"/>
		<path d="M334.25,170.3v3.05c0,0.52,0.01,1.03-0.31,1.46c-0.35,0.46-0.95,0.68-1.52,0.68s-1.17-0.22-1.52-0.68
			c-0.32-0.43-0.31-0.95-0.31-1.46v-3.05h0.49v2.87c0,0.98,0.11,1.86,1.33,1.86c1.22,0,1.33-0.88,1.33-1.86v-2.87H334.25z"/>
		<path d="M336.36,170.96h0.02c0.2-0.46,0.56-0.77,1.1-0.77c0.2,0,0.36,0.04,0.54,0.12l-0.26,0.44c-0.12-0.07-0.22-0.1-0.35-0.1
			c-1.11,0-1.05,1.38-1.05,2.13v2.6h-0.49v-5.08h0.49V170.96z"/>
		<path d="M341.06,171.23c-0.16-0.35-0.49-0.57-0.89-0.57c-0.43,0-0.87,0.35-0.87,0.79c0,1.22,2.47,0.63,2.47,2.46
			c0,0.94-0.72,1.58-1.64,1.58c-0.85,0-1.54-0.52-1.75-1.34l0.48-0.15c0.19,0.61,0.59,1.03,1.27,1.03c0.64,0,1.14-0.51,1.14-1.14
			c0-0.63-0.48-0.83-0.99-1c-0.69-0.25-1.48-0.55-1.48-1.41c0-0.77,0.65-1.29,1.38-1.29c0.52,0,1.08,0.34,1.3,0.81L341.06,171.23z"
			/>
		<path d="M343.05,172.89c-0.03,1.29,0.86,2.15,2.04,2.15c0.79,0,1.43-0.47,1.79-1.16l0.42,0.24c-0.46,0.88-1.28,1.38-2.28,1.38
			c-1.51,0-2.46-1.22-2.46-2.66c0-1.42,0.98-2.64,2.46-2.64c1.54,0,2.45,1.23,2.44,2.7H343.05z M346.97,172.43
			c-0.12-0.93-0.89-1.77-1.94-1.77c-1.03,0-1.89,0.81-1.98,1.77H346.97z"/>
		<path d="M349.15,175.39h-0.49v-9.08h0.49V175.39z"/>
		<path d="M351.34,175.39h-0.5v-4.62h-0.56v-0.46h0.56v-2.28c0-0.37,0.01-0.91,0.2-1.24c0.23-0.41,0.67-0.62,1.13-0.62
			c0.15,0,0.3,0.02,0.44,0.08v0.45c-0.13-0.02-0.26-0.07-0.41-0.07c-0.86,0-0.87,0.86-0.87,1.5v2.18h1.28v0.46h-1.28V175.39z"/>
		<path d="M361.72,172.84c0,1.51-1.18,2.65-2.67,2.65c-1.46,0-2.64-1.2-2.64-2.64c0-1.46,1.17-2.66,2.64-2.66
			C360.54,170.19,361.72,171.34,361.72,172.84z M356.9,172.85c0,1.16,0.91,2.18,2.11,2.18c1.24,0,2.21-0.95,2.21-2.18
			c0-1.25-0.96-2.2-2.21-2.2C357.8,170.65,356.9,171.68,356.9,172.85z"/>
		<path d="M366.49,170.3v3.05c0,0.52,0.01,1.03-0.31,1.46c-0.35,0.46-0.95,0.68-1.52,0.68s-1.17-0.22-1.52-0.68
			c-0.32-0.43-0.31-0.95-0.31-1.46v-3.05h0.5v2.87c0,0.98,0.11,1.86,1.33,1.86s1.33-0.88,1.33-1.86v-2.87H366.49z"/>
		<path d="M368.66,175.39h-0.49v-4.62h-0.56v-0.46h0.56v-1.82h0.49v1.82h0.89v0.46h-0.89V175.39z"/>
		<path d="M371.71,175.04c0,0.25-0.2,0.45-0.45,0.45c-0.25,0-0.45-0.2-0.45-0.45c0-0.25,0.2-0.45,0.45-0.45
			C371.52,174.59,371.71,174.79,371.71,175.04z"/>
	</g>
	<circle class="st13" cx="86.1" cy="41.77" r="14.38"/>
	
		<ellipse transform="matrix(0.6401 -0.7683 0.7683 0.6401 2.6084 99.1182)" class="st10" cx="107.1" cy="46.77" rx="13.19" ry="14.37"/>
	
		<ellipse transform="matrix(0.7961 -0.6052 0.6052 0.7961 -10.8607 89.3201)" class="st13" cx="127.1" cy="60.77" rx="13.14" ry="14.38"/>
	
		<ellipse transform="matrix(0.7961 -0.6052 0.6052 0.7961 -18.0913 101.8594)" class="st2" cx="142.1" cy="77.77" rx="11.99" ry="14.38"/>
	
		<ellipse transform="matrix(0.9651 -0.2618 0.2618 0.9651 -21.0451 43.6026)" class="st13" cx="153.1" cy="100.77" rx="10.34" ry="14.37"/>
	
		<ellipse transform="matrix(0.9853 -0.1708 0.1708 0.9853 -19.1443 29.0222)" class="st19" cx="159.1" cy="125.77" rx="9.11" ry="14.38"/>
	
		<ellipse transform="matrix(0.94 0.3411 -0.3411 0.94 52.3219 -52.0235)" class="st19" cx="174.1" cy="122.78" rx="9.11" ry="14.37"/>
	<ellipse class="st13" cx="163.1" cy="152.77" rx="14.38" ry="8.12"/>
	<ellipse class="st13" cx="302.1" cy="152.77" rx="14.38" ry="8.12"/>
	<ellipse class="st13" cx="407.1" cy="152.77" rx="14.38" ry="8.12"/>
	
		<ellipse transform="matrix(0.789 0.6144 -0.6144 0.789 101.8244 -94.9225)" class="st13" cx="189.1" cy="100.77" rx="10.25" ry="14.38"/>
	
		<ellipse transform="matrix(0.5876 0.8092 -0.8092 0.5876 156.0213 -130.5687)" class="st7" cx="206.1" cy="87.77" rx="12.92" ry="14.37"/>
	<circle class="st13" cx="232.1" cy="81.77" r="14.38"/>
	
		<ellipse transform="matrix(0.6822 -0.7312 0.7312 0.6822 17.5337 215.8876)" class="st10" cx="257.1" cy="87.77" rx="13.19" ry="14.38"/>
	
		<ellipse transform="matrix(0.7817 -0.6236 0.6236 0.7817 -4.637 196.302)" class="st13" cx="278.1" cy="104.77" rx="10.07" ry="14.37"/>
	
		<ellipse transform="matrix(0.8905 -0.4549 0.4549 0.8905 -25.1331 147.096)" class="st22" cx="293.1" cy="125.77" rx="8.75" ry="14.37"/>
	
		<ellipse transform="matrix(0.7858 0.6185 -0.6185 0.7858 146.1403 -170.4158)" class="st22" cx="319.1" cy="125.78" rx="8.75" ry="14.37"/>
	
		<ellipse transform="matrix(0.5886 0.8084 -0.8084 0.5886 230.273 -228.9592)" class="st13" cx="340.1" cy="111.78" rx="10.48" ry="14.37"/>
	
		<ellipse transform="matrix(0.8343 -0.5514 0.5514 0.8343 -4.8591 235.3858)" class="st13" cx="389.1" cy="125.78" rx="10.48" ry="14.38"/>
	<circle class="st13" cx="367.1" cy="108.77" r="14.38"/>
	<path class="st11" d="M85.91,42.27c0,0,76.88,5.94,76.88,110c0,0,15-70.62,68.75-70.62s70.62,71.56,70.62,71.56
		s19.69-47.5,53.75-47.5s51.19,47.06,51.19,47.06"/>
	<g>
		<path class="st8" d="M211.34,18.86v1.39h-1.81v10.68h-1.6V20.26h-1.89v-1.39H211.34z"/>
		<path class="st8" d="M213.85,18.86v4.71h2.42v-4.71h1.6v12.07h-1.6v-5.97h-2.42v5.97h-1.6V18.86H213.85z"/>
		<path class="st8" d="M224.12,18.86v1.39h-2.71v3.79h2.42v1.39h-2.42v4.1h2.71v1.39h-4.3V18.86H224.12z"/>
		<path class="st8" d="M226.04,38.93V18.58h3.24c2.32,0,5.29,0.22,5.29,5.45c0,4.13-1.62,6.05-5.83,5.88v9.02H226.04z M228.73,20.88
			v6.75c2.32,0.16,2.97-1.11,2.97-3.37c0-1.84-0.54-3.37-2.59-3.37H228.73z"/>
		<path class="st8" d="M236.51,18.58h3.24c1.97,0,5.05,0.11,5.05,5.21c0,1.92-0.57,4.83-2.81,5.24l3.75,9.91h-2.81l-3.67-9.96h-0.05
			v9.96h-2.7V18.58z M241.94,24.38c0-1.94-0.24-3.56-2.29-3.51h-0.43v6.72C241.23,27.73,241.94,26.44,241.94,24.38z"/>
		<path class="st8" d="M255,18.58v2.35h-4.56v6.4h4.08v2.35h-4.08v6.91H255v2.35h-7.26V18.58H255z"/>
		<path class="st8" d="M257.11,38.93V18.58h3.24c2.32,0,5.29,0.22,5.29,5.45c0,4.13-1.62,6.05-5.83,5.88v9.02H257.11z M259.81,20.88
			v6.75c2.32,0.16,2.97-1.11,2.97-3.37c0-1.84-0.54-3.37-2.59-3.37H259.81z"/>
		<path class="st8" d="M271.8,18.58l4.37,20.35h-2.73l-0.76-3.97h-4.05l-0.76,3.97h-2.64l4.43-20.35H271.8z M271.74,29.92l-1.03-7.4
			h-0.05l-1.62,10.34h3.24L271.74,29.92z"/>
		<path class="st8" d="M277.96,18.58h3.24c1.97,0,5.05,0.11,5.05,5.21c0,1.92-0.57,4.83-2.81,5.24l3.75,9.91h-2.81l-3.67-9.96h-0.05
			v9.96h-2.7V18.58z M283.38,24.38c0-1.94-0.24-3.56-2.29-3.51h-0.43v6.72C282.68,27.73,283.38,26.44,283.38,24.38z"/>
		<path class="st8" d="M294.21,18.58l4.37,20.35h-2.73l-0.76-3.97h-4.05l-0.76,3.97h-2.64l4.43-20.35H294.21z M294.15,29.92
			l-1.03-7.4h-0.05l-1.62,10.34h3.24L294.15,29.92z"/>
		<path class="st8" d="M306.54,18.58v2.35h-3.05v18h-2.7v-18h-3.19v-2.35H306.54z"/>
		<path class="st8" d="M310.79,38.93h-2.7V18.58h2.7V38.93z"/>
		<path class="st8" d="M324.15,28.76c0,3.67-0.05,10.45-5.29,10.45s-5.29-6.78-5.29-10.45s0.05-10.45,5.29-10.45
			S324.15,25.09,324.15,28.76z M316.43,28.76c0,4.32,0.3,7.91,2.43,7.91s2.43-3.59,2.43-7.91s-0.3-7.91-2.43-7.91
			S316.43,24.44,316.43,28.76z"/>
		<path class="st8" d="M329.23,24.63l0.4,6.83v7.48h-2.7V18.58h2.59l4.75,15.47l0.05-0.05l-0.65-8.15v-7.26h2.7v20.35h-2.51
			l-4.75-15.68l-0.05,0.05L329.23,24.63z"/>
	</g>
	<g>
		<rect x="155" y="48.18" class="st17" width="238.57" height="16.04"/>
		<path d="M157.74,57.25h-0.53v-7.8h-2.14v-0.5h4.82v0.5h-2.14V57.25z"/>
		<path d="M164.16,57.25h-0.49v-0.91h-0.02c-0.38,0.65-1.19,1.02-1.94,1.02c-1.54,0-2.51-1.2-2.51-2.68s0.96-2.62,2.49-2.62
			c0.78,0,1.53,0.35,1.96,0.99h0.02v-0.88h0.49V57.25z M159.7,54.68c0,1.17,0.77,2.22,2,2.22c1.3,0,2-1.06,2-2.28
			c0-1.18-0.8-2.1-2.04-2.1C160.5,52.52,159.7,53.58,159.7,54.68z"/>
		<path d="M166.35,54.32l2.09-2.16h0.64l-2.13,2.2l2.85,2.88h-0.65l-2.52-2.54L166.35,55v2.25h-0.5v-9.08h0.5V54.32z"/>
		<path d="M170.55,54.75c-0.03,1.29,0.86,2.14,2.04,2.14c0.79,0,1.43-0.47,1.79-1.15l0.42,0.24c-0.46,0.88-1.28,1.38-2.28,1.38
			c-1.51,0-2.46-1.22-2.46-2.66c0-1.42,0.98-2.64,2.46-2.64c1.54,0,2.45,1.23,2.44,2.7H170.55z M174.47,54.29
			c-0.12-0.93-0.89-1.77-1.94-1.77c-1.03,0-1.89,0.81-1.98,1.77H174.47z"/>
		<path d="M181.71,53.09c-0.17-0.35-0.5-0.57-0.89-0.57c-0.43,0-0.87,0.35-0.87,0.79c0,1.22,2.48,0.63,2.48,2.46
			c0,0.93-0.73,1.58-1.64,1.58c-0.85,0-1.54-0.52-1.75-1.34l0.48-0.15c0.19,0.6,0.59,1.03,1.27,1.03c0.64,0,1.14-0.51,1.14-1.14
			c0-0.63-0.48-0.83-0.99-1c-0.69-0.25-1.48-0.55-1.48-1.41c0-0.77,0.65-1.29,1.39-1.29c0.52,0,1.08,0.34,1.3,0.81L181.71,53.09z"/>
		<path d="M188.52,54.71c0,1.51-1.18,2.65-2.67,2.65c-1.46,0-2.64-1.2-2.64-2.64c0-1.46,1.17-2.66,2.64-2.66
			C187.34,52.06,188.52,53.2,188.52,54.71z M183.7,54.72c0,1.16,0.91,2.18,2.11,2.18c1.24,0,2.21-0.95,2.21-2.18
			c0-1.25-0.96-2.2-2.21-2.2C184.6,52.52,183.7,53.54,183.7,54.72z"/>
		<path d="M190.21,52.81h0.02c0.23-0.47,0.74-0.75,1.28-0.75c0.65,0,1.17,0.33,1.43,0.92c0.28-0.61,0.84-0.92,1.48-0.92
			c1.31,0,1.57,0.89,1.57,2v3.19h-0.5v-3.26c0-0.78-0.12-1.47-1.09-1.47c-1.06,0-1.31,0.92-1.31,1.8v2.93h-0.49v-3.14
			c0-0.79-0.14-1.59-1.13-1.59c-1.07,0-1.27,1.11-1.27,1.94v2.79h-0.5v-5.08h0.5V52.81z"/>
		<path d="M197.69,54.75c-0.03,1.29,0.86,2.14,2.04,2.14c0.79,0,1.43-0.47,1.79-1.15l0.42,0.24c-0.46,0.88-1.28,1.38-2.28,1.38
			c-1.51,0-2.46-1.22-2.46-2.66c0-1.42,0.98-2.64,2.46-2.64c1.54,0,2.45,1.23,2.44,2.7H197.69z M201.61,54.29
			c-0.12-0.93-0.89-1.77-1.94-1.77c-1.03,0-1.89,0.81-1.98,1.77H201.61z"/>
		<path d="M207.6,50.48c0,0.25-0.2,0.45-0.45,0.45c-0.25,0-0.45-0.2-0.45-0.45c0-0.24,0.2-0.45,0.45-0.45
			C207.41,50.02,207.6,50.23,207.6,50.48z M207.39,57.25h-0.49v-5.08h0.49V57.25z"/>
		<path d="M209.78,52.96h0.02c0.3-0.56,0.85-0.9,1.51-0.9c1.31,0,1.67,0.81,1.67,2.12v3.07h-0.5v-3.07c0-0.91-0.11-1.66-1.22-1.66
			c-1.28,0-1.49,1.19-1.49,2.22v2.51h-0.49v-5.08h0.49V52.96z"/>
		<path d="M215.57,50.48c0,0.25-0.2,0.45-0.45,0.45c-0.25,0-0.45-0.2-0.45-0.45c0-0.24,0.2-0.45,0.45-0.45
			C215.37,50.02,215.57,50.23,215.57,50.48z M215.36,57.25h-0.5v-5.08h0.5V57.25z"/>
		<path d="M217.8,57.25h-0.49v-4.62h-0.56v-0.46h0.56v-1.81h0.49v1.81h0.89v0.46h-0.89V57.25z"/>
		<path d="M220.44,50.48c0,0.25-0.2,0.45-0.45,0.45c-0.25,0-0.45-0.2-0.45-0.45c0-0.24,0.2-0.45,0.45-0.45
			C220.24,50.02,220.44,50.23,220.44,50.48z M220.23,57.25h-0.5v-5.08h0.5V57.25z"/>
		<path d="M226.59,57.25h-0.49v-0.91h-0.02c-0.38,0.65-1.19,1.02-1.94,1.02c-1.54,0-2.51-1.2-2.51-2.68s0.96-2.62,2.49-2.62
			c0.78,0,1.53,0.35,1.96,0.99h0.02v-0.88h0.49V57.25z M222.12,54.68c0,1.17,0.77,2.22,2,2.22c1.3,0,2-1.06,2-2.28
			c0-1.18-0.8-2.1-2.04-2.1C222.93,52.52,222.12,53.58,222.12,54.68z"/>
		<path d="M228.78,57.25h-0.5v-9.08h0.5V57.25z"/>
		<path d="M233.88,48.18h0.49v4.87h0.02c0.43-0.64,1.18-0.99,1.96-0.99c1.52,0,2.49,1.13,2.49,2.62s-0.97,2.68-2.51,2.68
			c-0.75,0-1.56-0.38-1.94-1.02h-0.02v0.91h-0.49V48.18z M238.35,54.68c0-1.11-0.8-2.16-1.98-2.16c-1.29,0-2.02,0.96-2.02,2.17
			c0,1.19,0.75,2.21,2,2.21C237.59,56.9,238.35,55.84,238.35,54.68z"/>
		<path d="M244.86,54.71c0,1.51-1.18,2.65-2.67,2.65c-1.46,0-2.64-1.2-2.64-2.64c0-1.46,1.17-2.66,2.64-2.66
			C243.68,52.06,244.86,53.2,244.86,54.71z M240.04,54.72c0,1.16,0.91,2.18,2.11,2.18c1.24,0,2.21-0.95,2.21-2.18
			c0-1.25-0.96-2.2-2.21-2.2C240.95,52.52,240.04,53.54,240.04,54.72z"/>
		<path d="M249.63,52.17v3.05c0,0.52,0.01,1.03-0.31,1.46c-0.35,0.46-0.95,0.68-1.52,0.68s-1.17-0.22-1.52-0.68
			c-0.32-0.43-0.31-0.95-0.31-1.46v-3.05h0.5v2.87c0,0.98,0.11,1.86,1.33,1.86s1.33-0.88,1.33-1.86v-2.87H249.63z"/>
		<path d="M251.75,52.96h0.02c0.3-0.56,0.85-0.9,1.51-0.9c1.31,0,1.67,0.81,1.67,2.12v3.07h-0.49v-3.07c0-0.91-0.11-1.66-1.22-1.66
			c-1.28,0-1.48,1.19-1.48,2.22v2.51h-0.5v-5.08h0.5V52.96z"/>
		<path d="M260.54,53.35c-0.48-0.53-1.07-0.83-1.79-0.83c-1.2,0-2.1,1.02-2.1,2.18c0,1.15,0.89,2.2,2.09,2.2
			c0.73,0,1.41-0.35,1.87-0.91v0.67c-0.52,0.45-1.17,0.71-1.85,0.71c-1.51,0-2.61-1.18-2.61-2.66c0-1.47,1.12-2.64,2.62-2.64
			c0.66,0,1.27,0.2,1.77,0.63V53.35z"/>
		<path d="M261.89,54.75c-0.03,1.29,0.86,2.14,2.04,2.14c0.79,0,1.43-0.47,1.79-1.15l0.42,0.24c-0.46,0.88-1.28,1.38-2.28,1.38
			c-1.51,0-2.46-1.22-2.46-2.66c0-1.42,0.98-2.64,2.46-2.64c1.54,0,2.45,1.23,2.44,2.7H261.89z M265.8,54.29
			c-0.12-0.93-0.89-1.77-1.94-1.77c-1.03,0-1.89,0.81-1.98,1.77H265.8z"/>
		<path d="M269.63,53.09c-0.17-0.35-0.5-0.57-0.89-0.57c-0.43,0-0.87,0.35-0.87,0.79c0,1.22,2.48,0.63,2.48,2.46
			c0,0.93-0.73,1.58-1.64,1.58c-0.85,0-1.54-0.52-1.75-1.34l0.48-0.15c0.19,0.6,0.59,1.03,1.27,1.03c0.64,0,1.14-0.51,1.14-1.14
			c0-0.63-0.48-0.83-0.99-1c-0.69-0.25-1.48-0.55-1.48-1.41c0-0.77,0.65-1.29,1.39-1.29c0.52,0,1.08,0.34,1.3,0.81L269.63,53.09z"/>
		<path d="M279.5,57.25H279v-0.91h-0.02c-0.37,0.65-1.19,1.02-1.94,1.02c-1.54,0-2.51-1.2-2.51-2.68s0.96-2.62,2.49-2.62
			c0.78,0,1.53,0.35,1.96,0.99H279v-0.88h0.5V57.25z M275.03,54.68c0,1.17,0.77,2.22,2,2.22c1.3,0,2-1.06,2-2.28
			c0-1.18-0.8-2.1-2.04-2.1C275.84,52.52,275.03,53.58,275.03,54.68z"/>
		<path d="M281.69,52.96h0.02c0.3-0.56,0.85-0.9,1.51-0.9c1.31,0,1.67,0.81,1.67,2.12v3.07h-0.5v-3.07c0-0.91-0.11-1.66-1.22-1.66
			c-1.28,0-1.49,1.19-1.49,2.22v2.51h-0.49v-5.08h0.49V52.96z"/>
		<path d="M290.55,56.34h-0.02c-0.38,0.65-1.19,1.02-1.94,1.02c-1.54,0-2.51-1.2-2.51-2.68s0.96-2.62,2.49-2.62
			c0.78,0,1.53,0.35,1.96,0.99h0.02v-4.87h0.49v9.08h-0.49V56.34z M290.59,54.62c0-1.18-0.8-2.1-2.04-2.1
			c-1.17,0-1.97,1.06-1.97,2.16c0,1.17,0.77,2.22,2,2.22C289.88,56.9,290.59,55.84,290.59,54.62z"/>
		<path d="M300.7,57.01c0,0.78-0.02,1.49-0.51,2.16c-0.47,0.65-1.22,0.98-2.03,0.98c-1.33,0-2.43-0.78-2.51-2.18h0.49
			c0.06,1.06,0.95,1.71,1.97,1.71c0.64,0,1.25-0.22,1.63-0.76c0.4-0.58,0.45-1.24,0.45-1.93v-0.63h-0.02
			c-0.45,0.61-1.21,0.99-1.98,0.99c-1.47,0-2.46-1.24-2.46-2.66c0-1.46,1.05-2.64,2.53-2.64c0.82,0,1.44,0.35,1.91,0.99h0.02v-0.88
			h0.5V57.01z M296.23,54.68c0,1.17,0.77,2.22,2,2.22c1.3,0,2-1.06,2-2.28c0-1.18-0.8-2.1-2.04-2.1
			C297.03,52.52,296.23,53.58,296.23,54.68z"/>
		<path d="M302.39,54.75c-0.03,1.29,0.86,2.14,2.04,2.14c0.79,0,1.43-0.47,1.79-1.15l0.42,0.24c-0.46,0.88-1.28,1.38-2.28,1.38
			c-1.51,0-2.46-1.22-2.46-2.66c0-1.42,0.98-2.64,2.46-2.64c1.54,0,2.45,1.23,2.44,2.7H302.39z M306.31,54.29
			c-0.12-0.93-0.89-1.77-1.94-1.77c-1.04,0-1.89,0.81-1.98,1.77H306.31z"/>
		<path d="M308.55,57.25h-0.49v-4.62h-0.56v-0.46h0.56v-1.81h0.49v1.81h0.89v0.46h-0.89V57.25z"/>
		<path d="M317.29,52.17v3.05c0,0.52,0.01,1.03-0.31,1.46c-0.35,0.46-0.95,0.68-1.52,0.68s-1.17-0.22-1.52-0.68
			c-0.32-0.43-0.31-0.95-0.31-1.46v-3.05h0.5v2.87c0,0.98,0.11,1.86,1.33,1.86s1.33-0.88,1.33-1.86v-2.87H317.29z"/>
		<path d="M321.04,53.09c-0.16-0.35-0.49-0.57-0.89-0.57c-0.43,0-0.87,0.35-0.87,0.79c0,1.22,2.47,0.63,2.47,2.46
			c0,0.93-0.72,1.58-1.64,1.58c-0.85,0-1.54-0.52-1.75-1.34l0.48-0.15c0.19,0.6,0.59,1.03,1.27,1.03c0.64,0,1.14-0.51,1.14-1.14
			c0-0.63-0.48-0.83-0.99-1c-0.69-0.25-1.48-0.55-1.48-1.41c0-0.77,0.65-1.29,1.38-1.29c0.52,0,1.08,0.34,1.3,0.81L321.04,53.09z"/>
		<path d="M323.03,54.75c-0.03,1.29,0.86,2.14,2.04,2.14c0.79,0,1.43-0.47,1.79-1.15l0.42,0.24c-0.46,0.88-1.28,1.38-2.28,1.38
			c-1.51,0-2.46-1.22-2.46-2.66c0-1.42,0.98-2.64,2.46-2.64c1.54,0,2.45,1.23,2.44,2.7H323.03z M326.94,54.29
			c-0.12-0.93-0.89-1.77-1.94-1.77c-1.03,0-1.89,0.81-1.98,1.77H326.94z"/>
		<path d="M332.61,56.34h-0.02c-0.37,0.65-1.19,1.02-1.94,1.02c-1.54,0-2.51-1.2-2.51-2.68s0.96-2.62,2.49-2.62
			c0.78,0,1.53,0.35,1.96,0.99h0.02v-4.87h0.5v9.08h-0.5V56.34z M332.64,54.62c0-1.18-0.8-2.1-2.04-2.1c-1.17,0-1.97,1.06-1.97,2.16
			c0,1.17,0.77,2.22,2,2.22C331.94,56.9,332.64,55.84,332.64,54.62z"/>
		<path d="M338.76,57.25h-0.5v-4.62h-0.56v-0.46h0.56v-1.81h0.5v1.81h0.89v0.46h-0.89V57.25z"/>
		<path d="M345.32,54.71c0,1.51-1.18,2.65-2.67,2.65c-1.46,0-2.64-1.2-2.64-2.64c0-1.46,1.17-2.66,2.64-2.66
			C344.15,52.06,345.32,53.2,345.32,54.71z M340.51,54.72c0,1.16,0.91,2.18,2.11,2.18c1.24,0,2.21-0.95,2.21-2.18
			c0-1.25-0.96-2.2-2.21-2.2C341.41,52.52,340.51,53.54,340.51,54.72z"/>
		<path d="M350.48,57.25h-0.49v-4.62h-0.56v-0.46h0.56v-1.81h0.49v1.81h0.89v0.46h-0.89V57.25z"/>
		<path d="M352.73,48.18v4.79h0.02c0.3-0.56,0.85-0.9,1.51-0.9c1.31,0,1.67,0.81,1.67,2.12v3.07h-0.49v-3.07
			c0-0.91-0.11-1.66-1.22-1.66c-1.28,0-1.48,1.19-1.48,2.22v2.51h-0.5v-9.08H352.73z"/>
		<path d="M357.62,54.75c-0.03,1.29,0.86,2.14,2.04,2.14c0.79,0,1.43-0.47,1.79-1.15l0.42,0.24c-0.46,0.88-1.28,1.38-2.28,1.38
			c-1.51,0-2.46-1.22-2.46-2.66c0-1.42,0.98-2.64,2.46-2.64c1.54,0,2.45,1.23,2.44,2.7H357.62z M361.54,54.29
			c-0.12-0.93-0.89-1.77-1.94-1.77c-1.04,0-1.89,0.81-1.98,1.77H361.54z"/>
		<path d="M367.53,50.48c0,0.25-0.2,0.45-0.45,0.45c-0.25,0-0.45-0.2-0.45-0.45c0-0.24,0.2-0.45,0.45-0.45
			C367.33,50.02,367.53,50.23,367.53,50.48z M367.32,57.25h-0.5v-5.08h0.5V57.25z"/>
		<path d="M373.19,56.34h-0.02c-0.38,0.65-1.19,1.02-1.94,1.02c-1.54,0-2.51-1.2-2.51-2.68s0.96-2.62,2.49-2.62
			c0.78,0,1.53,0.35,1.96,0.99h0.02v-4.87h0.49v9.08h-0.49V56.34z M373.22,54.62c0-1.18-0.8-2.1-2.04-2.1
			c-1.17,0-1.97,1.06-1.97,2.16c0,1.17,0.77,2.22,2,2.22C372.52,56.9,373.22,55.84,373.22,54.62z"/>
		<path d="M375.38,54.75c-0.03,1.29,0.86,2.14,2.04,2.14c0.79,0,1.43-0.47,1.79-1.15l0.42,0.24c-0.46,0.88-1.28,1.38-2.28,1.38
			c-1.51,0-2.46-1.22-2.46-2.66c0-1.42,0.98-2.64,2.46-2.64c1.54,0,2.45,1.23,2.44,2.7H375.38z M379.29,54.29
			c-0.12-0.93-0.89-1.77-1.94-1.77c-1.03,0-1.89,0.81-1.98,1.77H379.29z"/>
		<path d="M385.45,57.25h-0.5v-0.91h-0.02c-0.37,0.65-1.19,1.02-1.94,1.02c-1.54,0-2.51-1.2-2.51-2.68s0.96-2.62,2.49-2.62
			c0.78,0,1.53,0.35,1.96,0.99h0.02v-0.88h0.5V57.25z M380.99,54.68c0,1.17,0.77,2.22,2,2.22c1.3,0,2-1.06,2-2.28
			c0-1.18-0.8-2.1-2.04-2.1C381.79,52.52,380.99,53.58,380.99,54.68z"/>
		<path d="M388.46,56.91c0,0.25-0.2,0.45-0.45,0.45c-0.25,0-0.45-0.2-0.45-0.45c0-0.25,0.2-0.45,0.45-0.45
			C388.26,56.46,388.46,56.66,388.46,56.91z"/>
	</g>
	<g>
		<rect x="81.39" y="127.49" class="st17" width="64.21" height="50.57"/>
		<path d="M86.38,136.56h-0.61l-2.71-3.93h-0.26v3.93h-0.53v-8.3h1.03c0.67,0,1.33,0.01,1.89,0.42c0.59,0.42,0.84,1.08,0.84,1.78
			c0,1.44-1,2.19-2.38,2.17L86.38,136.56z M83.48,132.14c0.52,0,1.04-0.02,1.45-0.38c0.4-0.32,0.58-0.81,0.58-1.31
			c0-0.62-0.29-1.23-0.88-1.5c-0.44-0.21-1-0.19-1.49-0.19h-0.34v3.38H83.48z"/>
		<path d="M87.6,134.06c-0.03,1.29,0.86,2.14,2.04,2.14c0.79,0,1.43-0.47,1.79-1.15l0.42,0.24c-0.46,0.88-1.28,1.38-2.28,1.38
			c-1.51,0-2.46-1.22-2.46-2.66c0-1.42,0.98-2.64,2.46-2.64c1.54,0,2.45,1.23,2.44,2.7H87.6z M91.52,133.6
			c-0.12-0.93-0.89-1.77-1.94-1.77c-1.03,0-1.89,0.81-1.98,1.77H91.52z"/>
		<path d="M95.35,132.4c-0.17-0.35-0.5-0.57-0.89-0.57c-0.43,0-0.87,0.35-0.87,0.79c0,1.22,2.48,0.63,2.48,2.46
			c0,0.93-0.73,1.58-1.64,1.58c-0.85,0-1.54-0.52-1.75-1.34l0.48-0.15c0.19,0.6,0.59,1.03,1.27,1.03c0.64,0,1.14-0.51,1.14-1.14
			c0-0.63-0.48-0.83-0.99-1c-0.69-0.25-1.48-0.55-1.48-1.41c0-0.77,0.65-1.29,1.39-1.29c0.52,0,1.08,0.34,1.3,0.81L95.35,132.4z"/>
		<path d="M97.34,134.06c-0.03,1.29,0.86,2.14,2.04,2.14c0.79,0,1.43-0.47,1.79-1.15l0.42,0.24c-0.46,0.88-1.28,1.38-2.28,1.38
			c-1.51,0-2.46-1.22-2.46-2.66c0-1.42,0.98-2.64,2.46-2.64c1.54,0,2.45,1.23,2.44,2.7H97.34z M101.26,133.6
			c-0.12-0.93-0.89-1.77-1.94-1.77c-1.04,0-1.89,0.81-1.98,1.77H101.26z"/>
		<path d="M107.42,136.56h-0.49v-0.91h-0.02c-0.38,0.65-1.19,1.02-1.94,1.02c-1.54,0-2.51-1.2-2.51-2.68s0.96-2.62,2.49-2.62
			c0.78,0,1.53,0.35,1.96,0.99h0.02v-0.88h0.49V136.56z M102.95,133.99c0,1.17,0.77,2.22,2,2.22c1.3,0,2-1.06,2-2.28
			c0-1.18-0.8-2.1-2.04-2.1C103.75,131.83,102.95,132.89,102.95,133.99z"/>
		<path d="M109.61,132.14h0.02c0.2-0.46,0.56-0.77,1.1-0.77c0.2,0,0.36,0.04,0.54,0.12l-0.27,0.44c-0.12-0.07-0.22-0.1-0.35-0.1
			c-1.11,0-1.04,1.39-1.04,2.13v2.6h-0.5v-5.08h0.5V132.14z"/>
		<path d="M116.06,132.66c-0.48-0.53-1.07-0.83-1.79-0.83c-1.2,0-2.1,1.02-2.1,2.18c0,1.15,0.89,2.2,2.09,2.2
			c0.73,0,1.41-0.35,1.87-0.91v0.67c-0.52,0.45-1.17,0.71-1.85,0.71c-1.51,0-2.61-1.18-2.61-2.66c0-1.47,1.12-2.64,2.62-2.64
			c0.66,0,1.27,0.2,1.77,0.63V132.66z"/>
		<path d="M117.91,127.49v4.79h0.02c0.3-0.56,0.85-0.9,1.51-0.9c1.31,0,1.67,0.81,1.67,2.12v3.07h-0.49v-3.07
			c0-0.91-0.11-1.66-1.22-1.66c-1.28,0-1.48,1.19-1.48,2.22v2.51h-0.5v-9.08H117.91z"/>
		<path d="M126.77,136.56h-0.5v-4.62h-0.56v-0.46h0.56v-1.81h0.5v1.81h0.89v0.46h-0.89V136.56z"/>
		<path d="M129.01,127.49v4.79h0.02c0.3-0.56,0.85-0.9,1.51-0.9c1.31,0,1.67,0.81,1.67,2.12v3.07h-0.5v-3.07
			c0-0.91-0.11-1.66-1.22-1.66c-1.28,0-1.49,1.19-1.49,2.22v2.51h-0.49v-9.08H129.01z"/>
		<path d="M133.9,134.06c-0.03,1.29,0.86,2.14,2.04,2.14c0.79,0,1.43-0.47,1.79-1.15l0.42,0.24c-0.46,0.88-1.28,1.38-2.28,1.38
			c-1.51,0-2.46-1.22-2.46-2.66c0-1.42,0.98-2.64,2.46-2.64c1.54,0,2.45,1.23,2.44,2.7H133.9z M137.82,133.6
			c-0.12-0.93-0.89-1.77-1.94-1.77c-1.03,0-1.89,0.81-1.98,1.77H137.82z"/>
		<path d="M86.13,145.86c-0.48-0.53-1.07-0.82-1.79-0.82c-1.2,0-2.1,1.02-2.1,2.18s0.89,2.2,2.09,2.2c0.73,0,1.41-0.35,1.87-0.91
			v0.67c-0.52,0.45-1.17,0.7-1.85,0.7c-1.51,0-2.61-1.18-2.61-2.66c0-1.47,1.12-2.64,2.62-2.64c0.66,0,1.27,0.2,1.77,0.63V145.86z"
			/>
		<path d="M91.95,149.76h-0.49v-0.91h-0.02c-0.38,0.65-1.19,1.02-1.94,1.02c-1.54,0-2.51-1.2-2.51-2.68c0-1.49,0.96-2.62,2.49-2.62
			c0.78,0,1.53,0.35,1.96,0.99h0.02v-0.88h0.49V149.76z M87.48,147.19c0,1.17,0.77,2.22,2,2.22c1.3,0,2-1.06,2-2.28
			c0-1.18-0.8-2.1-2.04-2.1C88.29,145.03,87.48,146.09,87.48,147.19z"/>
		<path d="M94.14,145.47h0.02c0.3-0.56,0.85-0.9,1.51-0.9c1.31,0,1.67,0.81,1.67,2.12v3.07h-0.49v-3.07c0-0.91-0.11-1.66-1.22-1.66
			c-1.28,0-1.48,1.19-1.48,2.22v2.51h-0.5v-5.08h0.5V145.47z"/>
		<path d="M100.58,148.87l1.8-4.19h0.51l-2.32,5.36l-2.33-5.36h0.51L100.58,148.87z"/>
		<path d="M108.26,149.76h-0.49v-0.91h-0.02c-0.38,0.65-1.19,1.02-1.94,1.02c-1.54,0-2.51-1.2-2.51-2.68c0-1.49,0.96-2.62,2.49-2.62
			c0.78,0,1.53,0.35,1.96,0.99h0.02v-0.88h0.49V149.76z M103.79,147.19c0,1.17,0.77,2.22,2,2.22c1.3,0,2-1.06,2-2.28
			c0-1.18-0.8-2.1-2.04-2.1C104.6,145.03,103.79,146.09,103.79,147.19z"/>
		<path d="M112.09,145.6c-0.16-0.35-0.49-0.57-0.89-0.57c-0.43,0-0.87,0.35-0.87,0.79c0,1.22,2.47,0.63,2.47,2.46
			c0,0.94-0.72,1.58-1.64,1.58c-0.85,0-1.54-0.52-1.75-1.34l0.48-0.15c0.19,0.61,0.59,1.03,1.27,1.03c0.64,0,1.14-0.51,1.14-1.14
			c0-0.63-0.48-0.83-0.99-1c-0.69-0.25-1.48-0.55-1.48-1.41c0-0.77,0.65-1.29,1.38-1.29c0.52,0,1.08,0.34,1.3,0.81L112.09,145.6z"/>
		<path d="M121.96,149.76h-0.49v-0.91h-0.02c-0.38,0.65-1.19,1.02-1.94,1.02c-1.54,0-2.51-1.2-2.51-2.68c0-1.49,0.96-2.62,2.49-2.62
			c0.78,0,1.53,0.35,1.96,0.99h0.02v-0.88h0.49V149.76z M117.49,147.19c0,1.17,0.77,2.22,2,2.22c1.3,0,2-1.06,2-2.28
			c0-1.18-0.8-2.1-2.04-2.1C118.29,145.03,117.49,146.09,117.49,147.19z"/>
		<path d="M124.15,145.34h0.02c0.2-0.46,0.56-0.77,1.1-0.77c0.2,0,0.36,0.04,0.54,0.12l-0.27,0.44c-0.12-0.07-0.22-0.1-0.35-0.1
			c-1.11,0-1.04,1.38-1.04,2.13v2.6h-0.5v-5.08h0.5V145.34z"/>
		<path d="M126.71,147.26c-0.03,1.29,0.86,2.15,2.04,2.15c0.79,0,1.43-0.47,1.79-1.16l0.42,0.24c-0.46,0.88-1.28,1.38-2.28,1.38
			c-1.51,0-2.46-1.22-2.46-2.66c0-1.42,0.98-2.64,2.46-2.64c1.54,0,2.45,1.23,2.44,2.7H126.71z M130.62,146.8
			c-0.12-0.93-0.89-1.77-1.94-1.77c-1.04,0-1.89,0.81-1.98,1.77H130.62z"/>
		<path d="M136.79,149.76h-0.49v-0.91h-0.02c-0.38,0.65-1.19,1.02-1.94,1.02c-1.54,0-2.51-1.2-2.51-2.68c0-1.49,0.96-2.62,2.49-2.62
			c0.78,0,1.53,0.35,1.96,0.99h0.02v-0.88h0.49V149.76z M132.32,147.19c0,1.17,0.77,2.22,2,2.22c1.3,0,2-1.06,2-2.28
			c0-1.18-0.8-2.1-2.04-2.1C133.12,145.03,132.32,146.09,132.32,147.19z"/>
		<path d="M86.7,162.96h-0.5v-0.91h-0.02c-0.37,0.65-1.19,1.02-1.94,1.02c-1.54,0-2.51-1.2-2.51-2.68c0-1.48,0.96-2.62,2.49-2.62
			c0.78,0,1.53,0.35,1.96,0.99h0.02v-0.88h0.5V162.96z M82.24,160.39c0,1.17,0.77,2.22,2,2.22c1.3,0,2-1.06,2-2.28
			c0-1.18-0.8-2.1-2.04-2.1C83.04,158.23,82.24,159.29,82.24,160.39z"/>
		<path d="M88.89,158.67h0.02c0.3-0.56,0.85-0.9,1.51-0.9c1.31,0,1.67,0.81,1.67,2.12v3.07h-0.5v-3.07c0-0.91-0.11-1.66-1.22-1.66
			c-1.28,0-1.49,1.19-1.49,2.22v2.51H88.4v-5.08h0.49V158.67z"/>
		<path d="M97.76,162.05h-0.02c-0.38,0.65-1.19,1.02-1.94,1.02c-1.54,0-2.51-1.2-2.51-2.68c0-1.48,0.96-2.62,2.49-2.62
			c0.78,0,1.53,0.35,1.96,0.99h0.02v-4.87h0.49v9.08h-0.49V162.05z M97.79,160.33c0-1.18-0.8-2.1-2.04-2.1
			c-1.17,0-1.97,1.06-1.97,2.16c0,1.17,0.77,2.22,2,2.22C97.09,162.61,97.79,161.55,97.79,160.33z"/>
		<path d="M103.85,162.96h-0.5v-9.08h0.5V162.96z"/>
		<path d="M105.54,160.46c-0.03,1.29,0.86,2.15,2.04,2.15c0.79,0,1.43-0.47,1.79-1.16l0.42,0.24c-0.46,0.88-1.28,1.38-2.28,1.38
			c-1.51,0-2.46-1.22-2.46-2.66c0-1.42,0.98-2.64,2.46-2.64c1.54,0,2.45,1.23,2.44,2.7H105.54z M109.46,160
			c-0.12-0.94-0.89-1.77-1.94-1.77c-1.04,0-1.89,0.81-1.98,1.77H109.46z"/>
		<path d="M115.62,162.96h-0.49v-0.91h-0.02c-0.38,0.65-1.19,1.02-1.94,1.02c-1.54,0-2.51-1.2-2.51-2.68c0-1.48,0.96-2.62,2.49-2.62
			c0.78,0,1.53,0.35,1.96,0.99h0.02v-0.88h0.49V162.96z M111.15,160.39c0,1.17,0.77,2.22,2,2.22c1.3,0,2-1.06,2-2.28
			c0-1.18-0.8-2.1-2.04-2.1C111.96,158.23,111.15,159.29,111.15,160.39z"/>
		<path d="M117.81,158.54h0.02c0.2-0.46,0.56-0.77,1.1-0.77c0.2,0,0.36,0.04,0.54,0.12l-0.27,0.44c-0.12-0.07-0.22-0.1-0.35-0.1
			c-1.11,0-1.04,1.39-1.04,2.13v2.6h-0.5v-5.08h0.5V158.54z"/>
		<path d="M120.96,158.67h0.02c0.3-0.56,0.85-0.9,1.51-0.9c1.31,0,1.67,0.81,1.67,2.12v3.07h-0.5v-3.07c0-0.91-0.11-1.66-1.22-1.66
			c-1.28,0-1.49,1.19-1.49,2.22v2.51h-0.49v-5.08h0.49V158.67z"/>
		<path d="M129.81,162.96h-0.49v-4.62h-0.56v-0.46h0.56v-1.82h0.49v1.82h0.89v0.46h-0.89V162.96z"/>
		<path d="M132.05,153.89v4.79h0.02c0.3-0.56,0.85-0.9,1.51-0.9c1.31,0,1.67,0.81,1.67,2.12v3.07h-0.49v-3.07
			c0-0.91-0.11-1.66-1.22-1.66c-1.28,0-1.48,1.19-1.48,2.22v2.51h-0.5v-9.08H132.05z"/>
		<path d="M136.95,160.46c-0.03,1.29,0.86,2.15,2.04,2.15c0.79,0,1.43-0.47,1.79-1.16l0.42,0.24c-0.46,0.88-1.28,1.38-2.28,1.38
			c-1.51,0-2.46-1.22-2.46-2.66c0-1.42,0.98-2.64,2.46-2.64c1.54,0,2.45,1.23,2.44,2.7H136.95z M140.87,160
			c-0.12-0.94-0.89-1.77-1.94-1.77c-1.04,0-1.89,0.81-1.98,1.77H140.87z"/>
		<path d="M82.24,167.09h0.49v4.87h0.02c0.43-0.64,1.18-0.99,1.96-0.99c1.52,0,2.49,1.13,2.49,2.62s-0.97,2.68-2.51,2.68
			c-0.75,0-1.56-0.38-1.94-1.02h-0.02v0.91h-0.49V167.09z M86.7,173.59c0-1.11-0.8-2.16-1.98-2.16c-1.29,0-2.02,0.96-2.02,2.17
			c0,1.19,0.75,2.21,2,2.21C85.94,175.81,86.7,174.75,86.7,173.59z"/>
		<path d="M93.21,173.62c0,1.51-1.18,2.65-2.67,2.65c-1.46,0-2.64-1.2-2.64-2.64c0-1.46,1.17-2.66,2.64-2.66
			C92.04,170.97,93.21,172.11,93.21,173.62z M88.4,173.63c0,1.16,0.91,2.18,2.11,2.18c1.24,0,2.21-0.95,2.21-2.18
			c0-1.25-0.96-2.2-2.21-2.2C89.3,171.43,88.4,172.45,88.4,173.63z"/>
		<path d="M97.99,171.08v3.05c0,0.52,0.01,1.03-0.31,1.46c-0.35,0.46-0.95,0.68-1.52,0.68s-1.17-0.22-1.52-0.68
			c-0.32-0.43-0.31-0.95-0.31-1.46v-3.05h0.5v2.87c0,0.98,0.11,1.86,1.33,1.86s1.33-0.88,1.33-1.86v-2.87H97.99z"/>
		<path d="M100.1,171.87h0.02c0.3-0.56,0.85-0.9,1.51-0.9c1.31,0,1.67,0.81,1.67,2.12v3.07h-0.49v-3.07c0-0.91-0.11-1.66-1.22-1.66
			c-1.28,0-1.48,1.19-1.48,2.22v2.51h-0.5v-5.08h0.5V171.87z"/>
		<path d="M108.96,175.25h-0.02c-0.37,0.65-1.19,1.02-1.94,1.02c-1.54,0-2.51-1.2-2.51-2.68s0.96-2.62,2.49-2.62
			c0.78,0,1.53,0.35,1.96,0.99h0.02v-4.87h0.5v9.08h-0.5V175.25z M109,173.53c0-1.18-0.8-2.1-2.04-2.1c-1.17,0-1.97,1.06-1.97,2.16
			c0,1.17,0.77,2.22,2,2.22C108.29,175.81,109,174.75,109,173.53z"/>
		<path d="M115.62,176.16h-0.5v-0.91h-0.02c-0.37,0.65-1.19,1.02-1.94,1.02c-1.54,0-2.51-1.2-2.51-2.68s0.96-2.62,2.49-2.62
			c0.78,0,1.53,0.35,1.96,0.99h0.02v-0.88h0.5V176.16z M111.15,173.59c0,1.17,0.77,2.22,2,2.22c1.3,0,2-1.06,2-2.28
			c0-1.18-0.8-2.1-2.04-2.1C111.96,171.43,111.15,172.49,111.15,173.59z"/>
		<path d="M117.81,171.74h0.02c0.2-0.46,0.56-0.77,1.1-0.77c0.2,0,0.36,0.04,0.54,0.12l-0.26,0.44c-0.12-0.07-0.22-0.1-0.35-0.1
			c-1.11,0-1.05,1.39-1.05,2.13v2.6h-0.49v-5.08h0.49V171.74z"/>
		<path d="M121.26,169.39c0,0.25-0.2,0.45-0.45,0.45c-0.25,0-0.45-0.2-0.45-0.45c0-0.24,0.2-0.45,0.45-0.45
			C121.06,168.93,121.26,169.14,121.26,169.39z M121.05,176.16h-0.5v-5.08h0.5V176.16z"/>
		<path d="M122.95,173.66c-0.03,1.29,0.86,2.14,2.04,2.14c0.79,0,1.43-0.47,1.79-1.15l0.42,0.24c-0.46,0.88-1.28,1.38-2.28,1.38
			c-1.51,0-2.46-1.22-2.46-2.66c0-1.42,0.98-2.64,2.46-2.64c1.54,0,2.45,1.23,2.44,2.7H122.95z M126.86,173.2
			c-0.12-0.93-0.89-1.77-1.94-1.77c-1.03,0-1.89,0.81-1.98,1.77H126.86z"/>
		<path d="M130.69,172c-0.17-0.35-0.5-0.57-0.89-0.57c-0.43,0-0.87,0.35-0.87,0.79c0,1.22,2.48,0.63,2.48,2.46
			c0,0.93-0.73,1.58-1.64,1.58c-0.85,0-1.54-0.52-1.75-1.34l0.48-0.15c0.19,0.6,0.59,1.03,1.27,1.03c0.64,0,1.14-0.51,1.14-1.14
			c0-0.63-0.48-0.83-0.99-1c-0.69-0.25-1.48-0.55-1.48-1.41c0-0.77,0.65-1.29,1.39-1.29c0.52,0,1.08,0.34,1.3,0.81L130.69,172z"/>
		<path d="M133.99,175.82c0,0.25-0.2,0.45-0.45,0.45c-0.25,0-0.45-0.2-0.45-0.45c0-0.25,0.2-0.45,0.45-0.45
			C133.79,175.37,133.99,175.57,133.99,175.82z"/>
	</g>
	<g>
		<rect x="181.15" y="140.02" class="st17" width="104.52" height="40.49"/>
		<path d="M183.89,149.1h-0.53v-7.8h-2.14v-0.5h4.82v0.5h-2.14V149.1z"/>
		<path d="M190.31,149.1h-0.49v-0.91h-0.02c-0.38,0.65-1.19,1.02-1.94,1.02c-1.54,0-2.51-1.2-2.51-2.68s0.96-2.62,2.49-2.62
			c0.78,0,1.53,0.35,1.96,0.99h0.02v-0.88h0.49V149.1z M185.85,146.52c0,1.17,0.77,2.22,2,2.22c1.3,0,2-1.06,2-2.28
			c0-1.18-0.8-2.1-2.04-2.1C186.65,144.37,185.85,145.42,185.85,146.52z"/>
		<path d="M192.5,146.17l2.09-2.16h0.64l-2.13,2.2l2.85,2.88h-0.65l-2.52-2.54l-0.28,0.29v2.25h-0.5v-9.08h0.5V146.17z"/>
		<path d="M196.7,146.6c-0.03,1.29,0.86,2.14,2.04,2.14c0.79,0,1.43-0.47,1.79-1.15l0.42,0.24c-0.46,0.88-1.28,1.38-2.28,1.38
			c-1.51,0-2.46-1.22-2.46-2.66c0-1.42,0.98-2.64,2.46-2.64c1.54,0,2.45,1.23,2.44,2.7H196.7z M200.62,146.14
			c-0.12-0.93-0.89-1.77-1.94-1.77c-1.03,0-1.89,0.81-1.98,1.77H200.62z"/>
		<path d="M210.19,149.1h-0.5v-0.91h-0.02c-0.37,0.65-1.19,1.02-1.94,1.02c-1.54,0-2.51-1.2-2.51-2.68s0.96-2.62,2.49-2.62
			c0.78,0,1.53,0.35,1.96,0.99h0.02v-0.88h0.5V149.1z M205.72,146.52c0,1.17,0.77,2.22,2,2.22c1.3,0,2-1.06,2-2.28
			c0-1.18-0.8-2.1-2.04-2.1C206.53,144.37,205.72,145.42,205.72,146.52z"/>
		<path d="M214.02,144.94c-0.17-0.35-0.5-0.57-0.89-0.57c-0.43,0-0.87,0.35-0.87,0.79c0,1.22,2.48,0.63,2.48,2.46
			c0,0.93-0.73,1.58-1.64,1.58c-0.85,0-1.54-0.52-1.75-1.34l0.48-0.15c0.19,0.6,0.59,1.03,1.27,1.03c0.64,0,1.14-0.51,1.14-1.14
			c0-0.63-0.48-0.83-0.99-1c-0.69-0.25-1.48-0.55-1.48-1.41c0-0.77,0.65-1.29,1.39-1.29c0.52,0,1.08,0.34,1.3,0.81L214.02,144.94z"
			/>
		<path d="M219.91,144.65h0.02c0.23-0.47,0.74-0.75,1.28-0.75c0.65,0,1.17,0.33,1.43,0.92c0.28-0.61,0.84-0.92,1.49-0.92
			c1.31,0,1.57,0.89,1.57,2v3.19h-0.49v-3.26c0-0.78-0.12-1.47-1.09-1.47c-1.06,0-1.31,0.92-1.31,1.8v2.93h-0.5v-3.14
			c0-0.79-0.14-1.59-1.13-1.59c-1.07,0-1.27,1.11-1.27,1.94v2.79h-0.49v-5.08h0.49V144.65z"/>
		<path d="M231.86,149.1h-0.5v-0.91h-0.02c-0.37,0.65-1.19,1.02-1.94,1.02c-1.54,0-2.51-1.2-2.51-2.68s0.96-2.62,2.49-2.62
			c0.78,0,1.53,0.35,1.96,0.99h0.02v-0.88h0.5V149.1z M227.39,146.52c0,1.17,0.77,2.22,2,2.22c1.3,0,2-1.06,2-2.28
			c0-1.18-0.8-2.1-2.04-2.1C228.2,144.37,227.39,145.42,227.39,146.52z"/>
		<path d="M234.05,144.81h0.02c0.3-0.56,0.85-0.9,1.51-0.9c1.31,0,1.67,0.81,1.67,2.12v3.07h-0.5v-3.07c0-0.91-0.11-1.66-1.22-1.66
			c-1.28,0-1.49,1.19-1.49,2.22v2.51h-0.49v-5.08h0.49V144.81z"/>
		<path d="M238.02,144.02h0.52l2.17,4.6l1.95-4.6h0.51l-3.41,8.05h-0.51l1.22-2.88L238.02,144.02z"/>
		<path d="M247.41,140.02h0.49v4.87h0.02c0.43-0.64,1.18-0.99,1.96-0.99c1.52,0,2.49,1.13,2.49,2.62s-0.97,2.68-2.51,2.68
			c-0.75,0-1.56-0.38-1.94-1.02h-0.02v0.91h-0.49V140.02z M251.88,146.52c0-1.11-0.8-2.16-1.98-2.16c-1.29,0-2.02,0.96-2.02,2.17
			c0,1.19,0.75,2.21,2,2.21C251.12,148.75,251.88,147.69,251.88,146.52z"/>
		<path d="M258.39,146.56c0,1.51-1.18,2.65-2.67,2.65c-1.46,0-2.64-1.2-2.64-2.64c0-1.46,1.17-2.66,2.64-2.66
			C257.21,143.91,258.39,145.05,258.39,146.56z M253.57,146.57c0,1.16,0.91,2.18,2.11,2.18c1.24,0,2.21-0.95,2.21-2.18
			c0-1.25-0.96-2.2-2.21-2.2C254.48,144.37,253.57,145.39,253.57,146.57z"/>
		<path d="M263.17,144.02v3.05c0,0.52,0.01,1.03-0.31,1.46c-0.35,0.46-0.95,0.68-1.52,0.68s-1.17-0.22-1.52-0.68
			c-0.32-0.43-0.31-0.95-0.31-1.46v-3.05h0.5v2.87c0,0.98,0.11,1.86,1.33,1.86s1.33-0.88,1.33-1.86v-2.87H263.17z"/>
		<path d="M265.28,144.81h0.02c0.3-0.56,0.85-0.9,1.51-0.9c1.31,0,1.67,0.81,1.67,2.12v3.07h-0.49v-3.07c0-0.91-0.11-1.66-1.22-1.66
			c-1.28,0-1.48,1.19-1.48,2.22v2.51h-0.5v-5.08h0.5V144.81z"/>
		<path d="M274.07,145.19c-0.48-0.53-1.07-0.83-1.79-0.83c-1.2,0-2.1,1.02-2.1,2.18c0,1.15,0.89,2.2,2.09,2.2
			c0.73,0,1.41-0.35,1.87-0.91v0.67c-0.52,0.45-1.17,0.71-1.85,0.71c-1.51,0-2.61-1.18-2.61-2.66c0-1.47,1.12-2.64,2.62-2.64
			c0.66,0,1.27,0.2,1.77,0.63V145.19z"/>
		<path d="M275.42,146.6c-0.03,1.29,0.86,2.14,2.04,2.14c0.79,0,1.43-0.47,1.79-1.15l0.42,0.24c-0.46,0.88-1.28,1.38-2.28,1.38
			c-1.51,0-2.46-1.22-2.46-2.66c0-1.42,0.98-2.64,2.46-2.64c1.54,0,2.45,1.23,2.44,2.7H275.42z M279.34,146.14
			c-0.12-0.93-0.89-1.77-1.94-1.77c-1.03,0-1.89,0.81-1.98,1.77H279.34z"/>
		<path d="M283.16,144.94c-0.17-0.35-0.5-0.57-0.89-0.57c-0.43,0-0.87,0.35-0.87,0.79c0,1.22,2.48,0.63,2.48,2.46
			c0,0.93-0.73,1.58-1.64,1.58c-0.85,0-1.54-0.52-1.75-1.34l0.48-0.15c0.19,0.6,0.59,1.03,1.27,1.03c0.64,0,1.14-0.51,1.14-1.14
			c0-0.63-0.48-0.83-0.99-1c-0.69-0.25-1.48-0.55-1.48-1.41c0-0.77,0.65-1.29,1.39-1.29c0.52,0,1.08,0.34,1.3,0.81L283.16,144.94z"
			/>
		<path d="M186.46,162.3h-0.5v-0.91h-0.02c-0.37,0.65-1.19,1.02-1.94,1.02c-1.54,0-2.51-1.2-2.51-2.68c0-1.49,0.96-2.62,2.49-2.62
			c0.78,0,1.53,0.35,1.96,0.99h0.02v-0.88h0.5V162.3z M182,159.73c0,1.17,0.77,2.22,2,2.22c1.3,0,2-1.06,2-2.28
			c0-1.18-0.8-2.1-2.04-2.1C182.8,157.57,182,158.62,182,159.73z"/>
		<path d="M190.29,158.14c-0.17-0.35-0.5-0.57-0.89-0.57c-0.43,0-0.87,0.35-0.87,0.79c0,1.22,2.48,0.63,2.48,2.46
			c0,0.94-0.73,1.58-1.64,1.58c-0.85,0-1.54-0.52-1.75-1.34l0.48-0.15c0.19,0.61,0.59,1.03,1.27,1.03c0.64,0,1.14-0.51,1.14-1.14
			c0-0.63-0.48-0.83-0.99-1c-0.69-0.25-1.48-0.55-1.48-1.41c0-0.77,0.65-1.29,1.39-1.29c0.52,0,1.08,0.34,1.3,0.81L190.29,158.14z"
			/>
		<path d="M196.19,158.01h0.02c0.3-0.56,0.85-0.9,1.51-0.9c1.31,0,1.67,0.81,1.67,2.12v3.07h-0.5v-3.07c0-0.91-0.11-1.66-1.22-1.66
			c-1.28,0-1.49,1.19-1.49,2.22v2.51h-0.49v-5.08h0.49V158.01z"/>
		<path d="M201.08,159.8c-0.03,1.29,0.86,2.15,2.04,2.15c0.79,0,1.43-0.47,1.79-1.16l0.42,0.24c-0.46,0.88-1.28,1.38-2.28,1.38
			c-1.51,0-2.46-1.22-2.46-2.66c0-1.42,0.98-2.64,2.46-2.64c1.54,0,2.45,1.23,2.44,2.7H201.08z M205,159.34
			c-0.12-0.93-0.89-1.77-1.94-1.77c-1.03,0-1.89,0.81-1.98,1.77H205z"/>
		<path d="M206.69,159.8c-0.03,1.29,0.86,2.15,2.04,2.15c0.79,0,1.43-0.47,1.79-1.16l0.42,0.24c-0.46,0.88-1.28,1.38-2.28,1.38
			c-1.51,0-2.46-1.22-2.46-2.66c0-1.42,0.98-2.64,2.46-2.64c1.54,0,2.45,1.23,2.44,2.7H206.69z M210.61,159.34
			c-0.12-0.93-0.89-1.77-1.94-1.77c-1.04,0-1.89,0.81-1.98,1.77H210.61z"/>
		<path d="M216.27,161.39h-0.02c-0.38,0.65-1.19,1.02-1.94,1.02c-1.54,0-2.51-1.2-2.51-2.68c0-1.49,0.96-2.62,2.49-2.62
			c0.78,0,1.53,0.35,1.96,0.99h0.02v-4.87h0.49v9.08h-0.49V161.39z M216.31,159.67c0-1.18-0.8-2.1-2.04-2.1
			c-1.17,0-1.97,1.06-1.97,2.16c0,1.17,0.77,2.22,2,2.22C215.6,161.95,216.31,160.89,216.31,159.67z"/>
		<path d="M218.46,159.8c-0.03,1.29,0.86,2.15,2.04,2.15c0.79,0,1.43-0.47,1.79-1.16l0.42,0.24c-0.46,0.88-1.28,1.38-2.28,1.38
			c-1.51,0-2.46-1.22-2.46-2.66c0-1.42,0.98-2.64,2.46-2.64c1.54,0,2.45,1.23,2.44,2.7H218.46z M222.38,159.34
			c-0.12-0.93-0.89-1.77-1.94-1.77c-1.03,0-1.89,0.81-1.98,1.77H222.38z"/>
		<path d="M228.04,161.39h-0.02c-0.37,0.65-1.19,1.02-1.94,1.02c-1.54,0-2.51-1.2-2.51-2.68c0-1.49,0.96-2.62,2.49-2.62
			c0.78,0,1.53,0.35,1.96,0.99h0.02v-4.87h0.5v9.08h-0.5V161.39z M228.08,159.67c0-1.18-0.8-2.1-2.04-2.1
			c-1.17,0-1.97,1.06-1.97,2.16c0,1.17,0.77,2.22,2,2.22C227.37,161.95,228.08,160.89,228.08,159.67z"/>
		<path d="M233.64,153.22h0.49v4.87h0.02c0.43-0.64,1.18-0.99,1.96-0.99c1.52,0,2.49,1.13,2.49,2.62c0,1.48-0.97,2.68-2.51,2.68
			c-0.75,0-1.56-0.37-1.94-1.02h-0.02v0.91h-0.49V153.22z M238.11,159.73c0-1.11-0.8-2.16-1.98-2.16c-1.29,0-2.02,0.96-2.02,2.17
			c0,1.19,0.75,2.21,2,2.21C237.35,161.95,238.11,160.89,238.11,159.73z"/>
		<path d="M243.38,157.22v3.05c0,0.52,0.01,1.03-0.31,1.46c-0.35,0.46-0.95,0.68-1.52,0.68s-1.17-0.22-1.52-0.68
			c-0.32-0.43-0.31-0.95-0.31-1.46v-3.05h0.49v2.87c0,0.98,0.11,1.86,1.33,1.86c1.22,0,1.33-0.88,1.33-1.86v-2.87H243.38z"/>
		<path d="M245.54,162.3h-0.5v-4.62h-0.56v-0.46h0.56v-1.82h0.5v1.82h0.89v0.46h-0.89V162.3z"/>
		<path d="M254.67,161.39h-0.02c-0.37,0.65-1.19,1.02-1.94,1.02c-1.54,0-2.51-1.2-2.51-2.68c0-1.49,0.96-2.62,2.49-2.62
			c0.78,0,1.53,0.35,1.96,0.99h0.02v-4.87h0.5v9.08h-0.5V161.39z M254.71,159.67c0-1.18-0.8-2.1-2.04-2.1
			c-1.17,0-1.97,1.06-1.97,2.16c0,1.17,0.77,2.22,2,2.22C254,161.95,254.71,160.89,254.71,159.67z"/>
		<path d="M261.68,159.76c0,1.51-1.18,2.65-2.67,2.65c-1.46,0-2.64-1.2-2.64-2.64c0-1.46,1.17-2.66,2.64-2.66
			C260.5,157.11,261.68,158.25,261.68,159.76z M256.86,159.77c0,1.16,0.91,2.18,2.11,2.18c1.24,0,2.21-0.95,2.21-2.18
			c0-1.25-0.96-2.2-2.21-2.2C257.77,157.57,256.86,158.59,256.86,159.77z"/>
		<path d="M263.38,158.01h0.02c0.3-0.56,0.85-0.9,1.51-0.9c1.31,0,1.67,0.81,1.67,2.12v3.07h-0.49v-3.07c0-0.91-0.11-1.66-1.22-1.66
			c-1.28,0-1.48,1.19-1.48,2.22v2.51h-0.5v-5.08h0.5V158.01z"/>
		<path d="M269.47,154.04l-0.91,2.5l-0.33-0.12l0.75-2.52L269.47,154.04z"/>
		<path d="M271.45,162.3h-0.5v-4.62h-0.56v-0.46h0.56v-1.82h0.5v1.82h0.89v0.46h-0.89V162.3z"/>
		<path d="M186.54,175.26c0,0.78-0.02,1.49-0.51,2.16c-0.47,0.65-1.22,0.98-2.02,0.98c-1.33,0-2.43-0.78-2.51-2.18H182
			c0.05,1.06,0.95,1.72,1.97,1.72c0.64,0,1.25-0.22,1.63-0.76c0.4-0.58,0.45-1.24,0.45-1.92v-0.63h-0.02
			c-0.45,0.6-1.21,0.99-1.98,0.99c-1.47,0-2.46-1.24-2.46-2.66c0-1.46,1.04-2.64,2.53-2.64c0.83,0,1.44,0.35,1.92,0.99h0.02v-0.88
			h0.49V175.26z M182.07,172.92c0,1.17,0.77,2.22,2,2.22c1.3,0,2-1.06,2-2.28c0-1.18-0.8-2.1-2.04-2.1
			C182.88,170.77,182.07,171.82,182.07,172.92z"/>
		<path d="M193.05,172.96c0,1.51-1.18,2.65-2.67,2.65c-1.46,0-2.64-1.2-2.64-2.64c0-1.46,1.17-2.66,2.64-2.66
			C191.88,170.31,193.05,171.45,193.05,172.96z M188.23,172.97c0,1.15,0.91,2.18,2.11,2.18c1.24,0,2.21-0.95,2.21-2.18
			c0-1.25-0.96-2.2-2.21-2.2C189.13,170.77,188.23,171.79,188.23,172.97z"/>
		<path d="M202.48,172.96c0,1.51-1.18,2.65-2.67,2.65c-1.46,0-2.64-1.2-2.64-2.64c0-1.46,1.17-2.66,2.64-2.66
			C201.3,170.31,202.48,171.45,202.48,172.96z M197.66,172.97c0,1.15,0.91,2.18,2.11,2.18c1.24,0,2.21-0.95,2.21-2.18
			c0-1.25-0.96-2.2-2.21-2.2C198.56,170.77,197.66,171.79,197.66,172.97z"/>
		<path d="M205.23,174.61l1.8-4.19h0.51l-2.32,5.36l-2.33-5.36h0.51L205.23,174.61z"/>
		<path d="M208.44,173c-0.03,1.29,0.86,2.15,2.04,2.15c0.79,0,1.43-0.47,1.79-1.16l0.42,0.24c-0.46,0.88-1.28,1.38-2.28,1.38
			c-1.51,0-2.46-1.22-2.46-2.66c0-1.42,0.98-2.64,2.46-2.64c1.54,0,2.45,1.23,2.44,2.7H208.44z M212.36,172.54
			c-0.12-0.94-0.89-1.77-1.94-1.77c-1.04,0-1.89,0.81-1.98,1.77H212.36z"/>
		<path d="M214.54,171.08h0.02c0.2-0.46,0.56-0.77,1.1-0.77c0.2,0,0.36,0.04,0.54,0.12l-0.27,0.44c-0.12-0.07-0.22-0.1-0.35-0.1
			c-1.11,0-1.04,1.39-1.04,2.13v2.6h-0.5v-5.08h0.5V171.08z"/>
		<path d="M217.11,166.42h0.49v4.87h0.02c0.43-0.64,1.18-0.99,1.96-0.99c1.52,0,2.49,1.13,2.49,2.62c0,1.49-0.97,2.68-2.51,2.68
			c-0.75,0-1.56-0.37-1.94-1.02h-0.02v0.91h-0.49V166.42z M221.57,172.92c0-1.11-0.8-2.16-1.98-2.16c-1.29,0-2.02,0.96-2.02,2.17
			c0,1.19,0.75,2.21,2,2.21C220.81,175.15,221.57,174.09,221.57,172.92z"/>
		<path d="M228.09,172.96c0,1.51-1.18,2.65-2.67,2.65c-1.46,0-2.64-1.2-2.64-2.64c0-1.46,1.17-2.66,2.64-2.66
			C226.91,170.31,228.09,171.45,228.09,172.96z M223.27,172.97c0,1.15,0.91,2.18,2.11,2.18c1.24,0,2.21-0.95,2.21-2.18
			c0-1.25-0.96-2.2-2.21-2.2C224.17,170.77,223.27,171.79,223.27,172.97z"/>
		<path d="M233.75,175.5h-0.49v-0.91h-0.02c-0.38,0.65-1.19,1.02-1.94,1.02c-1.54,0-2.51-1.2-2.51-2.68c0-1.48,0.96-2.62,2.49-2.62
			c0.78,0,1.53,0.35,1.96,0.99h0.02v-0.88h0.49V175.5z M229.28,172.92c0,1.17,0.77,2.22,2,2.22c1.3,0,2-1.06,2-2.28
			c0-1.18-0.8-2.1-2.04-2.1C230.09,170.77,229.28,171.82,229.28,172.92z"/>
		<path d="M235.94,171.08h0.02c0.2-0.46,0.56-0.77,1.1-0.77c0.2,0,0.36,0.04,0.54,0.12l-0.27,0.44c-0.12-0.07-0.22-0.1-0.35-0.1
			c-1.11,0-1.04,1.39-1.04,2.13v2.6h-0.5v-5.08h0.5V171.08z"/>
		<path d="M242.47,174.59h-0.02c-0.37,0.65-1.19,1.02-1.94,1.02c-1.54,0-2.51-1.2-2.51-2.68c0-1.48,0.96-2.62,2.49-2.62
			c0.78,0,1.53,0.35,1.96,0.99h0.02v-4.87h0.5v9.08h-0.5V174.59z M242.51,172.87c0-1.18-0.8-2.1-2.04-2.1
			c-1.17,0-1.97,1.06-1.97,2.16c0,1.17,0.77,2.22,2,2.22C241.8,175.15,242.51,174.09,242.51,172.87z"/>
		<path d="M245.99,174.84l-0.91,2.49l-0.33-0.12l0.75-2.52L245.99,174.84z"/>
	</g>
	<g>
		<g>
			<path class="st8" d="M40,22.73v38.72h-5.03V27.2h-3.8v-4.47H40z"/>
		</g>
		<circle class="st23" cx="37.14" cy="42.23" r="26.27"/>
	</g>
</g>
</svg>
